%TF.GenerationSoftware,KiCad,Pcbnew,7.0.5*%
%TF.CreationDate,2023-08-11T22:31:06-05:00*%
%TF.ProjectId,ArkeyV2,41726b65-7956-4322-9e6b-696361645f70,rev?*%
%TF.SameCoordinates,Original*%
%TF.FileFunction,Drillmap*%
%TF.FilePolarity,Positive*%
%FSLAX45Y45*%
G04 Gerber Fmt 4.5, Leading zero omitted, Abs format (unit mm)*
G04 Created by KiCad (PCBNEW 7.0.5) date 2023-08-11 22:31:06*
%MOMM*%
%LPD*%
G01*
G04 APERTURE LIST*
%ADD10C,0.100000*%
%ADD11C,0.200000*%
%ADD12C,0.040000*%
%ADD13C,0.102000*%
G04 APERTURE END LIST*
D10*
X6400800Y-2641600D02*
X24892000Y-2641600D01*
X24892000Y-14071600D01*
X6400800Y-14071600D01*
X6400800Y-2641600D01*
D11*
D12*
X8870000Y-8971600D02*
X8910000Y-9011600D01*
X8910000Y-8971600D02*
X8870000Y-9011600D01*
X10241600Y-2977200D02*
X10281600Y-3017200D01*
X10281600Y-2977200D02*
X10241600Y-3017200D01*
X10648000Y-9733600D02*
X10688000Y-9773600D01*
X10688000Y-9733600D02*
X10648000Y-9773600D01*
X11562400Y-8209600D02*
X11602400Y-8249600D01*
X11602400Y-8209600D02*
X11562400Y-8249600D01*
X12375200Y-3383600D02*
X12415200Y-3423600D01*
X12415200Y-3383600D02*
X12375200Y-3423600D01*
X12426000Y-10444800D02*
X12466000Y-10484800D01*
X12466000Y-10444800D02*
X12426000Y-10484800D01*
X15575600Y-9124000D02*
X15615600Y-9164000D01*
X15615600Y-9124000D02*
X15575600Y-9164000D01*
X16591600Y-11613200D02*
X16631600Y-11653200D01*
X16631600Y-11613200D02*
X16591600Y-11653200D01*
X17658400Y-7142800D02*
X17698400Y-7182800D01*
X17698400Y-7142800D02*
X17658400Y-7182800D01*
X17963200Y-3637600D02*
X18003200Y-3677600D01*
X18003200Y-3637600D02*
X17963200Y-3677600D01*
X18725200Y-9682800D02*
X18765200Y-9722800D01*
X18765200Y-9682800D02*
X18725200Y-9722800D01*
X19842800Y-3637600D02*
X19882800Y-3677600D01*
X19882800Y-3637600D02*
X19842800Y-3677600D01*
X20198400Y-6076000D02*
X20238400Y-6116000D01*
X20238400Y-6076000D02*
X20198400Y-6116000D01*
X21214400Y-8666800D02*
X21254400Y-8706800D01*
X21254400Y-8666800D02*
X21214400Y-8706800D01*
X21773200Y-3637600D02*
X21813200Y-3677600D01*
X21813200Y-3637600D02*
X21773200Y-3677600D01*
X22890800Y-5568000D02*
X22930800Y-5608000D01*
X22930800Y-5568000D02*
X22890800Y-5608000D01*
X23703600Y-3637600D02*
X23743600Y-3677600D01*
X23743600Y-3637600D02*
X23703600Y-3677600D01*
X23906800Y-8057200D02*
X23946800Y-8097200D01*
X23946800Y-8057200D02*
X23906800Y-8097200D01*
D13*
X13436800Y-2819400D02*
G75*
G03*
X13436800Y-2819400I-51000J0D01*
G01*
X13436800Y-3073400D02*
G75*
G03*
X13436800Y-3073400I-51000J0D01*
G01*
X13436800Y-3327400D02*
G75*
G03*
X13436800Y-3327400I-51000J0D01*
G01*
X13436800Y-3581400D02*
G75*
G03*
X13436800Y-3581400I-51000J0D01*
G01*
X13436800Y-3835400D02*
G75*
G03*
X13436800Y-3835400I-51000J0D01*
G01*
X13436800Y-4089400D02*
G75*
G03*
X13436800Y-4089400I-51000J0D01*
G01*
X13436800Y-4343400D02*
G75*
G03*
X13436800Y-4343400I-51000J0D01*
G01*
X13436800Y-4597400D02*
G75*
G03*
X13436800Y-4597400I-51000J0D01*
G01*
X13436800Y-4851400D02*
G75*
G03*
X13436800Y-4851400I-51000J0D01*
G01*
X13436800Y-5105400D02*
G75*
G03*
X13436800Y-5105400I-51000J0D01*
G01*
X13436800Y-5359400D02*
G75*
G03*
X13436800Y-5359400I-51000J0D01*
G01*
X13436800Y-5613400D02*
G75*
G03*
X13436800Y-5613400I-51000J0D01*
G01*
X13436800Y-5867400D02*
G75*
G03*
X13436800Y-5867400I-51000J0D01*
G01*
X13436800Y-6121400D02*
G75*
G03*
X13436800Y-6121400I-51000J0D01*
G01*
X13436800Y-6375400D02*
G75*
G03*
X13436800Y-6375400I-51000J0D01*
G01*
X13436800Y-6629400D02*
G75*
G03*
X13436800Y-6629400I-51000J0D01*
G01*
X13436800Y-6883400D02*
G75*
G03*
X13436800Y-6883400I-51000J0D01*
G01*
X13436800Y-7137400D02*
G75*
G03*
X13436800Y-7137400I-51000J0D01*
G01*
X13436800Y-7391400D02*
G75*
G03*
X13436800Y-7391400I-51000J0D01*
G01*
X13436800Y-7645400D02*
G75*
G03*
X13436800Y-7645400I-51000J0D01*
G01*
X14071800Y-7622400D02*
G75*
G03*
X14071800Y-7622400I-51000J0D01*
G01*
X14325800Y-7622400D02*
G75*
G03*
X14325800Y-7622400I-51000J0D01*
G01*
X14579800Y-7622400D02*
G75*
G03*
X14579800Y-7622400I-51000J0D01*
G01*
X15214800Y-2819400D02*
G75*
G03*
X15214800Y-2819400I-51000J0D01*
G01*
X15214800Y-3073400D02*
G75*
G03*
X15214800Y-3073400I-51000J0D01*
G01*
X15214800Y-3327400D02*
G75*
G03*
X15214800Y-3327400I-51000J0D01*
G01*
X15214800Y-3581400D02*
G75*
G03*
X15214800Y-3581400I-51000J0D01*
G01*
X15214800Y-3835400D02*
G75*
G03*
X15214800Y-3835400I-51000J0D01*
G01*
X15214800Y-4089400D02*
G75*
G03*
X15214800Y-4089400I-51000J0D01*
G01*
X15214800Y-4343400D02*
G75*
G03*
X15214800Y-4343400I-51000J0D01*
G01*
X15214800Y-4597400D02*
G75*
G03*
X15214800Y-4597400I-51000J0D01*
G01*
X15214800Y-4851400D02*
G75*
G03*
X15214800Y-4851400I-51000J0D01*
G01*
X15214800Y-5105400D02*
G75*
G03*
X15214800Y-5105400I-51000J0D01*
G01*
X15214800Y-5359400D02*
G75*
G03*
X15214800Y-5359400I-51000J0D01*
G01*
X15214800Y-5613400D02*
G75*
G03*
X15214800Y-5613400I-51000J0D01*
G01*
X15214800Y-5867400D02*
G75*
G03*
X15214800Y-5867400I-51000J0D01*
G01*
X15214800Y-6121400D02*
G75*
G03*
X15214800Y-6121400I-51000J0D01*
G01*
X15214800Y-6375400D02*
G75*
G03*
X15214800Y-6375400I-51000J0D01*
G01*
X15214800Y-6629400D02*
G75*
G03*
X15214800Y-6629400I-51000J0D01*
G01*
X15214800Y-6883400D02*
G75*
G03*
X15214800Y-6883400I-51000J0D01*
G01*
X15214800Y-7137400D02*
G75*
G03*
X15214800Y-7137400I-51000J0D01*
G01*
X15214800Y-7391400D02*
G75*
G03*
X15214800Y-7391400I-51000J0D01*
G01*
X15214800Y-7645400D02*
G75*
G03*
X15214800Y-7645400I-51000J0D01*
G01*
D11*
X6656577Y-14388084D02*
X6656577Y-14188084D01*
X6656577Y-14188084D02*
X6704196Y-14188084D01*
X6704196Y-14188084D02*
X6732767Y-14197608D01*
X6732767Y-14197608D02*
X6751815Y-14216655D01*
X6751815Y-14216655D02*
X6761339Y-14235703D01*
X6761339Y-14235703D02*
X6770862Y-14273798D01*
X6770862Y-14273798D02*
X6770862Y-14302369D01*
X6770862Y-14302369D02*
X6761339Y-14340465D01*
X6761339Y-14340465D02*
X6751815Y-14359512D01*
X6751815Y-14359512D02*
X6732767Y-14378560D01*
X6732767Y-14378560D02*
X6704196Y-14388084D01*
X6704196Y-14388084D02*
X6656577Y-14388084D01*
X6856577Y-14388084D02*
X6856577Y-14254750D01*
X6856577Y-14292846D02*
X6866101Y-14273798D01*
X6866101Y-14273798D02*
X6875624Y-14264274D01*
X6875624Y-14264274D02*
X6894672Y-14254750D01*
X6894672Y-14254750D02*
X6913720Y-14254750D01*
X6980386Y-14388084D02*
X6980386Y-14254750D01*
X6980386Y-14188084D02*
X6970862Y-14197608D01*
X6970862Y-14197608D02*
X6980386Y-14207131D01*
X6980386Y-14207131D02*
X6989910Y-14197608D01*
X6989910Y-14197608D02*
X6980386Y-14188084D01*
X6980386Y-14188084D02*
X6980386Y-14207131D01*
X7104196Y-14388084D02*
X7085148Y-14378560D01*
X7085148Y-14378560D02*
X7075624Y-14359512D01*
X7075624Y-14359512D02*
X7075624Y-14188084D01*
X7208958Y-14388084D02*
X7189910Y-14378560D01*
X7189910Y-14378560D02*
X7180386Y-14359512D01*
X7180386Y-14359512D02*
X7180386Y-14188084D01*
X7437529Y-14388084D02*
X7437529Y-14188084D01*
X7437529Y-14188084D02*
X7504196Y-14330941D01*
X7504196Y-14330941D02*
X7570862Y-14188084D01*
X7570862Y-14188084D02*
X7570862Y-14388084D01*
X7751815Y-14388084D02*
X7751815Y-14283322D01*
X7751815Y-14283322D02*
X7742291Y-14264274D01*
X7742291Y-14264274D02*
X7723243Y-14254750D01*
X7723243Y-14254750D02*
X7685148Y-14254750D01*
X7685148Y-14254750D02*
X7666101Y-14264274D01*
X7751815Y-14378560D02*
X7732767Y-14388084D01*
X7732767Y-14388084D02*
X7685148Y-14388084D01*
X7685148Y-14388084D02*
X7666101Y-14378560D01*
X7666101Y-14378560D02*
X7656577Y-14359512D01*
X7656577Y-14359512D02*
X7656577Y-14340465D01*
X7656577Y-14340465D02*
X7666101Y-14321417D01*
X7666101Y-14321417D02*
X7685148Y-14311893D01*
X7685148Y-14311893D02*
X7732767Y-14311893D01*
X7732767Y-14311893D02*
X7751815Y-14302369D01*
X7847053Y-14254750D02*
X7847053Y-14454750D01*
X7847053Y-14264274D02*
X7866101Y-14254750D01*
X7866101Y-14254750D02*
X7904196Y-14254750D01*
X7904196Y-14254750D02*
X7923243Y-14264274D01*
X7923243Y-14264274D02*
X7932767Y-14273798D01*
X7932767Y-14273798D02*
X7942291Y-14292846D01*
X7942291Y-14292846D02*
X7942291Y-14349988D01*
X7942291Y-14349988D02*
X7932767Y-14369036D01*
X7932767Y-14369036D02*
X7923243Y-14378560D01*
X7923243Y-14378560D02*
X7904196Y-14388084D01*
X7904196Y-14388084D02*
X7866101Y-14388084D01*
X7866101Y-14388084D02*
X7847053Y-14378560D01*
X8028005Y-14369036D02*
X8037529Y-14378560D01*
X8037529Y-14378560D02*
X8028005Y-14388084D01*
X8028005Y-14388084D02*
X8018482Y-14378560D01*
X8018482Y-14378560D02*
X8028005Y-14369036D01*
X8028005Y-14369036D02*
X8028005Y-14388084D01*
X8028005Y-14264274D02*
X8037529Y-14273798D01*
X8037529Y-14273798D02*
X8028005Y-14283322D01*
X8028005Y-14283322D02*
X8018482Y-14273798D01*
X8018482Y-14273798D02*
X8028005Y-14264274D01*
X8028005Y-14264274D02*
X8028005Y-14283322D01*
D12*
X6355800Y-14696600D02*
X6395800Y-14736600D01*
X6395800Y-14696600D02*
X6355800Y-14736600D01*
D11*
X6694672Y-14608084D02*
X6713720Y-14608084D01*
X6713720Y-14608084D02*
X6732767Y-14617608D01*
X6732767Y-14617608D02*
X6742291Y-14627131D01*
X6742291Y-14627131D02*
X6751815Y-14646179D01*
X6751815Y-14646179D02*
X6761339Y-14684274D01*
X6761339Y-14684274D02*
X6761339Y-14731893D01*
X6761339Y-14731893D02*
X6751815Y-14769988D01*
X6751815Y-14769988D02*
X6742291Y-14789036D01*
X6742291Y-14789036D02*
X6732767Y-14798560D01*
X6732767Y-14798560D02*
X6713720Y-14808084D01*
X6713720Y-14808084D02*
X6694672Y-14808084D01*
X6694672Y-14808084D02*
X6675624Y-14798560D01*
X6675624Y-14798560D02*
X6666101Y-14789036D01*
X6666101Y-14789036D02*
X6656577Y-14769988D01*
X6656577Y-14769988D02*
X6647053Y-14731893D01*
X6647053Y-14731893D02*
X6647053Y-14684274D01*
X6647053Y-14684274D02*
X6656577Y-14646179D01*
X6656577Y-14646179D02*
X6666101Y-14627131D01*
X6666101Y-14627131D02*
X6675624Y-14617608D01*
X6675624Y-14617608D02*
X6694672Y-14608084D01*
X6847053Y-14789036D02*
X6856577Y-14798560D01*
X6856577Y-14798560D02*
X6847053Y-14808084D01*
X6847053Y-14808084D02*
X6837529Y-14798560D01*
X6837529Y-14798560D02*
X6847053Y-14789036D01*
X6847053Y-14789036D02*
X6847053Y-14808084D01*
X7028005Y-14674750D02*
X7028005Y-14808084D01*
X6980386Y-14598560D02*
X6932767Y-14741417D01*
X6932767Y-14741417D02*
X7056577Y-14741417D01*
X7170862Y-14608084D02*
X7189910Y-14608084D01*
X7189910Y-14608084D02*
X7208958Y-14617608D01*
X7208958Y-14617608D02*
X7218482Y-14627131D01*
X7218482Y-14627131D02*
X7228005Y-14646179D01*
X7228005Y-14646179D02*
X7237529Y-14684274D01*
X7237529Y-14684274D02*
X7237529Y-14731893D01*
X7237529Y-14731893D02*
X7228005Y-14769988D01*
X7228005Y-14769988D02*
X7218482Y-14789036D01*
X7218482Y-14789036D02*
X7208958Y-14798560D01*
X7208958Y-14798560D02*
X7189910Y-14808084D01*
X7189910Y-14808084D02*
X7170862Y-14808084D01*
X7170862Y-14808084D02*
X7151815Y-14798560D01*
X7151815Y-14798560D02*
X7142291Y-14789036D01*
X7142291Y-14789036D02*
X7132767Y-14769988D01*
X7132767Y-14769988D02*
X7123243Y-14731893D01*
X7123243Y-14731893D02*
X7123243Y-14684274D01*
X7123243Y-14684274D02*
X7132767Y-14646179D01*
X7132767Y-14646179D02*
X7142291Y-14627131D01*
X7142291Y-14627131D02*
X7151815Y-14617608D01*
X7151815Y-14617608D02*
X7170862Y-14608084D01*
X7361339Y-14608084D02*
X7380386Y-14608084D01*
X7380386Y-14608084D02*
X7399434Y-14617608D01*
X7399434Y-14617608D02*
X7408958Y-14627131D01*
X7408958Y-14627131D02*
X7418482Y-14646179D01*
X7418482Y-14646179D02*
X7428005Y-14684274D01*
X7428005Y-14684274D02*
X7428005Y-14731893D01*
X7428005Y-14731893D02*
X7418482Y-14769988D01*
X7418482Y-14769988D02*
X7408958Y-14789036D01*
X7408958Y-14789036D02*
X7399434Y-14798560D01*
X7399434Y-14798560D02*
X7380386Y-14808084D01*
X7380386Y-14808084D02*
X7361339Y-14808084D01*
X7361339Y-14808084D02*
X7342291Y-14798560D01*
X7342291Y-14798560D02*
X7332767Y-14789036D01*
X7332767Y-14789036D02*
X7323243Y-14769988D01*
X7323243Y-14769988D02*
X7313720Y-14731893D01*
X7313720Y-14731893D02*
X7313720Y-14684274D01*
X7313720Y-14684274D02*
X7323243Y-14646179D01*
X7323243Y-14646179D02*
X7332767Y-14627131D01*
X7332767Y-14627131D02*
X7342291Y-14617608D01*
X7342291Y-14617608D02*
X7361339Y-14608084D01*
X7513720Y-14808084D02*
X7513720Y-14674750D01*
X7513720Y-14693798D02*
X7523243Y-14684274D01*
X7523243Y-14684274D02*
X7542291Y-14674750D01*
X7542291Y-14674750D02*
X7570863Y-14674750D01*
X7570863Y-14674750D02*
X7589910Y-14684274D01*
X7589910Y-14684274D02*
X7599434Y-14703322D01*
X7599434Y-14703322D02*
X7599434Y-14808084D01*
X7599434Y-14703322D02*
X7608958Y-14684274D01*
X7608958Y-14684274D02*
X7628005Y-14674750D01*
X7628005Y-14674750D02*
X7656577Y-14674750D01*
X7656577Y-14674750D02*
X7675624Y-14684274D01*
X7675624Y-14684274D02*
X7685148Y-14703322D01*
X7685148Y-14703322D02*
X7685148Y-14808084D01*
X7780386Y-14808084D02*
X7780386Y-14674750D01*
X7780386Y-14693798D02*
X7789910Y-14684274D01*
X7789910Y-14684274D02*
X7808958Y-14674750D01*
X7808958Y-14674750D02*
X7837529Y-14674750D01*
X7837529Y-14674750D02*
X7856577Y-14684274D01*
X7856577Y-14684274D02*
X7866101Y-14703322D01*
X7866101Y-14703322D02*
X7866101Y-14808084D01*
X7866101Y-14703322D02*
X7875624Y-14684274D01*
X7875624Y-14684274D02*
X7894672Y-14674750D01*
X7894672Y-14674750D02*
X7923243Y-14674750D01*
X7923243Y-14674750D02*
X7942291Y-14684274D01*
X7942291Y-14684274D02*
X7951815Y-14703322D01*
X7951815Y-14703322D02*
X7951815Y-14808084D01*
X8342291Y-14598560D02*
X8170863Y-14855703D01*
X8599434Y-14608084D02*
X8618482Y-14608084D01*
X8618482Y-14608084D02*
X8637529Y-14617608D01*
X8637529Y-14617608D02*
X8647053Y-14627131D01*
X8647053Y-14627131D02*
X8656577Y-14646179D01*
X8656577Y-14646179D02*
X8666101Y-14684274D01*
X8666101Y-14684274D02*
X8666101Y-14731893D01*
X8666101Y-14731893D02*
X8656577Y-14769988D01*
X8656577Y-14769988D02*
X8647053Y-14789036D01*
X8647053Y-14789036D02*
X8637529Y-14798560D01*
X8637529Y-14798560D02*
X8618482Y-14808084D01*
X8618482Y-14808084D02*
X8599434Y-14808084D01*
X8599434Y-14808084D02*
X8580387Y-14798560D01*
X8580387Y-14798560D02*
X8570863Y-14789036D01*
X8570863Y-14789036D02*
X8561339Y-14769988D01*
X8561339Y-14769988D02*
X8551815Y-14731893D01*
X8551815Y-14731893D02*
X8551815Y-14684274D01*
X8551815Y-14684274D02*
X8561339Y-14646179D01*
X8561339Y-14646179D02*
X8570863Y-14627131D01*
X8570863Y-14627131D02*
X8580387Y-14617608D01*
X8580387Y-14617608D02*
X8599434Y-14608084D01*
X8751815Y-14789036D02*
X8761339Y-14798560D01*
X8761339Y-14798560D02*
X8751815Y-14808084D01*
X8751815Y-14808084D02*
X8742291Y-14798560D01*
X8742291Y-14798560D02*
X8751815Y-14789036D01*
X8751815Y-14789036D02*
X8751815Y-14808084D01*
X8885148Y-14608084D02*
X8904196Y-14608084D01*
X8904196Y-14608084D02*
X8923244Y-14617608D01*
X8923244Y-14617608D02*
X8932768Y-14627131D01*
X8932768Y-14627131D02*
X8942291Y-14646179D01*
X8942291Y-14646179D02*
X8951815Y-14684274D01*
X8951815Y-14684274D02*
X8951815Y-14731893D01*
X8951815Y-14731893D02*
X8942291Y-14769988D01*
X8942291Y-14769988D02*
X8932768Y-14789036D01*
X8932768Y-14789036D02*
X8923244Y-14798560D01*
X8923244Y-14798560D02*
X8904196Y-14808084D01*
X8904196Y-14808084D02*
X8885148Y-14808084D01*
X8885148Y-14808084D02*
X8866101Y-14798560D01*
X8866101Y-14798560D02*
X8856577Y-14789036D01*
X8856577Y-14789036D02*
X8847053Y-14769988D01*
X8847053Y-14769988D02*
X8837529Y-14731893D01*
X8837529Y-14731893D02*
X8837529Y-14684274D01*
X8837529Y-14684274D02*
X8847053Y-14646179D01*
X8847053Y-14646179D02*
X8856577Y-14627131D01*
X8856577Y-14627131D02*
X8866101Y-14617608D01*
X8866101Y-14617608D02*
X8885148Y-14608084D01*
X9142291Y-14808084D02*
X9028006Y-14808084D01*
X9085148Y-14808084D02*
X9085148Y-14608084D01*
X9085148Y-14608084D02*
X9066101Y-14636655D01*
X9066101Y-14636655D02*
X9047053Y-14655703D01*
X9047053Y-14655703D02*
X9028006Y-14665227D01*
X9323244Y-14608084D02*
X9228006Y-14608084D01*
X9228006Y-14608084D02*
X9218482Y-14703322D01*
X9218482Y-14703322D02*
X9228006Y-14693798D01*
X9228006Y-14693798D02*
X9247053Y-14684274D01*
X9247053Y-14684274D02*
X9294672Y-14684274D01*
X9294672Y-14684274D02*
X9313720Y-14693798D01*
X9313720Y-14693798D02*
X9323244Y-14703322D01*
X9323244Y-14703322D02*
X9332768Y-14722369D01*
X9332768Y-14722369D02*
X9332768Y-14769988D01*
X9332768Y-14769988D02*
X9323244Y-14789036D01*
X9323244Y-14789036D02*
X9313720Y-14798560D01*
X9313720Y-14798560D02*
X9294672Y-14808084D01*
X9294672Y-14808084D02*
X9247053Y-14808084D01*
X9247053Y-14808084D02*
X9228006Y-14798560D01*
X9228006Y-14798560D02*
X9218482Y-14789036D01*
X9399434Y-14608084D02*
X9532768Y-14608084D01*
X9532768Y-14608084D02*
X9447053Y-14808084D01*
X9599434Y-14608084D02*
X9599434Y-14646179D01*
X9675625Y-14608084D02*
X9675625Y-14646179D01*
X9970863Y-14884274D02*
X9961339Y-14874750D01*
X9961339Y-14874750D02*
X9942291Y-14846179D01*
X9942291Y-14846179D02*
X9932768Y-14827131D01*
X9932768Y-14827131D02*
X9923244Y-14798560D01*
X9923244Y-14798560D02*
X9913720Y-14750941D01*
X9913720Y-14750941D02*
X9913720Y-14712846D01*
X9913720Y-14712846D02*
X9923244Y-14665227D01*
X9923244Y-14665227D02*
X9932768Y-14636655D01*
X9932768Y-14636655D02*
X9942291Y-14617608D01*
X9942291Y-14617608D02*
X9961339Y-14589036D01*
X9961339Y-14589036D02*
X9970863Y-14579512D01*
X10151815Y-14808084D02*
X10037530Y-14808084D01*
X10094672Y-14808084D02*
X10094672Y-14608084D01*
X10094672Y-14608084D02*
X10075625Y-14636655D01*
X10075625Y-14636655D02*
X10056577Y-14655703D01*
X10056577Y-14655703D02*
X10037530Y-14665227D01*
X10266101Y-14693798D02*
X10247053Y-14684274D01*
X10247053Y-14684274D02*
X10237530Y-14674750D01*
X10237530Y-14674750D02*
X10228006Y-14655703D01*
X10228006Y-14655703D02*
X10228006Y-14646179D01*
X10228006Y-14646179D02*
X10237530Y-14627131D01*
X10237530Y-14627131D02*
X10247053Y-14617608D01*
X10247053Y-14617608D02*
X10266101Y-14608084D01*
X10266101Y-14608084D02*
X10304196Y-14608084D01*
X10304196Y-14608084D02*
X10323244Y-14617608D01*
X10323244Y-14617608D02*
X10332768Y-14627131D01*
X10332768Y-14627131D02*
X10342291Y-14646179D01*
X10342291Y-14646179D02*
X10342291Y-14655703D01*
X10342291Y-14655703D02*
X10332768Y-14674750D01*
X10332768Y-14674750D02*
X10323244Y-14684274D01*
X10323244Y-14684274D02*
X10304196Y-14693798D01*
X10304196Y-14693798D02*
X10266101Y-14693798D01*
X10266101Y-14693798D02*
X10247053Y-14703322D01*
X10247053Y-14703322D02*
X10237530Y-14712846D01*
X10237530Y-14712846D02*
X10228006Y-14731893D01*
X10228006Y-14731893D02*
X10228006Y-14769988D01*
X10228006Y-14769988D02*
X10237530Y-14789036D01*
X10237530Y-14789036D02*
X10247053Y-14798560D01*
X10247053Y-14798560D02*
X10266101Y-14808084D01*
X10266101Y-14808084D02*
X10304196Y-14808084D01*
X10304196Y-14808084D02*
X10323244Y-14798560D01*
X10323244Y-14798560D02*
X10332768Y-14789036D01*
X10332768Y-14789036D02*
X10342291Y-14769988D01*
X10342291Y-14769988D02*
X10342291Y-14731893D01*
X10342291Y-14731893D02*
X10332768Y-14712846D01*
X10332768Y-14712846D02*
X10323244Y-14703322D01*
X10323244Y-14703322D02*
X10304196Y-14693798D01*
X10580387Y-14808084D02*
X10580387Y-14608084D01*
X10666101Y-14808084D02*
X10666101Y-14703322D01*
X10666101Y-14703322D02*
X10656577Y-14684274D01*
X10656577Y-14684274D02*
X10637530Y-14674750D01*
X10637530Y-14674750D02*
X10608958Y-14674750D01*
X10608958Y-14674750D02*
X10589911Y-14684274D01*
X10589911Y-14684274D02*
X10580387Y-14693798D01*
X10789911Y-14808084D02*
X10770863Y-14798560D01*
X10770863Y-14798560D02*
X10761339Y-14789036D01*
X10761339Y-14789036D02*
X10751815Y-14769988D01*
X10751815Y-14769988D02*
X10751815Y-14712846D01*
X10751815Y-14712846D02*
X10761339Y-14693798D01*
X10761339Y-14693798D02*
X10770863Y-14684274D01*
X10770863Y-14684274D02*
X10789911Y-14674750D01*
X10789911Y-14674750D02*
X10818482Y-14674750D01*
X10818482Y-14674750D02*
X10837530Y-14684274D01*
X10837530Y-14684274D02*
X10847053Y-14693798D01*
X10847053Y-14693798D02*
X10856577Y-14712846D01*
X10856577Y-14712846D02*
X10856577Y-14769988D01*
X10856577Y-14769988D02*
X10847053Y-14789036D01*
X10847053Y-14789036D02*
X10837530Y-14798560D01*
X10837530Y-14798560D02*
X10818482Y-14808084D01*
X10818482Y-14808084D02*
X10789911Y-14808084D01*
X10970863Y-14808084D02*
X10951815Y-14798560D01*
X10951815Y-14798560D02*
X10942292Y-14779512D01*
X10942292Y-14779512D02*
X10942292Y-14608084D01*
X11123244Y-14798560D02*
X11104196Y-14808084D01*
X11104196Y-14808084D02*
X11066101Y-14808084D01*
X11066101Y-14808084D02*
X11047053Y-14798560D01*
X11047053Y-14798560D02*
X11037530Y-14779512D01*
X11037530Y-14779512D02*
X11037530Y-14703322D01*
X11037530Y-14703322D02*
X11047053Y-14684274D01*
X11047053Y-14684274D02*
X11066101Y-14674750D01*
X11066101Y-14674750D02*
X11104196Y-14674750D01*
X11104196Y-14674750D02*
X11123244Y-14684274D01*
X11123244Y-14684274D02*
X11132768Y-14703322D01*
X11132768Y-14703322D02*
X11132768Y-14722369D01*
X11132768Y-14722369D02*
X11037530Y-14741417D01*
X11208958Y-14798560D02*
X11228006Y-14808084D01*
X11228006Y-14808084D02*
X11266101Y-14808084D01*
X11266101Y-14808084D02*
X11285149Y-14798560D01*
X11285149Y-14798560D02*
X11294672Y-14779512D01*
X11294672Y-14779512D02*
X11294672Y-14769988D01*
X11294672Y-14769988D02*
X11285149Y-14750941D01*
X11285149Y-14750941D02*
X11266101Y-14741417D01*
X11266101Y-14741417D02*
X11237530Y-14741417D01*
X11237530Y-14741417D02*
X11218482Y-14731893D01*
X11218482Y-14731893D02*
X11208958Y-14712846D01*
X11208958Y-14712846D02*
X11208958Y-14703322D01*
X11208958Y-14703322D02*
X11218482Y-14684274D01*
X11218482Y-14684274D02*
X11237530Y-14674750D01*
X11237530Y-14674750D02*
X11266101Y-14674750D01*
X11266101Y-14674750D02*
X11285149Y-14684274D01*
X11361339Y-14884274D02*
X11370863Y-14874750D01*
X11370863Y-14874750D02*
X11389911Y-14846179D01*
X11389911Y-14846179D02*
X11399434Y-14827131D01*
X11399434Y-14827131D02*
X11408958Y-14798560D01*
X11408958Y-14798560D02*
X11418482Y-14750941D01*
X11418482Y-14750941D02*
X11418482Y-14712846D01*
X11418482Y-14712846D02*
X11408958Y-14665227D01*
X11408958Y-14665227D02*
X11399434Y-14636655D01*
X11399434Y-14636655D02*
X11389911Y-14617608D01*
X11389911Y-14617608D02*
X11370863Y-14589036D01*
X11370863Y-14589036D02*
X11361339Y-14579512D01*
D13*
X6395800Y-14980600D02*
G75*
G03*
X6395800Y-14980600I-51000J0D01*
G01*
D11*
X6761339Y-15072084D02*
X6647053Y-15072084D01*
X6704196Y-15072084D02*
X6704196Y-14872084D01*
X6704196Y-14872084D02*
X6685148Y-14900655D01*
X6685148Y-14900655D02*
X6666101Y-14919703D01*
X6666101Y-14919703D02*
X6647053Y-14929227D01*
X6847053Y-15053036D02*
X6856577Y-15062560D01*
X6856577Y-15062560D02*
X6847053Y-15072084D01*
X6847053Y-15072084D02*
X6837529Y-15062560D01*
X6837529Y-15062560D02*
X6847053Y-15053036D01*
X6847053Y-15053036D02*
X6847053Y-15072084D01*
X6980386Y-14872084D02*
X6999434Y-14872084D01*
X6999434Y-14872084D02*
X7018482Y-14881608D01*
X7018482Y-14881608D02*
X7028005Y-14891131D01*
X7028005Y-14891131D02*
X7037529Y-14910179D01*
X7037529Y-14910179D02*
X7047053Y-14948274D01*
X7047053Y-14948274D02*
X7047053Y-14995893D01*
X7047053Y-14995893D02*
X7037529Y-15033988D01*
X7037529Y-15033988D02*
X7028005Y-15053036D01*
X7028005Y-15053036D02*
X7018482Y-15062560D01*
X7018482Y-15062560D02*
X6999434Y-15072084D01*
X6999434Y-15072084D02*
X6980386Y-15072084D01*
X6980386Y-15072084D02*
X6961339Y-15062560D01*
X6961339Y-15062560D02*
X6951815Y-15053036D01*
X6951815Y-15053036D02*
X6942291Y-15033988D01*
X6942291Y-15033988D02*
X6932767Y-14995893D01*
X6932767Y-14995893D02*
X6932767Y-14948274D01*
X6932767Y-14948274D02*
X6942291Y-14910179D01*
X6942291Y-14910179D02*
X6951815Y-14891131D01*
X6951815Y-14891131D02*
X6961339Y-14881608D01*
X6961339Y-14881608D02*
X6980386Y-14872084D01*
X7123243Y-14891131D02*
X7132767Y-14881608D01*
X7132767Y-14881608D02*
X7151815Y-14872084D01*
X7151815Y-14872084D02*
X7199434Y-14872084D01*
X7199434Y-14872084D02*
X7218482Y-14881608D01*
X7218482Y-14881608D02*
X7228005Y-14891131D01*
X7228005Y-14891131D02*
X7237529Y-14910179D01*
X7237529Y-14910179D02*
X7237529Y-14929227D01*
X7237529Y-14929227D02*
X7228005Y-14957798D01*
X7228005Y-14957798D02*
X7113720Y-15072084D01*
X7113720Y-15072084D02*
X7237529Y-15072084D01*
X7361339Y-14872084D02*
X7380386Y-14872084D01*
X7380386Y-14872084D02*
X7399434Y-14881608D01*
X7399434Y-14881608D02*
X7408958Y-14891131D01*
X7408958Y-14891131D02*
X7418482Y-14910179D01*
X7418482Y-14910179D02*
X7428005Y-14948274D01*
X7428005Y-14948274D02*
X7428005Y-14995893D01*
X7428005Y-14995893D02*
X7418482Y-15033988D01*
X7418482Y-15033988D02*
X7408958Y-15053036D01*
X7408958Y-15053036D02*
X7399434Y-15062560D01*
X7399434Y-15062560D02*
X7380386Y-15072084D01*
X7380386Y-15072084D02*
X7361339Y-15072084D01*
X7361339Y-15072084D02*
X7342291Y-15062560D01*
X7342291Y-15062560D02*
X7332767Y-15053036D01*
X7332767Y-15053036D02*
X7323243Y-15033988D01*
X7323243Y-15033988D02*
X7313720Y-14995893D01*
X7313720Y-14995893D02*
X7313720Y-14948274D01*
X7313720Y-14948274D02*
X7323243Y-14910179D01*
X7323243Y-14910179D02*
X7332767Y-14891131D01*
X7332767Y-14891131D02*
X7342291Y-14881608D01*
X7342291Y-14881608D02*
X7361339Y-14872084D01*
X7513720Y-15072084D02*
X7513720Y-14938750D01*
X7513720Y-14957798D02*
X7523243Y-14948274D01*
X7523243Y-14948274D02*
X7542291Y-14938750D01*
X7542291Y-14938750D02*
X7570863Y-14938750D01*
X7570863Y-14938750D02*
X7589910Y-14948274D01*
X7589910Y-14948274D02*
X7599434Y-14967322D01*
X7599434Y-14967322D02*
X7599434Y-15072084D01*
X7599434Y-14967322D02*
X7608958Y-14948274D01*
X7608958Y-14948274D02*
X7628005Y-14938750D01*
X7628005Y-14938750D02*
X7656577Y-14938750D01*
X7656577Y-14938750D02*
X7675624Y-14948274D01*
X7675624Y-14948274D02*
X7685148Y-14967322D01*
X7685148Y-14967322D02*
X7685148Y-15072084D01*
X7780386Y-15072084D02*
X7780386Y-14938750D01*
X7780386Y-14957798D02*
X7789910Y-14948274D01*
X7789910Y-14948274D02*
X7808958Y-14938750D01*
X7808958Y-14938750D02*
X7837529Y-14938750D01*
X7837529Y-14938750D02*
X7856577Y-14948274D01*
X7856577Y-14948274D02*
X7866101Y-14967322D01*
X7866101Y-14967322D02*
X7866101Y-15072084D01*
X7866101Y-14967322D02*
X7875624Y-14948274D01*
X7875624Y-14948274D02*
X7894672Y-14938750D01*
X7894672Y-14938750D02*
X7923243Y-14938750D01*
X7923243Y-14938750D02*
X7942291Y-14948274D01*
X7942291Y-14948274D02*
X7951815Y-14967322D01*
X7951815Y-14967322D02*
X7951815Y-15072084D01*
X8342291Y-14862560D02*
X8170863Y-15119703D01*
X8599434Y-14872084D02*
X8618482Y-14872084D01*
X8618482Y-14872084D02*
X8637529Y-14881608D01*
X8637529Y-14881608D02*
X8647053Y-14891131D01*
X8647053Y-14891131D02*
X8656577Y-14910179D01*
X8656577Y-14910179D02*
X8666101Y-14948274D01*
X8666101Y-14948274D02*
X8666101Y-14995893D01*
X8666101Y-14995893D02*
X8656577Y-15033988D01*
X8656577Y-15033988D02*
X8647053Y-15053036D01*
X8647053Y-15053036D02*
X8637529Y-15062560D01*
X8637529Y-15062560D02*
X8618482Y-15072084D01*
X8618482Y-15072084D02*
X8599434Y-15072084D01*
X8599434Y-15072084D02*
X8580387Y-15062560D01*
X8580387Y-15062560D02*
X8570863Y-15053036D01*
X8570863Y-15053036D02*
X8561339Y-15033988D01*
X8561339Y-15033988D02*
X8551815Y-14995893D01*
X8551815Y-14995893D02*
X8551815Y-14948274D01*
X8551815Y-14948274D02*
X8561339Y-14910179D01*
X8561339Y-14910179D02*
X8570863Y-14891131D01*
X8570863Y-14891131D02*
X8580387Y-14881608D01*
X8580387Y-14881608D02*
X8599434Y-14872084D01*
X8751815Y-15053036D02*
X8761339Y-15062560D01*
X8761339Y-15062560D02*
X8751815Y-15072084D01*
X8751815Y-15072084D02*
X8742291Y-15062560D01*
X8742291Y-15062560D02*
X8751815Y-15053036D01*
X8751815Y-15053036D02*
X8751815Y-15072084D01*
X8885148Y-14872084D02*
X8904196Y-14872084D01*
X8904196Y-14872084D02*
X8923244Y-14881608D01*
X8923244Y-14881608D02*
X8932768Y-14891131D01*
X8932768Y-14891131D02*
X8942291Y-14910179D01*
X8942291Y-14910179D02*
X8951815Y-14948274D01*
X8951815Y-14948274D02*
X8951815Y-14995893D01*
X8951815Y-14995893D02*
X8942291Y-15033988D01*
X8942291Y-15033988D02*
X8932768Y-15053036D01*
X8932768Y-15053036D02*
X8923244Y-15062560D01*
X8923244Y-15062560D02*
X8904196Y-15072084D01*
X8904196Y-15072084D02*
X8885148Y-15072084D01*
X8885148Y-15072084D02*
X8866101Y-15062560D01*
X8866101Y-15062560D02*
X8856577Y-15053036D01*
X8856577Y-15053036D02*
X8847053Y-15033988D01*
X8847053Y-15033988D02*
X8837529Y-14995893D01*
X8837529Y-14995893D02*
X8837529Y-14948274D01*
X8837529Y-14948274D02*
X8847053Y-14910179D01*
X8847053Y-14910179D02*
X8856577Y-14891131D01*
X8856577Y-14891131D02*
X8866101Y-14881608D01*
X8866101Y-14881608D02*
X8885148Y-14872084D01*
X9123244Y-14938750D02*
X9123244Y-15072084D01*
X9075625Y-14862560D02*
X9028006Y-15005417D01*
X9028006Y-15005417D02*
X9151815Y-15005417D01*
X9266101Y-14872084D02*
X9285149Y-14872084D01*
X9285149Y-14872084D02*
X9304196Y-14881608D01*
X9304196Y-14881608D02*
X9313720Y-14891131D01*
X9313720Y-14891131D02*
X9323244Y-14910179D01*
X9323244Y-14910179D02*
X9332768Y-14948274D01*
X9332768Y-14948274D02*
X9332768Y-14995893D01*
X9332768Y-14995893D02*
X9323244Y-15033988D01*
X9323244Y-15033988D02*
X9313720Y-15053036D01*
X9313720Y-15053036D02*
X9304196Y-15062560D01*
X9304196Y-15062560D02*
X9285149Y-15072084D01*
X9285149Y-15072084D02*
X9266101Y-15072084D01*
X9266101Y-15072084D02*
X9247053Y-15062560D01*
X9247053Y-15062560D02*
X9237529Y-15053036D01*
X9237529Y-15053036D02*
X9228006Y-15033988D01*
X9228006Y-15033988D02*
X9218482Y-14995893D01*
X9218482Y-14995893D02*
X9218482Y-14948274D01*
X9218482Y-14948274D02*
X9228006Y-14910179D01*
X9228006Y-14910179D02*
X9237529Y-14891131D01*
X9237529Y-14891131D02*
X9247053Y-14881608D01*
X9247053Y-14881608D02*
X9266101Y-14872084D01*
X9408958Y-14891131D02*
X9418482Y-14881608D01*
X9418482Y-14881608D02*
X9437529Y-14872084D01*
X9437529Y-14872084D02*
X9485149Y-14872084D01*
X9485149Y-14872084D02*
X9504196Y-14881608D01*
X9504196Y-14881608D02*
X9513720Y-14891131D01*
X9513720Y-14891131D02*
X9523244Y-14910179D01*
X9523244Y-14910179D02*
X9523244Y-14929227D01*
X9523244Y-14929227D02*
X9513720Y-14957798D01*
X9513720Y-14957798D02*
X9399434Y-15072084D01*
X9399434Y-15072084D02*
X9523244Y-15072084D01*
X9599434Y-14872084D02*
X9599434Y-14910179D01*
X9675625Y-14872084D02*
X9675625Y-14910179D01*
X9970863Y-15148274D02*
X9961339Y-15138750D01*
X9961339Y-15138750D02*
X9942291Y-15110179D01*
X9942291Y-15110179D02*
X9932768Y-15091131D01*
X9932768Y-15091131D02*
X9923244Y-15062560D01*
X9923244Y-15062560D02*
X9913720Y-15014941D01*
X9913720Y-15014941D02*
X9913720Y-14976846D01*
X9913720Y-14976846D02*
X9923244Y-14929227D01*
X9923244Y-14929227D02*
X9932768Y-14900655D01*
X9932768Y-14900655D02*
X9942291Y-14881608D01*
X9942291Y-14881608D02*
X9961339Y-14853036D01*
X9961339Y-14853036D02*
X9970863Y-14843512D01*
X10132768Y-14938750D02*
X10132768Y-15072084D01*
X10085149Y-14862560D02*
X10037530Y-15005417D01*
X10037530Y-15005417D02*
X10161339Y-15005417D01*
X10218482Y-14872084D02*
X10342291Y-14872084D01*
X10342291Y-14872084D02*
X10275625Y-14948274D01*
X10275625Y-14948274D02*
X10304196Y-14948274D01*
X10304196Y-14948274D02*
X10323244Y-14957798D01*
X10323244Y-14957798D02*
X10332768Y-14967322D01*
X10332768Y-14967322D02*
X10342291Y-14986369D01*
X10342291Y-14986369D02*
X10342291Y-15033988D01*
X10342291Y-15033988D02*
X10332768Y-15053036D01*
X10332768Y-15053036D02*
X10323244Y-15062560D01*
X10323244Y-15062560D02*
X10304196Y-15072084D01*
X10304196Y-15072084D02*
X10247053Y-15072084D01*
X10247053Y-15072084D02*
X10228006Y-15062560D01*
X10228006Y-15062560D02*
X10218482Y-15053036D01*
X10580387Y-15072084D02*
X10580387Y-14872084D01*
X10666101Y-15072084D02*
X10666101Y-14967322D01*
X10666101Y-14967322D02*
X10656577Y-14948274D01*
X10656577Y-14948274D02*
X10637530Y-14938750D01*
X10637530Y-14938750D02*
X10608958Y-14938750D01*
X10608958Y-14938750D02*
X10589911Y-14948274D01*
X10589911Y-14948274D02*
X10580387Y-14957798D01*
X10789911Y-15072084D02*
X10770863Y-15062560D01*
X10770863Y-15062560D02*
X10761339Y-15053036D01*
X10761339Y-15053036D02*
X10751815Y-15033988D01*
X10751815Y-15033988D02*
X10751815Y-14976846D01*
X10751815Y-14976846D02*
X10761339Y-14957798D01*
X10761339Y-14957798D02*
X10770863Y-14948274D01*
X10770863Y-14948274D02*
X10789911Y-14938750D01*
X10789911Y-14938750D02*
X10818482Y-14938750D01*
X10818482Y-14938750D02*
X10837530Y-14948274D01*
X10837530Y-14948274D02*
X10847053Y-14957798D01*
X10847053Y-14957798D02*
X10856577Y-14976846D01*
X10856577Y-14976846D02*
X10856577Y-15033988D01*
X10856577Y-15033988D02*
X10847053Y-15053036D01*
X10847053Y-15053036D02*
X10837530Y-15062560D01*
X10837530Y-15062560D02*
X10818482Y-15072084D01*
X10818482Y-15072084D02*
X10789911Y-15072084D01*
X10970863Y-15072084D02*
X10951815Y-15062560D01*
X10951815Y-15062560D02*
X10942292Y-15043512D01*
X10942292Y-15043512D02*
X10942292Y-14872084D01*
X11123244Y-15062560D02*
X11104196Y-15072084D01*
X11104196Y-15072084D02*
X11066101Y-15072084D01*
X11066101Y-15072084D02*
X11047053Y-15062560D01*
X11047053Y-15062560D02*
X11037530Y-15043512D01*
X11037530Y-15043512D02*
X11037530Y-14967322D01*
X11037530Y-14967322D02*
X11047053Y-14948274D01*
X11047053Y-14948274D02*
X11066101Y-14938750D01*
X11066101Y-14938750D02*
X11104196Y-14938750D01*
X11104196Y-14938750D02*
X11123244Y-14948274D01*
X11123244Y-14948274D02*
X11132768Y-14967322D01*
X11132768Y-14967322D02*
X11132768Y-14986369D01*
X11132768Y-14986369D02*
X11037530Y-15005417D01*
X11208958Y-15062560D02*
X11228006Y-15072084D01*
X11228006Y-15072084D02*
X11266101Y-15072084D01*
X11266101Y-15072084D02*
X11285149Y-15062560D01*
X11285149Y-15062560D02*
X11294672Y-15043512D01*
X11294672Y-15043512D02*
X11294672Y-15033988D01*
X11294672Y-15033988D02*
X11285149Y-15014941D01*
X11285149Y-15014941D02*
X11266101Y-15005417D01*
X11266101Y-15005417D02*
X11237530Y-15005417D01*
X11237530Y-15005417D02*
X11218482Y-14995893D01*
X11218482Y-14995893D02*
X11208958Y-14976846D01*
X11208958Y-14976846D02*
X11208958Y-14967322D01*
X11208958Y-14967322D02*
X11218482Y-14948274D01*
X11218482Y-14948274D02*
X11237530Y-14938750D01*
X11237530Y-14938750D02*
X11266101Y-14938750D01*
X11266101Y-14938750D02*
X11285149Y-14948274D01*
X11361339Y-15148274D02*
X11370863Y-15138750D01*
X11370863Y-15138750D02*
X11389911Y-15110179D01*
X11389911Y-15110179D02*
X11399434Y-15091131D01*
X11399434Y-15091131D02*
X11408958Y-15062560D01*
X11408958Y-15062560D02*
X11418482Y-15014941D01*
X11418482Y-15014941D02*
X11418482Y-14976846D01*
X11418482Y-14976846D02*
X11408958Y-14929227D01*
X11408958Y-14929227D02*
X11399434Y-14900655D01*
X11399434Y-14900655D02*
X11389911Y-14881608D01*
X11389911Y-14881608D02*
X11370863Y-14853036D01*
X11370863Y-14853036D02*
X11361339Y-14843512D01*
M02*
