%TF.GenerationSoftware,KiCad,Pcbnew,7.0.5*%
%TF.CreationDate,2023-08-11T22:31:08-05:00*%
%TF.ProjectId,ArkeyV2,41726b65-7956-4322-9e6b-696361645f70,rev?*%
%TF.SameCoordinates,Original*%
%TF.FileFunction,Copper,L2,Bot*%
%TF.FilePolarity,Positive*%
%FSLAX46Y46*%
G04 Gerber Fmt 4.6, Leading zero omitted, Abs format (unit mm)*
G04 Created by KiCad (PCBNEW 7.0.5) date 2023-08-11 22:31:08*
%MOMM*%
%LPD*%
G01*
G04 APERTURE LIST*
G04 Aperture macros list*
%AMRoundRect*
0 Rectangle with rounded corners*
0 $1 Rounding radius*
0 $2 $3 $4 $5 $6 $7 $8 $9 X,Y pos of 4 corners*
0 Add a 4 corners polygon primitive as box body*
4,1,4,$2,$3,$4,$5,$6,$7,$8,$9,$2,$3,0*
0 Add four circle primitives for the rounded corners*
1,1,$1+$1,$2,$3*
1,1,$1+$1,$4,$5*
1,1,$1+$1,$6,$7*
1,1,$1+$1,$8,$9*
0 Add four rect primitives between the rounded corners*
20,1,$1+$1,$2,$3,$4,$5,0*
20,1,$1+$1,$4,$5,$6,$7,0*
20,1,$1+$1,$6,$7,$8,$9,0*
20,1,$1+$1,$8,$9,$2,$3,0*%
G04 Aperture macros list end*
%TA.AperFunction,SMDPad,CuDef*%
%ADD10RoundRect,0.250000X-0.564293X-1.316130X1.329660X-0.531629X0.564293X1.316130X-1.329660X0.531629X0*%
%TD*%
%TA.AperFunction,SMDPad,CuDef*%
%ADD11RoundRect,0.250000X-1.025000X-1.000000X1.025000X-1.000000X1.025000X1.000000X-1.025000X1.000000X0*%
%TD*%
%TA.AperFunction,SMDPad,CuDef*%
%ADD12RoundRect,0.250000X-1.329660X-0.531629X0.564293X-1.316130X1.329660X0.531629X-0.564293X1.316130X0*%
%TD*%
%TA.AperFunction,ComponentPad*%
%ADD13O,1.700000X1.700000*%
%TD*%
%TA.AperFunction,ComponentPad*%
%ADD14R,1.700000X1.700000*%
%TD*%
%TA.AperFunction,ViaPad*%
%ADD15C,0.800000*%
%TD*%
%TA.AperFunction,Conductor*%
%ADD16C,0.140000*%
%TD*%
G04 APERTURE END LIST*
D10*
%TO.P,GP14,1*%
%TO.N,N/C*%
X154720159Y-121909630D03*
%TO.P,GP14,2*%
X166648617Y-119349964D03*
%TD*%
D11*
%TO.P,GP1,1*%
%TO.N,N/C*%
X109364000Y-31592000D03*
%TO.P,GP1,2*%
X121364000Y-33792000D03*
%TD*%
D12*
%TO.P,GP13,2*%
%TO.N,N/C*%
X122739622Y-106855332D03*
%TO.P,GP13,1*%
X112494971Y-100230596D03*
%TD*%
D10*
%TO.P,GP15,1*%
%TO.N,N/C*%
X144387707Y-96964882D03*
%TO.P,GP15,2*%
X156316165Y-94405216D03*
%TD*%
%TO.P,GP18,1*%
%TO.N,N/C*%
X200782820Y-92005929D03*
%TO.P,GP18,2*%
X212711278Y-89446263D03*
%TD*%
D11*
%TO.P,GP28,1*%
%TO.N,N/C*%
X167276000Y-31084000D03*
%TO.P,GP28,2*%
X179276000Y-33284000D03*
%TD*%
%TO.P,GP22,1*%
%TO.N,N/C*%
X224426000Y-31084000D03*
%TO.P,GP22,2*%
X236426000Y-33284000D03*
%TD*%
D10*
%TO.P,GP17,1*%
%TO.N,N/C*%
X165505620Y-77393634D03*
%TO.P,GP17,2*%
X177434078Y-74833968D03*
%TD*%
D12*
%TO.P,GP12,2*%
%TO.N,N/C*%
X105139717Y-99565212D03*
%TO.P,GP12,1*%
X94895066Y-92940476D03*
%TD*%
D11*
%TO.P,GP27,1*%
%TO.N,N/C*%
X186326000Y-31084000D03*
%TO.P,GP27,2*%
X198326000Y-33284000D03*
%TD*%
D10*
%TO.P,GP21,1*%
%TO.N,N/C*%
X227640984Y-86292874D03*
%TO.P,GP21,2*%
X239569442Y-83733208D03*
%TD*%
D12*
%TO.P,GP10,1*%
%TO.N,N/C*%
X77295161Y-85650357D03*
%TO.P,GP10,2*%
X87539812Y-92275093D03*
%TD*%
D11*
%TO.P,GP26,1*%
%TO.N,N/C*%
X205376000Y-31084000D03*
%TO.P,GP26,2*%
X217376000Y-33284000D03*
%TD*%
D12*
%TO.P,GP11,2*%
%TO.N,N/C*%
X112429836Y-81965308D03*
%TO.P,GP11,1*%
X102185185Y-75340572D03*
%TD*%
D10*
%TO.P,GP16,1*%
%TO.N,N/C*%
X175838072Y-102338382D03*
%TO.P,GP16,2*%
X187766530Y-99778716D03*
%TD*%
D13*
%TO.P,REF\u002A\u002A,1*%
%TO.N,N/C*%
X133858000Y-28194000D03*
%TO.P,REF\u002A\u002A,2*%
X133858000Y-30734000D03*
D14*
%TO.P,REF\u002A\u002A,3*%
X133858000Y-33274000D03*
D13*
%TO.P,REF\u002A\u002A,4*%
X133858000Y-35814000D03*
%TO.P,REF\u002A\u002A,5*%
X133858000Y-38354000D03*
%TO.P,REF\u002A\u002A,6*%
X133858000Y-40894000D03*
%TO.P,REF\u002A\u002A,7*%
X133858000Y-43434000D03*
D14*
%TO.P,REF\u002A\u002A,8*%
X133858000Y-45974000D03*
D13*
%TO.P,REF\u002A\u002A,9*%
X133858000Y-48514000D03*
%TO.P,REF\u002A\u002A,10*%
X133858000Y-51054000D03*
%TO.P,REF\u002A\u002A,11*%
X133858000Y-53594000D03*
%TO.P,REF\u002A\u002A,12*%
X133858000Y-56134000D03*
D14*
%TO.P,REF\u002A\u002A,13*%
X133858000Y-58674000D03*
D13*
%TO.P,REF\u002A\u002A,14*%
X133858000Y-61214000D03*
%TO.P,REF\u002A\u002A,15*%
X133858000Y-63754000D03*
%TO.P,REF\u002A\u002A,16*%
X133858000Y-66294000D03*
%TO.P,REF\u002A\u002A,17*%
X133858000Y-68834000D03*
D14*
%TO.P,REF\u002A\u002A,18*%
X133858000Y-71374000D03*
D13*
%TO.P,REF\u002A\u002A,19*%
X133858000Y-73914000D03*
%TO.P,REF\u002A\u002A,20*%
X133858000Y-76454000D03*
%TO.P,REF\u002A\u002A,21*%
X151638000Y-76454000D03*
%TO.P,REF\u002A\u002A,22*%
X151638000Y-73914000D03*
D14*
%TO.P,REF\u002A\u002A,23*%
X151638000Y-71374000D03*
D13*
%TO.P,REF\u002A\u002A,24*%
X151638000Y-68834000D03*
%TO.P,REF\u002A\u002A,25*%
X151638000Y-66294000D03*
%TO.P,REF\u002A\u002A,26*%
X151638000Y-63754000D03*
%TO.P,REF\u002A\u002A,27*%
X151638000Y-61214000D03*
D14*
%TO.P,REF\u002A\u002A,28*%
X151638000Y-58674000D03*
D13*
%TO.P,REF\u002A\u002A,29*%
X151638000Y-56134000D03*
%TO.P,REF\u002A\u002A,30*%
X151638000Y-53594000D03*
%TO.P,REF\u002A\u002A,31*%
X151638000Y-51054000D03*
%TO.P,REF\u002A\u002A,32*%
X151638000Y-48514000D03*
D14*
%TO.P,REF\u002A\u002A,33*%
X151638000Y-45974000D03*
D13*
%TO.P,REF\u002A\u002A,34*%
X151638000Y-43434000D03*
%TO.P,REF\u002A\u002A,35*%
X151638000Y-40894000D03*
%TO.P,REF\u002A\u002A,36*%
X151638000Y-38354000D03*
%TO.P,REF\u002A\u002A,37*%
X151638000Y-35814000D03*
D14*
%TO.P,REF\u002A\u002A,38*%
X151638000Y-33274000D03*
D13*
%TO.P,REF\u002A\u002A,39*%
X151638000Y-30734000D03*
%TO.P,REF\u002A\u002A,40*%
X151638000Y-28194000D03*
%TO.P,REF\u002A\u002A,41*%
X140208000Y-76224000D03*
D14*
%TO.P,REF\u002A\u002A,42*%
X142748000Y-76224000D03*
D13*
%TO.P,REF\u002A\u002A,43*%
X145288000Y-76224000D03*
%TD*%
D11*
%TO.P,GP0,1*%
%TO.N,N/C*%
X90314000Y-31592000D03*
%TO.P,GP0,2*%
X102314000Y-33792000D03*
%TD*%
D10*
%TO.P,GP20,1*%
%TO.N,N/C*%
X217308531Y-61348126D03*
%TO.P,GP20,2*%
X229236989Y-58788460D03*
%TD*%
%TO.P,GP19,1*%
%TO.N,N/C*%
X190450367Y-67061181D03*
%TO.P,GP19,2*%
X202378825Y-64501515D03*
%TD*%
D15*
%TO.N,*%
X237236000Y-36576000D03*
X212344000Y-86868000D03*
X198628000Y-36576000D03*
X88900000Y-89916000D03*
X155956000Y-91440000D03*
X124460000Y-104648000D03*
X187452000Y-97028000D03*
X176784000Y-71628000D03*
X179832000Y-36576000D03*
X229108000Y-55880000D03*
X166116000Y-116332000D03*
X115824000Y-82296000D03*
X123952000Y-34036000D03*
X106680000Y-97536000D03*
X102616000Y-29972000D03*
X239268000Y-80772000D03*
X217932000Y-36576000D03*
X202184000Y-60960000D03*
%TD*%
D16*
%TO.N,*%
X102616000Y-33490000D02*
X102314000Y-33792000D01*
X102616000Y-29972000D02*
X102616000Y-33490000D01*
X123708000Y-33792000D02*
X123952000Y-34036000D01*
X121364000Y-33792000D02*
X123708000Y-33792000D01*
X179276000Y-33284000D02*
X179832000Y-33840000D01*
X179832000Y-33840000D02*
X179832000Y-36576000D01*
X198628000Y-33586000D02*
X198628000Y-36576000D01*
X198326000Y-33284000D02*
X198628000Y-33586000D01*
X217932000Y-33840000D02*
X217932000Y-36576000D01*
X217376000Y-33284000D02*
X217932000Y-33840000D01*
X237236000Y-34094000D02*
X237236000Y-36576000D01*
X236426000Y-33284000D02*
X237236000Y-34094000D01*
X239569442Y-81073442D02*
X239268000Y-80772000D01*
X239569442Y-83733208D02*
X239569442Y-81073442D01*
X229236989Y-56008989D02*
X229108000Y-55880000D01*
X229236989Y-58788460D02*
X229236989Y-56008989D01*
X202378825Y-61154825D02*
X202184000Y-60960000D01*
X202378825Y-64501515D02*
X202378825Y-61154825D01*
X212711278Y-87235278D02*
X212344000Y-86868000D01*
X212711278Y-89446263D02*
X212711278Y-87235278D01*
X177434078Y-72278078D02*
X176784000Y-71628000D01*
X177434078Y-74833968D02*
X177434078Y-72278078D01*
X187766530Y-99778716D02*
X187452000Y-99464186D01*
X187452000Y-99464186D02*
X187452000Y-97028000D01*
X166648617Y-119349964D02*
X166648617Y-116864617D01*
X166648617Y-116864617D02*
X166116000Y-116332000D01*
X156316165Y-94405216D02*
X156316165Y-91800165D01*
X156316165Y-91800165D02*
X155956000Y-91440000D01*
X88900000Y-90914905D02*
X88900000Y-89916000D01*
X87539812Y-92275093D02*
X88900000Y-90914905D01*
X106680000Y-98024929D02*
X106680000Y-97536000D01*
X105139717Y-99565212D02*
X106680000Y-98024929D01*
X124460000Y-105134954D02*
X124460000Y-104648000D01*
X122739622Y-106855332D02*
X124460000Y-105134954D01*
X112760528Y-82296000D02*
X115824000Y-82296000D01*
X112429836Y-81965308D02*
X112760528Y-82296000D01*
X118872000Y-75438000D02*
X122936000Y-71374000D01*
X118872000Y-83820000D02*
X118872000Y-75438000D01*
X106680000Y-71374000D02*
X122936000Y-71374000D01*
X112494971Y-90197029D02*
X118872000Y-83820000D01*
X122936000Y-71374000D02*
X133858000Y-71374000D01*
X112494971Y-100230596D02*
X112494971Y-90197029D01*
X85852000Y-80264000D02*
X85852000Y-77093518D01*
X85852000Y-77093518D02*
X87314759Y-75630759D01*
X87314759Y-75630759D02*
X77295161Y-85650357D01*
X94895066Y-89307066D02*
X85852000Y-80264000D01*
X91571518Y-71374000D02*
X87314759Y-75630759D01*
X94895066Y-92940476D02*
X94895066Y-89307066D01*
X106680000Y-71374000D02*
X91571518Y-71374000D01*
X106151757Y-71374000D02*
X106680000Y-71374000D01*
X102185185Y-75340572D02*
X106151757Y-71374000D01*
X200782820Y-92005929D02*
X187452000Y-92005929D01*
X187452000Y-92005929D02*
X173170071Y-92005929D01*
X190950071Y-92005929D02*
X187452000Y-92005929D01*
X224660110Y-83312000D02*
X199644000Y-83312000D01*
X199644000Y-83312000D02*
X190950071Y-92005929D01*
X227640984Y-86292874D02*
X224660110Y-83312000D01*
X170688000Y-94488000D02*
X167132000Y-94488000D01*
X163068000Y-90424000D02*
X163068000Y-84836000D01*
X167132000Y-94488000D02*
X163068000Y-90424000D01*
X173170071Y-92005929D02*
X170688000Y-94488000D01*
X163068000Y-95504000D02*
X163068000Y-90424000D01*
X165608000Y-99060000D02*
X163068000Y-96520000D01*
X163068000Y-105664000D02*
X163068000Y-95504000D01*
X172559690Y-99060000D02*
X165608000Y-99060000D01*
X175838072Y-102338382D02*
X172559690Y-99060000D01*
X163068000Y-96520000D02*
X163068000Y-95504000D01*
X156972000Y-78740000D02*
X156972000Y-72644000D01*
X156972000Y-79248000D02*
X156972000Y-78740000D01*
X154720159Y-114011841D02*
X163068000Y-105664000D01*
X154720159Y-121909630D02*
X154720159Y-114011841D01*
X163068000Y-84836000D02*
X156972000Y-78740000D01*
X180340000Y-58420000D02*
X171704000Y-67056000D01*
X168148000Y-67056000D02*
X161544000Y-67056000D01*
X171704000Y-67056000D02*
X168148000Y-67056000D01*
X214380405Y-58420000D02*
X180340000Y-58420000D01*
X217308531Y-61348126D02*
X214380405Y-58420000D01*
X190445186Y-67056000D02*
X168148000Y-67056000D01*
X156464000Y-71374000D02*
X151638000Y-71374000D01*
X157226000Y-71374000D02*
X156464000Y-71374000D01*
X159485986Y-71374000D02*
X156464000Y-71374000D01*
X161544000Y-67056000D02*
X157226000Y-71374000D01*
X190450367Y-67061181D02*
X190445186Y-67056000D01*
X155702000Y-71374000D02*
X151638000Y-71374000D01*
X143764000Y-92456000D02*
X156972000Y-79248000D01*
X143764000Y-96341175D02*
X143764000Y-92456000D01*
X156972000Y-72644000D02*
X155702000Y-71374000D01*
X144387707Y-96964882D02*
X143764000Y-96341175D01*
X165505620Y-77393634D02*
X159485986Y-71374000D01*
X221282000Y-27940000D02*
X201168000Y-27940000D01*
X224426000Y-31084000D02*
X221282000Y-27940000D01*
X202232000Y-27940000D02*
X201168000Y-27940000D01*
X201168000Y-27940000D02*
X182372000Y-27940000D01*
X205376000Y-31084000D02*
X202232000Y-27940000D01*
X182372000Y-27940000D02*
X163576000Y-27940000D01*
X183182000Y-27940000D02*
X182372000Y-27940000D01*
X186326000Y-31084000D02*
X183182000Y-27940000D01*
X163576000Y-27940000D02*
X160528000Y-27940000D01*
X164132000Y-27940000D02*
X163576000Y-27940000D01*
X160528000Y-27940000D02*
X155194000Y-33274000D01*
X155194000Y-33274000D02*
X151638000Y-33274000D01*
X167276000Y-31084000D02*
X164132000Y-27940000D01*
X109364000Y-29320000D02*
X110744000Y-27940000D01*
X109364000Y-31592000D02*
X109364000Y-29320000D01*
X110744000Y-27940000D02*
X122936000Y-27940000D01*
X91440000Y-27940000D02*
X110744000Y-27940000D01*
X122936000Y-27940000D02*
X128270000Y-33274000D01*
X90314000Y-29066000D02*
X91440000Y-27940000D01*
X128270000Y-33274000D02*
X133858000Y-33274000D01*
X90314000Y-31592000D02*
X90314000Y-29066000D01*
%TD*%
M02*
