M48
; DRILL file {KiCad 7.0.5} date Fri Aug 11 22:31:05 2023
; FORMAT={-:-/ absolute / inch / decimal}
; #@! TF.CreationDate,2023-08-11T22:31:05-05:00
; #@! TF.GenerationSoftware,Kicad,Pcbnew,7.0.5
; #@! TF.FileFunction,NonPlated,1,2,NPTH
FMAT,2
INCH
; #@! TA.AperFunction,NonPlated,NPTH,ComponentDrill
T1C0.0591
; #@! TA.AperFunction,NonPlated,NPTH,ComponentDrill
T2C0.0630
; #@! TA.AperFunction,NonPlated,NPTH,ComponentDrill
T3C0.0709
; #@! TA.AperFunction,NonPlated,NPTH,ComponentDrill
T4C0.0748
; #@! TA.AperFunction,NonPlated,NPTH,ComponentDrill
T5C0.1201
; #@! TA.AperFunction,NonPlated,NPTH,ComponentDrill
T6C0.1260
; #@! TA.AperFunction,NonPlated,NPTH,ComponentDrill
T7C0.1988
%
G90
G05
T1
X5.5245Y-1.2344
X5.7155Y-1.2344
T2
X2.8206Y-3.755
X3.4966Y-1.6828
X3.5135Y-4.042
X3.8005Y-3.3491
X4.2064Y-4.329
X4.2466Y-1.6828
X5.798Y-4.2457
X6.2048Y-5.2278
X6.5266Y-1.6628
X6.6294Y-3.4752
X7.0362Y-4.4572
X7.2766Y-1.6628
X7.6115Y-3.0684
X8.0183Y-4.0504
X8.0266Y-1.6628
X8.6689Y-2.8434
X8.7766Y-1.6628
X9.0757Y-3.8255
T3
X5.5127Y-1.1151
X5.7273Y-1.1151
T4
X2.88Y-3.5602
X3.2801Y-3.7259
X3.4769Y-1.48
X3.5729Y-3.8472
X3.8599Y-3.1543
X3.91Y-1.48
X3.973Y-4.0129
X4.2269Y-1.48
X4.26Y-3.32
X4.2658Y-4.1342
X4.66Y-1.48
X4.6659Y-4.2999
X5.7022Y-4.0659
X6.1023Y-3.9002
X6.109Y-5.048
X6.5069Y-1.46
X6.5091Y-4.8822
X6.5336Y-3.2954
X6.9337Y-3.1296
X6.94Y-1.46
X6.9404Y-4.2774
X7.2569Y-1.46
X7.3405Y-4.1117
X7.5157Y-2.8886
X7.69Y-1.46
X7.9158Y-2.7228
X7.9225Y-3.8707
X8.0069Y-1.46
X8.3226Y-3.7049
X8.44Y-1.46
X8.5731Y-2.6637
X8.7569Y-1.46
X8.9732Y-2.4979
X8.9799Y-3.6457
X9.19Y-1.46
X9.38Y-3.48
T5
X3.1689Y-3.4284
X3.3191Y-3.5801
X3.6935Y-1.2477
X3.8618Y-3.7154
X3.8903Y-1.3304
X4.0121Y-3.8672
X4.1488Y-3.0225
X4.2991Y-3.1742
X4.4435Y-1.2477
X4.5547Y-4.0025
X4.6403Y-1.3304
X4.705Y-4.1542
X5.8134Y-3.7684
X6.0269Y-3.7695
X6.2202Y-4.7505
X6.4337Y-4.7515
X6.6448Y-2.9979
X6.7235Y-1.2277
X6.8583Y-2.999
X6.9203Y-1.3104
X7.0516Y-3.98
X7.2651Y-3.981
X7.4735Y-1.2277
X7.6269Y-2.5911
X7.6703Y-1.3104
X7.8404Y-2.5922
X8.0336Y-3.5732
X8.2235Y-1.2277
X8.2472Y-3.5742
X8.4203Y-1.3104
X8.6843Y-2.3662
X8.8978Y-2.3672
X8.9735Y-1.2277
X9.0911Y-3.3483
X9.1703Y-1.3104
X9.3046Y-3.3493
T6
X2.7Y-1.2
X2.7Y-5.3
X9.62Y-1.2
X9.62Y-5.3
T7
X3.08Y-3.643
X3.6935Y-1.48
X3.7729Y-3.93
X4.0599Y-3.2371
X4.4435Y-1.48
X4.4658Y-4.2171
X5.9023Y-3.983
X6.309Y-4.9651
X6.7235Y-1.46
X6.7337Y-3.2125
X7.1405Y-4.1946
X7.4735Y-1.46
X7.7157Y-2.8057
X8.1225Y-3.7878
X8.2235Y-1.46
X8.7732Y-2.5808
X8.9735Y-1.46
X9.1799Y-3.5629
T0
M30
