M48
; DRILL file {KiCad 7.0.5} date Fri Aug 11 22:31:05 2023
; FORMAT={-:-/ absolute / inch / decimal}
; #@! TF.CreationDate,2023-08-11T22:31:05-05:00
; #@! TF.GenerationSoftware,Kicad,Pcbnew,7.0.5
; #@! TF.FileFunction,Plated,1,2,PTH
FMAT,2
INCH
; #@! TA.AperFunction,Plated,PTH,ViaDrill
T1C0.0157
; #@! TA.AperFunction,Plated,PTH,ComponentDrill
T2C0.0402
%
G90
G05
T1
X3.5Y-3.54
X4.04Y-1.18
X4.2Y-3.84
X4.56Y-3.24
X4.88Y-1.34
X4.9Y-4.12
X6.14Y-3.6
X6.54Y-4.58
X6.96Y-2.82
X7.08Y-1.44
X7.38Y-3.82
X7.82Y-1.44
X7.96Y-2.4
X8.36Y-3.42
X8.58Y-1.44
X9.02Y-2.2
X9.34Y-1.44
X9.42Y-3.18
T2
X5.27Y-1.11
X5.27Y-1.21
X5.27Y-1.31
X5.27Y-1.41
X5.27Y-1.51
X5.27Y-1.61
X5.27Y-1.71
X5.27Y-1.81
X5.27Y-1.91
X5.27Y-2.01
X5.27Y-2.11
X5.27Y-2.21
X5.27Y-2.31
X5.27Y-2.41
X5.27Y-2.51
X5.27Y-2.61
X5.27Y-2.71
X5.27Y-2.81
X5.27Y-2.91
X5.27Y-3.01
X5.52Y-3.0009
X5.62Y-3.0009
X5.72Y-3.0009
X5.97Y-1.11
X5.97Y-1.21
X5.97Y-1.31
X5.97Y-1.41
X5.97Y-1.51
X5.97Y-1.61
X5.97Y-1.71
X5.97Y-1.81
X5.97Y-1.91
X5.97Y-2.01
X5.97Y-2.11
X5.97Y-2.21
X5.97Y-2.31
X5.97Y-2.41
X5.97Y-2.51
X5.97Y-2.61
X5.97Y-2.71
X5.97Y-2.81
X5.97Y-2.91
X5.97Y-3.01
T0
M30
