%TF.GenerationSoftware,KiCad,Pcbnew,7.0.5*%
%TF.CreationDate,2023-08-11T22:31:08-05:00*%
%TF.ProjectId,ArkeyV2,41726b65-7956-4322-9e6b-696361645f70,rev?*%
%TF.SameCoordinates,Original*%
%TF.FileFunction,Soldermask,Bot*%
%TF.FilePolarity,Negative*%
%FSLAX46Y46*%
G04 Gerber Fmt 4.6, Leading zero omitted, Abs format (unit mm)*
G04 Created by KiCad (PCBNEW 7.0.5) date 2023-08-11 22:31:08*
%MOMM*%
%LPD*%
G01*
G04 APERTURE LIST*
G04 Aperture macros list*
%AMRoundRect*
0 Rectangle with rounded corners*
0 $1 Rounding radius*
0 $2 $3 $4 $5 $6 $7 $8 $9 X,Y pos of 4 corners*
0 Add a 4 corners polygon primitive as box body*
4,1,4,$2,$3,$4,$5,$6,$7,$8,$9,$2,$3,0*
0 Add four circle primitives for the rounded corners*
1,1,$1+$1,$2,$3*
1,1,$1+$1,$4,$5*
1,1,$1+$1,$6,$7*
1,1,$1+$1,$8,$9*
0 Add four rect primitives between the rounded corners*
20,1,$1+$1,$2,$3,$4,$5,0*
20,1,$1+$1,$4,$5,$6,$7,0*
20,1,$1+$1,$6,$7,$8,$9,0*
20,1,$1+$1,$8,$9,$2,$3,0*%
G04 Aperture macros list end*
%ADD10C,1.900000*%
%ADD11C,1.600000*%
%ADD12C,3.050000*%
%ADD13C,5.050000*%
%ADD14RoundRect,0.250000X-0.564293X-1.316130X1.329660X-0.531629X0.564293X1.316130X-1.329660X0.531629X0*%
%ADD15RoundRect,0.250000X-1.025000X-1.000000X1.025000X-1.000000X1.025000X1.000000X-1.025000X1.000000X0*%
%ADD16RoundRect,0.250000X-1.329660X-0.531629X0.564293X-1.316130X1.329660X0.531629X-0.564293X1.316130X0*%
%ADD17C,3.200000*%
%ADD18O,1.800000X1.800000*%
%ADD19O,1.500000X1.500000*%
%ADD20O,1.700000X1.700000*%
%ADD21R,1.700000X1.700000*%
G04 APERTURE END LIST*
D10*
%TO.C,GP14*%
X155168501Y-128218274D03*
D11*
X157601260Y-132784912D03*
D12*
X157992006Y-120662626D03*
D13*
X160249838Y-126113515D03*
D12*
X163415039Y-120689356D03*
D10*
X165331175Y-124008756D03*
D14*
X154720159Y-121909630D03*
X166648617Y-119349964D03*
%TD*%
D10*
%TO.C,GP1*%
X107364000Y-37592000D03*
D11*
X107864000Y-42742000D03*
D12*
X112864000Y-31692000D03*
D13*
X112864000Y-37592000D03*
D12*
X117864000Y-33792000D03*
D10*
X118364000Y-37592000D03*
D15*
X109364000Y-31592000D03*
X121364000Y-33792000D03*
%TD*%
D16*
%TO.C,GP13*%
X122739622Y-106855332D03*
X112494971Y-100230596D03*
D10*
X118513786Y-109218024D03*
D12*
X119506044Y-105515940D03*
D13*
X113432449Y-107113265D03*
D12*
X115690281Y-101662376D03*
D11*
X106842232Y-109957827D03*
D10*
X108351112Y-105008506D03*
%TD*%
%TO.C,GP15*%
X144836049Y-103273526D03*
D11*
X147268808Y-107840164D03*
D12*
X147659554Y-95717878D03*
D13*
X149917386Y-101168767D03*
D12*
X153082587Y-95744608D03*
D10*
X154998723Y-99064008D03*
D14*
X144387707Y-96964882D03*
X156316165Y-94405216D03*
%TD*%
D10*
%TO.C,GP18*%
X201231162Y-98314573D03*
D11*
X203663921Y-102881211D03*
D12*
X204054667Y-90758925D03*
D13*
X206312499Y-96209814D03*
D12*
X209477700Y-90785655D03*
D10*
X211393836Y-94105055D03*
D14*
X200782820Y-92005929D03*
X212711278Y-89446263D03*
%TD*%
D10*
%TO.C,GP28*%
X165276000Y-37084000D03*
D11*
X165776000Y-42234000D03*
D12*
X170776000Y-31184000D03*
D13*
X170776000Y-37084000D03*
D12*
X175776000Y-33284000D03*
D10*
X176276000Y-37084000D03*
D15*
X167276000Y-31084000D03*
X179276000Y-33284000D03*
%TD*%
D10*
%TO.C,GP22*%
X222426000Y-37084000D03*
D11*
X222926000Y-42234000D03*
D12*
X227926000Y-31184000D03*
D13*
X227926000Y-37084000D03*
D12*
X232926000Y-33284000D03*
D10*
X233426000Y-37084000D03*
D15*
X224426000Y-31084000D03*
X236426000Y-33284000D03*
%TD*%
D17*
%TO.C,REF\u002A\u002A*%
X68580000Y-134620000D03*
%TD*%
D10*
%TO.C,GP17*%
X165953962Y-83702278D03*
D11*
X168386721Y-88268916D03*
D12*
X168777467Y-76146630D03*
D13*
X171035299Y-81597519D03*
D12*
X174200500Y-76173360D03*
D10*
X176116636Y-79492760D03*
D14*
X165505620Y-77393634D03*
X177434078Y-74833968D03*
%TD*%
D17*
%TO.C,REF\u002A\u002A*%
X244348000Y-30480000D03*
%TD*%
%TO.C,REF\u002A\u002A*%
X244348000Y-134620000D03*
%TD*%
D16*
%TO.C,GP12*%
X105139717Y-99565212D03*
X94895066Y-92940476D03*
D10*
X100913881Y-101927904D03*
D12*
X101906139Y-98225820D03*
D13*
X95832544Y-99823145D03*
D12*
X98090376Y-94372256D03*
D11*
X89242327Y-102667707D03*
D10*
X90751207Y-97718386D03*
%TD*%
%TO.C,GP27*%
X184326000Y-37084000D03*
D11*
X184826000Y-42234000D03*
D12*
X189826000Y-31184000D03*
D13*
X189826000Y-37084000D03*
D12*
X194826000Y-33284000D03*
D10*
X195326000Y-37084000D03*
D15*
X186326000Y-31084000D03*
X198326000Y-33284000D03*
%TD*%
D10*
%TO.C,GP21*%
X228089326Y-92601518D03*
D11*
X230522085Y-97168156D03*
D12*
X230912831Y-85045870D03*
D13*
X233170663Y-90496759D03*
D12*
X236335864Y-85072600D03*
D10*
X238252000Y-88392000D03*
D14*
X227640984Y-86292874D03*
X239569442Y-83733208D03*
%TD*%
D10*
%TO.C,GP10*%
X73151302Y-90428267D03*
D11*
X71642422Y-95377588D03*
D12*
X80490471Y-87082137D03*
D13*
X78232639Y-92533026D03*
D12*
X84306234Y-90935701D03*
D10*
X83313976Y-94637785D03*
D16*
X77295161Y-85650357D03*
X87539812Y-92275093D03*
%TD*%
D10*
%TO.C,GP26*%
X203376000Y-37084000D03*
D11*
X203876000Y-42234000D03*
D12*
X208876000Y-31184000D03*
D13*
X208876000Y-37084000D03*
D12*
X213876000Y-33284000D03*
D10*
X214376000Y-37084000D03*
D15*
X205376000Y-31084000D03*
X217376000Y-33284000D03*
%TD*%
D16*
%TO.C,GP11*%
X112429836Y-81965308D03*
X102185185Y-75340572D03*
D10*
X108204000Y-84328000D03*
D12*
X109196258Y-80625916D03*
D13*
X103122663Y-82223241D03*
D12*
X105380495Y-76772352D03*
D11*
X96532446Y-85067803D03*
D10*
X98041326Y-80118482D03*
%TD*%
D17*
%TO.C,REF\u002A\u002A*%
X68580000Y-30480000D03*
%TD*%
D10*
%TO.C,GP16*%
X176286414Y-108647026D03*
D11*
X178719173Y-113213664D03*
D12*
X179109919Y-101091378D03*
D13*
X181367751Y-106542267D03*
D12*
X184532952Y-101118108D03*
D10*
X186449088Y-104437508D03*
D14*
X175838072Y-102338382D03*
X187766530Y-99778716D03*
%TD*%
D18*
%TO.C,REF\u002A\u002A*%
X140023000Y-28324000D03*
D19*
X140323000Y-31354000D03*
X145173000Y-31354000D03*
D18*
X145473000Y-28324000D03*
D20*
X133858000Y-28194000D03*
X133858000Y-30734000D03*
D21*
X133858000Y-33274000D03*
D20*
X133858000Y-35814000D03*
X133858000Y-38354000D03*
X133858000Y-40894000D03*
X133858000Y-43434000D03*
D21*
X133858000Y-45974000D03*
D20*
X133858000Y-48514000D03*
X133858000Y-51054000D03*
X133858000Y-53594000D03*
X133858000Y-56134000D03*
D21*
X133858000Y-58674000D03*
D20*
X133858000Y-61214000D03*
X133858000Y-63754000D03*
X133858000Y-66294000D03*
X133858000Y-68834000D03*
D21*
X133858000Y-71374000D03*
D20*
X133858000Y-73914000D03*
X133858000Y-76454000D03*
X151638000Y-76454000D03*
X151638000Y-73914000D03*
D21*
X151638000Y-71374000D03*
D20*
X151638000Y-68834000D03*
X151638000Y-66294000D03*
X151638000Y-63754000D03*
X151638000Y-61214000D03*
D21*
X151638000Y-58674000D03*
D20*
X151638000Y-56134000D03*
X151638000Y-53594000D03*
X151638000Y-51054000D03*
X151638000Y-48514000D03*
D21*
X151638000Y-45974000D03*
D20*
X151638000Y-43434000D03*
X151638000Y-40894000D03*
X151638000Y-38354000D03*
X151638000Y-35814000D03*
D21*
X151638000Y-33274000D03*
D20*
X151638000Y-30734000D03*
X151638000Y-28194000D03*
X140208000Y-76224000D03*
D21*
X142748000Y-76224000D03*
D20*
X145288000Y-76224000D03*
%TD*%
D10*
%TO.C,GP0*%
X88314000Y-37592000D03*
D11*
X88814000Y-42742000D03*
D12*
X93814000Y-31692000D03*
D13*
X93814000Y-37592000D03*
D12*
X98814000Y-33792000D03*
D10*
X99314000Y-37592000D03*
D15*
X90314000Y-31592000D03*
X102314000Y-33792000D03*
%TD*%
D10*
%TO.C,GP20*%
X217756873Y-67656770D03*
D11*
X220189632Y-72223408D03*
D12*
X220580378Y-60101122D03*
D13*
X222838210Y-65552011D03*
D12*
X226003411Y-60127852D03*
D10*
X227919547Y-63447252D03*
D14*
X217308531Y-61348126D03*
X229236989Y-58788460D03*
%TD*%
D10*
%TO.C,GP19*%
X190898709Y-73369825D03*
D11*
X193331468Y-77936463D03*
D12*
X193722214Y-65814177D03*
D13*
X195980046Y-71265066D03*
D12*
X199145247Y-65840907D03*
D10*
X201061383Y-69160307D03*
D14*
X190450367Y-67061181D03*
X202378825Y-64501515D03*
%TD*%
M02*
