%TF.GenerationSoftware,KiCad,Pcbnew,7.0.5*%
%TF.CreationDate,2023-08-11T22:31:08-05:00*%
%TF.ProjectId,ArkeyV2,41726b65-7956-4322-9e6b-696361645f70,rev?*%
%TF.SameCoordinates,Original*%
%TF.FileFunction,Legend,Top*%
%TF.FilePolarity,Positive*%
%FSLAX46Y46*%
G04 Gerber Fmt 4.6, Leading zero omitted, Abs format (unit mm)*
G04 Created by KiCad (PCBNEW 7.0.5) date 2023-08-11 22:31:08*
%MOMM*%
%LPD*%
G01*
G04 APERTURE LIST*
%ADD10C,0.300000*%
%ADD11C,0.150000*%
%ADD12C,0.120000*%
G04 APERTURE END LIST*
D10*
X106051844Y-130327638D02*
X106718510Y-132327638D01*
X106718510Y-132327638D02*
X107385177Y-130327638D01*
X107956606Y-130518114D02*
X108051844Y-130422876D01*
X108051844Y-130422876D02*
X108242320Y-130327638D01*
X108242320Y-130327638D02*
X108718511Y-130327638D01*
X108718511Y-130327638D02*
X108908987Y-130422876D01*
X108908987Y-130422876D02*
X109004225Y-130518114D01*
X109004225Y-130518114D02*
X109099463Y-130708590D01*
X109099463Y-130708590D02*
X109099463Y-130899066D01*
X109099463Y-130899066D02*
X109004225Y-131184780D01*
X109004225Y-131184780D02*
X107861368Y-132327638D01*
X107861368Y-132327638D02*
X109099463Y-132327638D01*
%TO.C,G\u002A\u002A\u002A*%
X92150572Y-123709757D02*
X92007715Y-123638328D01*
X92007715Y-123638328D02*
X91793429Y-123638328D01*
X91793429Y-123638328D02*
X91579143Y-123709757D01*
X91579143Y-123709757D02*
X91436286Y-123852614D01*
X91436286Y-123852614D02*
X91364857Y-123995471D01*
X91364857Y-123995471D02*
X91293429Y-124281185D01*
X91293429Y-124281185D02*
X91293429Y-124495471D01*
X91293429Y-124495471D02*
X91364857Y-124781185D01*
X91364857Y-124781185D02*
X91436286Y-124924042D01*
X91436286Y-124924042D02*
X91579143Y-125066900D01*
X91579143Y-125066900D02*
X91793429Y-125138328D01*
X91793429Y-125138328D02*
X91936286Y-125138328D01*
X91936286Y-125138328D02*
X92150572Y-125066900D01*
X92150572Y-125066900D02*
X92222000Y-124995471D01*
X92222000Y-124995471D02*
X92222000Y-124495471D01*
X92222000Y-124495471D02*
X91936286Y-124495471D01*
X93079143Y-123638328D02*
X93079143Y-123995471D01*
X92722000Y-123852614D02*
X93079143Y-123995471D01*
X93079143Y-123995471D02*
X93436286Y-123852614D01*
X92864857Y-124281185D02*
X93079143Y-123995471D01*
X93079143Y-123995471D02*
X93293429Y-124281185D01*
X94222000Y-123638328D02*
X94222000Y-123995471D01*
X93864857Y-123852614D02*
X94222000Y-123995471D01*
X94222000Y-123995471D02*
X94579143Y-123852614D01*
X94007714Y-124281185D02*
X94222000Y-123995471D01*
X94222000Y-123995471D02*
X94436286Y-124281185D01*
X95364857Y-123638328D02*
X95364857Y-123995471D01*
X95007714Y-123852614D02*
X95364857Y-123995471D01*
X95364857Y-123995471D02*
X95722000Y-123852614D01*
X95150571Y-124281185D02*
X95364857Y-123995471D01*
X95364857Y-123995471D02*
X95579143Y-124281185D01*
D11*
%TO.C,GP14*%
X155515421Y-117794487D02*
X155409210Y-117786939D01*
X155409210Y-117786939D02*
X155277227Y-117841608D01*
X155277227Y-117841608D02*
X155163467Y-117940271D01*
X155163467Y-117940271D02*
X155111925Y-118064706D01*
X155111925Y-118064706D02*
X155104376Y-118170917D01*
X155104376Y-118170917D02*
X155133274Y-118365117D01*
X155133274Y-118365117D02*
X155187943Y-118497100D01*
X155187943Y-118497100D02*
X155304830Y-118654854D01*
X155304830Y-118654854D02*
X155385270Y-118724619D01*
X155385270Y-118724619D02*
X155509704Y-118776162D01*
X155509704Y-118776162D02*
X155659910Y-118765487D01*
X155659910Y-118765487D02*
X155747899Y-118729041D01*
X155747899Y-118729041D02*
X155861659Y-118630378D01*
X155861659Y-118630378D02*
X155887430Y-118568160D01*
X155887430Y-118568160D02*
X155759869Y-118260201D01*
X155759869Y-118260201D02*
X155583892Y-118333093D01*
X156319824Y-118492142D02*
X155937141Y-117568262D01*
X155937141Y-117568262D02*
X156289095Y-117422478D01*
X156289095Y-117422478D02*
X156395306Y-117430026D01*
X156395306Y-117430026D02*
X156457524Y-117455798D01*
X156457524Y-117455798D02*
X156537964Y-117525563D01*
X156537964Y-117525563D02*
X156592633Y-117657546D01*
X156592633Y-117657546D02*
X156585085Y-117763757D01*
X156585085Y-117763757D02*
X156559314Y-117825975D01*
X156559314Y-117825975D02*
X156489548Y-117906415D01*
X156489548Y-117906415D02*
X156137594Y-118052199D01*
X157727641Y-117909005D02*
X157199709Y-118127681D01*
X157463675Y-118018343D02*
X157080992Y-117094464D01*
X157080992Y-117094464D02*
X157047672Y-117262893D01*
X157047672Y-117262893D02*
X156996130Y-117387327D01*
X156996130Y-117387327D02*
X156926364Y-117467767D01*
X158264415Y-116965071D02*
X158519537Y-117580991D01*
X157898660Y-116704232D02*
X157952034Y-117455261D01*
X157952034Y-117455261D02*
X158523959Y-117218362D01*
%TO.C,GP1*%
X112149714Y-28094438D02*
X112054476Y-28046819D01*
X112054476Y-28046819D02*
X111911619Y-28046819D01*
X111911619Y-28046819D02*
X111768762Y-28094438D01*
X111768762Y-28094438D02*
X111673524Y-28189676D01*
X111673524Y-28189676D02*
X111625905Y-28284914D01*
X111625905Y-28284914D02*
X111578286Y-28475390D01*
X111578286Y-28475390D02*
X111578286Y-28618247D01*
X111578286Y-28618247D02*
X111625905Y-28808723D01*
X111625905Y-28808723D02*
X111673524Y-28903961D01*
X111673524Y-28903961D02*
X111768762Y-28999200D01*
X111768762Y-28999200D02*
X111911619Y-29046819D01*
X111911619Y-29046819D02*
X112006857Y-29046819D01*
X112006857Y-29046819D02*
X112149714Y-28999200D01*
X112149714Y-28999200D02*
X112197333Y-28951580D01*
X112197333Y-28951580D02*
X112197333Y-28618247D01*
X112197333Y-28618247D02*
X112006857Y-28618247D01*
X112625905Y-29046819D02*
X112625905Y-28046819D01*
X112625905Y-28046819D02*
X113006857Y-28046819D01*
X113006857Y-28046819D02*
X113102095Y-28094438D01*
X113102095Y-28094438D02*
X113149714Y-28142057D01*
X113149714Y-28142057D02*
X113197333Y-28237295D01*
X113197333Y-28237295D02*
X113197333Y-28380152D01*
X113197333Y-28380152D02*
X113149714Y-28475390D01*
X113149714Y-28475390D02*
X113102095Y-28523009D01*
X113102095Y-28523009D02*
X113006857Y-28570628D01*
X113006857Y-28570628D02*
X112625905Y-28570628D01*
X114149714Y-29046819D02*
X113578286Y-29046819D01*
X113864000Y-29046819D02*
X113864000Y-28046819D01*
X113864000Y-28046819D02*
X113768762Y-28189676D01*
X113768762Y-28189676D02*
X113673524Y-28284914D01*
X113673524Y-28284914D02*
X113578286Y-28332533D01*
%TO.C,GP13*%
X115967152Y-97883086D02*
X115897386Y-97802645D01*
X115897386Y-97802645D02*
X115765403Y-97747976D01*
X115765403Y-97747976D02*
X115615197Y-97737302D01*
X115615197Y-97737302D02*
X115490763Y-97788844D01*
X115490763Y-97788844D02*
X115410323Y-97858610D01*
X115410323Y-97858610D02*
X115293436Y-98016364D01*
X115293436Y-98016364D02*
X115238767Y-98148346D01*
X115238767Y-98148346D02*
X115209869Y-98342546D01*
X115209869Y-98342546D02*
X115217418Y-98448758D01*
X115217418Y-98448758D02*
X115268960Y-98573193D01*
X115268960Y-98573193D02*
X115382720Y-98671856D01*
X115382720Y-98671856D02*
X115470708Y-98708302D01*
X115470708Y-98708302D02*
X115620914Y-98718977D01*
X115620914Y-98718977D02*
X115683131Y-98693205D01*
X115683131Y-98693205D02*
X115810693Y-98385246D01*
X115810693Y-98385246D02*
X115634716Y-98312354D01*
X116042634Y-98945201D02*
X116425317Y-98021322D01*
X116425317Y-98021322D02*
X116777271Y-98167106D01*
X116777271Y-98167106D02*
X116847037Y-98247546D01*
X116847037Y-98247546D02*
X116872808Y-98309763D01*
X116872808Y-98309763D02*
X116880356Y-98415975D01*
X116880356Y-98415975D02*
X116825687Y-98547958D01*
X116825687Y-98547958D02*
X116745247Y-98617723D01*
X116745247Y-98617723D02*
X116683030Y-98643494D01*
X116683030Y-98643494D02*
X116576818Y-98651043D01*
X116576818Y-98651043D02*
X116224864Y-98505259D01*
X117450450Y-99528338D02*
X116922519Y-99309662D01*
X117186485Y-99419000D02*
X117569168Y-98495120D01*
X117569168Y-98495120D02*
X117426510Y-98590657D01*
X117426510Y-98590657D02*
X117302076Y-98642199D01*
X117302076Y-98642199D02*
X117195864Y-98649748D01*
X118141094Y-98732019D02*
X118713019Y-98968919D01*
X118713019Y-98968919D02*
X118259275Y-99193312D01*
X118259275Y-99193312D02*
X118391258Y-99247981D01*
X118391258Y-99247981D02*
X118461023Y-99328421D01*
X118461023Y-99328421D02*
X118486794Y-99390638D01*
X118486794Y-99390638D02*
X118494343Y-99496850D01*
X118494343Y-99496850D02*
X118403228Y-99716821D01*
X118403228Y-99716821D02*
X118322787Y-99786587D01*
X118322787Y-99786587D02*
X118260570Y-99812358D01*
X118260570Y-99812358D02*
X118154358Y-99819906D01*
X118154358Y-99819906D02*
X117890393Y-99710568D01*
X117890393Y-99710568D02*
X117820627Y-99630128D01*
X117820627Y-99630128D02*
X117794856Y-99567910D01*
%TO.C,GP15*%
X145182969Y-92849739D02*
X145076758Y-92842191D01*
X145076758Y-92842191D02*
X144944775Y-92896860D01*
X144944775Y-92896860D02*
X144831015Y-92995523D01*
X144831015Y-92995523D02*
X144779473Y-93119958D01*
X144779473Y-93119958D02*
X144771924Y-93226169D01*
X144771924Y-93226169D02*
X144800822Y-93420369D01*
X144800822Y-93420369D02*
X144855491Y-93552352D01*
X144855491Y-93552352D02*
X144972378Y-93710106D01*
X144972378Y-93710106D02*
X145052818Y-93779871D01*
X145052818Y-93779871D02*
X145177252Y-93831414D01*
X145177252Y-93831414D02*
X145327458Y-93820739D01*
X145327458Y-93820739D02*
X145415447Y-93784293D01*
X145415447Y-93784293D02*
X145529207Y-93685630D01*
X145529207Y-93685630D02*
X145554978Y-93623412D01*
X145554978Y-93623412D02*
X145427417Y-93315453D01*
X145427417Y-93315453D02*
X145251440Y-93388345D01*
X145987372Y-93547394D02*
X145604689Y-92623514D01*
X145604689Y-92623514D02*
X145956643Y-92477730D01*
X145956643Y-92477730D02*
X146062854Y-92485278D01*
X146062854Y-92485278D02*
X146125072Y-92511050D01*
X146125072Y-92511050D02*
X146205512Y-92580815D01*
X146205512Y-92580815D02*
X146260181Y-92712798D01*
X146260181Y-92712798D02*
X146252633Y-92819009D01*
X146252633Y-92819009D02*
X146226862Y-92881227D01*
X146226862Y-92881227D02*
X146157096Y-92961667D01*
X146157096Y-92961667D02*
X145805142Y-93107451D01*
X147395189Y-92964257D02*
X146867257Y-93182933D01*
X147131223Y-93073595D02*
X146748540Y-92149716D01*
X146748540Y-92149716D02*
X146715220Y-92318145D01*
X146715220Y-92318145D02*
X146663678Y-92442579D01*
X146663678Y-92442579D02*
X146593912Y-92523019D01*
X147848396Y-91694140D02*
X147408454Y-91876370D01*
X147408454Y-91876370D02*
X147546690Y-92334536D01*
X147546690Y-92334536D02*
X147572461Y-92272319D01*
X147572461Y-92272319D02*
X147642226Y-92191879D01*
X147642226Y-92191879D02*
X147862198Y-92100763D01*
X147862198Y-92100763D02*
X147968409Y-92108312D01*
X147968409Y-92108312D02*
X148030626Y-92134083D01*
X148030626Y-92134083D02*
X148111067Y-92203848D01*
X148111067Y-92203848D02*
X148202182Y-92423820D01*
X148202182Y-92423820D02*
X148194634Y-92530031D01*
X148194634Y-92530031D02*
X148168862Y-92592249D01*
X148168862Y-92592249D02*
X148099097Y-92672689D01*
X148099097Y-92672689D02*
X147879126Y-92763804D01*
X147879126Y-92763804D02*
X147772914Y-92756256D01*
X147772914Y-92756256D02*
X147710697Y-92730484D01*
%TO.C,GP18*%
X201578082Y-87890786D02*
X201471871Y-87883238D01*
X201471871Y-87883238D02*
X201339888Y-87937907D01*
X201339888Y-87937907D02*
X201226128Y-88036570D01*
X201226128Y-88036570D02*
X201174586Y-88161005D01*
X201174586Y-88161005D02*
X201167037Y-88267216D01*
X201167037Y-88267216D02*
X201195935Y-88461416D01*
X201195935Y-88461416D02*
X201250604Y-88593399D01*
X201250604Y-88593399D02*
X201367491Y-88751153D01*
X201367491Y-88751153D02*
X201447931Y-88820918D01*
X201447931Y-88820918D02*
X201572365Y-88872461D01*
X201572365Y-88872461D02*
X201722571Y-88861786D01*
X201722571Y-88861786D02*
X201810560Y-88825340D01*
X201810560Y-88825340D02*
X201924320Y-88726677D01*
X201924320Y-88726677D02*
X201950091Y-88664459D01*
X201950091Y-88664459D02*
X201822530Y-88356500D01*
X201822530Y-88356500D02*
X201646553Y-88429392D01*
X202382485Y-88588441D02*
X201999802Y-87664561D01*
X201999802Y-87664561D02*
X202351756Y-87518777D01*
X202351756Y-87518777D02*
X202457967Y-87526325D01*
X202457967Y-87526325D02*
X202520185Y-87552097D01*
X202520185Y-87552097D02*
X202600625Y-87621862D01*
X202600625Y-87621862D02*
X202655294Y-87753845D01*
X202655294Y-87753845D02*
X202647746Y-87860056D01*
X202647746Y-87860056D02*
X202621975Y-87922274D01*
X202621975Y-87922274D02*
X202552209Y-88002714D01*
X202552209Y-88002714D02*
X202200255Y-88148498D01*
X203790302Y-88005304D02*
X203262370Y-88223980D01*
X203526336Y-88114642D02*
X203143653Y-87190763D01*
X203143653Y-87190763D02*
X203110333Y-87359192D01*
X203110333Y-87359192D02*
X203058791Y-87483626D01*
X203058791Y-87483626D02*
X202989025Y-87564066D01*
X204099557Y-87258697D02*
X203993345Y-87251149D01*
X203993345Y-87251149D02*
X203931128Y-87225377D01*
X203931128Y-87225377D02*
X203850687Y-87155612D01*
X203850687Y-87155612D02*
X203832464Y-87111618D01*
X203832464Y-87111618D02*
X203840013Y-87005406D01*
X203840013Y-87005406D02*
X203865784Y-86943189D01*
X203865784Y-86943189D02*
X203935549Y-86862748D01*
X203935549Y-86862748D02*
X204111526Y-86789856D01*
X204111526Y-86789856D02*
X204217738Y-86797405D01*
X204217738Y-86797405D02*
X204279955Y-86823176D01*
X204279955Y-86823176D02*
X204360396Y-86892941D01*
X204360396Y-86892941D02*
X204378619Y-86936936D01*
X204378619Y-86936936D02*
X204371070Y-87043147D01*
X204371070Y-87043147D02*
X204345299Y-87105364D01*
X204345299Y-87105364D02*
X204275534Y-87185805D01*
X204275534Y-87185805D02*
X204099557Y-87258697D01*
X204099557Y-87258697D02*
X204029791Y-87339137D01*
X204029791Y-87339137D02*
X204004020Y-87401354D01*
X204004020Y-87401354D02*
X203996472Y-87507566D01*
X203996472Y-87507566D02*
X204069364Y-87683543D01*
X204069364Y-87683543D02*
X204149804Y-87753308D01*
X204149804Y-87753308D02*
X204212021Y-87779080D01*
X204212021Y-87779080D02*
X204318233Y-87786628D01*
X204318233Y-87786628D02*
X204494210Y-87713736D01*
X204494210Y-87713736D02*
X204563975Y-87633296D01*
X204563975Y-87633296D02*
X204589747Y-87571078D01*
X204589747Y-87571078D02*
X204597295Y-87464867D01*
X204597295Y-87464867D02*
X204524403Y-87288890D01*
X204524403Y-87288890D02*
X204443962Y-87219124D01*
X204443962Y-87219124D02*
X204381745Y-87193353D01*
X204381745Y-87193353D02*
X204275534Y-87185805D01*
%TO.C,GP28*%
X169585523Y-27586438D02*
X169490285Y-27538819D01*
X169490285Y-27538819D02*
X169347428Y-27538819D01*
X169347428Y-27538819D02*
X169204571Y-27586438D01*
X169204571Y-27586438D02*
X169109333Y-27681676D01*
X169109333Y-27681676D02*
X169061714Y-27776914D01*
X169061714Y-27776914D02*
X169014095Y-27967390D01*
X169014095Y-27967390D02*
X169014095Y-28110247D01*
X169014095Y-28110247D02*
X169061714Y-28300723D01*
X169061714Y-28300723D02*
X169109333Y-28395961D01*
X169109333Y-28395961D02*
X169204571Y-28491200D01*
X169204571Y-28491200D02*
X169347428Y-28538819D01*
X169347428Y-28538819D02*
X169442666Y-28538819D01*
X169442666Y-28538819D02*
X169585523Y-28491200D01*
X169585523Y-28491200D02*
X169633142Y-28443580D01*
X169633142Y-28443580D02*
X169633142Y-28110247D01*
X169633142Y-28110247D02*
X169442666Y-28110247D01*
X170061714Y-28538819D02*
X170061714Y-27538819D01*
X170061714Y-27538819D02*
X170442666Y-27538819D01*
X170442666Y-27538819D02*
X170537904Y-27586438D01*
X170537904Y-27586438D02*
X170585523Y-27634057D01*
X170585523Y-27634057D02*
X170633142Y-27729295D01*
X170633142Y-27729295D02*
X170633142Y-27872152D01*
X170633142Y-27872152D02*
X170585523Y-27967390D01*
X170585523Y-27967390D02*
X170537904Y-28015009D01*
X170537904Y-28015009D02*
X170442666Y-28062628D01*
X170442666Y-28062628D02*
X170061714Y-28062628D01*
X171014095Y-27634057D02*
X171061714Y-27586438D01*
X171061714Y-27586438D02*
X171156952Y-27538819D01*
X171156952Y-27538819D02*
X171395047Y-27538819D01*
X171395047Y-27538819D02*
X171490285Y-27586438D01*
X171490285Y-27586438D02*
X171537904Y-27634057D01*
X171537904Y-27634057D02*
X171585523Y-27729295D01*
X171585523Y-27729295D02*
X171585523Y-27824533D01*
X171585523Y-27824533D02*
X171537904Y-27967390D01*
X171537904Y-27967390D02*
X170966476Y-28538819D01*
X170966476Y-28538819D02*
X171585523Y-28538819D01*
X172156952Y-27967390D02*
X172061714Y-27919771D01*
X172061714Y-27919771D02*
X172014095Y-27872152D01*
X172014095Y-27872152D02*
X171966476Y-27776914D01*
X171966476Y-27776914D02*
X171966476Y-27729295D01*
X171966476Y-27729295D02*
X172014095Y-27634057D01*
X172014095Y-27634057D02*
X172061714Y-27586438D01*
X172061714Y-27586438D02*
X172156952Y-27538819D01*
X172156952Y-27538819D02*
X172347428Y-27538819D01*
X172347428Y-27538819D02*
X172442666Y-27586438D01*
X172442666Y-27586438D02*
X172490285Y-27634057D01*
X172490285Y-27634057D02*
X172537904Y-27729295D01*
X172537904Y-27729295D02*
X172537904Y-27776914D01*
X172537904Y-27776914D02*
X172490285Y-27872152D01*
X172490285Y-27872152D02*
X172442666Y-27919771D01*
X172442666Y-27919771D02*
X172347428Y-27967390D01*
X172347428Y-27967390D02*
X172156952Y-27967390D01*
X172156952Y-27967390D02*
X172061714Y-28015009D01*
X172061714Y-28015009D02*
X172014095Y-28062628D01*
X172014095Y-28062628D02*
X171966476Y-28157866D01*
X171966476Y-28157866D02*
X171966476Y-28348342D01*
X171966476Y-28348342D02*
X172014095Y-28443580D01*
X172014095Y-28443580D02*
X172061714Y-28491200D01*
X172061714Y-28491200D02*
X172156952Y-28538819D01*
X172156952Y-28538819D02*
X172347428Y-28538819D01*
X172347428Y-28538819D02*
X172442666Y-28491200D01*
X172442666Y-28491200D02*
X172490285Y-28443580D01*
X172490285Y-28443580D02*
X172537904Y-28348342D01*
X172537904Y-28348342D02*
X172537904Y-28157866D01*
X172537904Y-28157866D02*
X172490285Y-28062628D01*
X172490285Y-28062628D02*
X172442666Y-28015009D01*
X172442666Y-28015009D02*
X172347428Y-27967390D01*
%TO.C,GP22*%
X226735523Y-27586438D02*
X226640285Y-27538819D01*
X226640285Y-27538819D02*
X226497428Y-27538819D01*
X226497428Y-27538819D02*
X226354571Y-27586438D01*
X226354571Y-27586438D02*
X226259333Y-27681676D01*
X226259333Y-27681676D02*
X226211714Y-27776914D01*
X226211714Y-27776914D02*
X226164095Y-27967390D01*
X226164095Y-27967390D02*
X226164095Y-28110247D01*
X226164095Y-28110247D02*
X226211714Y-28300723D01*
X226211714Y-28300723D02*
X226259333Y-28395961D01*
X226259333Y-28395961D02*
X226354571Y-28491200D01*
X226354571Y-28491200D02*
X226497428Y-28538819D01*
X226497428Y-28538819D02*
X226592666Y-28538819D01*
X226592666Y-28538819D02*
X226735523Y-28491200D01*
X226735523Y-28491200D02*
X226783142Y-28443580D01*
X226783142Y-28443580D02*
X226783142Y-28110247D01*
X226783142Y-28110247D02*
X226592666Y-28110247D01*
X227211714Y-28538819D02*
X227211714Y-27538819D01*
X227211714Y-27538819D02*
X227592666Y-27538819D01*
X227592666Y-27538819D02*
X227687904Y-27586438D01*
X227687904Y-27586438D02*
X227735523Y-27634057D01*
X227735523Y-27634057D02*
X227783142Y-27729295D01*
X227783142Y-27729295D02*
X227783142Y-27872152D01*
X227783142Y-27872152D02*
X227735523Y-27967390D01*
X227735523Y-27967390D02*
X227687904Y-28015009D01*
X227687904Y-28015009D02*
X227592666Y-28062628D01*
X227592666Y-28062628D02*
X227211714Y-28062628D01*
X228164095Y-27634057D02*
X228211714Y-27586438D01*
X228211714Y-27586438D02*
X228306952Y-27538819D01*
X228306952Y-27538819D02*
X228545047Y-27538819D01*
X228545047Y-27538819D02*
X228640285Y-27586438D01*
X228640285Y-27586438D02*
X228687904Y-27634057D01*
X228687904Y-27634057D02*
X228735523Y-27729295D01*
X228735523Y-27729295D02*
X228735523Y-27824533D01*
X228735523Y-27824533D02*
X228687904Y-27967390D01*
X228687904Y-27967390D02*
X228116476Y-28538819D01*
X228116476Y-28538819D02*
X228735523Y-28538819D01*
X229116476Y-27634057D02*
X229164095Y-27586438D01*
X229164095Y-27586438D02*
X229259333Y-27538819D01*
X229259333Y-27538819D02*
X229497428Y-27538819D01*
X229497428Y-27538819D02*
X229592666Y-27586438D01*
X229592666Y-27586438D02*
X229640285Y-27634057D01*
X229640285Y-27634057D02*
X229687904Y-27729295D01*
X229687904Y-27729295D02*
X229687904Y-27824533D01*
X229687904Y-27824533D02*
X229640285Y-27967390D01*
X229640285Y-27967390D02*
X229068857Y-28538819D01*
X229068857Y-28538819D02*
X229687904Y-28538819D01*
%TO.C,GP17*%
X166300882Y-73278491D02*
X166194671Y-73270943D01*
X166194671Y-73270943D02*
X166062688Y-73325612D01*
X166062688Y-73325612D02*
X165948928Y-73424275D01*
X165948928Y-73424275D02*
X165897386Y-73548710D01*
X165897386Y-73548710D02*
X165889837Y-73654921D01*
X165889837Y-73654921D02*
X165918735Y-73849121D01*
X165918735Y-73849121D02*
X165973404Y-73981104D01*
X165973404Y-73981104D02*
X166090291Y-74138858D01*
X166090291Y-74138858D02*
X166170731Y-74208623D01*
X166170731Y-74208623D02*
X166295165Y-74260166D01*
X166295165Y-74260166D02*
X166445371Y-74249491D01*
X166445371Y-74249491D02*
X166533360Y-74213045D01*
X166533360Y-74213045D02*
X166647120Y-74114382D01*
X166647120Y-74114382D02*
X166672891Y-74052164D01*
X166672891Y-74052164D02*
X166545330Y-73744205D01*
X166545330Y-73744205D02*
X166369353Y-73817097D01*
X167105285Y-73976146D02*
X166722602Y-73052266D01*
X166722602Y-73052266D02*
X167074556Y-72906482D01*
X167074556Y-72906482D02*
X167180767Y-72914030D01*
X167180767Y-72914030D02*
X167242985Y-72939802D01*
X167242985Y-72939802D02*
X167323425Y-73009567D01*
X167323425Y-73009567D02*
X167378094Y-73141550D01*
X167378094Y-73141550D02*
X167370546Y-73247761D01*
X167370546Y-73247761D02*
X167344775Y-73309979D01*
X167344775Y-73309979D02*
X167275009Y-73390419D01*
X167275009Y-73390419D02*
X166923055Y-73536203D01*
X168513102Y-73393009D02*
X167985170Y-73611685D01*
X168249136Y-73502347D02*
X167866453Y-72578468D01*
X167866453Y-72578468D02*
X167833133Y-72746897D01*
X167833133Y-72746897D02*
X167781591Y-72871331D01*
X167781591Y-72871331D02*
X167711825Y-72951771D01*
X168438378Y-72341568D02*
X169054298Y-72086446D01*
X169054298Y-72086446D02*
X169041033Y-73174333D01*
%TO.C,GP12*%
X98367247Y-90592966D02*
X98297481Y-90512525D01*
X98297481Y-90512525D02*
X98165498Y-90457856D01*
X98165498Y-90457856D02*
X98015292Y-90447182D01*
X98015292Y-90447182D02*
X97890858Y-90498724D01*
X97890858Y-90498724D02*
X97810418Y-90568490D01*
X97810418Y-90568490D02*
X97693531Y-90726244D01*
X97693531Y-90726244D02*
X97638862Y-90858226D01*
X97638862Y-90858226D02*
X97609964Y-91052426D01*
X97609964Y-91052426D02*
X97617513Y-91158638D01*
X97617513Y-91158638D02*
X97669055Y-91283073D01*
X97669055Y-91283073D02*
X97782815Y-91381736D01*
X97782815Y-91381736D02*
X97870803Y-91418182D01*
X97870803Y-91418182D02*
X98021009Y-91428857D01*
X98021009Y-91428857D02*
X98083226Y-91403085D01*
X98083226Y-91403085D02*
X98210788Y-91095126D01*
X98210788Y-91095126D02*
X98034811Y-91022234D01*
X98442729Y-91655081D02*
X98825412Y-90731202D01*
X98825412Y-90731202D02*
X99177366Y-90876986D01*
X99177366Y-90876986D02*
X99247132Y-90957426D01*
X99247132Y-90957426D02*
X99272903Y-91019643D01*
X99272903Y-91019643D02*
X99280451Y-91125855D01*
X99280451Y-91125855D02*
X99225782Y-91257838D01*
X99225782Y-91257838D02*
X99145342Y-91327603D01*
X99145342Y-91327603D02*
X99083125Y-91353374D01*
X99083125Y-91353374D02*
X98976913Y-91360923D01*
X98976913Y-91360923D02*
X98624959Y-91215139D01*
X99850545Y-92238218D02*
X99322614Y-92019542D01*
X99586580Y-92128880D02*
X99969263Y-91205000D01*
X99969263Y-91205000D02*
X99826605Y-91300537D01*
X99826605Y-91300537D02*
X99702171Y-91352079D01*
X99702171Y-91352079D02*
X99595959Y-91359628D01*
X100548737Y-91548111D02*
X100610954Y-91522340D01*
X100610954Y-91522340D02*
X100717166Y-91514792D01*
X100717166Y-91514792D02*
X100937137Y-91605907D01*
X100937137Y-91605907D02*
X101006902Y-91686347D01*
X101006902Y-91686347D02*
X101032674Y-91748564D01*
X101032674Y-91748564D02*
X101040222Y-91854776D01*
X101040222Y-91854776D02*
X101003776Y-91942764D01*
X101003776Y-91942764D02*
X100905113Y-92056524D01*
X100905113Y-92056524D02*
X100158505Y-92365779D01*
X100158505Y-92365779D02*
X100730431Y-92602678D01*
%TO.C,GP27*%
X188635523Y-27586438D02*
X188540285Y-27538819D01*
X188540285Y-27538819D02*
X188397428Y-27538819D01*
X188397428Y-27538819D02*
X188254571Y-27586438D01*
X188254571Y-27586438D02*
X188159333Y-27681676D01*
X188159333Y-27681676D02*
X188111714Y-27776914D01*
X188111714Y-27776914D02*
X188064095Y-27967390D01*
X188064095Y-27967390D02*
X188064095Y-28110247D01*
X188064095Y-28110247D02*
X188111714Y-28300723D01*
X188111714Y-28300723D02*
X188159333Y-28395961D01*
X188159333Y-28395961D02*
X188254571Y-28491200D01*
X188254571Y-28491200D02*
X188397428Y-28538819D01*
X188397428Y-28538819D02*
X188492666Y-28538819D01*
X188492666Y-28538819D02*
X188635523Y-28491200D01*
X188635523Y-28491200D02*
X188683142Y-28443580D01*
X188683142Y-28443580D02*
X188683142Y-28110247D01*
X188683142Y-28110247D02*
X188492666Y-28110247D01*
X189111714Y-28538819D02*
X189111714Y-27538819D01*
X189111714Y-27538819D02*
X189492666Y-27538819D01*
X189492666Y-27538819D02*
X189587904Y-27586438D01*
X189587904Y-27586438D02*
X189635523Y-27634057D01*
X189635523Y-27634057D02*
X189683142Y-27729295D01*
X189683142Y-27729295D02*
X189683142Y-27872152D01*
X189683142Y-27872152D02*
X189635523Y-27967390D01*
X189635523Y-27967390D02*
X189587904Y-28015009D01*
X189587904Y-28015009D02*
X189492666Y-28062628D01*
X189492666Y-28062628D02*
X189111714Y-28062628D01*
X190064095Y-27634057D02*
X190111714Y-27586438D01*
X190111714Y-27586438D02*
X190206952Y-27538819D01*
X190206952Y-27538819D02*
X190445047Y-27538819D01*
X190445047Y-27538819D02*
X190540285Y-27586438D01*
X190540285Y-27586438D02*
X190587904Y-27634057D01*
X190587904Y-27634057D02*
X190635523Y-27729295D01*
X190635523Y-27729295D02*
X190635523Y-27824533D01*
X190635523Y-27824533D02*
X190587904Y-27967390D01*
X190587904Y-27967390D02*
X190016476Y-28538819D01*
X190016476Y-28538819D02*
X190635523Y-28538819D01*
X190968857Y-27538819D02*
X191635523Y-27538819D01*
X191635523Y-27538819D02*
X191206952Y-28538819D01*
%TO.C,GP21*%
X228436246Y-82177731D02*
X228330035Y-82170183D01*
X228330035Y-82170183D02*
X228198052Y-82224852D01*
X228198052Y-82224852D02*
X228084292Y-82323515D01*
X228084292Y-82323515D02*
X228032750Y-82447950D01*
X228032750Y-82447950D02*
X228025201Y-82554161D01*
X228025201Y-82554161D02*
X228054099Y-82748361D01*
X228054099Y-82748361D02*
X228108768Y-82880344D01*
X228108768Y-82880344D02*
X228225655Y-83038098D01*
X228225655Y-83038098D02*
X228306095Y-83107863D01*
X228306095Y-83107863D02*
X228430529Y-83159406D01*
X228430529Y-83159406D02*
X228580735Y-83148731D01*
X228580735Y-83148731D02*
X228668724Y-83112285D01*
X228668724Y-83112285D02*
X228782484Y-83013622D01*
X228782484Y-83013622D02*
X228808255Y-82951404D01*
X228808255Y-82951404D02*
X228680694Y-82643445D01*
X228680694Y-82643445D02*
X228504717Y-82716337D01*
X229240649Y-82875386D02*
X228857966Y-81951506D01*
X228857966Y-81951506D02*
X229209920Y-81805722D01*
X229209920Y-81805722D02*
X229316131Y-81813270D01*
X229316131Y-81813270D02*
X229378349Y-81839042D01*
X229378349Y-81839042D02*
X229458789Y-81908807D01*
X229458789Y-81908807D02*
X229513458Y-82040790D01*
X229513458Y-82040790D02*
X229505910Y-82147001D01*
X229505910Y-82147001D02*
X229480139Y-82209219D01*
X229480139Y-82209219D02*
X229410373Y-82289659D01*
X229410373Y-82289659D02*
X229058419Y-82435443D01*
X229774297Y-81675034D02*
X229800068Y-81612817D01*
X229800068Y-81612817D02*
X229869834Y-81532377D01*
X229869834Y-81532377D02*
X230089805Y-81441262D01*
X230089805Y-81441262D02*
X230196017Y-81448810D01*
X230196017Y-81448810D02*
X230258234Y-81474581D01*
X230258234Y-81474581D02*
X230338674Y-81544347D01*
X230338674Y-81544347D02*
X230375120Y-81632335D01*
X230375120Y-81632335D02*
X230385795Y-81782541D01*
X230385795Y-81782541D02*
X230076540Y-82529148D01*
X230076540Y-82529148D02*
X230648466Y-82292249D01*
X231528351Y-81927789D02*
X231000420Y-82146465D01*
X231264385Y-82037127D02*
X230881702Y-81113247D01*
X230881702Y-81113247D02*
X230848382Y-81281676D01*
X230848382Y-81281676D02*
X230796840Y-81406111D01*
X230796840Y-81406111D02*
X230727074Y-81486551D01*
%TO.C,GP10*%
X80767342Y-83302847D02*
X80697576Y-83222406D01*
X80697576Y-83222406D02*
X80565593Y-83167737D01*
X80565593Y-83167737D02*
X80415387Y-83157063D01*
X80415387Y-83157063D02*
X80290953Y-83208605D01*
X80290953Y-83208605D02*
X80210513Y-83278371D01*
X80210513Y-83278371D02*
X80093626Y-83436125D01*
X80093626Y-83436125D02*
X80038957Y-83568107D01*
X80038957Y-83568107D02*
X80010059Y-83762307D01*
X80010059Y-83762307D02*
X80017608Y-83868519D01*
X80017608Y-83868519D02*
X80069150Y-83992954D01*
X80069150Y-83992954D02*
X80182910Y-84091617D01*
X80182910Y-84091617D02*
X80270898Y-84128063D01*
X80270898Y-84128063D02*
X80421104Y-84138738D01*
X80421104Y-84138738D02*
X80483321Y-84112966D01*
X80483321Y-84112966D02*
X80610883Y-83805007D01*
X80610883Y-83805007D02*
X80434906Y-83732115D01*
X80842824Y-84364962D02*
X81225507Y-83441083D01*
X81225507Y-83441083D02*
X81577461Y-83586867D01*
X81577461Y-83586867D02*
X81647227Y-83667307D01*
X81647227Y-83667307D02*
X81672998Y-83729524D01*
X81672998Y-83729524D02*
X81680546Y-83835736D01*
X81680546Y-83835736D02*
X81625877Y-83967719D01*
X81625877Y-83967719D02*
X81545437Y-84037484D01*
X81545437Y-84037484D02*
X81483220Y-84063255D01*
X81483220Y-84063255D02*
X81377008Y-84070804D01*
X81377008Y-84070804D02*
X81025054Y-83925020D01*
X82250640Y-84948099D02*
X81722709Y-84729423D01*
X81986675Y-84838761D02*
X82369358Y-83914881D01*
X82369358Y-83914881D02*
X82226700Y-84010418D01*
X82226700Y-84010418D02*
X82102266Y-84061960D01*
X82102266Y-84061960D02*
X81996054Y-84069509D01*
X83205249Y-84261119D02*
X83293238Y-84297565D01*
X83293238Y-84297565D02*
X83363003Y-84378005D01*
X83363003Y-84378005D02*
X83388774Y-84440222D01*
X83388774Y-84440222D02*
X83396323Y-84546434D01*
X83396323Y-84546434D02*
X83367425Y-84740634D01*
X83367425Y-84740634D02*
X83276310Y-84960605D01*
X83276310Y-84960605D02*
X83159423Y-85118359D01*
X83159423Y-85118359D02*
X83078983Y-85188125D01*
X83078983Y-85188125D02*
X83016766Y-85213896D01*
X83016766Y-85213896D02*
X82910554Y-85221444D01*
X82910554Y-85221444D02*
X82822566Y-85184998D01*
X82822566Y-85184998D02*
X82752800Y-85104558D01*
X82752800Y-85104558D02*
X82727029Y-85042341D01*
X82727029Y-85042341D02*
X82719481Y-84936129D01*
X82719481Y-84936129D02*
X82748379Y-84741929D01*
X82748379Y-84741929D02*
X82839494Y-84521958D01*
X82839494Y-84521958D02*
X82956380Y-84364204D01*
X82956380Y-84364204D02*
X83036820Y-84294438D01*
X83036820Y-84294438D02*
X83099038Y-84268667D01*
X83099038Y-84268667D02*
X83205249Y-84261119D01*
%TO.C,GP26*%
X207685523Y-27586438D02*
X207590285Y-27538819D01*
X207590285Y-27538819D02*
X207447428Y-27538819D01*
X207447428Y-27538819D02*
X207304571Y-27586438D01*
X207304571Y-27586438D02*
X207209333Y-27681676D01*
X207209333Y-27681676D02*
X207161714Y-27776914D01*
X207161714Y-27776914D02*
X207114095Y-27967390D01*
X207114095Y-27967390D02*
X207114095Y-28110247D01*
X207114095Y-28110247D02*
X207161714Y-28300723D01*
X207161714Y-28300723D02*
X207209333Y-28395961D01*
X207209333Y-28395961D02*
X207304571Y-28491200D01*
X207304571Y-28491200D02*
X207447428Y-28538819D01*
X207447428Y-28538819D02*
X207542666Y-28538819D01*
X207542666Y-28538819D02*
X207685523Y-28491200D01*
X207685523Y-28491200D02*
X207733142Y-28443580D01*
X207733142Y-28443580D02*
X207733142Y-28110247D01*
X207733142Y-28110247D02*
X207542666Y-28110247D01*
X208161714Y-28538819D02*
X208161714Y-27538819D01*
X208161714Y-27538819D02*
X208542666Y-27538819D01*
X208542666Y-27538819D02*
X208637904Y-27586438D01*
X208637904Y-27586438D02*
X208685523Y-27634057D01*
X208685523Y-27634057D02*
X208733142Y-27729295D01*
X208733142Y-27729295D02*
X208733142Y-27872152D01*
X208733142Y-27872152D02*
X208685523Y-27967390D01*
X208685523Y-27967390D02*
X208637904Y-28015009D01*
X208637904Y-28015009D02*
X208542666Y-28062628D01*
X208542666Y-28062628D02*
X208161714Y-28062628D01*
X209114095Y-27634057D02*
X209161714Y-27586438D01*
X209161714Y-27586438D02*
X209256952Y-27538819D01*
X209256952Y-27538819D02*
X209495047Y-27538819D01*
X209495047Y-27538819D02*
X209590285Y-27586438D01*
X209590285Y-27586438D02*
X209637904Y-27634057D01*
X209637904Y-27634057D02*
X209685523Y-27729295D01*
X209685523Y-27729295D02*
X209685523Y-27824533D01*
X209685523Y-27824533D02*
X209637904Y-27967390D01*
X209637904Y-27967390D02*
X209066476Y-28538819D01*
X209066476Y-28538819D02*
X209685523Y-28538819D01*
X210542666Y-27538819D02*
X210352190Y-27538819D01*
X210352190Y-27538819D02*
X210256952Y-27586438D01*
X210256952Y-27586438D02*
X210209333Y-27634057D01*
X210209333Y-27634057D02*
X210114095Y-27776914D01*
X210114095Y-27776914D02*
X210066476Y-27967390D01*
X210066476Y-27967390D02*
X210066476Y-28348342D01*
X210066476Y-28348342D02*
X210114095Y-28443580D01*
X210114095Y-28443580D02*
X210161714Y-28491200D01*
X210161714Y-28491200D02*
X210256952Y-28538819D01*
X210256952Y-28538819D02*
X210447428Y-28538819D01*
X210447428Y-28538819D02*
X210542666Y-28491200D01*
X210542666Y-28491200D02*
X210590285Y-28443580D01*
X210590285Y-28443580D02*
X210637904Y-28348342D01*
X210637904Y-28348342D02*
X210637904Y-28110247D01*
X210637904Y-28110247D02*
X210590285Y-28015009D01*
X210590285Y-28015009D02*
X210542666Y-27967390D01*
X210542666Y-27967390D02*
X210447428Y-27919771D01*
X210447428Y-27919771D02*
X210256952Y-27919771D01*
X210256952Y-27919771D02*
X210161714Y-27967390D01*
X210161714Y-27967390D02*
X210114095Y-28015009D01*
X210114095Y-28015009D02*
X210066476Y-28110247D01*
%TO.C,GP11*%
X105657366Y-72993062D02*
X105587600Y-72912621D01*
X105587600Y-72912621D02*
X105455617Y-72857952D01*
X105455617Y-72857952D02*
X105305411Y-72847278D01*
X105305411Y-72847278D02*
X105180977Y-72898820D01*
X105180977Y-72898820D02*
X105100537Y-72968586D01*
X105100537Y-72968586D02*
X104983650Y-73126340D01*
X104983650Y-73126340D02*
X104928981Y-73258322D01*
X104928981Y-73258322D02*
X104900083Y-73452522D01*
X104900083Y-73452522D02*
X104907632Y-73558734D01*
X104907632Y-73558734D02*
X104959174Y-73683169D01*
X104959174Y-73683169D02*
X105072934Y-73781832D01*
X105072934Y-73781832D02*
X105160922Y-73818278D01*
X105160922Y-73818278D02*
X105311128Y-73828953D01*
X105311128Y-73828953D02*
X105373345Y-73803181D01*
X105373345Y-73803181D02*
X105500907Y-73495222D01*
X105500907Y-73495222D02*
X105324930Y-73422330D01*
X105732848Y-74055177D02*
X106115531Y-73131298D01*
X106115531Y-73131298D02*
X106467485Y-73277082D01*
X106467485Y-73277082D02*
X106537251Y-73357522D01*
X106537251Y-73357522D02*
X106563022Y-73419739D01*
X106563022Y-73419739D02*
X106570570Y-73525951D01*
X106570570Y-73525951D02*
X106515901Y-73657934D01*
X106515901Y-73657934D02*
X106435461Y-73727699D01*
X106435461Y-73727699D02*
X106373244Y-73753470D01*
X106373244Y-73753470D02*
X106267032Y-73761019D01*
X106267032Y-73761019D02*
X105915078Y-73615235D01*
X107140664Y-74638314D02*
X106612733Y-74419638D01*
X106876699Y-74528976D02*
X107259382Y-73605096D01*
X107259382Y-73605096D02*
X107116724Y-73700633D01*
X107116724Y-73700633D02*
X106992290Y-73752175D01*
X106992290Y-73752175D02*
X106886078Y-73759724D01*
X108020550Y-75002774D02*
X107492618Y-74784098D01*
X107756584Y-74893436D02*
X108139267Y-73969557D01*
X108139267Y-73969557D02*
X107996610Y-74065093D01*
X107996610Y-74065093D02*
X107872175Y-74116636D01*
X107872175Y-74116636D02*
X107765964Y-74124184D01*
%TO.C,GP16*%
X176633334Y-98223239D02*
X176527123Y-98215691D01*
X176527123Y-98215691D02*
X176395140Y-98270360D01*
X176395140Y-98270360D02*
X176281380Y-98369023D01*
X176281380Y-98369023D02*
X176229838Y-98493458D01*
X176229838Y-98493458D02*
X176222289Y-98599669D01*
X176222289Y-98599669D02*
X176251187Y-98793869D01*
X176251187Y-98793869D02*
X176305856Y-98925852D01*
X176305856Y-98925852D02*
X176422743Y-99083606D01*
X176422743Y-99083606D02*
X176503183Y-99153371D01*
X176503183Y-99153371D02*
X176627617Y-99204914D01*
X176627617Y-99204914D02*
X176777823Y-99194239D01*
X176777823Y-99194239D02*
X176865812Y-99157793D01*
X176865812Y-99157793D02*
X176979572Y-99059130D01*
X176979572Y-99059130D02*
X177005343Y-98996912D01*
X177005343Y-98996912D02*
X176877782Y-98688953D01*
X176877782Y-98688953D02*
X176701805Y-98761845D01*
X177437737Y-98920894D02*
X177055054Y-97997014D01*
X177055054Y-97997014D02*
X177407008Y-97851230D01*
X177407008Y-97851230D02*
X177513219Y-97858778D01*
X177513219Y-97858778D02*
X177575437Y-97884550D01*
X177575437Y-97884550D02*
X177655877Y-97954315D01*
X177655877Y-97954315D02*
X177710546Y-98086298D01*
X177710546Y-98086298D02*
X177702998Y-98192509D01*
X177702998Y-98192509D02*
X177677227Y-98254727D01*
X177677227Y-98254727D02*
X177607461Y-98335167D01*
X177607461Y-98335167D02*
X177255507Y-98480951D01*
X178845554Y-98337757D02*
X178317622Y-98556433D01*
X178581588Y-98447095D02*
X178198905Y-97523216D01*
X178198905Y-97523216D02*
X178165585Y-97691645D01*
X178165585Y-97691645D02*
X178114043Y-97816079D01*
X178114043Y-97816079D02*
X178044277Y-97896519D01*
X179254767Y-97085863D02*
X179078790Y-97158755D01*
X179078790Y-97158755D02*
X179009024Y-97239196D01*
X179009024Y-97239196D02*
X178983253Y-97301413D01*
X178983253Y-97301413D02*
X178949934Y-97469842D01*
X178949934Y-97469842D02*
X178978832Y-97664042D01*
X178978832Y-97664042D02*
X179124616Y-98015996D01*
X179124616Y-98015996D02*
X179205056Y-98085761D01*
X179205056Y-98085761D02*
X179267273Y-98111533D01*
X179267273Y-98111533D02*
X179373485Y-98119081D01*
X179373485Y-98119081D02*
X179549462Y-98046189D01*
X179549462Y-98046189D02*
X179619227Y-97965749D01*
X179619227Y-97965749D02*
X179644999Y-97903531D01*
X179644999Y-97903531D02*
X179652547Y-97797320D01*
X179652547Y-97797320D02*
X179561432Y-97577348D01*
X179561432Y-97577348D02*
X179480991Y-97507583D01*
X179480991Y-97507583D02*
X179418774Y-97481812D01*
X179418774Y-97481812D02*
X179312563Y-97474263D01*
X179312563Y-97474263D02*
X179136586Y-97547155D01*
X179136586Y-97547155D02*
X179066820Y-97627596D01*
X179066820Y-97627596D02*
X179041049Y-97689813D01*
X179041049Y-97689813D02*
X179033501Y-97796025D01*
%TO.C,REF\u002A\u002A*%
X154903064Y-41858049D02*
X155172438Y-41588675D01*
X155010813Y-42073549D02*
X154633690Y-41319301D01*
X154633690Y-41319301D02*
X155387937Y-41696425D01*
X155576499Y-41507863D02*
X155010813Y-40942178D01*
X155010813Y-40942178D02*
X155145500Y-40807491D01*
X155145500Y-40807491D02*
X155253250Y-40753616D01*
X155253250Y-40753616D02*
X155360999Y-40753616D01*
X155360999Y-40753616D02*
X155441812Y-40780553D01*
X155441812Y-40780553D02*
X155576499Y-40861366D01*
X155576499Y-40861366D02*
X155657311Y-40942178D01*
X155657311Y-40942178D02*
X155738123Y-41076865D01*
X155738123Y-41076865D02*
X155765060Y-41157677D01*
X155765060Y-41157677D02*
X155765060Y-41265427D01*
X155765060Y-41265427D02*
X155711186Y-41373176D01*
X155711186Y-41373176D02*
X155576499Y-41507863D01*
X156411558Y-40565054D02*
X156411558Y-40618929D01*
X156411558Y-40618929D02*
X156357683Y-40726679D01*
X156357683Y-40726679D02*
X156303808Y-40780553D01*
X156303808Y-40780553D02*
X156196059Y-40834428D01*
X156196059Y-40834428D02*
X156088309Y-40834428D01*
X156088309Y-40834428D02*
X156007497Y-40807491D01*
X156007497Y-40807491D02*
X155872810Y-40726679D01*
X155872810Y-40726679D02*
X155791998Y-40645866D01*
X155791998Y-40645866D02*
X155711186Y-40511179D01*
X155711186Y-40511179D02*
X155684248Y-40430367D01*
X155684248Y-40430367D02*
X155684248Y-40322618D01*
X155684248Y-40322618D02*
X155738123Y-40214868D01*
X155738123Y-40214868D02*
X155791998Y-40160993D01*
X155791998Y-40160993D02*
X155899747Y-40107118D01*
X155899747Y-40107118D02*
X155953622Y-40107118D01*
X156627057Y-40565054D02*
X157058056Y-40134056D01*
X156492370Y-39460621D02*
X157246618Y-39837744D01*
X157246618Y-39837744D02*
X156869494Y-39083497D01*
X157946990Y-39137372D02*
X157489054Y-39056560D01*
X157623741Y-39460621D02*
X157058056Y-38894935D01*
X157058056Y-38894935D02*
X157273555Y-38679436D01*
X157273555Y-38679436D02*
X157354367Y-38652499D01*
X157354367Y-38652499D02*
X157408242Y-38652499D01*
X157408242Y-38652499D02*
X157489054Y-38679436D01*
X157489054Y-38679436D02*
X157569866Y-38760248D01*
X157569866Y-38760248D02*
X157596804Y-38841061D01*
X157596804Y-38841061D02*
X157596804Y-38894935D01*
X157596804Y-38894935D02*
X157569866Y-38975748D01*
X157569866Y-38975748D02*
X157354367Y-39191247D01*
X157893115Y-38598624D02*
X158081677Y-38410062D01*
X158458800Y-38625561D02*
X158189426Y-38894935D01*
X158189426Y-38894935D02*
X157623741Y-38329250D01*
X157623741Y-38329250D02*
X157893115Y-38059876D01*
X158593488Y-37898251D02*
X158404926Y-38086813D01*
X158701237Y-38383125D02*
X158135552Y-37817439D01*
X158135552Y-37817439D02*
X158404926Y-37548065D01*
X128691998Y-74304868D02*
X128611185Y-74331805D01*
X128611185Y-74331805D02*
X128530373Y-74412618D01*
X128530373Y-74412618D02*
X128476498Y-74520367D01*
X128476498Y-74520367D02*
X128476498Y-74628117D01*
X128476498Y-74628117D02*
X128503436Y-74708929D01*
X128503436Y-74708929D02*
X128584248Y-74843616D01*
X128584248Y-74843616D02*
X128665060Y-74924428D01*
X128665060Y-74924428D02*
X128799747Y-75005241D01*
X128799747Y-75005241D02*
X128880560Y-75032178D01*
X128880560Y-75032178D02*
X128988309Y-75032178D01*
X128988309Y-75032178D02*
X129096059Y-74978303D01*
X129096059Y-74978303D02*
X129149934Y-74924428D01*
X129149934Y-74924428D02*
X129203808Y-74816679D01*
X129203808Y-74816679D02*
X129203808Y-74762804D01*
X129203808Y-74762804D02*
X129015247Y-74574242D01*
X129015247Y-74574242D02*
X128907497Y-74681992D01*
X129500120Y-74574242D02*
X128934434Y-74008557D01*
X128934434Y-74008557D02*
X129149934Y-73793057D01*
X129149934Y-73793057D02*
X129230746Y-73766120D01*
X129230746Y-73766120D02*
X129284621Y-73766120D01*
X129284621Y-73766120D02*
X129365433Y-73793057D01*
X129365433Y-73793057D02*
X129446245Y-73873870D01*
X129446245Y-73873870D02*
X129473182Y-73954682D01*
X129473182Y-73954682D02*
X129473182Y-74008557D01*
X129473182Y-74008557D02*
X129446245Y-74089369D01*
X129446245Y-74089369D02*
X129230746Y-74304868D01*
X130362117Y-73712245D02*
X130038868Y-74035494D01*
X130200492Y-73873870D02*
X129634807Y-73308184D01*
X129634807Y-73308184D02*
X129661744Y-73442871D01*
X129661744Y-73442871D02*
X129661744Y-73550621D01*
X129661744Y-73550621D02*
X129634807Y-73631433D01*
X130469866Y-72850248D02*
X130846990Y-73227372D01*
X130119680Y-72769436D02*
X130389054Y-73308184D01*
X130389054Y-73308184D02*
X130739240Y-72957998D01*
X129261372Y-48635494D02*
X129180560Y-48662431D01*
X129180560Y-48662431D02*
X129099748Y-48743243D01*
X129099748Y-48743243D02*
X129045873Y-48850993D01*
X129045873Y-48850993D02*
X129045873Y-48958742D01*
X129045873Y-48958742D02*
X129072810Y-49039555D01*
X129072810Y-49039555D02*
X129153623Y-49174242D01*
X129153623Y-49174242D02*
X129234435Y-49255054D01*
X129234435Y-49255054D02*
X129369122Y-49335866D01*
X129369122Y-49335866D02*
X129449934Y-49362803D01*
X129449934Y-49362803D02*
X129557684Y-49362803D01*
X129557684Y-49362803D02*
X129665433Y-49308929D01*
X129665433Y-49308929D02*
X129719308Y-49255054D01*
X129719308Y-49255054D02*
X129773183Y-49147304D01*
X129773183Y-49147304D02*
X129773183Y-49093429D01*
X129773183Y-49093429D02*
X129584621Y-48904868D01*
X129584621Y-48904868D02*
X129476871Y-49012617D01*
X130069494Y-48904868D02*
X129503809Y-48339182D01*
X129503809Y-48339182D02*
X129719308Y-48123683D01*
X129719308Y-48123683D02*
X129800120Y-48096746D01*
X129800120Y-48096746D02*
X129853995Y-48096746D01*
X129853995Y-48096746D02*
X129934807Y-48123683D01*
X129934807Y-48123683D02*
X130015619Y-48204495D01*
X130015619Y-48204495D02*
X130042557Y-48285307D01*
X130042557Y-48285307D02*
X130042557Y-48339182D01*
X130042557Y-48339182D02*
X130015619Y-48419994D01*
X130015619Y-48419994D02*
X129800120Y-48635494D01*
X130311931Y-47531060D02*
X130204181Y-47638810D01*
X130204181Y-47638810D02*
X130177244Y-47719622D01*
X130177244Y-47719622D02*
X130177244Y-47773497D01*
X130177244Y-47773497D02*
X130204181Y-47908184D01*
X130204181Y-47908184D02*
X130284993Y-48042871D01*
X130284993Y-48042871D02*
X130500493Y-48258370D01*
X130500493Y-48258370D02*
X130581305Y-48285307D01*
X130581305Y-48285307D02*
X130635180Y-48285307D01*
X130635180Y-48285307D02*
X130715992Y-48258370D01*
X130715992Y-48258370D02*
X130823741Y-48150620D01*
X130823741Y-48150620D02*
X130850679Y-48069808D01*
X130850679Y-48069808D02*
X130850679Y-48015933D01*
X130850679Y-48015933D02*
X130823741Y-47935121D01*
X130823741Y-47935121D02*
X130689054Y-47800434D01*
X130689054Y-47800434D02*
X130608242Y-47773497D01*
X130608242Y-47773497D02*
X130554367Y-47773497D01*
X130554367Y-47773497D02*
X130473555Y-47800434D01*
X130473555Y-47800434D02*
X130365806Y-47908184D01*
X130365806Y-47908184D02*
X130338868Y-47988996D01*
X130338868Y-47988996D02*
X130338868Y-48042871D01*
X130338868Y-48042871D02*
X130365806Y-48123683D01*
X129234435Y-58822431D02*
X129153623Y-58849368D01*
X129153623Y-58849368D02*
X129072811Y-58930180D01*
X129072811Y-58930180D02*
X129018936Y-59037930D01*
X129018936Y-59037930D02*
X129018936Y-59145680D01*
X129018936Y-59145680D02*
X129045873Y-59226492D01*
X129045873Y-59226492D02*
X129126685Y-59361179D01*
X129126685Y-59361179D02*
X129207498Y-59441991D01*
X129207498Y-59441991D02*
X129342185Y-59522803D01*
X129342185Y-59522803D02*
X129422997Y-59549741D01*
X129422997Y-59549741D02*
X129530746Y-59549741D01*
X129530746Y-59549741D02*
X129638496Y-59495866D01*
X129638496Y-59495866D02*
X129692371Y-59441991D01*
X129692371Y-59441991D02*
X129746246Y-59334241D01*
X129746246Y-59334241D02*
X129746246Y-59280367D01*
X129746246Y-59280367D02*
X129557684Y-59091805D01*
X129557684Y-59091805D02*
X129449934Y-59199554D01*
X130042557Y-59091805D02*
X129476872Y-58526119D01*
X129476872Y-58526119D02*
X130365806Y-58768556D01*
X130365806Y-58768556D02*
X129800120Y-58202871D01*
X130635180Y-58499182D02*
X130069494Y-57933497D01*
X130069494Y-57933497D02*
X130204181Y-57798810D01*
X130204181Y-57798810D02*
X130311931Y-57744935D01*
X130311931Y-57744935D02*
X130419680Y-57744935D01*
X130419680Y-57744935D02*
X130500493Y-57771872D01*
X130500493Y-57771872D02*
X130635180Y-57852685D01*
X130635180Y-57852685D02*
X130715992Y-57933497D01*
X130715992Y-57933497D02*
X130796804Y-58068184D01*
X130796804Y-58068184D02*
X130823741Y-58148996D01*
X130823741Y-58148996D02*
X130823741Y-58256746D01*
X130823741Y-58256746D02*
X130769867Y-58364495D01*
X130769867Y-58364495D02*
X130635180Y-58499182D01*
X154845998Y-69224868D02*
X154765185Y-69251805D01*
X154765185Y-69251805D02*
X154684373Y-69332618D01*
X154684373Y-69332618D02*
X154630498Y-69440367D01*
X154630498Y-69440367D02*
X154630498Y-69548117D01*
X154630498Y-69548117D02*
X154657436Y-69628929D01*
X154657436Y-69628929D02*
X154738248Y-69763616D01*
X154738248Y-69763616D02*
X154819060Y-69844428D01*
X154819060Y-69844428D02*
X154953747Y-69925241D01*
X154953747Y-69925241D02*
X155034560Y-69952178D01*
X155034560Y-69952178D02*
X155142309Y-69952178D01*
X155142309Y-69952178D02*
X155250059Y-69898303D01*
X155250059Y-69898303D02*
X155303934Y-69844428D01*
X155303934Y-69844428D02*
X155357808Y-69736679D01*
X155357808Y-69736679D02*
X155357808Y-69682804D01*
X155357808Y-69682804D02*
X155169247Y-69494242D01*
X155169247Y-69494242D02*
X155061497Y-69601992D01*
X155654120Y-69494242D02*
X155088434Y-68928557D01*
X155088434Y-68928557D02*
X155303934Y-68713057D01*
X155303934Y-68713057D02*
X155384746Y-68686120D01*
X155384746Y-68686120D02*
X155438621Y-68686120D01*
X155438621Y-68686120D02*
X155519433Y-68713057D01*
X155519433Y-68713057D02*
X155600245Y-68793870D01*
X155600245Y-68793870D02*
X155627182Y-68874682D01*
X155627182Y-68874682D02*
X155627182Y-68928557D01*
X155627182Y-68928557D02*
X155600245Y-69009369D01*
X155600245Y-69009369D02*
X155384746Y-69224868D01*
X156516117Y-68632245D02*
X156192868Y-68955494D01*
X156354492Y-68793870D02*
X155788807Y-68228184D01*
X155788807Y-68228184D02*
X155815744Y-68362871D01*
X155815744Y-68362871D02*
X155815744Y-68470621D01*
X155815744Y-68470621D02*
X155788807Y-68551433D01*
X156516117Y-67985747D02*
X156435305Y-68012685D01*
X156435305Y-68012685D02*
X156381430Y-68012685D01*
X156381430Y-68012685D02*
X156300618Y-67985747D01*
X156300618Y-67985747D02*
X156273680Y-67958810D01*
X156273680Y-67958810D02*
X156246743Y-67877998D01*
X156246743Y-67877998D02*
X156246743Y-67824123D01*
X156246743Y-67824123D02*
X156273680Y-67743311D01*
X156273680Y-67743311D02*
X156381430Y-67635561D01*
X156381430Y-67635561D02*
X156462242Y-67608624D01*
X156462242Y-67608624D02*
X156516117Y-67608624D01*
X156516117Y-67608624D02*
X156596929Y-67635561D01*
X156596929Y-67635561D02*
X156623866Y-67662499D01*
X156623866Y-67662499D02*
X156650804Y-67743311D01*
X156650804Y-67743311D02*
X156650804Y-67797186D01*
X156650804Y-67797186D02*
X156623866Y-67877998D01*
X156623866Y-67877998D02*
X156516117Y-67985747D01*
X156516117Y-67985747D02*
X156489179Y-68066560D01*
X156489179Y-68066560D02*
X156489179Y-68120434D01*
X156489179Y-68120434D02*
X156516117Y-68201247D01*
X156516117Y-68201247D02*
X156623866Y-68308996D01*
X156623866Y-68308996D02*
X156704679Y-68335934D01*
X156704679Y-68335934D02*
X156758553Y-68335934D01*
X156758553Y-68335934D02*
X156839366Y-68308996D01*
X156839366Y-68308996D02*
X156947115Y-68201247D01*
X156947115Y-68201247D02*
X156974053Y-68120434D01*
X156974053Y-68120434D02*
X156974053Y-68066560D01*
X156974053Y-68066560D02*
X156947115Y-67985747D01*
X156947115Y-67985747D02*
X156839366Y-67877998D01*
X156839366Y-67877998D02*
X156758553Y-67851060D01*
X156758553Y-67851060D02*
X156704679Y-67851060D01*
X156704679Y-67851060D02*
X156623866Y-67877998D01*
X128737998Y-61604868D02*
X128657185Y-61631805D01*
X128657185Y-61631805D02*
X128576373Y-61712618D01*
X128576373Y-61712618D02*
X128522498Y-61820367D01*
X128522498Y-61820367D02*
X128522498Y-61928117D01*
X128522498Y-61928117D02*
X128549436Y-62008929D01*
X128549436Y-62008929D02*
X128630248Y-62143616D01*
X128630248Y-62143616D02*
X128711060Y-62224428D01*
X128711060Y-62224428D02*
X128845747Y-62305241D01*
X128845747Y-62305241D02*
X128926560Y-62332178D01*
X128926560Y-62332178D02*
X129034309Y-62332178D01*
X129034309Y-62332178D02*
X129142059Y-62278303D01*
X129142059Y-62278303D02*
X129195934Y-62224428D01*
X129195934Y-62224428D02*
X129249808Y-62116679D01*
X129249808Y-62116679D02*
X129249808Y-62062804D01*
X129249808Y-62062804D02*
X129061247Y-61874242D01*
X129061247Y-61874242D02*
X128953497Y-61981992D01*
X129546120Y-61874242D02*
X128980434Y-61308557D01*
X128980434Y-61308557D02*
X129195934Y-61093057D01*
X129195934Y-61093057D02*
X129276746Y-61066120D01*
X129276746Y-61066120D02*
X129330621Y-61066120D01*
X129330621Y-61066120D02*
X129411433Y-61093057D01*
X129411433Y-61093057D02*
X129492245Y-61173870D01*
X129492245Y-61173870D02*
X129519182Y-61254682D01*
X129519182Y-61254682D02*
X129519182Y-61308557D01*
X129519182Y-61308557D02*
X129492245Y-61389369D01*
X129492245Y-61389369D02*
X129276746Y-61604868D01*
X130408117Y-61012245D02*
X130084868Y-61335494D01*
X130246492Y-61173870D02*
X129680807Y-60608184D01*
X129680807Y-60608184D02*
X129707744Y-60742871D01*
X129707744Y-60742871D02*
X129707744Y-60850621D01*
X129707744Y-60850621D02*
X129680807Y-60931433D01*
X130192618Y-60096373D02*
X130246492Y-60042499D01*
X130246492Y-60042499D02*
X130327305Y-60015561D01*
X130327305Y-60015561D02*
X130381179Y-60015561D01*
X130381179Y-60015561D02*
X130461992Y-60042499D01*
X130461992Y-60042499D02*
X130596679Y-60123311D01*
X130596679Y-60123311D02*
X130731366Y-60257998D01*
X130731366Y-60257998D02*
X130812178Y-60392685D01*
X130812178Y-60392685D02*
X130839115Y-60473497D01*
X130839115Y-60473497D02*
X130839115Y-60527372D01*
X130839115Y-60527372D02*
X130812178Y-60608184D01*
X130812178Y-60608184D02*
X130758303Y-60662059D01*
X130758303Y-60662059D02*
X130677491Y-60688996D01*
X130677491Y-60688996D02*
X130623616Y-60688996D01*
X130623616Y-60688996D02*
X130542804Y-60662059D01*
X130542804Y-60662059D02*
X130408117Y-60581247D01*
X130408117Y-60581247D02*
X130273430Y-60446560D01*
X130273430Y-60446560D02*
X130192618Y-60311873D01*
X130192618Y-60311873D02*
X130165680Y-60231060D01*
X130165680Y-60231060D02*
X130165680Y-60177186D01*
X130165680Y-60177186D02*
X130192618Y-60096373D01*
X154834435Y-71522431D02*
X154753623Y-71549368D01*
X154753623Y-71549368D02*
X154672811Y-71630180D01*
X154672811Y-71630180D02*
X154618936Y-71737930D01*
X154618936Y-71737930D02*
X154618936Y-71845680D01*
X154618936Y-71845680D02*
X154645873Y-71926492D01*
X154645873Y-71926492D02*
X154726685Y-72061179D01*
X154726685Y-72061179D02*
X154807498Y-72141991D01*
X154807498Y-72141991D02*
X154942185Y-72222803D01*
X154942185Y-72222803D02*
X155022997Y-72249741D01*
X155022997Y-72249741D02*
X155130746Y-72249741D01*
X155130746Y-72249741D02*
X155238496Y-72195866D01*
X155238496Y-72195866D02*
X155292371Y-72141991D01*
X155292371Y-72141991D02*
X155346246Y-72034241D01*
X155346246Y-72034241D02*
X155346246Y-71980367D01*
X155346246Y-71980367D02*
X155157684Y-71791805D01*
X155157684Y-71791805D02*
X155049934Y-71899554D01*
X155642557Y-71791805D02*
X155076872Y-71226119D01*
X155076872Y-71226119D02*
X155965806Y-71468556D01*
X155965806Y-71468556D02*
X155400120Y-70902871D01*
X156235180Y-71199182D02*
X155669494Y-70633497D01*
X155669494Y-70633497D02*
X155804181Y-70498810D01*
X155804181Y-70498810D02*
X155911931Y-70444935D01*
X155911931Y-70444935D02*
X156019680Y-70444935D01*
X156019680Y-70444935D02*
X156100493Y-70471872D01*
X156100493Y-70471872D02*
X156235180Y-70552685D01*
X156235180Y-70552685D02*
X156315992Y-70633497D01*
X156315992Y-70633497D02*
X156396804Y-70768184D01*
X156396804Y-70768184D02*
X156423741Y-70848996D01*
X156423741Y-70848996D02*
X156423741Y-70956746D01*
X156423741Y-70956746D02*
X156369867Y-71064495D01*
X156369867Y-71064495D02*
X156235180Y-71199182D01*
X155586651Y-54267710D02*
X155128716Y-54186898D01*
X155263403Y-54590959D02*
X154697717Y-54025274D01*
X154697717Y-54025274D02*
X154913216Y-53809775D01*
X154913216Y-53809775D02*
X154994029Y-53782837D01*
X154994029Y-53782837D02*
X155047903Y-53782837D01*
X155047903Y-53782837D02*
X155128716Y-53809775D01*
X155128716Y-53809775D02*
X155209528Y-53890587D01*
X155209528Y-53890587D02*
X155236465Y-53971399D01*
X155236465Y-53971399D02*
X155236465Y-54025274D01*
X155236465Y-54025274D02*
X155209528Y-54106086D01*
X155209528Y-54106086D02*
X154994029Y-54321585D01*
X155263403Y-53459588D02*
X155721338Y-53917524D01*
X155721338Y-53917524D02*
X155802151Y-53944462D01*
X155802151Y-53944462D02*
X155856025Y-53944462D01*
X155856025Y-53944462D02*
X155936838Y-53917524D01*
X155936838Y-53917524D02*
X156044587Y-53809775D01*
X156044587Y-53809775D02*
X156071525Y-53728962D01*
X156071525Y-53728962D02*
X156071525Y-53675088D01*
X156071525Y-53675088D02*
X156044587Y-53594275D01*
X156044587Y-53594275D02*
X155586651Y-53136340D01*
X156421711Y-53432651D02*
X155856025Y-52866966D01*
X155856025Y-52866966D02*
X156744959Y-53109402D01*
X156744959Y-53109402D02*
X156179274Y-52543717D01*
X154845998Y-64144868D02*
X154765185Y-64171805D01*
X154765185Y-64171805D02*
X154684373Y-64252618D01*
X154684373Y-64252618D02*
X154630498Y-64360367D01*
X154630498Y-64360367D02*
X154630498Y-64468117D01*
X154630498Y-64468117D02*
X154657436Y-64548929D01*
X154657436Y-64548929D02*
X154738248Y-64683616D01*
X154738248Y-64683616D02*
X154819060Y-64764428D01*
X154819060Y-64764428D02*
X154953747Y-64845241D01*
X154953747Y-64845241D02*
X155034560Y-64872178D01*
X155034560Y-64872178D02*
X155142309Y-64872178D01*
X155142309Y-64872178D02*
X155250059Y-64818303D01*
X155250059Y-64818303D02*
X155303934Y-64764428D01*
X155303934Y-64764428D02*
X155357808Y-64656679D01*
X155357808Y-64656679D02*
X155357808Y-64602804D01*
X155357808Y-64602804D02*
X155169247Y-64414242D01*
X155169247Y-64414242D02*
X155061497Y-64521992D01*
X155654120Y-64414242D02*
X155088434Y-63848557D01*
X155088434Y-63848557D02*
X155303934Y-63633057D01*
X155303934Y-63633057D02*
X155384746Y-63606120D01*
X155384746Y-63606120D02*
X155438621Y-63606120D01*
X155438621Y-63606120D02*
X155519433Y-63633057D01*
X155519433Y-63633057D02*
X155600245Y-63713870D01*
X155600245Y-63713870D02*
X155627182Y-63794682D01*
X155627182Y-63794682D02*
X155627182Y-63848557D01*
X155627182Y-63848557D02*
X155600245Y-63929369D01*
X155600245Y-63929369D02*
X155384746Y-64144868D01*
X155681057Y-63363683D02*
X155681057Y-63309809D01*
X155681057Y-63309809D02*
X155707995Y-63228996D01*
X155707995Y-63228996D02*
X155842682Y-63094309D01*
X155842682Y-63094309D02*
X155923494Y-63067372D01*
X155923494Y-63067372D02*
X155977369Y-63067372D01*
X155977369Y-63067372D02*
X156058181Y-63094309D01*
X156058181Y-63094309D02*
X156112056Y-63148184D01*
X156112056Y-63148184D02*
X156165930Y-63255934D01*
X156165930Y-63255934D02*
X156165930Y-63902431D01*
X156165930Y-63902431D02*
X156516117Y-63552245D01*
X156300618Y-62636373D02*
X156354492Y-62582499D01*
X156354492Y-62582499D02*
X156435305Y-62555561D01*
X156435305Y-62555561D02*
X156489179Y-62555561D01*
X156489179Y-62555561D02*
X156569992Y-62582499D01*
X156569992Y-62582499D02*
X156704679Y-62663311D01*
X156704679Y-62663311D02*
X156839366Y-62797998D01*
X156839366Y-62797998D02*
X156920178Y-62932685D01*
X156920178Y-62932685D02*
X156947115Y-63013497D01*
X156947115Y-63013497D02*
X156947115Y-63067372D01*
X156947115Y-63067372D02*
X156920178Y-63148184D01*
X156920178Y-63148184D02*
X156866303Y-63202059D01*
X156866303Y-63202059D02*
X156785491Y-63228996D01*
X156785491Y-63228996D02*
X156731616Y-63228996D01*
X156731616Y-63228996D02*
X156650804Y-63202059D01*
X156650804Y-63202059D02*
X156516117Y-63121247D01*
X156516117Y-63121247D02*
X156381430Y-62986560D01*
X156381430Y-62986560D02*
X156300618Y-62851873D01*
X156300618Y-62851873D02*
X156273680Y-62771060D01*
X156273680Y-62771060D02*
X156273680Y-62717186D01*
X156273680Y-62717186D02*
X156300618Y-62636373D01*
X154845998Y-74304868D02*
X154765185Y-74331805D01*
X154765185Y-74331805D02*
X154684373Y-74412618D01*
X154684373Y-74412618D02*
X154630498Y-74520367D01*
X154630498Y-74520367D02*
X154630498Y-74628117D01*
X154630498Y-74628117D02*
X154657436Y-74708929D01*
X154657436Y-74708929D02*
X154738248Y-74843616D01*
X154738248Y-74843616D02*
X154819060Y-74924428D01*
X154819060Y-74924428D02*
X154953747Y-75005241D01*
X154953747Y-75005241D02*
X155034560Y-75032178D01*
X155034560Y-75032178D02*
X155142309Y-75032178D01*
X155142309Y-75032178D02*
X155250059Y-74978303D01*
X155250059Y-74978303D02*
X155303934Y-74924428D01*
X155303934Y-74924428D02*
X155357808Y-74816679D01*
X155357808Y-74816679D02*
X155357808Y-74762804D01*
X155357808Y-74762804D02*
X155169247Y-74574242D01*
X155169247Y-74574242D02*
X155061497Y-74681992D01*
X155654120Y-74574242D02*
X155088434Y-74008557D01*
X155088434Y-74008557D02*
X155303934Y-73793057D01*
X155303934Y-73793057D02*
X155384746Y-73766120D01*
X155384746Y-73766120D02*
X155438621Y-73766120D01*
X155438621Y-73766120D02*
X155519433Y-73793057D01*
X155519433Y-73793057D02*
X155600245Y-73873870D01*
X155600245Y-73873870D02*
X155627182Y-73954682D01*
X155627182Y-73954682D02*
X155627182Y-74008557D01*
X155627182Y-74008557D02*
X155600245Y-74089369D01*
X155600245Y-74089369D02*
X155384746Y-74304868D01*
X156516117Y-73712245D02*
X156192868Y-74035494D01*
X156354492Y-73873870D02*
X155788807Y-73308184D01*
X155788807Y-73308184D02*
X155815744Y-73442871D01*
X155815744Y-73442871D02*
X155815744Y-73550621D01*
X155815744Y-73550621D02*
X155788807Y-73631433D01*
X156138993Y-72957998D02*
X156516117Y-72580874D01*
X156516117Y-72580874D02*
X156839366Y-73388996D01*
X154670407Y-36282584D02*
X155020593Y-35932398D01*
X155020593Y-35932398D02*
X155047531Y-36336459D01*
X155047531Y-36336459D02*
X155128343Y-36255646D01*
X155128343Y-36255646D02*
X155209155Y-36228709D01*
X155209155Y-36228709D02*
X155263030Y-36228709D01*
X155263030Y-36228709D02*
X155343842Y-36255646D01*
X155343842Y-36255646D02*
X155478529Y-36390333D01*
X155478529Y-36390333D02*
X155505467Y-36471146D01*
X155505467Y-36471146D02*
X155505467Y-36525020D01*
X155505467Y-36525020D02*
X155478529Y-36605833D01*
X155478529Y-36605833D02*
X155316905Y-36767457D01*
X155316905Y-36767457D02*
X155236093Y-36794394D01*
X155236093Y-36794394D02*
X155182218Y-36794394D01*
X155182218Y-35770773D02*
X155936465Y-36147897D01*
X155936465Y-36147897D02*
X155559342Y-35393649D01*
X155694028Y-35258963D02*
X156044215Y-34908776D01*
X156044215Y-34908776D02*
X156071152Y-35312837D01*
X156071152Y-35312837D02*
X156151964Y-35232025D01*
X156151964Y-35232025D02*
X156232776Y-35205088D01*
X156232776Y-35205088D02*
X156286651Y-35205088D01*
X156286651Y-35205088D02*
X156367464Y-35232025D01*
X156367464Y-35232025D02*
X156502151Y-35366712D01*
X156502151Y-35366712D02*
X156529088Y-35447524D01*
X156529088Y-35447524D02*
X156529088Y-35501399D01*
X156529088Y-35501399D02*
X156502151Y-35582211D01*
X156502151Y-35582211D02*
X156340526Y-35743836D01*
X156340526Y-35743836D02*
X156259714Y-35770773D01*
X156259714Y-35770773D02*
X156205839Y-35770773D01*
X156771525Y-35420587D02*
X157202523Y-34989588D01*
X156987024Y-34504715D02*
X157175586Y-34316153D01*
X157552709Y-34531652D02*
X157283335Y-34801026D01*
X157283335Y-34801026D02*
X156717650Y-34235341D01*
X156717650Y-34235341D02*
X156987024Y-33965967D01*
X157795146Y-34289215D02*
X157229461Y-33723530D01*
X157229461Y-33723530D02*
X158118395Y-33965967D01*
X158118395Y-33965967D02*
X157552710Y-33400281D01*
X129261372Y-41015494D02*
X129180560Y-41042431D01*
X129180560Y-41042431D02*
X129099748Y-41123243D01*
X129099748Y-41123243D02*
X129045873Y-41230993D01*
X129045873Y-41230993D02*
X129045873Y-41338742D01*
X129045873Y-41338742D02*
X129072810Y-41419555D01*
X129072810Y-41419555D02*
X129153623Y-41554242D01*
X129153623Y-41554242D02*
X129234435Y-41635054D01*
X129234435Y-41635054D02*
X129369122Y-41715866D01*
X129369122Y-41715866D02*
X129449934Y-41742803D01*
X129449934Y-41742803D02*
X129557684Y-41742803D01*
X129557684Y-41742803D02*
X129665433Y-41688929D01*
X129665433Y-41688929D02*
X129719308Y-41635054D01*
X129719308Y-41635054D02*
X129773183Y-41527304D01*
X129773183Y-41527304D02*
X129773183Y-41473429D01*
X129773183Y-41473429D02*
X129584621Y-41284868D01*
X129584621Y-41284868D02*
X129476871Y-41392617D01*
X130069494Y-41284868D02*
X129503809Y-40719182D01*
X129503809Y-40719182D02*
X129719308Y-40503683D01*
X129719308Y-40503683D02*
X129800120Y-40476746D01*
X129800120Y-40476746D02*
X129853995Y-40476746D01*
X129853995Y-40476746D02*
X129934807Y-40503683D01*
X129934807Y-40503683D02*
X130015619Y-40584495D01*
X130015619Y-40584495D02*
X130042557Y-40665307D01*
X130042557Y-40665307D02*
X130042557Y-40719182D01*
X130042557Y-40719182D02*
X130015619Y-40799994D01*
X130015619Y-40799994D02*
X129800120Y-41015494D01*
X130500493Y-40099622D02*
X130877616Y-40476746D01*
X130150306Y-40018810D02*
X130419680Y-40557558D01*
X130419680Y-40557558D02*
X130769867Y-40207372D01*
X129261372Y-28315494D02*
X129180560Y-28342431D01*
X129180560Y-28342431D02*
X129099748Y-28423243D01*
X129099748Y-28423243D02*
X129045873Y-28530993D01*
X129045873Y-28530993D02*
X129045873Y-28638742D01*
X129045873Y-28638742D02*
X129072810Y-28719555D01*
X129072810Y-28719555D02*
X129153623Y-28854242D01*
X129153623Y-28854242D02*
X129234435Y-28935054D01*
X129234435Y-28935054D02*
X129369122Y-29015866D01*
X129369122Y-29015866D02*
X129449934Y-29042803D01*
X129449934Y-29042803D02*
X129557684Y-29042803D01*
X129557684Y-29042803D02*
X129665433Y-28988929D01*
X129665433Y-28988929D02*
X129719308Y-28935054D01*
X129719308Y-28935054D02*
X129773183Y-28827304D01*
X129773183Y-28827304D02*
X129773183Y-28773429D01*
X129773183Y-28773429D02*
X129584621Y-28584868D01*
X129584621Y-28584868D02*
X129476871Y-28692617D01*
X130069494Y-28584868D02*
X129503809Y-28019182D01*
X129503809Y-28019182D02*
X129719308Y-27803683D01*
X129719308Y-27803683D02*
X129800120Y-27776746D01*
X129800120Y-27776746D02*
X129853995Y-27776746D01*
X129853995Y-27776746D02*
X129934807Y-27803683D01*
X129934807Y-27803683D02*
X130015619Y-27884495D01*
X130015619Y-27884495D02*
X130042557Y-27965307D01*
X130042557Y-27965307D02*
X130042557Y-28019182D01*
X130042557Y-28019182D02*
X130015619Y-28099994D01*
X130015619Y-28099994D02*
X129800120Y-28315494D01*
X130177244Y-27345747D02*
X130231119Y-27291872D01*
X130231119Y-27291872D02*
X130311931Y-27264935D01*
X130311931Y-27264935D02*
X130365806Y-27264935D01*
X130365806Y-27264935D02*
X130446618Y-27291872D01*
X130446618Y-27291872D02*
X130581305Y-27372685D01*
X130581305Y-27372685D02*
X130715992Y-27507372D01*
X130715992Y-27507372D02*
X130796804Y-27642059D01*
X130796804Y-27642059D02*
X130823741Y-27722871D01*
X130823741Y-27722871D02*
X130823741Y-27776746D01*
X130823741Y-27776746D02*
X130796804Y-27857558D01*
X130796804Y-27857558D02*
X130742929Y-27911433D01*
X130742929Y-27911433D02*
X130662117Y-27938370D01*
X130662117Y-27938370D02*
X130608242Y-27938370D01*
X130608242Y-27938370D02*
X130527430Y-27911433D01*
X130527430Y-27911433D02*
X130392743Y-27830620D01*
X130392743Y-27830620D02*
X130258056Y-27695933D01*
X130258056Y-27695933D02*
X130177244Y-27561246D01*
X130177244Y-27561246D02*
X130150306Y-27480434D01*
X130150306Y-27480434D02*
X130150306Y-27426559D01*
X130150306Y-27426559D02*
X130177244Y-27345747D01*
X154845998Y-51444868D02*
X154765185Y-51471805D01*
X154765185Y-51471805D02*
X154684373Y-51552618D01*
X154684373Y-51552618D02*
X154630498Y-51660367D01*
X154630498Y-51660367D02*
X154630498Y-51768117D01*
X154630498Y-51768117D02*
X154657436Y-51848929D01*
X154657436Y-51848929D02*
X154738248Y-51983616D01*
X154738248Y-51983616D02*
X154819060Y-52064428D01*
X154819060Y-52064428D02*
X154953747Y-52145241D01*
X154953747Y-52145241D02*
X155034560Y-52172178D01*
X155034560Y-52172178D02*
X155142309Y-52172178D01*
X155142309Y-52172178D02*
X155250059Y-52118303D01*
X155250059Y-52118303D02*
X155303934Y-52064428D01*
X155303934Y-52064428D02*
X155357808Y-51956679D01*
X155357808Y-51956679D02*
X155357808Y-51902804D01*
X155357808Y-51902804D02*
X155169247Y-51714242D01*
X155169247Y-51714242D02*
X155061497Y-51821992D01*
X155654120Y-51714242D02*
X155088434Y-51148557D01*
X155088434Y-51148557D02*
X155303934Y-50933057D01*
X155303934Y-50933057D02*
X155384746Y-50906120D01*
X155384746Y-50906120D02*
X155438621Y-50906120D01*
X155438621Y-50906120D02*
X155519433Y-50933057D01*
X155519433Y-50933057D02*
X155600245Y-51013870D01*
X155600245Y-51013870D02*
X155627182Y-51094682D01*
X155627182Y-51094682D02*
X155627182Y-51148557D01*
X155627182Y-51148557D02*
X155600245Y-51229369D01*
X155600245Y-51229369D02*
X155384746Y-51444868D01*
X155681057Y-50663683D02*
X155681057Y-50609809D01*
X155681057Y-50609809D02*
X155707995Y-50528996D01*
X155707995Y-50528996D02*
X155842682Y-50394309D01*
X155842682Y-50394309D02*
X155923494Y-50367372D01*
X155923494Y-50367372D02*
X155977369Y-50367372D01*
X155977369Y-50367372D02*
X156058181Y-50394309D01*
X156058181Y-50394309D02*
X156112056Y-50448184D01*
X156112056Y-50448184D02*
X156165930Y-50555934D01*
X156165930Y-50555934D02*
X156165930Y-51202431D01*
X156165930Y-51202431D02*
X156516117Y-50852245D01*
X156435305Y-49801686D02*
X156327555Y-49909436D01*
X156327555Y-49909436D02*
X156300618Y-49990248D01*
X156300618Y-49990248D02*
X156300618Y-50044123D01*
X156300618Y-50044123D02*
X156327555Y-50178810D01*
X156327555Y-50178810D02*
X156408367Y-50313497D01*
X156408367Y-50313497D02*
X156623866Y-50528996D01*
X156623866Y-50528996D02*
X156704679Y-50555934D01*
X156704679Y-50555934D02*
X156758553Y-50555934D01*
X156758553Y-50555934D02*
X156839366Y-50528996D01*
X156839366Y-50528996D02*
X156947115Y-50421247D01*
X156947115Y-50421247D02*
X156974053Y-50340434D01*
X156974053Y-50340434D02*
X156974053Y-50286560D01*
X156974053Y-50286560D02*
X156947115Y-50205747D01*
X156947115Y-50205747D02*
X156812428Y-50071060D01*
X156812428Y-50071060D02*
X156731616Y-50044123D01*
X156731616Y-50044123D02*
X156677741Y-50044123D01*
X156677741Y-50044123D02*
X156596929Y-50071060D01*
X156596929Y-50071060D02*
X156489179Y-50178810D01*
X156489179Y-50178810D02*
X156462242Y-50259622D01*
X156462242Y-50259622D02*
X156462242Y-50313497D01*
X156462242Y-50313497D02*
X156489179Y-50394309D01*
X128737998Y-76844868D02*
X128657185Y-76871805D01*
X128657185Y-76871805D02*
X128576373Y-76952618D01*
X128576373Y-76952618D02*
X128522498Y-77060367D01*
X128522498Y-77060367D02*
X128522498Y-77168117D01*
X128522498Y-77168117D02*
X128549436Y-77248929D01*
X128549436Y-77248929D02*
X128630248Y-77383616D01*
X128630248Y-77383616D02*
X128711060Y-77464428D01*
X128711060Y-77464428D02*
X128845747Y-77545241D01*
X128845747Y-77545241D02*
X128926560Y-77572178D01*
X128926560Y-77572178D02*
X129034309Y-77572178D01*
X129034309Y-77572178D02*
X129142059Y-77518303D01*
X129142059Y-77518303D02*
X129195934Y-77464428D01*
X129195934Y-77464428D02*
X129249808Y-77356679D01*
X129249808Y-77356679D02*
X129249808Y-77302804D01*
X129249808Y-77302804D02*
X129061247Y-77114242D01*
X129061247Y-77114242D02*
X128953497Y-77221992D01*
X129546120Y-77114242D02*
X128980434Y-76548557D01*
X128980434Y-76548557D02*
X129195934Y-76333057D01*
X129195934Y-76333057D02*
X129276746Y-76306120D01*
X129276746Y-76306120D02*
X129330621Y-76306120D01*
X129330621Y-76306120D02*
X129411433Y-76333057D01*
X129411433Y-76333057D02*
X129492245Y-76413870D01*
X129492245Y-76413870D02*
X129519182Y-76494682D01*
X129519182Y-76494682D02*
X129519182Y-76548557D01*
X129519182Y-76548557D02*
X129492245Y-76629369D01*
X129492245Y-76629369D02*
X129276746Y-76844868D01*
X130408117Y-76252245D02*
X130084868Y-76575494D01*
X130246492Y-76413870D02*
X129680807Y-75848184D01*
X129680807Y-75848184D02*
X129707744Y-75982871D01*
X129707744Y-75982871D02*
X129707744Y-76090621D01*
X129707744Y-76090621D02*
X129680807Y-76171433D01*
X130354242Y-75174749D02*
X130084868Y-75444123D01*
X130084868Y-75444123D02*
X130327305Y-75740434D01*
X130327305Y-75740434D02*
X130327305Y-75686560D01*
X130327305Y-75686560D02*
X130354242Y-75605747D01*
X130354242Y-75605747D02*
X130488929Y-75471060D01*
X130488929Y-75471060D02*
X130569741Y-75444123D01*
X130569741Y-75444123D02*
X130623616Y-75444123D01*
X130623616Y-75444123D02*
X130704428Y-75471060D01*
X130704428Y-75471060D02*
X130839115Y-75605747D01*
X130839115Y-75605747D02*
X130866053Y-75686560D01*
X130866053Y-75686560D02*
X130866053Y-75740434D01*
X130866053Y-75740434D02*
X130839115Y-75821247D01*
X130839115Y-75821247D02*
X130704428Y-75955934D01*
X130704428Y-75955934D02*
X130623616Y-75982871D01*
X130623616Y-75982871D02*
X130569741Y-75982871D01*
X154701406Y-28851585D02*
X155455653Y-29228709D01*
X155455653Y-29228709D02*
X155078529Y-28474462D01*
X155725027Y-28366712D02*
X155832776Y-28312838D01*
X155832776Y-28312838D02*
X155886651Y-28312838D01*
X155886651Y-28312838D02*
X155967463Y-28339775D01*
X155967463Y-28339775D02*
X156048276Y-28420587D01*
X156048276Y-28420587D02*
X156075213Y-28501399D01*
X156075213Y-28501399D02*
X156075213Y-28555274D01*
X156075213Y-28555274D02*
X156048276Y-28636086D01*
X156048276Y-28636086D02*
X155832776Y-28851586D01*
X155832776Y-28851586D02*
X155267091Y-28285900D01*
X155267091Y-28285900D02*
X155455653Y-28097338D01*
X155455653Y-28097338D02*
X155536465Y-28070401D01*
X155536465Y-28070401D02*
X155590340Y-28070401D01*
X155590340Y-28070401D02*
X155671152Y-28097338D01*
X155671152Y-28097338D02*
X155725027Y-28151213D01*
X155725027Y-28151213D02*
X155751964Y-28232025D01*
X155751964Y-28232025D02*
X155751964Y-28285900D01*
X155751964Y-28285900D02*
X155725027Y-28366712D01*
X155725027Y-28366712D02*
X155536465Y-28555274D01*
X155832776Y-27720215D02*
X156290712Y-28178151D01*
X156290712Y-28178151D02*
X156371524Y-28205088D01*
X156371524Y-28205088D02*
X156425399Y-28205088D01*
X156425399Y-28205088D02*
X156506211Y-28178151D01*
X156506211Y-28178151D02*
X156613961Y-28070401D01*
X156613961Y-28070401D02*
X156640898Y-27989589D01*
X156640898Y-27989589D02*
X156640898Y-27935714D01*
X156640898Y-27935714D02*
X156613961Y-27854902D01*
X156613961Y-27854902D02*
X156156025Y-27396966D01*
X156937210Y-27693277D02*
X157044959Y-27639403D01*
X157044959Y-27639403D02*
X157179646Y-27504716D01*
X157179646Y-27504716D02*
X157206584Y-27423903D01*
X157206584Y-27423903D02*
X157206584Y-27370029D01*
X157206584Y-27370029D02*
X157179646Y-27289216D01*
X157179646Y-27289216D02*
X157125771Y-27235342D01*
X157125771Y-27235342D02*
X157044959Y-27208404D01*
X157044959Y-27208404D02*
X156991084Y-27208404D01*
X156991084Y-27208404D02*
X156910272Y-27235342D01*
X156910272Y-27235342D02*
X156775585Y-27316154D01*
X156775585Y-27316154D02*
X156694773Y-27343091D01*
X156694773Y-27343091D02*
X156640898Y-27343091D01*
X156640898Y-27343091D02*
X156560086Y-27316154D01*
X156560086Y-27316154D02*
X156506211Y-27262279D01*
X156506211Y-27262279D02*
X156479274Y-27181467D01*
X156479274Y-27181467D02*
X156479274Y-27127592D01*
X156479274Y-27127592D02*
X156506211Y-27046780D01*
X156506211Y-27046780D02*
X156640898Y-26912093D01*
X156640898Y-26912093D02*
X156748648Y-26858218D01*
X129261372Y-53715494D02*
X129180560Y-53742431D01*
X129180560Y-53742431D02*
X129099748Y-53823243D01*
X129099748Y-53823243D02*
X129045873Y-53930993D01*
X129045873Y-53930993D02*
X129045873Y-54038742D01*
X129045873Y-54038742D02*
X129072810Y-54119555D01*
X129072810Y-54119555D02*
X129153623Y-54254242D01*
X129153623Y-54254242D02*
X129234435Y-54335054D01*
X129234435Y-54335054D02*
X129369122Y-54415866D01*
X129369122Y-54415866D02*
X129449934Y-54442803D01*
X129449934Y-54442803D02*
X129557684Y-54442803D01*
X129557684Y-54442803D02*
X129665433Y-54388929D01*
X129665433Y-54388929D02*
X129719308Y-54335054D01*
X129719308Y-54335054D02*
X129773183Y-54227304D01*
X129773183Y-54227304D02*
X129773183Y-54173429D01*
X129773183Y-54173429D02*
X129584621Y-53984868D01*
X129584621Y-53984868D02*
X129476871Y-54092617D01*
X130069494Y-53984868D02*
X129503809Y-53419182D01*
X129503809Y-53419182D02*
X129719308Y-53203683D01*
X129719308Y-53203683D02*
X129800120Y-53176746D01*
X129800120Y-53176746D02*
X129853995Y-53176746D01*
X129853995Y-53176746D02*
X129934807Y-53203683D01*
X129934807Y-53203683D02*
X130015619Y-53284495D01*
X130015619Y-53284495D02*
X130042557Y-53365307D01*
X130042557Y-53365307D02*
X130042557Y-53419182D01*
X130042557Y-53419182D02*
X130015619Y-53499994D01*
X130015619Y-53499994D02*
X129800120Y-53715494D01*
X130392743Y-53015121D02*
X130311931Y-53042059D01*
X130311931Y-53042059D02*
X130258056Y-53042059D01*
X130258056Y-53042059D02*
X130177244Y-53015121D01*
X130177244Y-53015121D02*
X130150306Y-52988184D01*
X130150306Y-52988184D02*
X130123369Y-52907372D01*
X130123369Y-52907372D02*
X130123369Y-52853497D01*
X130123369Y-52853497D02*
X130150306Y-52772685D01*
X130150306Y-52772685D02*
X130258056Y-52664935D01*
X130258056Y-52664935D02*
X130338868Y-52637998D01*
X130338868Y-52637998D02*
X130392743Y-52637998D01*
X130392743Y-52637998D02*
X130473555Y-52664935D01*
X130473555Y-52664935D02*
X130500493Y-52691872D01*
X130500493Y-52691872D02*
X130527430Y-52772685D01*
X130527430Y-52772685D02*
X130527430Y-52826559D01*
X130527430Y-52826559D02*
X130500493Y-52907372D01*
X130500493Y-52907372D02*
X130392743Y-53015121D01*
X130392743Y-53015121D02*
X130365806Y-53095933D01*
X130365806Y-53095933D02*
X130365806Y-53149808D01*
X130365806Y-53149808D02*
X130392743Y-53230620D01*
X130392743Y-53230620D02*
X130500493Y-53338370D01*
X130500493Y-53338370D02*
X130581305Y-53365307D01*
X130581305Y-53365307D02*
X130635180Y-53365307D01*
X130635180Y-53365307D02*
X130715992Y-53338370D01*
X130715992Y-53338370D02*
X130823741Y-53230620D01*
X130823741Y-53230620D02*
X130850679Y-53149808D01*
X130850679Y-53149808D02*
X130850679Y-53095933D01*
X130850679Y-53095933D02*
X130823741Y-53015121D01*
X130823741Y-53015121D02*
X130715992Y-52907372D01*
X130715992Y-52907372D02*
X130635180Y-52880434D01*
X130635180Y-52880434D02*
X130581305Y-52880434D01*
X130581305Y-52880434D02*
X130500493Y-52907372D01*
X128591998Y-64144868D02*
X128511185Y-64171805D01*
X128511185Y-64171805D02*
X128430373Y-64252618D01*
X128430373Y-64252618D02*
X128376498Y-64360367D01*
X128376498Y-64360367D02*
X128376498Y-64468117D01*
X128376498Y-64468117D02*
X128403436Y-64548929D01*
X128403436Y-64548929D02*
X128484248Y-64683616D01*
X128484248Y-64683616D02*
X128565060Y-64764428D01*
X128565060Y-64764428D02*
X128699747Y-64845241D01*
X128699747Y-64845241D02*
X128780560Y-64872178D01*
X128780560Y-64872178D02*
X128888309Y-64872178D01*
X128888309Y-64872178D02*
X128996059Y-64818303D01*
X128996059Y-64818303D02*
X129049934Y-64764428D01*
X129049934Y-64764428D02*
X129103808Y-64656679D01*
X129103808Y-64656679D02*
X129103808Y-64602804D01*
X129103808Y-64602804D02*
X128915247Y-64414242D01*
X128915247Y-64414242D02*
X128807497Y-64521992D01*
X129400120Y-64414242D02*
X128834434Y-63848557D01*
X128834434Y-63848557D02*
X129049934Y-63633057D01*
X129049934Y-63633057D02*
X129130746Y-63606120D01*
X129130746Y-63606120D02*
X129184621Y-63606120D01*
X129184621Y-63606120D02*
X129265433Y-63633057D01*
X129265433Y-63633057D02*
X129346245Y-63713870D01*
X129346245Y-63713870D02*
X129373182Y-63794682D01*
X129373182Y-63794682D02*
X129373182Y-63848557D01*
X129373182Y-63848557D02*
X129346245Y-63929369D01*
X129346245Y-63929369D02*
X129130746Y-64144868D01*
X130262117Y-63552245D02*
X129938868Y-63875494D01*
X130100492Y-63713870D02*
X129534807Y-63148184D01*
X129534807Y-63148184D02*
X129561744Y-63282871D01*
X129561744Y-63282871D02*
X129561744Y-63390621D01*
X129561744Y-63390621D02*
X129534807Y-63471433D01*
X130800865Y-63013497D02*
X130477616Y-63336746D01*
X130639240Y-63175121D02*
X130073555Y-62609436D01*
X130073555Y-62609436D02*
X130100492Y-62744123D01*
X130100492Y-62744123D02*
X130100492Y-62851873D01*
X130100492Y-62851873D02*
X130073555Y-62932685D01*
X129361372Y-51145494D02*
X129280560Y-51172431D01*
X129280560Y-51172431D02*
X129199748Y-51253243D01*
X129199748Y-51253243D02*
X129145873Y-51360993D01*
X129145873Y-51360993D02*
X129145873Y-51468742D01*
X129145873Y-51468742D02*
X129172810Y-51549555D01*
X129172810Y-51549555D02*
X129253623Y-51684242D01*
X129253623Y-51684242D02*
X129334435Y-51765054D01*
X129334435Y-51765054D02*
X129469122Y-51845866D01*
X129469122Y-51845866D02*
X129549934Y-51872803D01*
X129549934Y-51872803D02*
X129657684Y-51872803D01*
X129657684Y-51872803D02*
X129765433Y-51818929D01*
X129765433Y-51818929D02*
X129819308Y-51765054D01*
X129819308Y-51765054D02*
X129873183Y-51657304D01*
X129873183Y-51657304D02*
X129873183Y-51603429D01*
X129873183Y-51603429D02*
X129684621Y-51414868D01*
X129684621Y-51414868D02*
X129576871Y-51522617D01*
X130169494Y-51414868D02*
X129603809Y-50849182D01*
X129603809Y-50849182D02*
X129819308Y-50633683D01*
X129819308Y-50633683D02*
X129900120Y-50606746D01*
X129900120Y-50606746D02*
X129953995Y-50606746D01*
X129953995Y-50606746D02*
X130034807Y-50633683D01*
X130034807Y-50633683D02*
X130115619Y-50714495D01*
X130115619Y-50714495D02*
X130142557Y-50795307D01*
X130142557Y-50795307D02*
X130142557Y-50849182D01*
X130142557Y-50849182D02*
X130115619Y-50929994D01*
X130115619Y-50929994D02*
X129900120Y-51145494D01*
X130115619Y-50337372D02*
X130492743Y-49960248D01*
X130492743Y-49960248D02*
X130815992Y-50768370D01*
X154845998Y-48914868D02*
X154765185Y-48941805D01*
X154765185Y-48941805D02*
X154684373Y-49022618D01*
X154684373Y-49022618D02*
X154630498Y-49130367D01*
X154630498Y-49130367D02*
X154630498Y-49238117D01*
X154630498Y-49238117D02*
X154657436Y-49318929D01*
X154657436Y-49318929D02*
X154738248Y-49453616D01*
X154738248Y-49453616D02*
X154819060Y-49534428D01*
X154819060Y-49534428D02*
X154953747Y-49615241D01*
X154953747Y-49615241D02*
X155034560Y-49642178D01*
X155034560Y-49642178D02*
X155142309Y-49642178D01*
X155142309Y-49642178D02*
X155250059Y-49588303D01*
X155250059Y-49588303D02*
X155303934Y-49534428D01*
X155303934Y-49534428D02*
X155357808Y-49426679D01*
X155357808Y-49426679D02*
X155357808Y-49372804D01*
X155357808Y-49372804D02*
X155169247Y-49184242D01*
X155169247Y-49184242D02*
X155061497Y-49291992D01*
X155654120Y-49184242D02*
X155088434Y-48618557D01*
X155088434Y-48618557D02*
X155303934Y-48403057D01*
X155303934Y-48403057D02*
X155384746Y-48376120D01*
X155384746Y-48376120D02*
X155438621Y-48376120D01*
X155438621Y-48376120D02*
X155519433Y-48403057D01*
X155519433Y-48403057D02*
X155600245Y-48483870D01*
X155600245Y-48483870D02*
X155627182Y-48564682D01*
X155627182Y-48564682D02*
X155627182Y-48618557D01*
X155627182Y-48618557D02*
X155600245Y-48699369D01*
X155600245Y-48699369D02*
X155384746Y-48914868D01*
X155681057Y-48133683D02*
X155681057Y-48079809D01*
X155681057Y-48079809D02*
X155707995Y-47998996D01*
X155707995Y-47998996D02*
X155842682Y-47864309D01*
X155842682Y-47864309D02*
X155923494Y-47837372D01*
X155923494Y-47837372D02*
X155977369Y-47837372D01*
X155977369Y-47837372D02*
X156058181Y-47864309D01*
X156058181Y-47864309D02*
X156112056Y-47918184D01*
X156112056Y-47918184D02*
X156165930Y-48025934D01*
X156165930Y-48025934D02*
X156165930Y-48672431D01*
X156165930Y-48672431D02*
X156516117Y-48322245D01*
X156138993Y-47567998D02*
X156516117Y-47190874D01*
X156516117Y-47190874D02*
X156839366Y-47998996D01*
X154638123Y-38814868D02*
X154988309Y-38464682D01*
X154988309Y-38464682D02*
X155015247Y-38868743D01*
X155015247Y-38868743D02*
X155096059Y-38787931D01*
X155096059Y-38787931D02*
X155176871Y-38760993D01*
X155176871Y-38760993D02*
X155230746Y-38760993D01*
X155230746Y-38760993D02*
X155311558Y-38787931D01*
X155311558Y-38787931D02*
X155446245Y-38922618D01*
X155446245Y-38922618D02*
X155473182Y-39003430D01*
X155473182Y-39003430D02*
X155473182Y-39057305D01*
X155473182Y-39057305D02*
X155446245Y-39138117D01*
X155446245Y-39138117D02*
X155284621Y-39299741D01*
X155284621Y-39299741D02*
X155203808Y-39326679D01*
X155203808Y-39326679D02*
X155149934Y-39326679D01*
X155149934Y-38303057D02*
X155904181Y-38680181D01*
X155904181Y-38680181D02*
X155527057Y-37925934D01*
X155661744Y-37791247D02*
X156011930Y-37441061D01*
X156011930Y-37441061D02*
X156038868Y-37845122D01*
X156038868Y-37845122D02*
X156119680Y-37764309D01*
X156119680Y-37764309D02*
X156200492Y-37737372D01*
X156200492Y-37737372D02*
X156254367Y-37737372D01*
X156254367Y-37737372D02*
X156335179Y-37764309D01*
X156335179Y-37764309D02*
X156469866Y-37898996D01*
X156469866Y-37898996D02*
X156496804Y-37979809D01*
X156496804Y-37979809D02*
X156496804Y-38033683D01*
X156496804Y-38033683D02*
X156469866Y-38114496D01*
X156469866Y-38114496D02*
X156308242Y-38276120D01*
X156308242Y-38276120D02*
X156227430Y-38303057D01*
X156227430Y-38303057D02*
X156173555Y-38303057D01*
X129261372Y-56255494D02*
X129180560Y-56282431D01*
X129180560Y-56282431D02*
X129099748Y-56363243D01*
X129099748Y-56363243D02*
X129045873Y-56470993D01*
X129045873Y-56470993D02*
X129045873Y-56578742D01*
X129045873Y-56578742D02*
X129072810Y-56659555D01*
X129072810Y-56659555D02*
X129153623Y-56794242D01*
X129153623Y-56794242D02*
X129234435Y-56875054D01*
X129234435Y-56875054D02*
X129369122Y-56955866D01*
X129369122Y-56955866D02*
X129449934Y-56982803D01*
X129449934Y-56982803D02*
X129557684Y-56982803D01*
X129557684Y-56982803D02*
X129665433Y-56928929D01*
X129665433Y-56928929D02*
X129719308Y-56875054D01*
X129719308Y-56875054D02*
X129773183Y-56767304D01*
X129773183Y-56767304D02*
X129773183Y-56713429D01*
X129773183Y-56713429D02*
X129584621Y-56524868D01*
X129584621Y-56524868D02*
X129476871Y-56632617D01*
X130069494Y-56524868D02*
X129503809Y-55959182D01*
X129503809Y-55959182D02*
X129719308Y-55743683D01*
X129719308Y-55743683D02*
X129800120Y-55716746D01*
X129800120Y-55716746D02*
X129853995Y-55716746D01*
X129853995Y-55716746D02*
X129934807Y-55743683D01*
X129934807Y-55743683D02*
X130015619Y-55824495D01*
X130015619Y-55824495D02*
X130042557Y-55905307D01*
X130042557Y-55905307D02*
X130042557Y-55959182D01*
X130042557Y-55959182D02*
X130015619Y-56039994D01*
X130015619Y-56039994D02*
X129800120Y-56255494D01*
X130662117Y-55932245D02*
X130769867Y-55824495D01*
X130769867Y-55824495D02*
X130796804Y-55743683D01*
X130796804Y-55743683D02*
X130796804Y-55689808D01*
X130796804Y-55689808D02*
X130769867Y-55555121D01*
X130769867Y-55555121D02*
X130689054Y-55420434D01*
X130689054Y-55420434D02*
X130473555Y-55204935D01*
X130473555Y-55204935D02*
X130392743Y-55177998D01*
X130392743Y-55177998D02*
X130338868Y-55177998D01*
X130338868Y-55177998D02*
X130258056Y-55204935D01*
X130258056Y-55204935D02*
X130150306Y-55312685D01*
X130150306Y-55312685D02*
X130123369Y-55393497D01*
X130123369Y-55393497D02*
X130123369Y-55447372D01*
X130123369Y-55447372D02*
X130150306Y-55528184D01*
X130150306Y-55528184D02*
X130284993Y-55662871D01*
X130284993Y-55662871D02*
X130365806Y-55689808D01*
X130365806Y-55689808D02*
X130419680Y-55689808D01*
X130419680Y-55689808D02*
X130500493Y-55662871D01*
X130500493Y-55662871D02*
X130608242Y-55555121D01*
X130608242Y-55555121D02*
X130635180Y-55474309D01*
X130635180Y-55474309D02*
X130635180Y-55420434D01*
X130635180Y-55420434D02*
X130608242Y-55339622D01*
X128737998Y-69224868D02*
X128657185Y-69251805D01*
X128657185Y-69251805D02*
X128576373Y-69332618D01*
X128576373Y-69332618D02*
X128522498Y-69440367D01*
X128522498Y-69440367D02*
X128522498Y-69548117D01*
X128522498Y-69548117D02*
X128549436Y-69628929D01*
X128549436Y-69628929D02*
X128630248Y-69763616D01*
X128630248Y-69763616D02*
X128711060Y-69844428D01*
X128711060Y-69844428D02*
X128845747Y-69925241D01*
X128845747Y-69925241D02*
X128926560Y-69952178D01*
X128926560Y-69952178D02*
X129034309Y-69952178D01*
X129034309Y-69952178D02*
X129142059Y-69898303D01*
X129142059Y-69898303D02*
X129195934Y-69844428D01*
X129195934Y-69844428D02*
X129249808Y-69736679D01*
X129249808Y-69736679D02*
X129249808Y-69682804D01*
X129249808Y-69682804D02*
X129061247Y-69494242D01*
X129061247Y-69494242D02*
X128953497Y-69601992D01*
X129546120Y-69494242D02*
X128980434Y-68928557D01*
X128980434Y-68928557D02*
X129195934Y-68713057D01*
X129195934Y-68713057D02*
X129276746Y-68686120D01*
X129276746Y-68686120D02*
X129330621Y-68686120D01*
X129330621Y-68686120D02*
X129411433Y-68713057D01*
X129411433Y-68713057D02*
X129492245Y-68793870D01*
X129492245Y-68793870D02*
X129519182Y-68874682D01*
X129519182Y-68874682D02*
X129519182Y-68928557D01*
X129519182Y-68928557D02*
X129492245Y-69009369D01*
X129492245Y-69009369D02*
X129276746Y-69224868D01*
X130408117Y-68632245D02*
X130084868Y-68955494D01*
X130246492Y-68793870D02*
X129680807Y-68228184D01*
X129680807Y-68228184D02*
X129707744Y-68362871D01*
X129707744Y-68362871D02*
X129707744Y-68470621D01*
X129707744Y-68470621D02*
X129680807Y-68551433D01*
X130030993Y-67877998D02*
X130381179Y-67527812D01*
X130381179Y-67527812D02*
X130408117Y-67931873D01*
X130408117Y-67931873D02*
X130488929Y-67851060D01*
X130488929Y-67851060D02*
X130569741Y-67824123D01*
X130569741Y-67824123D02*
X130623616Y-67824123D01*
X130623616Y-67824123D02*
X130704428Y-67851060D01*
X130704428Y-67851060D02*
X130839115Y-67985747D01*
X130839115Y-67985747D02*
X130866053Y-68066560D01*
X130866053Y-68066560D02*
X130866053Y-68120434D01*
X130866053Y-68120434D02*
X130839115Y-68201247D01*
X130839115Y-68201247D02*
X130677491Y-68362871D01*
X130677491Y-68362871D02*
X130596679Y-68389808D01*
X130596679Y-68389808D02*
X130542804Y-68389808D01*
X129261372Y-43555494D02*
X129180560Y-43582431D01*
X129180560Y-43582431D02*
X129099748Y-43663243D01*
X129099748Y-43663243D02*
X129045873Y-43770993D01*
X129045873Y-43770993D02*
X129045873Y-43878742D01*
X129045873Y-43878742D02*
X129072810Y-43959555D01*
X129072810Y-43959555D02*
X129153623Y-44094242D01*
X129153623Y-44094242D02*
X129234435Y-44175054D01*
X129234435Y-44175054D02*
X129369122Y-44255866D01*
X129369122Y-44255866D02*
X129449934Y-44282803D01*
X129449934Y-44282803D02*
X129557684Y-44282803D01*
X129557684Y-44282803D02*
X129665433Y-44228929D01*
X129665433Y-44228929D02*
X129719308Y-44175054D01*
X129719308Y-44175054D02*
X129773183Y-44067304D01*
X129773183Y-44067304D02*
X129773183Y-44013429D01*
X129773183Y-44013429D02*
X129584621Y-43824868D01*
X129584621Y-43824868D02*
X129476871Y-43932617D01*
X130069494Y-43824868D02*
X129503809Y-43259182D01*
X129503809Y-43259182D02*
X129719308Y-43043683D01*
X129719308Y-43043683D02*
X129800120Y-43016746D01*
X129800120Y-43016746D02*
X129853995Y-43016746D01*
X129853995Y-43016746D02*
X129934807Y-43043683D01*
X129934807Y-43043683D02*
X130015619Y-43124495D01*
X130015619Y-43124495D02*
X130042557Y-43205307D01*
X130042557Y-43205307D02*
X130042557Y-43259182D01*
X130042557Y-43259182D02*
X130015619Y-43339994D01*
X130015619Y-43339994D02*
X129800120Y-43555494D01*
X130338868Y-42424123D02*
X130069494Y-42693497D01*
X130069494Y-42693497D02*
X130311931Y-42989808D01*
X130311931Y-42989808D02*
X130311931Y-42935933D01*
X130311931Y-42935933D02*
X130338868Y-42855121D01*
X130338868Y-42855121D02*
X130473555Y-42720434D01*
X130473555Y-42720434D02*
X130554367Y-42693497D01*
X130554367Y-42693497D02*
X130608242Y-42693497D01*
X130608242Y-42693497D02*
X130689054Y-42720434D01*
X130689054Y-42720434D02*
X130823741Y-42855121D01*
X130823741Y-42855121D02*
X130850679Y-42935933D01*
X130850679Y-42935933D02*
X130850679Y-42989808D01*
X130850679Y-42989808D02*
X130823741Y-43070620D01*
X130823741Y-43070620D02*
X130689054Y-43205307D01*
X130689054Y-43205307D02*
X130608242Y-43232245D01*
X130608242Y-43232245D02*
X130554367Y-43232245D01*
X154834435Y-58822431D02*
X154753623Y-58849368D01*
X154753623Y-58849368D02*
X154672811Y-58930180D01*
X154672811Y-58930180D02*
X154618936Y-59037930D01*
X154618936Y-59037930D02*
X154618936Y-59145680D01*
X154618936Y-59145680D02*
X154645873Y-59226492D01*
X154645873Y-59226492D02*
X154726685Y-59361179D01*
X154726685Y-59361179D02*
X154807498Y-59441991D01*
X154807498Y-59441991D02*
X154942185Y-59522803D01*
X154942185Y-59522803D02*
X155022997Y-59549741D01*
X155022997Y-59549741D02*
X155130746Y-59549741D01*
X155130746Y-59549741D02*
X155238496Y-59495866D01*
X155238496Y-59495866D02*
X155292371Y-59441991D01*
X155292371Y-59441991D02*
X155346246Y-59334241D01*
X155346246Y-59334241D02*
X155346246Y-59280367D01*
X155346246Y-59280367D02*
X155157684Y-59091805D01*
X155157684Y-59091805D02*
X155049934Y-59199554D01*
X155642557Y-59091805D02*
X155076872Y-58526119D01*
X155076872Y-58526119D02*
X155965806Y-58768556D01*
X155965806Y-58768556D02*
X155400120Y-58202871D01*
X156235180Y-58499182D02*
X155669494Y-57933497D01*
X155669494Y-57933497D02*
X155804181Y-57798810D01*
X155804181Y-57798810D02*
X155911931Y-57744935D01*
X155911931Y-57744935D02*
X156019680Y-57744935D01*
X156019680Y-57744935D02*
X156100493Y-57771872D01*
X156100493Y-57771872D02*
X156235180Y-57852685D01*
X156235180Y-57852685D02*
X156315992Y-57933497D01*
X156315992Y-57933497D02*
X156396804Y-58068184D01*
X156396804Y-58068184D02*
X156423741Y-58148996D01*
X156423741Y-58148996D02*
X156423741Y-58256746D01*
X156423741Y-58256746D02*
X156369867Y-58364495D01*
X156369867Y-58364495D02*
X156235180Y-58499182D01*
X154845998Y-43570868D02*
X154765185Y-43597805D01*
X154765185Y-43597805D02*
X154684373Y-43678618D01*
X154684373Y-43678618D02*
X154630498Y-43786367D01*
X154630498Y-43786367D02*
X154630498Y-43894117D01*
X154630498Y-43894117D02*
X154657436Y-43974929D01*
X154657436Y-43974929D02*
X154738248Y-44109616D01*
X154738248Y-44109616D02*
X154819060Y-44190428D01*
X154819060Y-44190428D02*
X154953747Y-44271241D01*
X154953747Y-44271241D02*
X155034560Y-44298178D01*
X155034560Y-44298178D02*
X155142309Y-44298178D01*
X155142309Y-44298178D02*
X155250059Y-44244303D01*
X155250059Y-44244303D02*
X155303934Y-44190428D01*
X155303934Y-44190428D02*
X155357808Y-44082679D01*
X155357808Y-44082679D02*
X155357808Y-44028804D01*
X155357808Y-44028804D02*
X155169247Y-43840242D01*
X155169247Y-43840242D02*
X155061497Y-43947992D01*
X155654120Y-43840242D02*
X155088434Y-43274557D01*
X155088434Y-43274557D02*
X155303934Y-43059057D01*
X155303934Y-43059057D02*
X155384746Y-43032120D01*
X155384746Y-43032120D02*
X155438621Y-43032120D01*
X155438621Y-43032120D02*
X155519433Y-43059057D01*
X155519433Y-43059057D02*
X155600245Y-43139870D01*
X155600245Y-43139870D02*
X155627182Y-43220682D01*
X155627182Y-43220682D02*
X155627182Y-43274557D01*
X155627182Y-43274557D02*
X155600245Y-43355369D01*
X155600245Y-43355369D02*
X155384746Y-43570868D01*
X155681057Y-42789683D02*
X155681057Y-42735809D01*
X155681057Y-42735809D02*
X155707995Y-42654996D01*
X155707995Y-42654996D02*
X155842682Y-42520309D01*
X155842682Y-42520309D02*
X155923494Y-42493372D01*
X155923494Y-42493372D02*
X155977369Y-42493372D01*
X155977369Y-42493372D02*
X156058181Y-42520309D01*
X156058181Y-42520309D02*
X156112056Y-42574184D01*
X156112056Y-42574184D02*
X156165930Y-42681934D01*
X156165930Y-42681934D02*
X156165930Y-43328431D01*
X156165930Y-43328431D02*
X156516117Y-42978245D01*
X156516117Y-42331747D02*
X156435305Y-42358685D01*
X156435305Y-42358685D02*
X156381430Y-42358685D01*
X156381430Y-42358685D02*
X156300618Y-42331747D01*
X156300618Y-42331747D02*
X156273680Y-42304810D01*
X156273680Y-42304810D02*
X156246743Y-42223998D01*
X156246743Y-42223998D02*
X156246743Y-42170123D01*
X156246743Y-42170123D02*
X156273680Y-42089311D01*
X156273680Y-42089311D02*
X156381430Y-41981561D01*
X156381430Y-41981561D02*
X156462242Y-41954624D01*
X156462242Y-41954624D02*
X156516117Y-41954624D01*
X156516117Y-41954624D02*
X156596929Y-41981561D01*
X156596929Y-41981561D02*
X156623866Y-42008499D01*
X156623866Y-42008499D02*
X156650804Y-42089311D01*
X156650804Y-42089311D02*
X156650804Y-42143186D01*
X156650804Y-42143186D02*
X156623866Y-42223998D01*
X156623866Y-42223998D02*
X156516117Y-42331747D01*
X156516117Y-42331747D02*
X156489179Y-42412560D01*
X156489179Y-42412560D02*
X156489179Y-42466434D01*
X156489179Y-42466434D02*
X156516117Y-42547247D01*
X156516117Y-42547247D02*
X156623866Y-42654996D01*
X156623866Y-42654996D02*
X156704679Y-42681934D01*
X156704679Y-42681934D02*
X156758553Y-42681934D01*
X156758553Y-42681934D02*
X156839366Y-42654996D01*
X156839366Y-42654996D02*
X156947115Y-42547247D01*
X156947115Y-42547247D02*
X156974053Y-42466434D01*
X156974053Y-42466434D02*
X156974053Y-42412560D01*
X156974053Y-42412560D02*
X156947115Y-42331747D01*
X156947115Y-42331747D02*
X156839366Y-42223998D01*
X156839366Y-42223998D02*
X156758553Y-42197060D01*
X156758553Y-42197060D02*
X156704679Y-42197060D01*
X156704679Y-42197060D02*
X156623866Y-42223998D01*
X129261372Y-38475494D02*
X129180560Y-38502431D01*
X129180560Y-38502431D02*
X129099748Y-38583243D01*
X129099748Y-38583243D02*
X129045873Y-38690993D01*
X129045873Y-38690993D02*
X129045873Y-38798742D01*
X129045873Y-38798742D02*
X129072810Y-38879555D01*
X129072810Y-38879555D02*
X129153623Y-39014242D01*
X129153623Y-39014242D02*
X129234435Y-39095054D01*
X129234435Y-39095054D02*
X129369122Y-39175866D01*
X129369122Y-39175866D02*
X129449934Y-39202803D01*
X129449934Y-39202803D02*
X129557684Y-39202803D01*
X129557684Y-39202803D02*
X129665433Y-39148929D01*
X129665433Y-39148929D02*
X129719308Y-39095054D01*
X129719308Y-39095054D02*
X129773183Y-38987304D01*
X129773183Y-38987304D02*
X129773183Y-38933429D01*
X129773183Y-38933429D02*
X129584621Y-38744868D01*
X129584621Y-38744868D02*
X129476871Y-38852617D01*
X130069494Y-38744868D02*
X129503809Y-38179182D01*
X129503809Y-38179182D02*
X129719308Y-37963683D01*
X129719308Y-37963683D02*
X129800120Y-37936746D01*
X129800120Y-37936746D02*
X129853995Y-37936746D01*
X129853995Y-37936746D02*
X129934807Y-37963683D01*
X129934807Y-37963683D02*
X130015619Y-38044495D01*
X130015619Y-38044495D02*
X130042557Y-38125307D01*
X130042557Y-38125307D02*
X130042557Y-38179182D01*
X130042557Y-38179182D02*
X130015619Y-38259994D01*
X130015619Y-38259994D02*
X129800120Y-38475494D01*
X130015619Y-37667372D02*
X130365806Y-37317185D01*
X130365806Y-37317185D02*
X130392743Y-37721246D01*
X130392743Y-37721246D02*
X130473555Y-37640434D01*
X130473555Y-37640434D02*
X130554367Y-37613497D01*
X130554367Y-37613497D02*
X130608242Y-37613497D01*
X130608242Y-37613497D02*
X130689054Y-37640434D01*
X130689054Y-37640434D02*
X130823741Y-37775121D01*
X130823741Y-37775121D02*
X130850679Y-37855933D01*
X130850679Y-37855933D02*
X130850679Y-37909808D01*
X130850679Y-37909808D02*
X130823741Y-37990620D01*
X130823741Y-37990620D02*
X130662117Y-38152245D01*
X130662117Y-38152245D02*
X130581305Y-38179182D01*
X130581305Y-38179182D02*
X130527430Y-38179182D01*
X129234435Y-33422431D02*
X129153623Y-33449368D01*
X129153623Y-33449368D02*
X129072811Y-33530180D01*
X129072811Y-33530180D02*
X129018936Y-33637930D01*
X129018936Y-33637930D02*
X129018936Y-33745680D01*
X129018936Y-33745680D02*
X129045873Y-33826492D01*
X129045873Y-33826492D02*
X129126685Y-33961179D01*
X129126685Y-33961179D02*
X129207498Y-34041991D01*
X129207498Y-34041991D02*
X129342185Y-34122803D01*
X129342185Y-34122803D02*
X129422997Y-34149741D01*
X129422997Y-34149741D02*
X129530746Y-34149741D01*
X129530746Y-34149741D02*
X129638496Y-34095866D01*
X129638496Y-34095866D02*
X129692371Y-34041991D01*
X129692371Y-34041991D02*
X129746246Y-33934241D01*
X129746246Y-33934241D02*
X129746246Y-33880367D01*
X129746246Y-33880367D02*
X129557684Y-33691805D01*
X129557684Y-33691805D02*
X129449934Y-33799554D01*
X130042557Y-33691805D02*
X129476872Y-33126119D01*
X129476872Y-33126119D02*
X130365806Y-33368556D01*
X130365806Y-33368556D02*
X129800120Y-32802871D01*
X130635180Y-33099182D02*
X130069494Y-32533497D01*
X130069494Y-32533497D02*
X130204181Y-32398810D01*
X130204181Y-32398810D02*
X130311931Y-32344935D01*
X130311931Y-32344935D02*
X130419680Y-32344935D01*
X130419680Y-32344935D02*
X130500493Y-32371872D01*
X130500493Y-32371872D02*
X130635180Y-32452685D01*
X130635180Y-32452685D02*
X130715992Y-32533497D01*
X130715992Y-32533497D02*
X130796804Y-32668184D01*
X130796804Y-32668184D02*
X130823741Y-32748996D01*
X130823741Y-32748996D02*
X130823741Y-32856746D01*
X130823741Y-32856746D02*
X130769867Y-32964495D01*
X130769867Y-32964495D02*
X130635180Y-33099182D01*
X128591998Y-66684868D02*
X128511185Y-66711805D01*
X128511185Y-66711805D02*
X128430373Y-66792618D01*
X128430373Y-66792618D02*
X128376498Y-66900367D01*
X128376498Y-66900367D02*
X128376498Y-67008117D01*
X128376498Y-67008117D02*
X128403436Y-67088929D01*
X128403436Y-67088929D02*
X128484248Y-67223616D01*
X128484248Y-67223616D02*
X128565060Y-67304428D01*
X128565060Y-67304428D02*
X128699747Y-67385241D01*
X128699747Y-67385241D02*
X128780560Y-67412178D01*
X128780560Y-67412178D02*
X128888309Y-67412178D01*
X128888309Y-67412178D02*
X128996059Y-67358303D01*
X128996059Y-67358303D02*
X129049934Y-67304428D01*
X129049934Y-67304428D02*
X129103808Y-67196679D01*
X129103808Y-67196679D02*
X129103808Y-67142804D01*
X129103808Y-67142804D02*
X128915247Y-66954242D01*
X128915247Y-66954242D02*
X128807497Y-67061992D01*
X129400120Y-66954242D02*
X128834434Y-66388557D01*
X128834434Y-66388557D02*
X129049934Y-66173057D01*
X129049934Y-66173057D02*
X129130746Y-66146120D01*
X129130746Y-66146120D02*
X129184621Y-66146120D01*
X129184621Y-66146120D02*
X129265433Y-66173057D01*
X129265433Y-66173057D02*
X129346245Y-66253870D01*
X129346245Y-66253870D02*
X129373182Y-66334682D01*
X129373182Y-66334682D02*
X129373182Y-66388557D01*
X129373182Y-66388557D02*
X129346245Y-66469369D01*
X129346245Y-66469369D02*
X129130746Y-66684868D01*
X130262117Y-66092245D02*
X129938868Y-66415494D01*
X130100492Y-66253870D02*
X129534807Y-65688184D01*
X129534807Y-65688184D02*
X129561744Y-65822871D01*
X129561744Y-65822871D02*
X129561744Y-65930621D01*
X129561744Y-65930621D02*
X129534807Y-66011433D01*
X129965805Y-65364935D02*
X129965805Y-65311060D01*
X129965805Y-65311060D02*
X129992743Y-65230248D01*
X129992743Y-65230248D02*
X130127430Y-65095561D01*
X130127430Y-65095561D02*
X130208242Y-65068624D01*
X130208242Y-65068624D02*
X130262117Y-65068624D01*
X130262117Y-65068624D02*
X130342929Y-65095561D01*
X130342929Y-65095561D02*
X130396804Y-65149436D01*
X130396804Y-65149436D02*
X130450679Y-65257186D01*
X130450679Y-65257186D02*
X130450679Y-65903683D01*
X130450679Y-65903683D02*
X130800865Y-65553497D01*
X154845998Y-66684868D02*
X154765185Y-66711805D01*
X154765185Y-66711805D02*
X154684373Y-66792618D01*
X154684373Y-66792618D02*
X154630498Y-66900367D01*
X154630498Y-66900367D02*
X154630498Y-67008117D01*
X154630498Y-67008117D02*
X154657436Y-67088929D01*
X154657436Y-67088929D02*
X154738248Y-67223616D01*
X154738248Y-67223616D02*
X154819060Y-67304428D01*
X154819060Y-67304428D02*
X154953747Y-67385241D01*
X154953747Y-67385241D02*
X155034560Y-67412178D01*
X155034560Y-67412178D02*
X155142309Y-67412178D01*
X155142309Y-67412178D02*
X155250059Y-67358303D01*
X155250059Y-67358303D02*
X155303934Y-67304428D01*
X155303934Y-67304428D02*
X155357808Y-67196679D01*
X155357808Y-67196679D02*
X155357808Y-67142804D01*
X155357808Y-67142804D02*
X155169247Y-66954242D01*
X155169247Y-66954242D02*
X155061497Y-67061992D01*
X155654120Y-66954242D02*
X155088434Y-66388557D01*
X155088434Y-66388557D02*
X155303934Y-66173057D01*
X155303934Y-66173057D02*
X155384746Y-66146120D01*
X155384746Y-66146120D02*
X155438621Y-66146120D01*
X155438621Y-66146120D02*
X155519433Y-66173057D01*
X155519433Y-66173057D02*
X155600245Y-66253870D01*
X155600245Y-66253870D02*
X155627182Y-66334682D01*
X155627182Y-66334682D02*
X155627182Y-66388557D01*
X155627182Y-66388557D02*
X155600245Y-66469369D01*
X155600245Y-66469369D02*
X155384746Y-66684868D01*
X156516117Y-66092245D02*
X156192868Y-66415494D01*
X156354492Y-66253870D02*
X155788807Y-65688184D01*
X155788807Y-65688184D02*
X155815744Y-65822871D01*
X155815744Y-65822871D02*
X155815744Y-65930621D01*
X155815744Y-65930621D02*
X155788807Y-66011433D01*
X156785491Y-65822871D02*
X156893240Y-65715121D01*
X156893240Y-65715121D02*
X156920178Y-65634309D01*
X156920178Y-65634309D02*
X156920178Y-65580434D01*
X156920178Y-65580434D02*
X156893240Y-65445747D01*
X156893240Y-65445747D02*
X156812428Y-65311060D01*
X156812428Y-65311060D02*
X156596929Y-65095561D01*
X156596929Y-65095561D02*
X156516117Y-65068624D01*
X156516117Y-65068624D02*
X156462242Y-65068624D01*
X156462242Y-65068624D02*
X156381430Y-65095561D01*
X156381430Y-65095561D02*
X156273680Y-65203311D01*
X156273680Y-65203311D02*
X156246743Y-65284123D01*
X156246743Y-65284123D02*
X156246743Y-65337998D01*
X156246743Y-65337998D02*
X156273680Y-65418810D01*
X156273680Y-65418810D02*
X156408367Y-65553497D01*
X156408367Y-65553497D02*
X156489179Y-65580434D01*
X156489179Y-65580434D02*
X156543054Y-65580434D01*
X156543054Y-65580434D02*
X156623866Y-65553497D01*
X156623866Y-65553497D02*
X156731616Y-65445747D01*
X156731616Y-65445747D02*
X156758553Y-65364935D01*
X156758553Y-65364935D02*
X156758553Y-65311060D01*
X156758553Y-65311060D02*
X156731616Y-65230248D01*
X154834435Y-33422431D02*
X154753623Y-33449368D01*
X154753623Y-33449368D02*
X154672811Y-33530180D01*
X154672811Y-33530180D02*
X154618936Y-33637930D01*
X154618936Y-33637930D02*
X154618936Y-33745680D01*
X154618936Y-33745680D02*
X154645873Y-33826492D01*
X154645873Y-33826492D02*
X154726685Y-33961179D01*
X154726685Y-33961179D02*
X154807498Y-34041991D01*
X154807498Y-34041991D02*
X154942185Y-34122803D01*
X154942185Y-34122803D02*
X155022997Y-34149741D01*
X155022997Y-34149741D02*
X155130746Y-34149741D01*
X155130746Y-34149741D02*
X155238496Y-34095866D01*
X155238496Y-34095866D02*
X155292371Y-34041991D01*
X155292371Y-34041991D02*
X155346246Y-33934241D01*
X155346246Y-33934241D02*
X155346246Y-33880367D01*
X155346246Y-33880367D02*
X155157684Y-33691805D01*
X155157684Y-33691805D02*
X155049934Y-33799554D01*
X155642557Y-33691805D02*
X155076872Y-33126119D01*
X155076872Y-33126119D02*
X155965806Y-33368556D01*
X155965806Y-33368556D02*
X155400120Y-32802871D01*
X156235180Y-33099182D02*
X155669494Y-32533497D01*
X155669494Y-32533497D02*
X155804181Y-32398810D01*
X155804181Y-32398810D02*
X155911931Y-32344935D01*
X155911931Y-32344935D02*
X156019680Y-32344935D01*
X156019680Y-32344935D02*
X156100493Y-32371872D01*
X156100493Y-32371872D02*
X156235180Y-32452685D01*
X156235180Y-32452685D02*
X156315992Y-32533497D01*
X156315992Y-32533497D02*
X156396804Y-32668184D01*
X156396804Y-32668184D02*
X156423741Y-32748996D01*
X156423741Y-32748996D02*
X156423741Y-32856746D01*
X156423741Y-32856746D02*
X156369867Y-32964495D01*
X156369867Y-32964495D02*
X156235180Y-33099182D01*
X154845998Y-61614868D02*
X154765185Y-61641805D01*
X154765185Y-61641805D02*
X154684373Y-61722618D01*
X154684373Y-61722618D02*
X154630498Y-61830367D01*
X154630498Y-61830367D02*
X154630498Y-61938117D01*
X154630498Y-61938117D02*
X154657436Y-62018929D01*
X154657436Y-62018929D02*
X154738248Y-62153616D01*
X154738248Y-62153616D02*
X154819060Y-62234428D01*
X154819060Y-62234428D02*
X154953747Y-62315241D01*
X154953747Y-62315241D02*
X155034560Y-62342178D01*
X155034560Y-62342178D02*
X155142309Y-62342178D01*
X155142309Y-62342178D02*
X155250059Y-62288303D01*
X155250059Y-62288303D02*
X155303934Y-62234428D01*
X155303934Y-62234428D02*
X155357808Y-62126679D01*
X155357808Y-62126679D02*
X155357808Y-62072804D01*
X155357808Y-62072804D02*
X155169247Y-61884242D01*
X155169247Y-61884242D02*
X155061497Y-61991992D01*
X155654120Y-61884242D02*
X155088434Y-61318557D01*
X155088434Y-61318557D02*
X155303934Y-61103057D01*
X155303934Y-61103057D02*
X155384746Y-61076120D01*
X155384746Y-61076120D02*
X155438621Y-61076120D01*
X155438621Y-61076120D02*
X155519433Y-61103057D01*
X155519433Y-61103057D02*
X155600245Y-61183870D01*
X155600245Y-61183870D02*
X155627182Y-61264682D01*
X155627182Y-61264682D02*
X155627182Y-61318557D01*
X155627182Y-61318557D02*
X155600245Y-61399369D01*
X155600245Y-61399369D02*
X155384746Y-61614868D01*
X155681057Y-60833683D02*
X155681057Y-60779809D01*
X155681057Y-60779809D02*
X155707995Y-60698996D01*
X155707995Y-60698996D02*
X155842682Y-60564309D01*
X155842682Y-60564309D02*
X155923494Y-60537372D01*
X155923494Y-60537372D02*
X155977369Y-60537372D01*
X155977369Y-60537372D02*
X156058181Y-60564309D01*
X156058181Y-60564309D02*
X156112056Y-60618184D01*
X156112056Y-60618184D02*
X156165930Y-60725934D01*
X156165930Y-60725934D02*
X156165930Y-61372431D01*
X156165930Y-61372431D02*
X156516117Y-61022245D01*
X157054865Y-60483497D02*
X156731616Y-60806746D01*
X156893240Y-60645121D02*
X156327555Y-60079436D01*
X156327555Y-60079436D02*
X156354492Y-60214123D01*
X156354492Y-60214123D02*
X156354492Y-60321873D01*
X156354492Y-60321873D02*
X156327555Y-60402685D01*
X129161372Y-30845494D02*
X129080560Y-30872431D01*
X129080560Y-30872431D02*
X128999748Y-30953243D01*
X128999748Y-30953243D02*
X128945873Y-31060993D01*
X128945873Y-31060993D02*
X128945873Y-31168742D01*
X128945873Y-31168742D02*
X128972810Y-31249555D01*
X128972810Y-31249555D02*
X129053623Y-31384242D01*
X129053623Y-31384242D02*
X129134435Y-31465054D01*
X129134435Y-31465054D02*
X129269122Y-31545866D01*
X129269122Y-31545866D02*
X129349934Y-31572803D01*
X129349934Y-31572803D02*
X129457684Y-31572803D01*
X129457684Y-31572803D02*
X129565433Y-31518929D01*
X129565433Y-31518929D02*
X129619308Y-31465054D01*
X129619308Y-31465054D02*
X129673183Y-31357304D01*
X129673183Y-31357304D02*
X129673183Y-31303429D01*
X129673183Y-31303429D02*
X129484621Y-31114868D01*
X129484621Y-31114868D02*
X129376871Y-31222617D01*
X129969494Y-31114868D02*
X129403809Y-30549182D01*
X129403809Y-30549182D02*
X129619308Y-30333683D01*
X129619308Y-30333683D02*
X129700120Y-30306746D01*
X129700120Y-30306746D02*
X129753995Y-30306746D01*
X129753995Y-30306746D02*
X129834807Y-30333683D01*
X129834807Y-30333683D02*
X129915619Y-30414495D01*
X129915619Y-30414495D02*
X129942557Y-30495307D01*
X129942557Y-30495307D02*
X129942557Y-30549182D01*
X129942557Y-30549182D02*
X129915619Y-30629994D01*
X129915619Y-30629994D02*
X129700120Y-30845494D01*
X130831491Y-30252871D02*
X130508242Y-30576120D01*
X130669867Y-30414495D02*
X130104181Y-29848810D01*
X130104181Y-29848810D02*
X130131119Y-29983497D01*
X130131119Y-29983497D02*
X130131119Y-30091246D01*
X130131119Y-30091246D02*
X130104181Y-30172059D01*
X154668749Y-31394242D02*
X155422996Y-31771366D01*
X155422996Y-31771366D02*
X155045873Y-31017118D01*
X155746245Y-31394242D02*
X155853995Y-31340367D01*
X155853995Y-31340367D02*
X155988682Y-31205680D01*
X155988682Y-31205680D02*
X156015619Y-31124868D01*
X156015619Y-31124868D02*
X156015619Y-31070993D01*
X156015619Y-31070993D02*
X155988682Y-30990181D01*
X155988682Y-30990181D02*
X155934807Y-30936306D01*
X155934807Y-30936306D02*
X155853995Y-30909369D01*
X155853995Y-30909369D02*
X155800120Y-30909369D01*
X155800120Y-30909369D02*
X155719308Y-30936306D01*
X155719308Y-30936306D02*
X155584621Y-31017118D01*
X155584621Y-31017118D02*
X155503808Y-31044056D01*
X155503808Y-31044056D02*
X155449934Y-31044056D01*
X155449934Y-31044056D02*
X155369121Y-31017118D01*
X155369121Y-31017118D02*
X155315247Y-30963244D01*
X155315247Y-30963244D02*
X155288309Y-30882431D01*
X155288309Y-30882431D02*
X155288309Y-30828557D01*
X155288309Y-30828557D02*
X155315247Y-30747744D01*
X155315247Y-30747744D02*
X155449934Y-30613057D01*
X155449934Y-30613057D02*
X155557683Y-30559183D01*
X156177244Y-30478370D02*
X156446618Y-30747744D01*
X155692370Y-30370621D02*
X156177244Y-30478370D01*
X156177244Y-30478370D02*
X156069494Y-29993497D01*
X156769866Y-30370621D02*
X156877616Y-30316746D01*
X156877616Y-30316746D02*
X157012303Y-30182059D01*
X157012303Y-30182059D02*
X157039240Y-30101247D01*
X157039240Y-30101247D02*
X157039240Y-30047372D01*
X157039240Y-30047372D02*
X157012303Y-29966560D01*
X157012303Y-29966560D02*
X156958428Y-29912685D01*
X156958428Y-29912685D02*
X156877616Y-29885748D01*
X156877616Y-29885748D02*
X156823741Y-29885748D01*
X156823741Y-29885748D02*
X156742929Y-29912685D01*
X156742929Y-29912685D02*
X156608242Y-29993497D01*
X156608242Y-29993497D02*
X156527430Y-30020435D01*
X156527430Y-30020435D02*
X156473555Y-30020435D01*
X156473555Y-30020435D02*
X156392743Y-29993497D01*
X156392743Y-29993497D02*
X156338868Y-29939622D01*
X156338868Y-29939622D02*
X156311930Y-29858810D01*
X156311930Y-29858810D02*
X156311930Y-29804935D01*
X156311930Y-29804935D02*
X156338868Y-29724123D01*
X156338868Y-29724123D02*
X156473555Y-29589436D01*
X156473555Y-29589436D02*
X156581304Y-29535561D01*
X154899873Y-47065240D02*
X155169247Y-46795866D01*
X155007623Y-47280739D02*
X154630499Y-46526492D01*
X154630499Y-46526492D02*
X155384746Y-46903615D01*
X155330871Y-45879994D02*
X155250059Y-45906932D01*
X155250059Y-45906932D02*
X155169247Y-45987744D01*
X155169247Y-45987744D02*
X155115372Y-46095494D01*
X155115372Y-46095494D02*
X155115372Y-46203243D01*
X155115372Y-46203243D02*
X155142310Y-46284055D01*
X155142310Y-46284055D02*
X155223122Y-46418742D01*
X155223122Y-46418742D02*
X155303934Y-46499555D01*
X155303934Y-46499555D02*
X155438621Y-46580367D01*
X155438621Y-46580367D02*
X155519433Y-46607304D01*
X155519433Y-46607304D02*
X155627183Y-46607304D01*
X155627183Y-46607304D02*
X155734932Y-46553429D01*
X155734932Y-46553429D02*
X155788807Y-46499555D01*
X155788807Y-46499555D02*
X155842682Y-46391805D01*
X155842682Y-46391805D02*
X155842682Y-46337930D01*
X155842682Y-46337930D02*
X155654120Y-46149368D01*
X155654120Y-46149368D02*
X155546371Y-46257118D01*
X156138993Y-46149368D02*
X155573308Y-45583683D01*
X155573308Y-45583683D02*
X156462242Y-45826120D01*
X156462242Y-45826120D02*
X155896557Y-45260434D01*
X156731616Y-45556746D02*
X156165931Y-44991060D01*
X156165931Y-44991060D02*
X156300618Y-44856373D01*
X156300618Y-44856373D02*
X156408367Y-44802498D01*
X156408367Y-44802498D02*
X156516117Y-44802498D01*
X156516117Y-44802498D02*
X156596929Y-44829436D01*
X156596929Y-44829436D02*
X156731616Y-44910248D01*
X156731616Y-44910248D02*
X156812428Y-44991060D01*
X156812428Y-44991060D02*
X156893241Y-45125747D01*
X156893241Y-45125747D02*
X156920178Y-45206560D01*
X156920178Y-45206560D02*
X156920178Y-45314309D01*
X156920178Y-45314309D02*
X156866303Y-45422059D01*
X156866303Y-45422059D02*
X156731616Y-45556746D01*
X129234435Y-46122431D02*
X129153623Y-46149368D01*
X129153623Y-46149368D02*
X129072811Y-46230180D01*
X129072811Y-46230180D02*
X129018936Y-46337930D01*
X129018936Y-46337930D02*
X129018936Y-46445680D01*
X129018936Y-46445680D02*
X129045873Y-46526492D01*
X129045873Y-46526492D02*
X129126685Y-46661179D01*
X129126685Y-46661179D02*
X129207498Y-46741991D01*
X129207498Y-46741991D02*
X129342185Y-46822803D01*
X129342185Y-46822803D02*
X129422997Y-46849741D01*
X129422997Y-46849741D02*
X129530746Y-46849741D01*
X129530746Y-46849741D02*
X129638496Y-46795866D01*
X129638496Y-46795866D02*
X129692371Y-46741991D01*
X129692371Y-46741991D02*
X129746246Y-46634241D01*
X129746246Y-46634241D02*
X129746246Y-46580367D01*
X129746246Y-46580367D02*
X129557684Y-46391805D01*
X129557684Y-46391805D02*
X129449934Y-46499554D01*
X130042557Y-46391805D02*
X129476872Y-45826119D01*
X129476872Y-45826119D02*
X130365806Y-46068556D01*
X130365806Y-46068556D02*
X129800120Y-45502871D01*
X130635180Y-45799182D02*
X130069494Y-45233497D01*
X130069494Y-45233497D02*
X130204181Y-45098810D01*
X130204181Y-45098810D02*
X130311931Y-45044935D01*
X130311931Y-45044935D02*
X130419680Y-45044935D01*
X130419680Y-45044935D02*
X130500493Y-45071872D01*
X130500493Y-45071872D02*
X130635180Y-45152685D01*
X130635180Y-45152685D02*
X130715992Y-45233497D01*
X130715992Y-45233497D02*
X130796804Y-45368184D01*
X130796804Y-45368184D02*
X130823741Y-45448996D01*
X130823741Y-45448996D02*
X130823741Y-45556746D01*
X130823741Y-45556746D02*
X130769867Y-45664495D01*
X130769867Y-45664495D02*
X130635180Y-45799182D01*
X154845998Y-56524868D02*
X154765185Y-56551805D01*
X154765185Y-56551805D02*
X154684373Y-56632618D01*
X154684373Y-56632618D02*
X154630498Y-56740367D01*
X154630498Y-56740367D02*
X154630498Y-56848117D01*
X154630498Y-56848117D02*
X154657436Y-56928929D01*
X154657436Y-56928929D02*
X154738248Y-57063616D01*
X154738248Y-57063616D02*
X154819060Y-57144428D01*
X154819060Y-57144428D02*
X154953747Y-57225241D01*
X154953747Y-57225241D02*
X155034560Y-57252178D01*
X155034560Y-57252178D02*
X155142309Y-57252178D01*
X155142309Y-57252178D02*
X155250059Y-57198303D01*
X155250059Y-57198303D02*
X155303934Y-57144428D01*
X155303934Y-57144428D02*
X155357808Y-57036679D01*
X155357808Y-57036679D02*
X155357808Y-56982804D01*
X155357808Y-56982804D02*
X155169247Y-56794242D01*
X155169247Y-56794242D02*
X155061497Y-56901992D01*
X155654120Y-56794242D02*
X155088434Y-56228557D01*
X155088434Y-56228557D02*
X155303934Y-56013057D01*
X155303934Y-56013057D02*
X155384746Y-55986120D01*
X155384746Y-55986120D02*
X155438621Y-55986120D01*
X155438621Y-55986120D02*
X155519433Y-56013057D01*
X155519433Y-56013057D02*
X155600245Y-56093870D01*
X155600245Y-56093870D02*
X155627182Y-56174682D01*
X155627182Y-56174682D02*
X155627182Y-56228557D01*
X155627182Y-56228557D02*
X155600245Y-56309369D01*
X155600245Y-56309369D02*
X155384746Y-56524868D01*
X155681057Y-55743683D02*
X155681057Y-55689809D01*
X155681057Y-55689809D02*
X155707995Y-55608996D01*
X155707995Y-55608996D02*
X155842682Y-55474309D01*
X155842682Y-55474309D02*
X155923494Y-55447372D01*
X155923494Y-55447372D02*
X155977369Y-55447372D01*
X155977369Y-55447372D02*
X156058181Y-55474309D01*
X156058181Y-55474309D02*
X156112056Y-55528184D01*
X156112056Y-55528184D02*
X156165930Y-55635934D01*
X156165930Y-55635934D02*
X156165930Y-56282431D01*
X156165930Y-56282431D02*
X156516117Y-55932245D01*
X156219805Y-55204935D02*
X156219805Y-55151060D01*
X156219805Y-55151060D02*
X156246743Y-55070248D01*
X156246743Y-55070248D02*
X156381430Y-54935561D01*
X156381430Y-54935561D02*
X156462242Y-54908624D01*
X156462242Y-54908624D02*
X156516117Y-54908624D01*
X156516117Y-54908624D02*
X156596929Y-54935561D01*
X156596929Y-54935561D02*
X156650804Y-54989436D01*
X156650804Y-54989436D02*
X156704679Y-55097186D01*
X156704679Y-55097186D02*
X156704679Y-55743683D01*
X156704679Y-55743683D02*
X157054865Y-55393497D01*
X154845998Y-76844868D02*
X154765185Y-76871805D01*
X154765185Y-76871805D02*
X154684373Y-76952618D01*
X154684373Y-76952618D02*
X154630498Y-77060367D01*
X154630498Y-77060367D02*
X154630498Y-77168117D01*
X154630498Y-77168117D02*
X154657436Y-77248929D01*
X154657436Y-77248929D02*
X154738248Y-77383616D01*
X154738248Y-77383616D02*
X154819060Y-77464428D01*
X154819060Y-77464428D02*
X154953747Y-77545241D01*
X154953747Y-77545241D02*
X155034560Y-77572178D01*
X155034560Y-77572178D02*
X155142309Y-77572178D01*
X155142309Y-77572178D02*
X155250059Y-77518303D01*
X155250059Y-77518303D02*
X155303934Y-77464428D01*
X155303934Y-77464428D02*
X155357808Y-77356679D01*
X155357808Y-77356679D02*
X155357808Y-77302804D01*
X155357808Y-77302804D02*
X155169247Y-77114242D01*
X155169247Y-77114242D02*
X155061497Y-77221992D01*
X155654120Y-77114242D02*
X155088434Y-76548557D01*
X155088434Y-76548557D02*
X155303934Y-76333057D01*
X155303934Y-76333057D02*
X155384746Y-76306120D01*
X155384746Y-76306120D02*
X155438621Y-76306120D01*
X155438621Y-76306120D02*
X155519433Y-76333057D01*
X155519433Y-76333057D02*
X155600245Y-76413870D01*
X155600245Y-76413870D02*
X155627182Y-76494682D01*
X155627182Y-76494682D02*
X155627182Y-76548557D01*
X155627182Y-76548557D02*
X155600245Y-76629369D01*
X155600245Y-76629369D02*
X155384746Y-76844868D01*
X156516117Y-76252245D02*
X156192868Y-76575494D01*
X156354492Y-76413870D02*
X155788807Y-75848184D01*
X155788807Y-75848184D02*
X155815744Y-75982871D01*
X155815744Y-75982871D02*
X155815744Y-76090621D01*
X155815744Y-76090621D02*
X155788807Y-76171433D01*
X156435305Y-75201686D02*
X156327555Y-75309436D01*
X156327555Y-75309436D02*
X156300618Y-75390248D01*
X156300618Y-75390248D02*
X156300618Y-75444123D01*
X156300618Y-75444123D02*
X156327555Y-75578810D01*
X156327555Y-75578810D02*
X156408367Y-75713497D01*
X156408367Y-75713497D02*
X156623866Y-75928996D01*
X156623866Y-75928996D02*
X156704679Y-75955934D01*
X156704679Y-75955934D02*
X156758553Y-75955934D01*
X156758553Y-75955934D02*
X156839366Y-75928996D01*
X156839366Y-75928996D02*
X156947115Y-75821247D01*
X156947115Y-75821247D02*
X156974053Y-75740434D01*
X156974053Y-75740434D02*
X156974053Y-75686560D01*
X156974053Y-75686560D02*
X156947115Y-75605747D01*
X156947115Y-75605747D02*
X156812428Y-75471060D01*
X156812428Y-75471060D02*
X156731616Y-75444123D01*
X156731616Y-75444123D02*
X156677741Y-75444123D01*
X156677741Y-75444123D02*
X156596929Y-75471060D01*
X156596929Y-75471060D02*
X156489179Y-75578810D01*
X156489179Y-75578810D02*
X156462242Y-75659622D01*
X156462242Y-75659622D02*
X156462242Y-75713497D01*
X156462242Y-75713497D02*
X156489179Y-75794309D01*
X129161372Y-35935494D02*
X129080560Y-35962431D01*
X129080560Y-35962431D02*
X128999748Y-36043243D01*
X128999748Y-36043243D02*
X128945873Y-36150993D01*
X128945873Y-36150993D02*
X128945873Y-36258742D01*
X128945873Y-36258742D02*
X128972810Y-36339555D01*
X128972810Y-36339555D02*
X129053623Y-36474242D01*
X129053623Y-36474242D02*
X129134435Y-36555054D01*
X129134435Y-36555054D02*
X129269122Y-36635866D01*
X129269122Y-36635866D02*
X129349934Y-36662803D01*
X129349934Y-36662803D02*
X129457684Y-36662803D01*
X129457684Y-36662803D02*
X129565433Y-36608929D01*
X129565433Y-36608929D02*
X129619308Y-36555054D01*
X129619308Y-36555054D02*
X129673183Y-36447304D01*
X129673183Y-36447304D02*
X129673183Y-36393429D01*
X129673183Y-36393429D02*
X129484621Y-36204868D01*
X129484621Y-36204868D02*
X129376871Y-36312617D01*
X129969494Y-36204868D02*
X129403809Y-35639182D01*
X129403809Y-35639182D02*
X129619308Y-35423683D01*
X129619308Y-35423683D02*
X129700120Y-35396746D01*
X129700120Y-35396746D02*
X129753995Y-35396746D01*
X129753995Y-35396746D02*
X129834807Y-35423683D01*
X129834807Y-35423683D02*
X129915619Y-35504495D01*
X129915619Y-35504495D02*
X129942557Y-35585307D01*
X129942557Y-35585307D02*
X129942557Y-35639182D01*
X129942557Y-35639182D02*
X129915619Y-35719994D01*
X129915619Y-35719994D02*
X129700120Y-35935494D01*
X129996432Y-35154309D02*
X129996432Y-35100434D01*
X129996432Y-35100434D02*
X130023369Y-35019622D01*
X130023369Y-35019622D02*
X130158056Y-34884935D01*
X130158056Y-34884935D02*
X130238868Y-34857998D01*
X130238868Y-34857998D02*
X130292743Y-34857998D01*
X130292743Y-34857998D02*
X130373555Y-34884935D01*
X130373555Y-34884935D02*
X130427430Y-34938810D01*
X130427430Y-34938810D02*
X130481305Y-35046559D01*
X130481305Y-35046559D02*
X130481305Y-35693057D01*
X130481305Y-35693057D02*
X130831491Y-35342871D01*
X129234435Y-71522431D02*
X129153623Y-71549368D01*
X129153623Y-71549368D02*
X129072811Y-71630180D01*
X129072811Y-71630180D02*
X129018936Y-71737930D01*
X129018936Y-71737930D02*
X129018936Y-71845680D01*
X129018936Y-71845680D02*
X129045873Y-71926492D01*
X129045873Y-71926492D02*
X129126685Y-72061179D01*
X129126685Y-72061179D02*
X129207498Y-72141991D01*
X129207498Y-72141991D02*
X129342185Y-72222803D01*
X129342185Y-72222803D02*
X129422997Y-72249741D01*
X129422997Y-72249741D02*
X129530746Y-72249741D01*
X129530746Y-72249741D02*
X129638496Y-72195866D01*
X129638496Y-72195866D02*
X129692371Y-72141991D01*
X129692371Y-72141991D02*
X129746246Y-72034241D01*
X129746246Y-72034241D02*
X129746246Y-71980367D01*
X129746246Y-71980367D02*
X129557684Y-71791805D01*
X129557684Y-71791805D02*
X129449934Y-71899554D01*
X130042557Y-71791805D02*
X129476872Y-71226119D01*
X129476872Y-71226119D02*
X130365806Y-71468556D01*
X130365806Y-71468556D02*
X129800120Y-70902871D01*
X130635180Y-71199182D02*
X130069494Y-70633497D01*
X130069494Y-70633497D02*
X130204181Y-70498810D01*
X130204181Y-70498810D02*
X130311931Y-70444935D01*
X130311931Y-70444935D02*
X130419680Y-70444935D01*
X130419680Y-70444935D02*
X130500493Y-70471872D01*
X130500493Y-70471872D02*
X130635180Y-70552685D01*
X130635180Y-70552685D02*
X130715992Y-70633497D01*
X130715992Y-70633497D02*
X130796804Y-70768184D01*
X130796804Y-70768184D02*
X130823741Y-70848996D01*
X130823741Y-70848996D02*
X130823741Y-70956746D01*
X130823741Y-70956746D02*
X130769867Y-71064495D01*
X130769867Y-71064495D02*
X130635180Y-71199182D01*
%TO.C,GP0*%
X93099714Y-28094438D02*
X93004476Y-28046819D01*
X93004476Y-28046819D02*
X92861619Y-28046819D01*
X92861619Y-28046819D02*
X92718762Y-28094438D01*
X92718762Y-28094438D02*
X92623524Y-28189676D01*
X92623524Y-28189676D02*
X92575905Y-28284914D01*
X92575905Y-28284914D02*
X92528286Y-28475390D01*
X92528286Y-28475390D02*
X92528286Y-28618247D01*
X92528286Y-28618247D02*
X92575905Y-28808723D01*
X92575905Y-28808723D02*
X92623524Y-28903961D01*
X92623524Y-28903961D02*
X92718762Y-28999200D01*
X92718762Y-28999200D02*
X92861619Y-29046819D01*
X92861619Y-29046819D02*
X92956857Y-29046819D01*
X92956857Y-29046819D02*
X93099714Y-28999200D01*
X93099714Y-28999200D02*
X93147333Y-28951580D01*
X93147333Y-28951580D02*
X93147333Y-28618247D01*
X93147333Y-28618247D02*
X92956857Y-28618247D01*
X93575905Y-29046819D02*
X93575905Y-28046819D01*
X93575905Y-28046819D02*
X93956857Y-28046819D01*
X93956857Y-28046819D02*
X94052095Y-28094438D01*
X94052095Y-28094438D02*
X94099714Y-28142057D01*
X94099714Y-28142057D02*
X94147333Y-28237295D01*
X94147333Y-28237295D02*
X94147333Y-28380152D01*
X94147333Y-28380152D02*
X94099714Y-28475390D01*
X94099714Y-28475390D02*
X94052095Y-28523009D01*
X94052095Y-28523009D02*
X93956857Y-28570628D01*
X93956857Y-28570628D02*
X93575905Y-28570628D01*
X94766381Y-28046819D02*
X94861619Y-28046819D01*
X94861619Y-28046819D02*
X94956857Y-28094438D01*
X94956857Y-28094438D02*
X95004476Y-28142057D01*
X95004476Y-28142057D02*
X95052095Y-28237295D01*
X95052095Y-28237295D02*
X95099714Y-28427771D01*
X95099714Y-28427771D02*
X95099714Y-28665866D01*
X95099714Y-28665866D02*
X95052095Y-28856342D01*
X95052095Y-28856342D02*
X95004476Y-28951580D01*
X95004476Y-28951580D02*
X94956857Y-28999200D01*
X94956857Y-28999200D02*
X94861619Y-29046819D01*
X94861619Y-29046819D02*
X94766381Y-29046819D01*
X94766381Y-29046819D02*
X94671143Y-28999200D01*
X94671143Y-28999200D02*
X94623524Y-28951580D01*
X94623524Y-28951580D02*
X94575905Y-28856342D01*
X94575905Y-28856342D02*
X94528286Y-28665866D01*
X94528286Y-28665866D02*
X94528286Y-28427771D01*
X94528286Y-28427771D02*
X94575905Y-28237295D01*
X94575905Y-28237295D02*
X94623524Y-28142057D01*
X94623524Y-28142057D02*
X94671143Y-28094438D01*
X94671143Y-28094438D02*
X94766381Y-28046819D01*
%TO.C,GP20*%
X218103793Y-57232983D02*
X217997582Y-57225435D01*
X217997582Y-57225435D02*
X217865599Y-57280104D01*
X217865599Y-57280104D02*
X217751839Y-57378767D01*
X217751839Y-57378767D02*
X217700297Y-57503202D01*
X217700297Y-57503202D02*
X217692748Y-57609413D01*
X217692748Y-57609413D02*
X217721646Y-57803613D01*
X217721646Y-57803613D02*
X217776315Y-57935596D01*
X217776315Y-57935596D02*
X217893202Y-58093350D01*
X217893202Y-58093350D02*
X217973642Y-58163115D01*
X217973642Y-58163115D02*
X218098076Y-58214658D01*
X218098076Y-58214658D02*
X218248282Y-58203983D01*
X218248282Y-58203983D02*
X218336271Y-58167537D01*
X218336271Y-58167537D02*
X218450031Y-58068874D01*
X218450031Y-58068874D02*
X218475802Y-58006656D01*
X218475802Y-58006656D02*
X218348241Y-57698697D01*
X218348241Y-57698697D02*
X218172264Y-57771589D01*
X218908196Y-57930638D02*
X218525513Y-57006758D01*
X218525513Y-57006758D02*
X218877467Y-56860974D01*
X218877467Y-56860974D02*
X218983678Y-56868522D01*
X218983678Y-56868522D02*
X219045896Y-56894294D01*
X219045896Y-56894294D02*
X219126336Y-56964059D01*
X219126336Y-56964059D02*
X219181005Y-57096042D01*
X219181005Y-57096042D02*
X219173457Y-57202253D01*
X219173457Y-57202253D02*
X219147686Y-57264471D01*
X219147686Y-57264471D02*
X219077920Y-57344911D01*
X219077920Y-57344911D02*
X218725966Y-57490695D01*
X219441844Y-56730286D02*
X219467615Y-56668069D01*
X219467615Y-56668069D02*
X219537381Y-56587629D01*
X219537381Y-56587629D02*
X219757352Y-56496514D01*
X219757352Y-56496514D02*
X219863564Y-56504062D01*
X219863564Y-56504062D02*
X219925781Y-56529833D01*
X219925781Y-56529833D02*
X220006221Y-56599599D01*
X220006221Y-56599599D02*
X220042667Y-56687587D01*
X220042667Y-56687587D02*
X220053342Y-56837793D01*
X220053342Y-56837793D02*
X219744087Y-57584400D01*
X219744087Y-57584400D02*
X220316013Y-57347501D01*
X220505255Y-56186722D02*
X220593243Y-56150276D01*
X220593243Y-56150276D02*
X220699455Y-56157825D01*
X220699455Y-56157825D02*
X220761672Y-56183596D01*
X220761672Y-56183596D02*
X220842112Y-56253361D01*
X220842112Y-56253361D02*
X220958999Y-56411115D01*
X220958999Y-56411115D02*
X221050114Y-56631087D01*
X221050114Y-56631087D02*
X221079012Y-56825287D01*
X221079012Y-56825287D02*
X221071463Y-56931498D01*
X221071463Y-56931498D02*
X221045692Y-56993716D01*
X221045692Y-56993716D02*
X220975927Y-57074156D01*
X220975927Y-57074156D02*
X220887938Y-57110602D01*
X220887938Y-57110602D02*
X220781727Y-57103054D01*
X220781727Y-57103054D02*
X220719509Y-57077282D01*
X220719509Y-57077282D02*
X220639069Y-57007517D01*
X220639069Y-57007517D02*
X220522183Y-56849763D01*
X220522183Y-56849763D02*
X220431068Y-56629792D01*
X220431068Y-56629792D02*
X220402170Y-56435591D01*
X220402170Y-56435591D02*
X220409718Y-56329380D01*
X220409718Y-56329380D02*
X220435489Y-56267163D01*
X220435489Y-56267163D02*
X220505255Y-56186722D01*
%TO.C,GP19*%
X191245629Y-62946038D02*
X191139418Y-62938490D01*
X191139418Y-62938490D02*
X191007435Y-62993159D01*
X191007435Y-62993159D02*
X190893675Y-63091822D01*
X190893675Y-63091822D02*
X190842133Y-63216257D01*
X190842133Y-63216257D02*
X190834584Y-63322468D01*
X190834584Y-63322468D02*
X190863482Y-63516668D01*
X190863482Y-63516668D02*
X190918151Y-63648651D01*
X190918151Y-63648651D02*
X191035038Y-63806405D01*
X191035038Y-63806405D02*
X191115478Y-63876170D01*
X191115478Y-63876170D02*
X191239912Y-63927713D01*
X191239912Y-63927713D02*
X191390118Y-63917038D01*
X191390118Y-63917038D02*
X191478107Y-63880592D01*
X191478107Y-63880592D02*
X191591867Y-63781929D01*
X191591867Y-63781929D02*
X191617638Y-63719711D01*
X191617638Y-63719711D02*
X191490077Y-63411752D01*
X191490077Y-63411752D02*
X191314100Y-63484644D01*
X192050032Y-63643693D02*
X191667349Y-62719813D01*
X191667349Y-62719813D02*
X192019303Y-62574029D01*
X192019303Y-62574029D02*
X192125514Y-62581577D01*
X192125514Y-62581577D02*
X192187732Y-62607349D01*
X192187732Y-62607349D02*
X192268172Y-62677114D01*
X192268172Y-62677114D02*
X192322841Y-62809097D01*
X192322841Y-62809097D02*
X192315293Y-62915308D01*
X192315293Y-62915308D02*
X192289522Y-62977526D01*
X192289522Y-62977526D02*
X192219756Y-63057966D01*
X192219756Y-63057966D02*
X191867802Y-63203750D01*
X193457849Y-63060556D02*
X192929917Y-63279232D01*
X193193883Y-63169894D02*
X192811200Y-62246015D01*
X192811200Y-62246015D02*
X192777880Y-62414444D01*
X192777880Y-62414444D02*
X192726338Y-62538878D01*
X192726338Y-62538878D02*
X192656572Y-62619318D01*
X193897791Y-62878326D02*
X194073768Y-62805434D01*
X194073768Y-62805434D02*
X194143534Y-62724994D01*
X194143534Y-62724994D02*
X194169305Y-62662776D01*
X194169305Y-62662776D02*
X194202625Y-62494347D01*
X194202625Y-62494347D02*
X194173727Y-62300147D01*
X194173727Y-62300147D02*
X194027943Y-61948193D01*
X194027943Y-61948193D02*
X193947502Y-61878428D01*
X193947502Y-61878428D02*
X193885285Y-61852657D01*
X193885285Y-61852657D02*
X193779073Y-61845108D01*
X193779073Y-61845108D02*
X193603096Y-61918000D01*
X193603096Y-61918000D02*
X193533331Y-61998441D01*
X193533331Y-61998441D02*
X193507560Y-62060658D01*
X193507560Y-62060658D02*
X193500011Y-62166870D01*
X193500011Y-62166870D02*
X193591127Y-62386841D01*
X193591127Y-62386841D02*
X193671567Y-62456606D01*
X193671567Y-62456606D02*
X193733784Y-62482378D01*
X193733784Y-62482378D02*
X193839996Y-62489926D01*
X193839996Y-62489926D02*
X194015973Y-62417034D01*
X194015973Y-62417034D02*
X194085738Y-62336593D01*
X194085738Y-62336593D02*
X194111509Y-62274376D01*
X194111509Y-62274376D02*
X194119058Y-62168165D01*
%TO.C,G\u002A\u002A\u002A*%
G36*
X84955277Y-115535331D02*
G01*
X84838126Y-115808025D01*
X84755638Y-116135402D01*
X84800412Y-116437273D01*
X84927855Y-116588707D01*
X85080397Y-116486779D01*
X85099797Y-116246065D01*
X85055785Y-116204865D01*
X85049653Y-116157282D01*
X85117253Y-116168430D01*
X85430690Y-116164227D01*
X85957771Y-116097870D01*
X86146364Y-116065786D01*
X86678732Y-115995690D01*
X86950840Y-116058453D01*
X87081434Y-116280918D01*
X87337671Y-116583603D01*
X87554183Y-116644616D01*
X88036505Y-116779241D01*
X88230890Y-117157112D01*
X88121745Y-117739222D01*
X88053782Y-117894316D01*
X87767945Y-118404148D01*
X87488698Y-118771852D01*
X87448436Y-118808783D01*
X87192528Y-119128113D01*
X87286320Y-119333754D01*
X87548615Y-119380000D01*
X87898277Y-119482330D01*
X88002035Y-119606336D01*
X88236332Y-119814471D01*
X88503855Y-119897151D01*
X88968421Y-119973159D01*
X89182606Y-120012739D01*
X89373845Y-119971164D01*
X89357418Y-119687649D01*
X89241840Y-119356110D01*
X89280471Y-119076329D01*
X89616034Y-118707692D01*
X90064073Y-118361262D01*
X90837202Y-117839141D01*
X91349250Y-117572840D01*
X91627293Y-117551836D01*
X91699907Y-117725363D01*
X91863435Y-117959305D01*
X92086778Y-118012308D01*
X92514911Y-118173217D01*
X92745123Y-118563071D01*
X92711235Y-119042564D01*
X92641540Y-119180116D01*
X92339588Y-119489958D01*
X92111975Y-119575385D01*
X91930439Y-119639878D01*
X91955512Y-119698767D01*
X91982959Y-119954830D01*
X91809402Y-120285765D01*
X91541093Y-120522029D01*
X91420595Y-120552308D01*
X91161798Y-120715943D01*
X91052158Y-120943077D01*
X91009360Y-121228123D01*
X91107186Y-121292225D01*
X91377264Y-121116429D01*
X91396106Y-121099150D01*
X91913812Y-121099150D01*
X91975062Y-121081494D01*
X92117974Y-120977852D01*
X92557638Y-120831926D01*
X92807121Y-120856767D01*
X93064498Y-120929157D01*
X92986223Y-120853413D01*
X92811298Y-120741197D01*
X92473576Y-120620678D01*
X92170915Y-120810687D01*
X92122150Y-120862282D01*
X91913812Y-121099150D01*
X91396106Y-121099150D01*
X91851226Y-120681782D01*
X92395218Y-120138237D01*
X93001729Y-119555594D01*
X93673427Y-119555594D01*
X93804288Y-119479315D01*
X93890067Y-119416053D01*
X94291355Y-119268913D01*
X94510073Y-119292257D01*
X94825994Y-119305533D01*
X94915565Y-119237888D01*
X94876398Y-119101247D01*
X94603472Y-119077204D01*
X94234614Y-119148969D01*
X93907652Y-119299752D01*
X93826352Y-119370577D01*
X93673427Y-119555594D01*
X93001729Y-119555594D01*
X93207041Y-119358361D01*
X94045217Y-118632151D01*
X94843786Y-118009353D01*
X95536792Y-117539713D01*
X96058279Y-117272974D01*
X96250250Y-117230770D01*
X96563490Y-117379016D01*
X96622388Y-117621539D01*
X96705740Y-117932534D01*
X96973721Y-117965288D01*
X97453216Y-117713956D01*
X97578689Y-117621539D01*
X98099132Y-117621539D01*
X98108133Y-117801870D01*
X98174341Y-117816924D01*
X98452693Y-117674341D01*
X98492930Y-117621539D01*
X98483929Y-117441208D01*
X98417721Y-117426154D01*
X98139369Y-117568737D01*
X98099132Y-117621539D01*
X97578689Y-117621539D01*
X97979167Y-117326566D01*
X98643990Y-116853182D01*
X99080685Y-116673427D01*
X99316352Y-116783338D01*
X99378977Y-117121983D01*
X99429399Y-117446683D01*
X99659314Y-117556232D01*
X100018899Y-117544159D01*
X100793788Y-117433400D01*
X101455041Y-117260455D01*
X101885652Y-117059212D01*
X101965877Y-116980269D01*
X102192723Y-116883505D01*
X102430800Y-117045678D01*
X102529364Y-117339993D01*
X102704046Y-117561842D01*
X103072699Y-117621539D01*
X103622666Y-117777791D01*
X103866966Y-118020256D01*
X104018069Y-118462568D01*
X103811976Y-118796140D01*
X103444487Y-118990539D01*
X103197170Y-119107536D01*
X103284323Y-119157658D01*
X103622155Y-119172231D01*
X104129454Y-119253972D01*
X104458977Y-119419077D01*
X104648842Y-119792595D01*
X104682020Y-120253653D01*
X104552208Y-120605189D01*
X104498357Y-120650000D01*
X104312204Y-120935576D01*
X104308185Y-121324575D01*
X104461202Y-121640833D01*
X104651444Y-121724616D01*
X105259620Y-121898146D01*
X105706742Y-122342452D01*
X105876651Y-122930791D01*
X105918510Y-123341313D01*
X106091212Y-123456638D01*
X106263210Y-123428343D01*
X106714017Y-123462366D01*
X106974556Y-123751006D01*
X106953918Y-124172705D01*
X106898526Y-124277830D01*
X106689395Y-124677346D01*
X106723458Y-124810724D01*
X106861147Y-124753077D01*
X107043343Y-124751176D01*
X107058046Y-124808956D01*
X106909695Y-125089788D01*
X106574109Y-125404738D01*
X106215487Y-125611612D01*
X106107271Y-125632308D01*
X105902900Y-125790002D01*
X105876651Y-125925385D01*
X105718131Y-126181671D01*
X105569682Y-126218462D01*
X105359684Y-126304478D01*
X105372273Y-126394370D01*
X105285604Y-126593930D01*
X104969272Y-127009589D01*
X104472584Y-127581642D01*
X103844852Y-128250385D01*
X103808699Y-128287559D01*
X103166836Y-128952038D01*
X102638893Y-129509399D01*
X102277664Y-129903125D01*
X102135944Y-130076701D01*
X102135566Y-130078663D01*
X102291503Y-130089645D01*
X102506047Y-130035806D01*
X102860440Y-130057393D01*
X103002574Y-130318275D01*
X102871133Y-130696820D01*
X102852034Y-130722122D01*
X102598621Y-130973765D01*
X102124921Y-131387404D01*
X101521294Y-131884872D01*
X101347969Y-132023255D01*
X100656838Y-132572182D01*
X100001540Y-133094386D01*
X99507730Y-133489703D01*
X99450403Y-133535857D01*
X99023846Y-133850956D01*
X98721483Y-134023026D01*
X98675496Y-134033847D01*
X98428391Y-134153066D01*
X98111822Y-134402159D01*
X97661929Y-134719462D01*
X97194258Y-134920800D01*
X96850074Y-134951076D01*
X96790810Y-134917384D01*
X96742551Y-134682103D01*
X96727674Y-134188643D01*
X96737113Y-133831484D01*
X96748794Y-133250409D01*
X96689939Y-132966697D01*
X96522998Y-132888313D01*
X96357548Y-132901250D01*
X96020926Y-132851433D01*
X95905127Y-132568462D01*
X97803783Y-132568462D01*
X97902233Y-132666154D01*
X98000682Y-132568462D01*
X97902233Y-132470770D01*
X97803783Y-132568462D01*
X95905127Y-132568462D01*
X95883790Y-132516323D01*
X95878117Y-132470770D01*
X95786933Y-131745211D01*
X95672491Y-131367717D01*
X95464399Y-131298393D01*
X95092263Y-131497343D01*
X94675996Y-131789465D01*
X93944834Y-132256747D01*
X93431137Y-132445746D01*
X93087454Y-132367311D01*
X92937633Y-132186823D01*
X92789316Y-132065042D01*
X92522637Y-132125561D01*
X92059537Y-132394621D01*
X91795679Y-132570685D01*
X91047425Y-133031388D01*
X90539111Y-133238281D01*
X90287121Y-133189032D01*
X90307842Y-132881308D01*
X90351718Y-132776306D01*
X90465062Y-132272127D01*
X90413727Y-131945922D01*
X90230400Y-131485313D01*
X90151847Y-131122668D01*
X90149326Y-131103077D01*
X90003797Y-130919862D01*
X89645760Y-131047949D01*
X89176125Y-131396154D01*
X88626640Y-131782846D01*
X88282125Y-131859844D01*
X88156050Y-131624416D01*
X88155721Y-131603070D01*
X88056687Y-131264352D01*
X87759020Y-131260908D01*
X87261877Y-131593020D01*
X86747811Y-132072344D01*
X86232321Y-132554845D01*
X85804274Y-132888470D01*
X85549360Y-133007213D01*
X85537171Y-133004890D01*
X85315967Y-132758560D01*
X85147420Y-132279482D01*
X85072685Y-131725512D01*
X85104980Y-131347169D01*
X85076065Y-131212156D01*
X84852386Y-131328180D01*
X84410991Y-131711461D01*
X83929820Y-132177554D01*
X83121691Y-132920864D01*
X82521802Y-133337954D01*
X82124600Y-133430768D01*
X81924531Y-133201253D01*
X81897272Y-132889696D01*
X81866034Y-132408075D01*
X81782116Y-132121136D01*
X81762309Y-131822202D01*
X81865809Y-131314974D01*
X81941138Y-131074839D01*
X82101905Y-130562683D01*
X82173541Y-130232159D01*
X82167778Y-130176067D01*
X82014229Y-130270682D01*
X81695606Y-130582243D01*
X81493366Y-130803438D01*
X81050434Y-131277854D01*
X80798291Y-131463937D01*
X80689637Y-131384612D01*
X80673550Y-131200770D01*
X80596726Y-130986998D01*
X81067349Y-130986998D01*
X81822493Y-130255292D01*
X82577637Y-129523586D01*
X82539617Y-128465385D01*
X82889097Y-128465385D01*
X82904946Y-128867503D01*
X82949566Y-128971290D01*
X82974727Y-128907278D01*
X83011403Y-128438075D01*
X82978701Y-128125740D01*
X82926832Y-128017452D01*
X82894204Y-128252293D01*
X82889097Y-128465385D01*
X82539617Y-128465385D01*
X82488428Y-127040639D01*
X82455443Y-126009719D01*
X82449320Y-125295858D01*
X82478474Y-124825774D01*
X82551319Y-124526187D01*
X82676266Y-124323815D01*
X82816230Y-124185487D01*
X83233240Y-123813282D01*
X83233240Y-126652718D01*
X83238577Y-127819059D01*
X83265991Y-128655549D01*
X83332587Y-129223071D01*
X83455468Y-129582512D01*
X83651739Y-129794757D01*
X83938505Y-129920691D01*
X84168512Y-129981950D01*
X84376962Y-130015907D01*
X84508319Y-129948037D01*
X84582013Y-129708458D01*
X84617473Y-129227284D01*
X84634130Y-128434632D01*
X84635990Y-128300555D01*
X84638201Y-128105342D01*
X85621232Y-128105342D01*
X85633587Y-128779226D01*
X85660939Y-129174218D01*
X85668818Y-129215024D01*
X85828748Y-129630883D01*
X86067907Y-129703243D01*
X86368000Y-129553719D01*
X86500217Y-129400377D01*
X86558282Y-129102074D01*
X86546198Y-128579908D01*
X86467964Y-127754977D01*
X86461966Y-127700557D01*
X86394951Y-126948700D01*
X86374388Y-126371119D01*
X86402042Y-126055973D01*
X86428368Y-126023077D01*
X86574556Y-126174717D01*
X86580527Y-126232789D01*
X86713648Y-126505240D01*
X87062223Y-126957482D01*
X87550068Y-127510381D01*
X88101001Y-128084801D01*
X88638839Y-128601608D01*
X89087400Y-128981666D01*
X89370500Y-129145840D01*
X89386341Y-129147336D01*
X89679013Y-129098208D01*
X89730915Y-129042153D01*
X89622646Y-128787087D01*
X89339336Y-128311867D01*
X88943231Y-127708203D01*
X88496576Y-127067805D01*
X88061616Y-126482384D01*
X87700596Y-126043648D01*
X87681804Y-126023077D01*
X87593412Y-125925385D01*
X89337116Y-125925385D01*
X89435566Y-126023077D01*
X89534015Y-125925385D01*
X89435566Y-125827693D01*
X89337116Y-125925385D01*
X87593412Y-125925385D01*
X87105569Y-125386212D01*
X86767869Y-124969012D01*
X86633840Y-124709898D01*
X86668617Y-124547292D01*
X86790087Y-124448101D01*
X87091311Y-124340730D01*
X87492794Y-124282654D01*
X87866545Y-124277301D01*
X88084575Y-124328101D01*
X88057271Y-124414146D01*
X87814952Y-124685597D01*
X87609805Y-125001717D01*
X87456080Y-125305777D01*
X87533644Y-125330267D01*
X87717515Y-125223715D01*
X88005090Y-124963365D01*
X88421398Y-124963365D01*
X88511343Y-124970609D01*
X88751054Y-124747876D01*
X89065645Y-124362308D01*
X89337116Y-124362308D01*
X89435566Y-124460000D01*
X89534015Y-124362308D01*
X89435566Y-124264616D01*
X89337116Y-124362308D01*
X89065645Y-124362308D01*
X89090811Y-124331464D01*
X89169773Y-124223428D01*
X89391692Y-123874784D01*
X89420490Y-123735857D01*
X89375840Y-123752406D01*
X89172112Y-123789845D01*
X89172166Y-123607573D01*
X89359267Y-123343866D01*
X89507379Y-123005472D01*
X89491874Y-122869164D01*
X89345347Y-122813095D01*
X89076988Y-123110276D01*
X89042269Y-123161820D01*
X88820004Y-123571570D01*
X88849165Y-123800012D01*
X88930684Y-123866098D01*
X89067899Y-124050068D01*
X88965398Y-124153382D01*
X88703950Y-124422586D01*
X88530934Y-124689845D01*
X88421398Y-124963365D01*
X88005090Y-124963365D01*
X88076041Y-124899131D01*
X88382223Y-124459048D01*
X88563472Y-124033748D01*
X88547203Y-123753516D01*
X88540620Y-123746362D01*
X88438341Y-123471604D01*
X88351827Y-122941759D01*
X88314674Y-122506154D01*
X88254171Y-121431539D01*
X87092153Y-121477438D01*
X86458108Y-121514420D01*
X86003972Y-121563299D01*
X85849885Y-121602971D01*
X85805983Y-121829349D01*
X85762918Y-122372088D01*
X85722461Y-123156781D01*
X85686381Y-124109023D01*
X85656448Y-125154407D01*
X85634433Y-126218526D01*
X85622104Y-127226973D01*
X85621232Y-128105342D01*
X84638201Y-128105342D01*
X84648821Y-127167800D01*
X84647295Y-126246204D01*
X84625856Y-125534616D01*
X85202233Y-125534616D01*
X85300682Y-125632308D01*
X85399132Y-125534616D01*
X85300682Y-125436924D01*
X85202233Y-125534616D01*
X84625856Y-125534616D01*
X84623327Y-125450684D01*
X84568831Y-124696160D01*
X84475724Y-123897550D01*
X84335919Y-122969774D01*
X84141333Y-121827751D01*
X84018212Y-121138462D01*
X89670898Y-121138462D01*
X89799448Y-123371904D01*
X89901017Y-124811282D01*
X90036800Y-126265308D01*
X90193976Y-127617291D01*
X90359717Y-128750542D01*
X90437441Y-129176994D01*
X90541880Y-129522029D01*
X90746432Y-129593061D01*
X91120187Y-129476081D01*
X91390443Y-129331895D01*
X92141981Y-129331895D01*
X92168914Y-129344616D01*
X92348602Y-129207069D01*
X92389054Y-129149231D01*
X92439228Y-128966568D01*
X92412295Y-128953847D01*
X92232608Y-129091393D01*
X92192155Y-129149231D01*
X92141981Y-129331895D01*
X91390443Y-129331895D01*
X91524249Y-129260507D01*
X91699684Y-129039629D01*
X91699907Y-129033268D01*
X91638168Y-128721950D01*
X91482859Y-128205246D01*
X91404558Y-127976924D01*
X91195042Y-127249260D01*
X91117216Y-126661204D01*
X91176260Y-126296376D01*
X91295583Y-126218462D01*
X91491678Y-126369599D01*
X91823287Y-126764974D01*
X92201015Y-127293435D01*
X92665039Y-127968744D01*
X92967716Y-128337758D01*
X93154855Y-128426517D01*
X93272266Y-128261058D01*
X93350126Y-127946608D01*
X93381547Y-127574150D01*
X93274319Y-127220666D01*
X92978683Y-126779298D01*
X92959204Y-126755824D01*
X94522190Y-126755824D01*
X94533232Y-127235472D01*
X94540404Y-127293077D01*
X94639581Y-127903994D01*
X94747594Y-128580703D01*
X94752524Y-128611924D01*
X94868139Y-129344616D01*
X96237511Y-129344616D01*
X97606884Y-129344616D01*
X97606850Y-129246924D01*
X101151070Y-129246924D01*
X101249519Y-129344616D01*
X101347969Y-129246924D01*
X101249519Y-129149231D01*
X101151070Y-129246924D01*
X97606850Y-129246924D01*
X97606595Y-128514231D01*
X97606307Y-127683847D01*
X96788919Y-127628084D01*
X96143850Y-127560729D01*
X95799223Y-127418283D01*
X95661711Y-127121047D01*
X95637891Y-126645138D01*
X95637891Y-125922569D01*
X96548101Y-125994404D01*
X97238091Y-125984501D01*
X97628350Y-125786068D01*
X97786933Y-125350243D01*
X97800768Y-125095000D01*
X97762820Y-124833236D01*
X97578193Y-124702602D01*
X97147746Y-124658695D01*
X96819287Y-124655385D01*
X95834791Y-124655385D01*
X95834791Y-123776154D01*
X95834791Y-122896924D01*
X96819287Y-122896924D01*
X97419028Y-122872203D01*
X97717621Y-122777101D01*
X97805751Y-122580206D01*
X97806472Y-122555000D01*
X97859705Y-122085579D01*
X97924787Y-121787650D01*
X99137976Y-121787650D01*
X99269587Y-122223083D01*
X99497005Y-122824397D01*
X99740444Y-123510059D01*
X99907332Y-124174717D01*
X100017021Y-124934647D01*
X100088862Y-125906130D01*
X100118762Y-126560385D01*
X100165763Y-127575619D01*
X100218301Y-128261309D01*
X100287141Y-128678646D01*
X100383050Y-128888820D01*
X100516796Y-128953023D01*
X100539891Y-128953847D01*
X100684712Y-128912475D01*
X100773504Y-128743591D01*
X100814426Y-128380040D01*
X100815637Y-127754666D01*
X100813435Y-127683847D01*
X102726264Y-127683847D01*
X102824713Y-127781539D01*
X102923163Y-127683847D01*
X102824713Y-127586154D01*
X102726264Y-127683847D01*
X100813435Y-127683847D01*
X100789138Y-126902308D01*
X100763593Y-125957473D01*
X100775017Y-125342165D01*
X100792740Y-125228818D01*
X101790043Y-125228818D01*
X101816976Y-125241539D01*
X101996664Y-125103992D01*
X102037116Y-125046154D01*
X102087290Y-124863491D01*
X102060357Y-124850770D01*
X101880670Y-124988317D01*
X101840217Y-125046154D01*
X101790043Y-125228818D01*
X100792740Y-125228818D01*
X100829084Y-124996377D01*
X100931466Y-124860104D01*
X100983088Y-124850770D01*
X101195021Y-124706832D01*
X101566378Y-124332487D01*
X102025766Y-123813937D01*
X102501794Y-123237382D01*
X102923069Y-122689023D01*
X103218199Y-122255064D01*
X103316961Y-122032770D01*
X103139921Y-121968443D01*
X102685279Y-121946222D01*
X102288936Y-121958636D01*
X101260912Y-122017693D01*
X100976223Y-122994616D01*
X100691534Y-123971539D01*
X100407830Y-122848077D01*
X100206598Y-122213370D01*
X99996634Y-121815480D01*
X99866105Y-121724616D01*
X99457635Y-121657072D01*
X99289341Y-121603243D01*
X99147904Y-121600702D01*
X99137976Y-121787650D01*
X97924787Y-121787650D01*
X97927886Y-121773462D01*
X97968463Y-121555027D01*
X97894951Y-121424405D01*
X97633123Y-121359042D01*
X97108753Y-121336384D01*
X96481121Y-121333847D01*
X94915631Y-121333847D01*
X94679765Y-124020385D01*
X94599371Y-125056382D01*
X94545541Y-125998828D01*
X94522190Y-126755824D01*
X92959204Y-126755824D01*
X92586502Y-126306694D01*
X92142658Y-125764022D01*
X91824635Y-125323398D01*
X91699964Y-125078550D01*
X91699907Y-125076188D01*
X91804682Y-124829489D01*
X92082359Y-124356351D01*
X92477962Y-123749030D01*
X92577152Y-123603979D01*
X93011056Y-122964322D01*
X93247578Y-122556485D01*
X93314192Y-122291485D01*
X93238374Y-122080338D01*
X93102795Y-121901620D01*
X92751195Y-121470751D01*
X92091214Y-122382688D01*
X91717295Y-122847378D01*
X91424300Y-123117519D01*
X91299250Y-123144620D01*
X91174190Y-122880308D01*
X91005037Y-122377491D01*
X90915749Y-122066539D01*
X90733179Y-121500310D01*
X90536550Y-121223627D01*
X90248372Y-121140368D01*
X90167565Y-121138462D01*
X89670898Y-121138462D01*
X84018212Y-121138462D01*
X83965863Y-120845385D01*
X84414636Y-120845385D01*
X84513085Y-120943077D01*
X84611535Y-120845385D01*
X84513085Y-120747693D01*
X84414636Y-120845385D01*
X83965863Y-120845385D01*
X83883999Y-120387067D01*
X83771321Y-119950563D01*
X83569719Y-119805736D01*
X83179806Y-119849759D01*
X82570847Y-119929386D01*
X81881714Y-119965904D01*
X81830333Y-119966154D01*
X81067349Y-119966154D01*
X81067349Y-125476576D01*
X81067349Y-130986998D01*
X80596726Y-130986998D01*
X80580043Y-130940576D01*
X80500760Y-130907693D01*
X80244151Y-131041368D01*
X80082853Y-131200770D01*
X79772172Y-131464226D01*
X79552602Y-131366118D01*
X79393705Y-130907693D01*
X79200079Y-130457069D01*
X78858295Y-130321539D01*
X78367175Y-130146308D01*
X78042285Y-129659657D01*
X77923223Y-128935292D01*
X78052033Y-128327564D01*
X78255290Y-127879231D01*
X80082853Y-127879231D01*
X80181302Y-127976924D01*
X80279752Y-127879231D01*
X80181302Y-127781539D01*
X80082853Y-127879231D01*
X78255290Y-127879231D01*
X78419410Y-127517226D01*
X78983872Y-126576398D01*
X79703938Y-125577199D01*
X80208495Y-124962139D01*
X80646027Y-124396125D01*
X80848797Y-124016431D01*
X80825205Y-123859759D01*
X80583650Y-123962812D01*
X80132530Y-124362291D01*
X80082853Y-124413092D01*
X79655473Y-124884419D01*
X79369443Y-125257268D01*
X79295256Y-125412472D01*
X79139627Y-125651879D01*
X78750235Y-125990237D01*
X78243320Y-126347396D01*
X77735121Y-126643210D01*
X77341878Y-126797533D01*
X77276181Y-126804616D01*
X77070261Y-126757461D01*
X76969020Y-126556056D01*
X76947351Y-126110491D01*
X76962444Y-125681154D01*
X77037516Y-124981346D01*
X77174096Y-124386554D01*
X77281839Y-124133060D01*
X77444712Y-123831589D01*
X77352412Y-123767328D01*
X77170405Y-123806584D01*
X76907035Y-123802528D01*
X76753800Y-123556181D01*
X76672732Y-123174551D01*
X76634472Y-122798498D01*
X76692402Y-122476018D01*
X76892882Y-122114959D01*
X77282271Y-121623168D01*
X77687989Y-121156412D01*
X78529585Y-120170867D01*
X78925058Y-119673077D01*
X80673550Y-119673077D01*
X80772000Y-119770770D01*
X80870450Y-119673077D01*
X80772000Y-119575385D01*
X80673550Y-119673077D01*
X78925058Y-119673077D01*
X79106353Y-119444878D01*
X85437590Y-119444878D01*
X85438922Y-119572177D01*
X85473472Y-119575385D01*
X85637832Y-119441864D01*
X85818046Y-119233462D01*
X85988334Y-119002030D01*
X85886371Y-119050547D01*
X85743705Y-119159693D01*
X85437590Y-119444878D01*
X79106353Y-119444878D01*
X79221887Y-119299453D01*
X79731325Y-118588054D01*
X80024331Y-118082551D01*
X80082853Y-117882999D01*
X80175485Y-117719231D01*
X82248744Y-117719231D01*
X82347194Y-117816924D01*
X82445643Y-117719231D01*
X82347194Y-117621539D01*
X82248744Y-117719231D01*
X80175485Y-117719231D01*
X80238563Y-117607713D01*
X80500412Y-117413535D01*
X80771304Y-117310452D01*
X80802541Y-117377119D01*
X80886983Y-117510409D01*
X81249894Y-117578209D01*
X81271027Y-117578929D01*
X81682533Y-117538091D01*
X81854940Y-117416756D01*
X81854946Y-117415931D01*
X81916105Y-117328462D01*
X82839442Y-117328462D01*
X82937891Y-117426154D01*
X83036341Y-117328462D01*
X82937891Y-117230770D01*
X82839442Y-117328462D01*
X81916105Y-117328462D01*
X82003849Y-117202970D01*
X82375084Y-116892083D01*
X82515361Y-116793999D01*
X83096967Y-116400860D01*
X83768854Y-115941986D01*
X83996107Y-115785639D01*
X84579061Y-115431374D01*
X84901818Y-115348019D01*
X84955277Y-115535331D01*
G37*
G36*
X89337116Y-119868462D02*
G01*
X89238667Y-119966154D01*
X89140217Y-119868462D01*
X89238667Y-119770770D01*
X89337116Y-119868462D01*
G37*
G36*
X83330366Y-121000362D02*
G01*
X83569383Y-121216117D01*
X83655278Y-121319932D01*
X83980148Y-121996672D01*
X83948662Y-122715010D01*
X83567104Y-123364206D01*
X83537539Y-123394266D01*
X82941818Y-123797751D01*
X82363960Y-123812292D01*
X81854946Y-123483077D01*
X81532477Y-122928712D01*
X81547470Y-122408462D01*
X82051845Y-122408462D01*
X82150295Y-122506154D01*
X82248744Y-122408462D01*
X82150295Y-122310770D01*
X82051845Y-122408462D01*
X81547470Y-122408462D01*
X81550126Y-122316297D01*
X81880686Y-121728638D01*
X82496949Y-121248543D01*
X82607285Y-121193303D01*
X83063700Y-120999286D01*
X83330366Y-121000362D01*
G37*
G36*
X87543429Y-122142094D02*
G01*
X87696384Y-122285799D01*
X87653161Y-122641872D01*
X87650779Y-122652693D01*
X87535989Y-123138790D01*
X87456308Y-123434231D01*
X87249267Y-123579635D01*
X86842285Y-123662203D01*
X86394514Y-123673468D01*
X86065102Y-123604967D01*
X85989829Y-123512233D01*
X86049698Y-123227274D01*
X86194912Y-122762448D01*
X86205990Y-122730695D01*
X86417960Y-122302160D01*
X86743838Y-122136363D01*
X87095788Y-122115385D01*
X87543429Y-122142094D01*
G37*
D12*
%TO.C,GP14*%
X150319959Y-122000425D02*
X156136748Y-136043394D01*
X156136748Y-136043394D02*
X170179717Y-130226605D01*
X164362928Y-116183636D02*
X150319959Y-122000425D01*
X170179717Y-130226605D02*
X164362928Y-116183636D01*
%TO.C,GP1*%
X105264000Y-29992000D02*
X105264000Y-45192000D01*
X105264000Y-45192000D02*
X120464000Y-45192000D01*
X120464000Y-29992000D02*
X105264000Y-29992000D01*
X120464000Y-45192000D02*
X120464000Y-29992000D01*
%TO.C,GP13*%
X117545539Y-117043144D02*
X123362328Y-103000175D01*
X123362328Y-103000175D02*
X109319359Y-97183386D01*
X103502570Y-111226355D02*
X117545539Y-117043144D01*
X109319359Y-97183386D02*
X103502570Y-111226355D01*
%TO.C,GP15*%
X139987507Y-97055677D02*
X145804296Y-111098646D01*
X145804296Y-111098646D02*
X159847265Y-105281857D01*
X154030476Y-91238888D02*
X139987507Y-97055677D01*
X159847265Y-105281857D02*
X154030476Y-91238888D01*
%TO.C,GP18*%
X196382620Y-92096724D02*
X202199409Y-106139693D01*
X202199409Y-106139693D02*
X216242378Y-100322904D01*
X210425589Y-86279935D02*
X196382620Y-92096724D01*
X216242378Y-100322904D02*
X210425589Y-86279935D01*
%TO.C,GP28*%
X163176000Y-29484000D02*
X163176000Y-44684000D01*
X163176000Y-44684000D02*
X178376000Y-44684000D01*
X178376000Y-29484000D02*
X163176000Y-29484000D01*
X178376000Y-44684000D02*
X178376000Y-29484000D01*
%TO.C,GP22*%
X220326000Y-29484000D02*
X220326000Y-44684000D01*
X220326000Y-44684000D02*
X235526000Y-44684000D01*
X235526000Y-29484000D02*
X220326000Y-29484000D01*
X235526000Y-44684000D02*
X235526000Y-29484000D01*
%TO.C,GP17*%
X161105420Y-77484429D02*
X166922209Y-91527398D01*
X166922209Y-91527398D02*
X180965178Y-85710609D01*
X175148389Y-71667640D02*
X161105420Y-77484429D01*
X180965178Y-85710609D02*
X175148389Y-71667640D01*
%TO.C,GP12*%
X99945634Y-109753024D02*
X105762423Y-95710055D01*
X105762423Y-95710055D02*
X91719454Y-89893266D01*
X85902665Y-103936235D02*
X99945634Y-109753024D01*
X91719454Y-89893266D02*
X85902665Y-103936235D01*
%TO.C,GP27*%
X182226000Y-29484000D02*
X182226000Y-44684000D01*
X182226000Y-44684000D02*
X197426000Y-44684000D01*
X197426000Y-29484000D02*
X182226000Y-29484000D01*
X197426000Y-44684000D02*
X197426000Y-29484000D01*
%TO.C,GP21*%
X223240784Y-86383669D02*
X229057573Y-100426638D01*
X229057573Y-100426638D02*
X243100542Y-94609849D01*
X237283753Y-80566880D02*
X223240784Y-86383669D01*
X243100542Y-94609849D02*
X237283753Y-80566880D01*
%TO.C,GP10*%
X74119549Y-82603147D02*
X68302760Y-96646116D01*
X68302760Y-96646116D02*
X82345729Y-102462905D01*
X88162518Y-88419936D02*
X74119549Y-82603147D01*
X82345729Y-102462905D02*
X88162518Y-88419936D01*
%TO.C,GP26*%
X201276000Y-29484000D02*
X201276000Y-44684000D01*
X201276000Y-44684000D02*
X216476000Y-44684000D01*
X216476000Y-29484000D02*
X201276000Y-29484000D01*
X216476000Y-44684000D02*
X216476000Y-29484000D01*
%TO.C,GP11*%
X107235753Y-92153120D02*
X113052542Y-78110151D01*
X113052542Y-78110151D02*
X99009573Y-72293362D01*
X93192784Y-86336331D02*
X107235753Y-92153120D01*
X99009573Y-72293362D02*
X93192784Y-86336331D01*
%TO.C,GP16*%
X171437872Y-102429177D02*
X177254661Y-116472146D01*
X177254661Y-116472146D02*
X191297630Y-110655357D01*
X185480841Y-96612388D02*
X171437872Y-102429177D01*
X191297630Y-110655357D02*
X185480841Y-96612388D01*
%TO.C,REF\u002A\u002A*%
X132248000Y-26824000D02*
X132248000Y-27124000D01*
X132248000Y-26824000D02*
X153248000Y-26824000D01*
X132248000Y-29224000D02*
X132248000Y-29624000D01*
X132248000Y-29491000D02*
X135255000Y-29491000D01*
X132248000Y-31824000D02*
X132248000Y-32224000D01*
X132248000Y-34324000D02*
X132248000Y-34724000D01*
X132248000Y-36924000D02*
X132248000Y-37324000D01*
X132248000Y-39424000D02*
X132248000Y-39824000D01*
X132248000Y-41924000D02*
X132248000Y-42324000D01*
X132248000Y-44524000D02*
X132248000Y-44924000D01*
X132248000Y-47024000D02*
X132248000Y-47424000D01*
X132248000Y-49624000D02*
X132248000Y-50024000D01*
X132248000Y-52124000D02*
X132248000Y-52524000D01*
X132248000Y-54624000D02*
X132248000Y-55024000D01*
X132248000Y-57224000D02*
X132248000Y-57624000D01*
X132248000Y-59724000D02*
X132248000Y-60124000D01*
X132248000Y-62324000D02*
X132248000Y-62724000D01*
X132248000Y-64824000D02*
X132248000Y-65224000D01*
X132248000Y-67424000D02*
X132248000Y-67824000D01*
X132248000Y-69924000D02*
X132248000Y-70324000D01*
X132248000Y-72424000D02*
X132248000Y-72824000D01*
X132248000Y-75024000D02*
X132248000Y-75424000D01*
X135255000Y-29491000D02*
X135255000Y-26824000D01*
X139048000Y-77824000D02*
X132248000Y-77824000D01*
X141248000Y-77824000D02*
X141648000Y-77824000D01*
X143848000Y-77824000D02*
X144248000Y-77824000D01*
X153248000Y-26824000D02*
X153248000Y-27124000D01*
X153248000Y-29224000D02*
X153248000Y-29624000D01*
X153248000Y-31824000D02*
X153248000Y-32224000D01*
X153248000Y-34324000D02*
X153248000Y-34724000D01*
X153248000Y-36924000D02*
X153248000Y-37324000D01*
X153248000Y-39424000D02*
X153248000Y-39824000D01*
X153248000Y-41924000D02*
X153248000Y-42324000D01*
X153248000Y-44524000D02*
X153248000Y-44924000D01*
X153248000Y-47024000D02*
X153248000Y-47424000D01*
X153248000Y-49624000D02*
X153248000Y-50024000D01*
X153248000Y-52124000D02*
X153248000Y-52524000D01*
X153248000Y-54624000D02*
X153248000Y-55024000D01*
X153248000Y-57224000D02*
X153248000Y-57624000D01*
X153248000Y-59724000D02*
X153248000Y-60124000D01*
X153248000Y-62324000D02*
X153248000Y-62724000D01*
X153248000Y-64824000D02*
X153248000Y-65224000D01*
X153248000Y-67424000D02*
X153248000Y-67824000D01*
X153248000Y-69924000D02*
X153248000Y-70324000D01*
X153248000Y-72424000D02*
X153248000Y-72824000D01*
X153248000Y-75024000D02*
X153248000Y-75424000D01*
X153248000Y-77824000D02*
X146448000Y-77824000D01*
%TO.C,GP0*%
X86214000Y-29992000D02*
X86214000Y-45192000D01*
X86214000Y-45192000D02*
X101414000Y-45192000D01*
X101414000Y-29992000D02*
X86214000Y-29992000D01*
X101414000Y-45192000D02*
X101414000Y-29992000D01*
%TO.C,GP20*%
X212908331Y-61438921D02*
X218725120Y-75481890D01*
X218725120Y-75481890D02*
X232768089Y-69665101D01*
X226951300Y-55622132D02*
X212908331Y-61438921D01*
X232768089Y-69665101D02*
X226951300Y-55622132D01*
%TO.C,GP19*%
X186050167Y-67151976D02*
X191866956Y-81194945D01*
X191866956Y-81194945D02*
X205909925Y-75378156D01*
X200093136Y-61335187D02*
X186050167Y-67151976D01*
X205909925Y-75378156D02*
X200093136Y-61335187D01*
%TD*%
M02*
