%TF.GenerationSoftware,KiCad,Pcbnew,7.0.5*%
%TF.CreationDate,2023-08-11T22:31:08-05:00*%
%TF.ProjectId,ArkeyV2,41726b65-7956-4322-9e6b-696361645f70,rev?*%
%TF.SameCoordinates,Original*%
%TF.FileFunction,Soldermask,Top*%
%TF.FilePolarity,Negative*%
%FSLAX46Y46*%
G04 Gerber Fmt 4.6, Leading zero omitted, Abs format (unit mm)*
G04 Created by KiCad (PCBNEW 7.0.5) date 2023-08-11 22:31:08*
%MOMM*%
%LPD*%
G01*
G04 APERTURE LIST*
%ADD10C,1.900000*%
%ADD11C,1.600000*%
%ADD12C,3.050000*%
%ADD13C,5.050000*%
%ADD14C,3.200000*%
%ADD15O,1.800000X1.800000*%
%ADD16O,1.500000X1.500000*%
%ADD17O,1.700000X1.700000*%
%ADD18R,3.500000X1.700000*%
%ADD19R,1.700000X1.700000*%
%ADD20R,1.700000X3.500000*%
G04 APERTURE END LIST*
D10*
%TO.C,GP14*%
X155168501Y-128218274D03*
D11*
X157601260Y-132784912D03*
D12*
X157992006Y-120662626D03*
D13*
X160249838Y-126113515D03*
D12*
X163415039Y-120689356D03*
D10*
X165331175Y-124008756D03*
%TD*%
%TO.C,GP1*%
X107364000Y-37592000D03*
D11*
X107864000Y-42742000D03*
D12*
X112864000Y-31692000D03*
D13*
X112864000Y-37592000D03*
D12*
X117864000Y-33792000D03*
D10*
X118364000Y-37592000D03*
%TD*%
%TO.C,GP13*%
X118513786Y-109218024D03*
D12*
X119506044Y-105515940D03*
D13*
X113432449Y-107113265D03*
D12*
X115690281Y-101662376D03*
D11*
X106842232Y-109957827D03*
D10*
X108351112Y-105008506D03*
%TD*%
%TO.C,GP15*%
X144836049Y-103273526D03*
D11*
X147268808Y-107840164D03*
D12*
X147659554Y-95717878D03*
D13*
X149917386Y-101168767D03*
D12*
X153082587Y-95744608D03*
D10*
X154998723Y-99064008D03*
%TD*%
%TO.C,GP18*%
X201231162Y-98314573D03*
D11*
X203663921Y-102881211D03*
D12*
X204054667Y-90758925D03*
D13*
X206312499Y-96209814D03*
D12*
X209477700Y-90785655D03*
D10*
X211393836Y-94105055D03*
%TD*%
%TO.C,GP28*%
X165276000Y-37084000D03*
D11*
X165776000Y-42234000D03*
D12*
X170776000Y-31184000D03*
D13*
X170776000Y-37084000D03*
D12*
X175776000Y-33284000D03*
D10*
X176276000Y-37084000D03*
%TD*%
%TO.C,GP22*%
X222426000Y-37084000D03*
D11*
X222926000Y-42234000D03*
D12*
X227926000Y-31184000D03*
D13*
X227926000Y-37084000D03*
D12*
X232926000Y-33284000D03*
D10*
X233426000Y-37084000D03*
%TD*%
D14*
%TO.C,REF\u002A\u002A*%
X68580000Y-134620000D03*
%TD*%
D10*
%TO.C,GP17*%
X165953962Y-83702278D03*
D11*
X168386721Y-88268916D03*
D12*
X168777467Y-76146630D03*
D13*
X171035299Y-81597519D03*
D12*
X174200500Y-76173360D03*
D10*
X176116636Y-79492760D03*
%TD*%
D14*
%TO.C,REF\u002A\u002A*%
X244348000Y-30480000D03*
%TD*%
%TO.C,REF\u002A\u002A*%
X244348000Y-134620000D03*
%TD*%
D10*
%TO.C,GP12*%
X100913881Y-101927904D03*
D12*
X101906139Y-98225820D03*
D13*
X95832544Y-99823145D03*
D12*
X98090376Y-94372256D03*
D11*
X89242327Y-102667707D03*
D10*
X90751207Y-97718386D03*
%TD*%
%TO.C,GP27*%
X184326000Y-37084000D03*
D11*
X184826000Y-42234000D03*
D12*
X189826000Y-31184000D03*
D13*
X189826000Y-37084000D03*
D12*
X194826000Y-33284000D03*
D10*
X195326000Y-37084000D03*
%TD*%
%TO.C,GP21*%
X228089326Y-92601518D03*
D11*
X230522085Y-97168156D03*
D12*
X230912831Y-85045870D03*
D13*
X233170663Y-90496759D03*
D12*
X236335864Y-85072600D03*
D10*
X238252000Y-88392000D03*
%TD*%
%TO.C,GP10*%
X73151302Y-90428267D03*
D11*
X71642422Y-95377588D03*
D12*
X80490471Y-87082137D03*
D13*
X78232639Y-92533026D03*
D12*
X84306234Y-90935701D03*
D10*
X83313976Y-94637785D03*
%TD*%
%TO.C,GP26*%
X203376000Y-37084000D03*
D11*
X203876000Y-42234000D03*
D12*
X208876000Y-31184000D03*
D13*
X208876000Y-37084000D03*
D12*
X213876000Y-33284000D03*
D10*
X214376000Y-37084000D03*
%TD*%
%TO.C,GP11*%
X108204000Y-84328000D03*
D12*
X109196258Y-80625916D03*
D13*
X103122663Y-82223241D03*
D12*
X105380495Y-76772352D03*
D11*
X96532446Y-85067803D03*
D10*
X98041326Y-80118482D03*
%TD*%
D14*
%TO.C,REF\u002A\u002A*%
X68580000Y-30480000D03*
%TD*%
D10*
%TO.C,GP16*%
X176286414Y-108647026D03*
D11*
X178719173Y-113213664D03*
D12*
X179109919Y-101091378D03*
D13*
X181367751Y-106542267D03*
D12*
X184532952Y-101118108D03*
D10*
X186449088Y-104437508D03*
%TD*%
D15*
%TO.C,REF\u002A\u002A*%
X140023000Y-28324000D03*
D16*
X140323000Y-31354000D03*
X145173000Y-31354000D03*
D15*
X145473000Y-28324000D03*
D17*
X133858000Y-28194000D03*
D18*
X132958000Y-28194000D03*
D17*
X133858000Y-30734000D03*
D18*
X132958000Y-30734000D03*
D19*
X133858000Y-33274000D03*
D18*
X132958000Y-33274000D03*
D17*
X133858000Y-35814000D03*
D18*
X132958000Y-35814000D03*
D17*
X133858000Y-38354000D03*
D18*
X132958000Y-38354000D03*
D17*
X133858000Y-40894000D03*
D18*
X132958000Y-40894000D03*
D17*
X133858000Y-43434000D03*
D18*
X132958000Y-43434000D03*
D19*
X133858000Y-45974000D03*
D18*
X132958000Y-45974000D03*
D17*
X133858000Y-48514000D03*
D18*
X132958000Y-48514000D03*
D17*
X133858000Y-51054000D03*
D18*
X132958000Y-51054000D03*
D17*
X133858000Y-53594000D03*
D18*
X132958000Y-53594000D03*
D17*
X133858000Y-56134000D03*
D18*
X132958000Y-56134000D03*
D19*
X133858000Y-58674000D03*
D18*
X132958000Y-58674000D03*
D17*
X133858000Y-61214000D03*
D18*
X132958000Y-61214000D03*
D17*
X133858000Y-63754000D03*
D18*
X132958000Y-63754000D03*
D17*
X133858000Y-66294000D03*
D18*
X132958000Y-66294000D03*
D17*
X133858000Y-68834000D03*
D18*
X132958000Y-68834000D03*
D19*
X133858000Y-71374000D03*
D18*
X132958000Y-71374000D03*
D17*
X133858000Y-73914000D03*
D18*
X132958000Y-73914000D03*
D17*
X133858000Y-76454000D03*
D18*
X132958000Y-76454000D03*
D17*
X151638000Y-76454000D03*
D18*
X152538000Y-76454000D03*
D17*
X151638000Y-73914000D03*
D18*
X152538000Y-73914000D03*
D19*
X151638000Y-71374000D03*
D18*
X152538000Y-71374000D03*
D17*
X151638000Y-68834000D03*
D18*
X152538000Y-68834000D03*
D17*
X151638000Y-66294000D03*
D18*
X152538000Y-66294000D03*
D17*
X151638000Y-63754000D03*
D18*
X152538000Y-63754000D03*
D17*
X151638000Y-61214000D03*
D18*
X152538000Y-61214000D03*
D19*
X151638000Y-58674000D03*
D18*
X152538000Y-58674000D03*
D17*
X151638000Y-56134000D03*
D18*
X152538000Y-56134000D03*
D17*
X151638000Y-53594000D03*
D18*
X152538000Y-53594000D03*
D17*
X151638000Y-51054000D03*
D18*
X152538000Y-51054000D03*
D17*
X151638000Y-48514000D03*
D18*
X152538000Y-48514000D03*
D19*
X151638000Y-45974000D03*
D18*
X152538000Y-45974000D03*
D17*
X151638000Y-43434000D03*
D18*
X152538000Y-43434000D03*
D17*
X151638000Y-40894000D03*
D18*
X152538000Y-40894000D03*
D17*
X151638000Y-38354000D03*
D18*
X152538000Y-38354000D03*
D17*
X151638000Y-35814000D03*
D18*
X152538000Y-35814000D03*
D19*
X151638000Y-33274000D03*
D18*
X152538000Y-33274000D03*
D17*
X151638000Y-30734000D03*
D18*
X152538000Y-30734000D03*
D17*
X151638000Y-28194000D03*
D18*
X152538000Y-28194000D03*
D17*
X140208000Y-76224000D03*
D20*
X140208000Y-77124000D03*
D19*
X142748000Y-76224000D03*
D20*
X142748000Y-77124000D03*
D17*
X145288000Y-76224000D03*
D20*
X145288000Y-77124000D03*
%TD*%
D10*
%TO.C,GP0*%
X88314000Y-37592000D03*
D11*
X88814000Y-42742000D03*
D12*
X93814000Y-31692000D03*
D13*
X93814000Y-37592000D03*
D12*
X98814000Y-33792000D03*
D10*
X99314000Y-37592000D03*
%TD*%
%TO.C,GP20*%
X217756873Y-67656770D03*
D11*
X220189632Y-72223408D03*
D12*
X220580378Y-60101122D03*
D13*
X222838210Y-65552011D03*
D12*
X226003411Y-60127852D03*
D10*
X227919547Y-63447252D03*
%TD*%
%TO.C,GP19*%
X190898709Y-73369825D03*
D11*
X193331468Y-77936463D03*
D12*
X193722214Y-65814177D03*
D13*
X195980046Y-71265066D03*
D12*
X199145247Y-65840907D03*
D10*
X201061383Y-69160307D03*
%TD*%
M02*
