%TF.GenerationSoftware,KiCad,Pcbnew,7.0.5*%
%TF.CreationDate,2023-08-11T22:31:06-05:00*%
%TF.ProjectId,ArkeyV2,41726b65-7956-4322-9e6b-696361645f70,rev?*%
%TF.SameCoordinates,Original*%
%TF.FileFunction,Drillmap*%
%TF.FilePolarity,Positive*%
%FSLAX45Y45*%
G04 Gerber Fmt 4.5, Leading zero omitted, Abs format (unit mm)*
G04 Created by KiCad (PCBNEW 7.0.5) date 2023-08-11 22:31:06*
%MOMM*%
%LPD*%
G01*
G04 APERTURE LIST*
%ADD10C,0.100000*%
%ADD11C,0.200000*%
%ADD12C,0.150000*%
%ADD13C,0.160000*%
%ADD14C,0.180000*%
%ADD15C,0.190000*%
%ADD16C,0.305000*%
%ADD17C,0.320000*%
%ADD18C,0.505000*%
G04 APERTURE END LIST*
D10*
X6400800Y-2641600D02*
X24892000Y-2641600D01*
X24892000Y-14071600D01*
X6400800Y-14071600D01*
X6400800Y-2641600D01*
D11*
D12*
X13957300Y-3060400D02*
X14107300Y-3210400D01*
X14107300Y-3060400D02*
X13957300Y-3210400D01*
X14442300Y-3060400D02*
X14592300Y-3210400D01*
X14592300Y-3060400D02*
X14442300Y-3210400D01*
D13*
X7244242Y-9537759D02*
G75*
G03*
X7244242Y-9537759I-80000J0D01*
G01*
X8961400Y-4274200D02*
G75*
G03*
X8961400Y-4274200I-80000J0D01*
G01*
X9004233Y-10266771D02*
G75*
G03*
X9004233Y-10266771I-80000J0D01*
G01*
X9733245Y-8506780D02*
G75*
G03*
X9733245Y-8506780I-80000J0D01*
G01*
X10764223Y-10995783D02*
G75*
G03*
X10764223Y-10995783I-80000J0D01*
G01*
X10866400Y-4274200D02*
G75*
G03*
X10866400Y-4274200I-80000J0D01*
G01*
X14806881Y-10784016D02*
G75*
G03*
X14806881Y-10784016I-80000J0D01*
G01*
X15840126Y-13278491D02*
G75*
G03*
X15840126Y-13278491I-80000J0D01*
G01*
X16657600Y-4223400D02*
G75*
G03*
X16657600Y-4223400I-80000J0D01*
G01*
X16918672Y-8826892D02*
G75*
G03*
X16918672Y-8826892I-80000J0D01*
G01*
X17951917Y-11321366D02*
G75*
G03*
X17951917Y-11321366I-80000J0D01*
G01*
X18562600Y-4223400D02*
G75*
G03*
X18562600Y-4223400I-80000J0D01*
G01*
X19413147Y-7793646D02*
G75*
G03*
X19413147Y-7793646I-80000J0D01*
G01*
X20446392Y-10288121D02*
G75*
G03*
X20446392Y-10288121I-80000J0D01*
G01*
X20467600Y-4223400D02*
G75*
G03*
X20467600Y-4223400I-80000J0D01*
G01*
X22098963Y-7222341D02*
G75*
G03*
X22098963Y-7222341I-80000J0D01*
G01*
X22372600Y-4223400D02*
G75*
G03*
X22372600Y-4223400I-80000J0D01*
G01*
X23132208Y-9716816D02*
G75*
G03*
X23132208Y-9716816I-80000J0D01*
G01*
D14*
X14002300Y-2742400D02*
X14002300Y-2922400D01*
X13912300Y-2832400D02*
X14092300Y-2832400D01*
X14547300Y-2742400D02*
X14547300Y-2922400D01*
X14457300Y-2832400D02*
X14637300Y-2832400D01*
D15*
X7382306Y-9110003D02*
X7382306Y-8975651D01*
X7247954Y-8975651D01*
X7247954Y-9110003D01*
X7382306Y-9110003D01*
X8398573Y-9530954D02*
X8398573Y-9396603D01*
X8264222Y-9396603D01*
X8264222Y-9530954D01*
X8398573Y-9530954D01*
X8898576Y-3826376D02*
X8898576Y-3692024D01*
X8764224Y-3692024D01*
X8764224Y-3826376D01*
X8898576Y-3826376D01*
X9142297Y-9839014D02*
X9142297Y-9704663D01*
X9007945Y-9704663D01*
X9007945Y-9839014D01*
X9142297Y-9839014D01*
X9871308Y-8079024D02*
X9871308Y-7944672D01*
X9736957Y-7944672D01*
X9736957Y-8079024D01*
X9871308Y-8079024D01*
X9998576Y-3826376D02*
X9998576Y-3692024D01*
X9864224Y-3692024D01*
X9864224Y-3826376D01*
X9998576Y-3826376D01*
X10158564Y-10259966D02*
X10158564Y-10125615D01*
X10024212Y-10125615D01*
X10024212Y-10259966D01*
X10158564Y-10259966D01*
X10803576Y-3826376D02*
X10803576Y-3692024D01*
X10669224Y-3692024D01*
X10669224Y-3826376D01*
X10803576Y-3826376D01*
X10887576Y-8499976D02*
X10887576Y-8365624D01*
X10753224Y-8365624D01*
X10753224Y-8499976D01*
X10887576Y-8499976D01*
X10902287Y-10568026D02*
X10902287Y-10433675D01*
X10767935Y-10433675D01*
X10767935Y-10568026D01*
X10902287Y-10568026D01*
X11903576Y-3826376D02*
X11903576Y-3692024D01*
X11769224Y-3692024D01*
X11769224Y-3826376D01*
X11903576Y-3826376D01*
X11918554Y-10988978D02*
X11918554Y-10854627D01*
X11784203Y-10854627D01*
X11784203Y-10988978D01*
X11918554Y-10988978D01*
X14550781Y-10394528D02*
X14550781Y-10260177D01*
X14416429Y-10260177D01*
X14416429Y-10394528D01*
X14550781Y-10394528D01*
X15567048Y-9973577D02*
X15567048Y-9839225D01*
X15432696Y-9839225D01*
X15432696Y-9973577D01*
X15567048Y-9973577D01*
X15584026Y-12889003D02*
X15584026Y-12754652D01*
X15449674Y-12754652D01*
X15449674Y-12889003D01*
X15584026Y-12889003D01*
X16594776Y-3775576D02*
X16594776Y-3641224D01*
X16460424Y-3641224D01*
X16460424Y-3775576D01*
X16594776Y-3775576D01*
X16600293Y-12468051D02*
X16600293Y-12333700D01*
X16465942Y-12333700D01*
X16465942Y-12468051D01*
X16600293Y-12468051D01*
X16662572Y-8437404D02*
X16662572Y-8303052D01*
X16528220Y-8303052D01*
X16528220Y-8437404D01*
X16662572Y-8437404D01*
X17678839Y-8016452D02*
X17678839Y-7882100D01*
X17544488Y-7882100D01*
X17544488Y-8016452D01*
X17678839Y-8016452D01*
X17694776Y-3775576D02*
X17694776Y-3641224D01*
X17560424Y-3641224D01*
X17560424Y-3775576D01*
X17694776Y-3775576D01*
X17695817Y-10931878D02*
X17695817Y-10797527D01*
X17561466Y-10797527D01*
X17561466Y-10931878D01*
X17695817Y-10931878D01*
X18499776Y-3775576D02*
X18499776Y-3641224D01*
X18365424Y-3641224D01*
X18365424Y-3775576D01*
X18499776Y-3775576D01*
X18712085Y-10510927D02*
X18712085Y-10376575D01*
X18577733Y-10376575D01*
X18577733Y-10510927D01*
X18712085Y-10510927D01*
X19157047Y-7404158D02*
X19157047Y-7269807D01*
X19022695Y-7269807D01*
X19022695Y-7404158D01*
X19157047Y-7404158D01*
X19599776Y-3775576D02*
X19599776Y-3641224D01*
X19465424Y-3641224D01*
X19465424Y-3775576D01*
X19599776Y-3775576D01*
X20173314Y-6983206D02*
X20173314Y-6848855D01*
X20038963Y-6848855D01*
X20038963Y-6983206D01*
X20173314Y-6983206D01*
X20190292Y-9898633D02*
X20190292Y-9764282D01*
X20055940Y-9764282D01*
X20055940Y-9898633D01*
X20190292Y-9898633D01*
X20404776Y-3775576D02*
X20404776Y-3641224D01*
X20270424Y-3641224D01*
X20270424Y-3775576D01*
X20404776Y-3775576D01*
X21206559Y-9477681D02*
X21206559Y-9343330D01*
X21072208Y-9343330D01*
X21072208Y-9477681D01*
X21206559Y-9477681D01*
X21504776Y-3775576D02*
X21504776Y-3641224D01*
X21370424Y-3641224D01*
X21370424Y-3775576D01*
X21504776Y-3775576D01*
X21842863Y-6832853D02*
X21842863Y-6698501D01*
X21708512Y-6698501D01*
X21708512Y-6832853D01*
X21842863Y-6832853D01*
X22309776Y-3775576D02*
X22309776Y-3641224D01*
X22175424Y-3641224D01*
X22175424Y-3775576D01*
X22309776Y-3775576D01*
X22859130Y-6411901D02*
X22859130Y-6277549D01*
X22724779Y-6277549D01*
X22724779Y-6411901D01*
X22859130Y-6411901D01*
X22876108Y-9327328D02*
X22876108Y-9192976D01*
X22741757Y-9192976D01*
X22741757Y-9327328D01*
X22876108Y-9327328D01*
X23409776Y-3775576D02*
X23409776Y-3641224D01*
X23275424Y-3641224D01*
X23275424Y-3775576D01*
X23409776Y-3775576D01*
X23892376Y-8906376D02*
X23892376Y-8772024D01*
X23758024Y-8772024D01*
X23758024Y-8906376D01*
X23892376Y-8906376D01*
D16*
X8049047Y-8860714D02*
X8201547Y-8708214D01*
X8049047Y-8555714D01*
X7896547Y-8708214D01*
X8049047Y-8860714D01*
X8430623Y-9246070D02*
X8583123Y-9093570D01*
X8430623Y-8941070D01*
X8278123Y-9093570D01*
X8430623Y-9246070D01*
X9381400Y-3321700D02*
X9533900Y-3169200D01*
X9381400Y-3016700D01*
X9228900Y-3169200D01*
X9381400Y-3321700D01*
X9809038Y-9589726D02*
X9961538Y-9437226D01*
X9809038Y-9284726D01*
X9656538Y-9437226D01*
X9809038Y-9589726D01*
X9881400Y-3531700D02*
X10033900Y-3379200D01*
X9881400Y-3226700D01*
X9728900Y-3379200D01*
X9881400Y-3531700D01*
X10190614Y-9975082D02*
X10343114Y-9822582D01*
X10190614Y-9670082D01*
X10038114Y-9822582D01*
X10190614Y-9975082D01*
X10538050Y-7829735D02*
X10690550Y-7677235D01*
X10538050Y-7524735D01*
X10385550Y-7677235D01*
X10538050Y-7829735D01*
X10919626Y-8215092D02*
X11072126Y-8062592D01*
X10919626Y-7910092D01*
X10767126Y-8062592D01*
X10919626Y-8215092D01*
X11286400Y-3321700D02*
X11438900Y-3169200D01*
X11286400Y-3016700D01*
X11133900Y-3169200D01*
X11286400Y-3321700D01*
X11569028Y-10318738D02*
X11721528Y-10166238D01*
X11569028Y-10013738D01*
X11416528Y-10166238D01*
X11569028Y-10318738D01*
X11786400Y-3531700D02*
X11938900Y-3379200D01*
X11786400Y-3226700D01*
X11633900Y-3379200D01*
X11786400Y-3531700D01*
X11950604Y-10704094D02*
X12103104Y-10551594D01*
X11950604Y-10399094D01*
X11798104Y-10551594D01*
X11950604Y-10704094D01*
X14765955Y-9724288D02*
X14918455Y-9571788D01*
X14765955Y-9419288D01*
X14613455Y-9571788D01*
X14765955Y-9724288D01*
X15308259Y-9726961D02*
X15460759Y-9574461D01*
X15308259Y-9421961D01*
X15155759Y-9574461D01*
X15308259Y-9726961D01*
X15799201Y-12218763D02*
X15951701Y-12066263D01*
X15799201Y-11913763D01*
X15646701Y-12066263D01*
X15799201Y-12218763D01*
X16341504Y-12221436D02*
X16494004Y-12068936D01*
X16341504Y-11916436D01*
X16189004Y-12068936D01*
X16341504Y-12221436D01*
X16877747Y-7767163D02*
X17030247Y-7614663D01*
X16877747Y-7462163D01*
X16725247Y-7614663D01*
X16877747Y-7767163D01*
X17077600Y-3270900D02*
X17230100Y-3118400D01*
X17077600Y-2965900D01*
X16925100Y-3118400D01*
X17077600Y-3270900D01*
X17420050Y-7769836D02*
X17572550Y-7617336D01*
X17420050Y-7464836D01*
X17267550Y-7617336D01*
X17420050Y-7769836D01*
X17577600Y-3480900D02*
X17730100Y-3328400D01*
X17577600Y-3175900D01*
X17425100Y-3328400D01*
X17577600Y-3480900D01*
X17910992Y-10261638D02*
X18063492Y-10109138D01*
X17910992Y-9956638D01*
X17758492Y-10109138D01*
X17910992Y-10261638D01*
X18453295Y-10264311D02*
X18605795Y-10111811D01*
X18453295Y-9959311D01*
X18300795Y-10111811D01*
X18453295Y-10264311D01*
X18982600Y-3270900D02*
X19135100Y-3118400D01*
X18982600Y-2965900D01*
X18830100Y-3118400D01*
X18982600Y-3270900D01*
X19372221Y-6733918D02*
X19524721Y-6581418D01*
X19372221Y-6428918D01*
X19219721Y-6581418D01*
X19372221Y-6733918D01*
X19482600Y-3480900D02*
X19635100Y-3328400D01*
X19482600Y-3175900D01*
X19330100Y-3328400D01*
X19482600Y-3480900D01*
X19914525Y-6736591D02*
X20067025Y-6584091D01*
X19914525Y-6431591D01*
X19762025Y-6584091D01*
X19914525Y-6736591D01*
X20405467Y-9228393D02*
X20557967Y-9075893D01*
X20405467Y-8923393D01*
X20252967Y-9075893D01*
X20405467Y-9228393D01*
X20887600Y-3270900D02*
X21040100Y-3118400D01*
X20887600Y-2965900D01*
X20735100Y-3118400D01*
X20887600Y-3270900D01*
X20947770Y-9231066D02*
X21100270Y-9078566D01*
X20947770Y-8926066D01*
X20795270Y-9078566D01*
X20947770Y-9231066D01*
X21387600Y-3480900D02*
X21540100Y-3328400D01*
X21387600Y-3175900D01*
X21235100Y-3328400D01*
X21387600Y-3480900D01*
X22058038Y-6162612D02*
X22210538Y-6010112D01*
X22058038Y-5857612D01*
X21905538Y-6010112D01*
X22058038Y-6162612D01*
X22600341Y-6165285D02*
X22752841Y-6012785D01*
X22600341Y-5860285D01*
X22447841Y-6012785D01*
X22600341Y-6165285D01*
X22792600Y-3270900D02*
X22945100Y-3118400D01*
X22792600Y-2965900D01*
X22640100Y-3118400D01*
X22792600Y-3270900D01*
X23091283Y-8657087D02*
X23243783Y-8504587D01*
X23091283Y-8352087D01*
X22938783Y-8504587D01*
X23091283Y-8657087D01*
X23292600Y-3480900D02*
X23445100Y-3328400D01*
X23292600Y-3175900D01*
X23140100Y-3328400D01*
X23292600Y-3480900D01*
X23633586Y-8659760D02*
X23786086Y-8507260D01*
X23633586Y-8354760D01*
X23481086Y-8507260D01*
X23633586Y-8659760D01*
D17*
X6698000Y-2888000D02*
X7018000Y-3208000D01*
X7018000Y-2888000D02*
X6698000Y-3208000D01*
X7018000Y-3048000D02*
G75*
G03*
X7018000Y-3048000I-160000J0D01*
G01*
X6698000Y-13302000D02*
X7018000Y-13622000D01*
X7018000Y-13302000D02*
X6698000Y-13622000D01*
X7018000Y-13462000D02*
G75*
G03*
X7018000Y-13462000I-160000J0D01*
G01*
X24274800Y-2888000D02*
X24594800Y-3208000D01*
X24594800Y-2888000D02*
X24274800Y-3208000D01*
X24594800Y-3048000D02*
G75*
G03*
X24594800Y-3048000I-160000J0D01*
G01*
X24274800Y-13302000D02*
X24594800Y-13622000D01*
X24594800Y-13302000D02*
X24274800Y-13622000D01*
X24594800Y-13462000D02*
G75*
G03*
X24594800Y-13462000I-160000J0D01*
G01*
D18*
X7570764Y-9000803D02*
X8075764Y-9505803D01*
X8075764Y-9000803D02*
X7570764Y-9505803D01*
X7823264Y-9000803D02*
X7823264Y-9505803D01*
X7570764Y-9253303D02*
X8075764Y-9253303D01*
X9128900Y-3506700D02*
X9633900Y-4011700D01*
X9633900Y-3506700D02*
X9128900Y-4011700D01*
X9381400Y-3506700D02*
X9381400Y-4011700D01*
X9128900Y-3759200D02*
X9633900Y-3759200D01*
X9330754Y-9729815D02*
X9835754Y-10234815D01*
X9835754Y-9729815D02*
X9330754Y-10234815D01*
X9583254Y-9729815D02*
X9583254Y-10234815D01*
X9330754Y-9982315D02*
X9835754Y-9982315D01*
X10059766Y-7969824D02*
X10564766Y-8474824D01*
X10564766Y-7969824D02*
X10059766Y-8474824D01*
X10312266Y-7969824D02*
X10312266Y-8474824D01*
X10059766Y-8222324D02*
X10564766Y-8222324D01*
X11033900Y-3506700D02*
X11538900Y-4011700D01*
X11538900Y-3506700D02*
X11033900Y-4011700D01*
X11286400Y-3506700D02*
X11286400Y-4011700D01*
X11033900Y-3759200D02*
X11538900Y-3759200D01*
X11090745Y-10458827D02*
X11595745Y-10963827D01*
X11595745Y-10458827D02*
X11090745Y-10963827D01*
X11343245Y-10458827D02*
X11343245Y-10963827D01*
X11090745Y-10711327D02*
X11595745Y-10711327D01*
X14739239Y-9864377D02*
X15244239Y-10369377D01*
X15244239Y-9864377D02*
X14739239Y-10369377D01*
X14991739Y-9864377D02*
X14991739Y-10369377D01*
X14739239Y-10116877D02*
X15244239Y-10116877D01*
X15772484Y-12358851D02*
X16277484Y-12863851D01*
X16277484Y-12358851D02*
X15772484Y-12863851D01*
X16024984Y-12358851D02*
X16024984Y-12863851D01*
X15772484Y-12611351D02*
X16277484Y-12611351D01*
X16825100Y-3455900D02*
X17330100Y-3960900D01*
X17330100Y-3455900D02*
X16825100Y-3960900D01*
X17077600Y-3455900D02*
X17077600Y-3960900D01*
X16825100Y-3708400D02*
X17330100Y-3708400D01*
X16851030Y-7907252D02*
X17356030Y-8412252D01*
X17356030Y-7907252D02*
X16851030Y-8412252D01*
X17103530Y-7907252D02*
X17103530Y-8412252D01*
X16851030Y-8159752D02*
X17356030Y-8159752D01*
X17884275Y-10401727D02*
X18389275Y-10906727D01*
X18389275Y-10401727D02*
X17884275Y-10906727D01*
X18136775Y-10401727D02*
X18136775Y-10906727D01*
X17884275Y-10654227D02*
X18389275Y-10654227D01*
X18730100Y-3455900D02*
X19235100Y-3960900D01*
X19235100Y-3455900D02*
X18730100Y-3960900D01*
X18982600Y-3455900D02*
X18982600Y-3960900D01*
X18730100Y-3708400D02*
X19235100Y-3708400D01*
X19345505Y-6874007D02*
X19850505Y-7379007D01*
X19850505Y-6874007D02*
X19345505Y-7379007D01*
X19598005Y-6874007D02*
X19598005Y-7379007D01*
X19345505Y-7126507D02*
X19850505Y-7126507D01*
X20378750Y-9368481D02*
X20883750Y-9873481D01*
X20883750Y-9368481D02*
X20378750Y-9873481D01*
X20631250Y-9368481D02*
X20631250Y-9873481D01*
X20378750Y-9620981D02*
X20883750Y-9620981D01*
X20635100Y-3455900D02*
X21140100Y-3960900D01*
X21140100Y-3455900D02*
X20635100Y-3960900D01*
X20887600Y-3455900D02*
X20887600Y-3960900D01*
X20635100Y-3708400D02*
X21140100Y-3708400D01*
X22031321Y-6302701D02*
X22536321Y-6807701D01*
X22536321Y-6302701D02*
X22031321Y-6807701D01*
X22283821Y-6302701D02*
X22283821Y-6807701D01*
X22031321Y-6555201D02*
X22536321Y-6555201D01*
X22540100Y-3455900D02*
X23045100Y-3960900D01*
X23045100Y-3455900D02*
X22540100Y-3960900D01*
X22792600Y-3455900D02*
X22792600Y-3960900D01*
X22540100Y-3708400D02*
X23045100Y-3708400D01*
X23064566Y-8797176D02*
X23569566Y-9302176D01*
X23569566Y-8797176D02*
X23064566Y-9302176D01*
X23317066Y-8797176D02*
X23317066Y-9302176D01*
X23064566Y-9049676D02*
X23569566Y-9049676D01*
D11*
X6656577Y-14388084D02*
X6656577Y-14188084D01*
X6656577Y-14188084D02*
X6704196Y-14188084D01*
X6704196Y-14188084D02*
X6732767Y-14197608D01*
X6732767Y-14197608D02*
X6751815Y-14216655D01*
X6751815Y-14216655D02*
X6761339Y-14235703D01*
X6761339Y-14235703D02*
X6770862Y-14273798D01*
X6770862Y-14273798D02*
X6770862Y-14302369D01*
X6770862Y-14302369D02*
X6761339Y-14340465D01*
X6761339Y-14340465D02*
X6751815Y-14359512D01*
X6751815Y-14359512D02*
X6732767Y-14378560D01*
X6732767Y-14378560D02*
X6704196Y-14388084D01*
X6704196Y-14388084D02*
X6656577Y-14388084D01*
X6856577Y-14388084D02*
X6856577Y-14254750D01*
X6856577Y-14292846D02*
X6866101Y-14273798D01*
X6866101Y-14273798D02*
X6875624Y-14264274D01*
X6875624Y-14264274D02*
X6894672Y-14254750D01*
X6894672Y-14254750D02*
X6913720Y-14254750D01*
X6980386Y-14388084D02*
X6980386Y-14254750D01*
X6980386Y-14188084D02*
X6970862Y-14197608D01*
X6970862Y-14197608D02*
X6980386Y-14207131D01*
X6980386Y-14207131D02*
X6989910Y-14197608D01*
X6989910Y-14197608D02*
X6980386Y-14188084D01*
X6980386Y-14188084D02*
X6980386Y-14207131D01*
X7104196Y-14388084D02*
X7085148Y-14378560D01*
X7085148Y-14378560D02*
X7075624Y-14359512D01*
X7075624Y-14359512D02*
X7075624Y-14188084D01*
X7208958Y-14388084D02*
X7189910Y-14378560D01*
X7189910Y-14378560D02*
X7180386Y-14359512D01*
X7180386Y-14359512D02*
X7180386Y-14188084D01*
X7437529Y-14388084D02*
X7437529Y-14188084D01*
X7437529Y-14188084D02*
X7504196Y-14330941D01*
X7504196Y-14330941D02*
X7570862Y-14188084D01*
X7570862Y-14188084D02*
X7570862Y-14388084D01*
X7751815Y-14388084D02*
X7751815Y-14283322D01*
X7751815Y-14283322D02*
X7742291Y-14264274D01*
X7742291Y-14264274D02*
X7723243Y-14254750D01*
X7723243Y-14254750D02*
X7685148Y-14254750D01*
X7685148Y-14254750D02*
X7666101Y-14264274D01*
X7751815Y-14378560D02*
X7732767Y-14388084D01*
X7732767Y-14388084D02*
X7685148Y-14388084D01*
X7685148Y-14388084D02*
X7666101Y-14378560D01*
X7666101Y-14378560D02*
X7656577Y-14359512D01*
X7656577Y-14359512D02*
X7656577Y-14340465D01*
X7656577Y-14340465D02*
X7666101Y-14321417D01*
X7666101Y-14321417D02*
X7685148Y-14311893D01*
X7685148Y-14311893D02*
X7732767Y-14311893D01*
X7732767Y-14311893D02*
X7751815Y-14302369D01*
X7847053Y-14254750D02*
X7847053Y-14454750D01*
X7847053Y-14264274D02*
X7866101Y-14254750D01*
X7866101Y-14254750D02*
X7904196Y-14254750D01*
X7904196Y-14254750D02*
X7923243Y-14264274D01*
X7923243Y-14264274D02*
X7932767Y-14273798D01*
X7932767Y-14273798D02*
X7942291Y-14292846D01*
X7942291Y-14292846D02*
X7942291Y-14349988D01*
X7942291Y-14349988D02*
X7932767Y-14369036D01*
X7932767Y-14369036D02*
X7923243Y-14378560D01*
X7923243Y-14378560D02*
X7904196Y-14388084D01*
X7904196Y-14388084D02*
X7866101Y-14388084D01*
X7866101Y-14388084D02*
X7847053Y-14378560D01*
X8028005Y-14369036D02*
X8037529Y-14378560D01*
X8037529Y-14378560D02*
X8028005Y-14388084D01*
X8028005Y-14388084D02*
X8018482Y-14378560D01*
X8018482Y-14378560D02*
X8028005Y-14369036D01*
X8028005Y-14369036D02*
X8028005Y-14388084D01*
X8028005Y-14264274D02*
X8037529Y-14273798D01*
X8037529Y-14273798D02*
X8028005Y-14283322D01*
X8028005Y-14283322D02*
X8018482Y-14273798D01*
X8018482Y-14273798D02*
X8028005Y-14264274D01*
X8028005Y-14264274D02*
X8028005Y-14283322D01*
D12*
X6245800Y-14641600D02*
X6395800Y-14791600D01*
X6395800Y-14641600D02*
X6245800Y-14791600D01*
D11*
X6761339Y-14808084D02*
X6647053Y-14808084D01*
X6704196Y-14808084D02*
X6704196Y-14608084D01*
X6704196Y-14608084D02*
X6685148Y-14636655D01*
X6685148Y-14636655D02*
X6666101Y-14655703D01*
X6666101Y-14655703D02*
X6647053Y-14665227D01*
X6847053Y-14789036D02*
X6856577Y-14798560D01*
X6856577Y-14798560D02*
X6847053Y-14808084D01*
X6847053Y-14808084D02*
X6837529Y-14798560D01*
X6837529Y-14798560D02*
X6847053Y-14789036D01*
X6847053Y-14789036D02*
X6847053Y-14808084D01*
X7037529Y-14608084D02*
X6942291Y-14608084D01*
X6942291Y-14608084D02*
X6932767Y-14703322D01*
X6932767Y-14703322D02*
X6942291Y-14693798D01*
X6942291Y-14693798D02*
X6961339Y-14684274D01*
X6961339Y-14684274D02*
X7008958Y-14684274D01*
X7008958Y-14684274D02*
X7028005Y-14693798D01*
X7028005Y-14693798D02*
X7037529Y-14703322D01*
X7037529Y-14703322D02*
X7047053Y-14722369D01*
X7047053Y-14722369D02*
X7047053Y-14769988D01*
X7047053Y-14769988D02*
X7037529Y-14789036D01*
X7037529Y-14789036D02*
X7028005Y-14798560D01*
X7028005Y-14798560D02*
X7008958Y-14808084D01*
X7008958Y-14808084D02*
X6961339Y-14808084D01*
X6961339Y-14808084D02*
X6942291Y-14798560D01*
X6942291Y-14798560D02*
X6932767Y-14789036D01*
X7170862Y-14608084D02*
X7189910Y-14608084D01*
X7189910Y-14608084D02*
X7208958Y-14617608D01*
X7208958Y-14617608D02*
X7218482Y-14627131D01*
X7218482Y-14627131D02*
X7228005Y-14646179D01*
X7228005Y-14646179D02*
X7237529Y-14684274D01*
X7237529Y-14684274D02*
X7237529Y-14731893D01*
X7237529Y-14731893D02*
X7228005Y-14769988D01*
X7228005Y-14769988D02*
X7218482Y-14789036D01*
X7218482Y-14789036D02*
X7208958Y-14798560D01*
X7208958Y-14798560D02*
X7189910Y-14808084D01*
X7189910Y-14808084D02*
X7170862Y-14808084D01*
X7170862Y-14808084D02*
X7151815Y-14798560D01*
X7151815Y-14798560D02*
X7142291Y-14789036D01*
X7142291Y-14789036D02*
X7132767Y-14769988D01*
X7132767Y-14769988D02*
X7123243Y-14731893D01*
X7123243Y-14731893D02*
X7123243Y-14684274D01*
X7123243Y-14684274D02*
X7132767Y-14646179D01*
X7132767Y-14646179D02*
X7142291Y-14627131D01*
X7142291Y-14627131D02*
X7151815Y-14617608D01*
X7151815Y-14617608D02*
X7170862Y-14608084D01*
X7361339Y-14608084D02*
X7380386Y-14608084D01*
X7380386Y-14608084D02*
X7399434Y-14617608D01*
X7399434Y-14617608D02*
X7408958Y-14627131D01*
X7408958Y-14627131D02*
X7418482Y-14646179D01*
X7418482Y-14646179D02*
X7428005Y-14684274D01*
X7428005Y-14684274D02*
X7428005Y-14731893D01*
X7428005Y-14731893D02*
X7418482Y-14769988D01*
X7418482Y-14769988D02*
X7408958Y-14789036D01*
X7408958Y-14789036D02*
X7399434Y-14798560D01*
X7399434Y-14798560D02*
X7380386Y-14808084D01*
X7380386Y-14808084D02*
X7361339Y-14808084D01*
X7361339Y-14808084D02*
X7342291Y-14798560D01*
X7342291Y-14798560D02*
X7332767Y-14789036D01*
X7332767Y-14789036D02*
X7323243Y-14769988D01*
X7323243Y-14769988D02*
X7313720Y-14731893D01*
X7313720Y-14731893D02*
X7313720Y-14684274D01*
X7313720Y-14684274D02*
X7323243Y-14646179D01*
X7323243Y-14646179D02*
X7332767Y-14627131D01*
X7332767Y-14627131D02*
X7342291Y-14617608D01*
X7342291Y-14617608D02*
X7361339Y-14608084D01*
X7513720Y-14808084D02*
X7513720Y-14674750D01*
X7513720Y-14693798D02*
X7523243Y-14684274D01*
X7523243Y-14684274D02*
X7542291Y-14674750D01*
X7542291Y-14674750D02*
X7570863Y-14674750D01*
X7570863Y-14674750D02*
X7589910Y-14684274D01*
X7589910Y-14684274D02*
X7599434Y-14703322D01*
X7599434Y-14703322D02*
X7599434Y-14808084D01*
X7599434Y-14703322D02*
X7608958Y-14684274D01*
X7608958Y-14684274D02*
X7628005Y-14674750D01*
X7628005Y-14674750D02*
X7656577Y-14674750D01*
X7656577Y-14674750D02*
X7675624Y-14684274D01*
X7675624Y-14684274D02*
X7685148Y-14703322D01*
X7685148Y-14703322D02*
X7685148Y-14808084D01*
X7780386Y-14808084D02*
X7780386Y-14674750D01*
X7780386Y-14693798D02*
X7789910Y-14684274D01*
X7789910Y-14684274D02*
X7808958Y-14674750D01*
X7808958Y-14674750D02*
X7837529Y-14674750D01*
X7837529Y-14674750D02*
X7856577Y-14684274D01*
X7856577Y-14684274D02*
X7866101Y-14703322D01*
X7866101Y-14703322D02*
X7866101Y-14808084D01*
X7866101Y-14703322D02*
X7875624Y-14684274D01*
X7875624Y-14684274D02*
X7894672Y-14674750D01*
X7894672Y-14674750D02*
X7923243Y-14674750D01*
X7923243Y-14674750D02*
X7942291Y-14684274D01*
X7942291Y-14684274D02*
X7951815Y-14703322D01*
X7951815Y-14703322D02*
X7951815Y-14808084D01*
X8342291Y-14598560D02*
X8170863Y-14855703D01*
X8599434Y-14608084D02*
X8618482Y-14608084D01*
X8618482Y-14608084D02*
X8637529Y-14617608D01*
X8637529Y-14617608D02*
X8647053Y-14627131D01*
X8647053Y-14627131D02*
X8656577Y-14646179D01*
X8656577Y-14646179D02*
X8666101Y-14684274D01*
X8666101Y-14684274D02*
X8666101Y-14731893D01*
X8666101Y-14731893D02*
X8656577Y-14769988D01*
X8656577Y-14769988D02*
X8647053Y-14789036D01*
X8647053Y-14789036D02*
X8637529Y-14798560D01*
X8637529Y-14798560D02*
X8618482Y-14808084D01*
X8618482Y-14808084D02*
X8599434Y-14808084D01*
X8599434Y-14808084D02*
X8580387Y-14798560D01*
X8580387Y-14798560D02*
X8570863Y-14789036D01*
X8570863Y-14789036D02*
X8561339Y-14769988D01*
X8561339Y-14769988D02*
X8551815Y-14731893D01*
X8551815Y-14731893D02*
X8551815Y-14684274D01*
X8551815Y-14684274D02*
X8561339Y-14646179D01*
X8561339Y-14646179D02*
X8570863Y-14627131D01*
X8570863Y-14627131D02*
X8580387Y-14617608D01*
X8580387Y-14617608D02*
X8599434Y-14608084D01*
X8751815Y-14789036D02*
X8761339Y-14798560D01*
X8761339Y-14798560D02*
X8751815Y-14808084D01*
X8751815Y-14808084D02*
X8742291Y-14798560D01*
X8742291Y-14798560D02*
X8751815Y-14789036D01*
X8751815Y-14789036D02*
X8751815Y-14808084D01*
X8885148Y-14608084D02*
X8904196Y-14608084D01*
X8904196Y-14608084D02*
X8923244Y-14617608D01*
X8923244Y-14617608D02*
X8932768Y-14627131D01*
X8932768Y-14627131D02*
X8942291Y-14646179D01*
X8942291Y-14646179D02*
X8951815Y-14684274D01*
X8951815Y-14684274D02*
X8951815Y-14731893D01*
X8951815Y-14731893D02*
X8942291Y-14769988D01*
X8942291Y-14769988D02*
X8932768Y-14789036D01*
X8932768Y-14789036D02*
X8923244Y-14798560D01*
X8923244Y-14798560D02*
X8904196Y-14808084D01*
X8904196Y-14808084D02*
X8885148Y-14808084D01*
X8885148Y-14808084D02*
X8866101Y-14798560D01*
X8866101Y-14798560D02*
X8856577Y-14789036D01*
X8856577Y-14789036D02*
X8847053Y-14769988D01*
X8847053Y-14769988D02*
X8837529Y-14731893D01*
X8837529Y-14731893D02*
X8837529Y-14684274D01*
X8837529Y-14684274D02*
X8847053Y-14646179D01*
X8847053Y-14646179D02*
X8856577Y-14627131D01*
X8856577Y-14627131D02*
X8866101Y-14617608D01*
X8866101Y-14617608D02*
X8885148Y-14608084D01*
X9132768Y-14608084D02*
X9037529Y-14608084D01*
X9037529Y-14608084D02*
X9028006Y-14703322D01*
X9028006Y-14703322D02*
X9037529Y-14693798D01*
X9037529Y-14693798D02*
X9056577Y-14684274D01*
X9056577Y-14684274D02*
X9104196Y-14684274D01*
X9104196Y-14684274D02*
X9123244Y-14693798D01*
X9123244Y-14693798D02*
X9132768Y-14703322D01*
X9132768Y-14703322D02*
X9142291Y-14722369D01*
X9142291Y-14722369D02*
X9142291Y-14769988D01*
X9142291Y-14769988D02*
X9132768Y-14789036D01*
X9132768Y-14789036D02*
X9123244Y-14798560D01*
X9123244Y-14798560D02*
X9104196Y-14808084D01*
X9104196Y-14808084D02*
X9056577Y-14808084D01*
X9056577Y-14808084D02*
X9037529Y-14798560D01*
X9037529Y-14798560D02*
X9028006Y-14789036D01*
X9237529Y-14808084D02*
X9275625Y-14808084D01*
X9275625Y-14808084D02*
X9294672Y-14798560D01*
X9294672Y-14798560D02*
X9304196Y-14789036D01*
X9304196Y-14789036D02*
X9323244Y-14760465D01*
X9323244Y-14760465D02*
X9332768Y-14722369D01*
X9332768Y-14722369D02*
X9332768Y-14646179D01*
X9332768Y-14646179D02*
X9323244Y-14627131D01*
X9323244Y-14627131D02*
X9313720Y-14617608D01*
X9313720Y-14617608D02*
X9294672Y-14608084D01*
X9294672Y-14608084D02*
X9256577Y-14608084D01*
X9256577Y-14608084D02*
X9237529Y-14617608D01*
X9237529Y-14617608D02*
X9228006Y-14627131D01*
X9228006Y-14627131D02*
X9218482Y-14646179D01*
X9218482Y-14646179D02*
X9218482Y-14693798D01*
X9218482Y-14693798D02*
X9228006Y-14712846D01*
X9228006Y-14712846D02*
X9237529Y-14722369D01*
X9237529Y-14722369D02*
X9256577Y-14731893D01*
X9256577Y-14731893D02*
X9294672Y-14731893D01*
X9294672Y-14731893D02*
X9313720Y-14722369D01*
X9313720Y-14722369D02*
X9323244Y-14712846D01*
X9323244Y-14712846D02*
X9332768Y-14693798D01*
X9523244Y-14808084D02*
X9408958Y-14808084D01*
X9466101Y-14808084D02*
X9466101Y-14608084D01*
X9466101Y-14608084D02*
X9447053Y-14636655D01*
X9447053Y-14636655D02*
X9428006Y-14655703D01*
X9428006Y-14655703D02*
X9408958Y-14665227D01*
X9599434Y-14608084D02*
X9599434Y-14646179D01*
X9675625Y-14608084D02*
X9675625Y-14646179D01*
X9970863Y-14884274D02*
X9961339Y-14874750D01*
X9961339Y-14874750D02*
X9942291Y-14846179D01*
X9942291Y-14846179D02*
X9932768Y-14827131D01*
X9932768Y-14827131D02*
X9923244Y-14798560D01*
X9923244Y-14798560D02*
X9913720Y-14750941D01*
X9913720Y-14750941D02*
X9913720Y-14712846D01*
X9913720Y-14712846D02*
X9923244Y-14665227D01*
X9923244Y-14665227D02*
X9932768Y-14636655D01*
X9932768Y-14636655D02*
X9942291Y-14617608D01*
X9942291Y-14617608D02*
X9961339Y-14589036D01*
X9961339Y-14589036D02*
X9970863Y-14579512D01*
X10037530Y-14627131D02*
X10047053Y-14617608D01*
X10047053Y-14617608D02*
X10066101Y-14608084D01*
X10066101Y-14608084D02*
X10113720Y-14608084D01*
X10113720Y-14608084D02*
X10132768Y-14617608D01*
X10132768Y-14617608D02*
X10142291Y-14627131D01*
X10142291Y-14627131D02*
X10151815Y-14646179D01*
X10151815Y-14646179D02*
X10151815Y-14665227D01*
X10151815Y-14665227D02*
X10142291Y-14693798D01*
X10142291Y-14693798D02*
X10028006Y-14808084D01*
X10028006Y-14808084D02*
X10151815Y-14808084D01*
X10389911Y-14808084D02*
X10389911Y-14608084D01*
X10475625Y-14808084D02*
X10475625Y-14703322D01*
X10475625Y-14703322D02*
X10466101Y-14684274D01*
X10466101Y-14684274D02*
X10447053Y-14674750D01*
X10447053Y-14674750D02*
X10418482Y-14674750D01*
X10418482Y-14674750D02*
X10399434Y-14684274D01*
X10399434Y-14684274D02*
X10389911Y-14693798D01*
X10599434Y-14808084D02*
X10580387Y-14798560D01*
X10580387Y-14798560D02*
X10570863Y-14789036D01*
X10570863Y-14789036D02*
X10561339Y-14769988D01*
X10561339Y-14769988D02*
X10561339Y-14712846D01*
X10561339Y-14712846D02*
X10570863Y-14693798D01*
X10570863Y-14693798D02*
X10580387Y-14684274D01*
X10580387Y-14684274D02*
X10599434Y-14674750D01*
X10599434Y-14674750D02*
X10628006Y-14674750D01*
X10628006Y-14674750D02*
X10647053Y-14684274D01*
X10647053Y-14684274D02*
X10656577Y-14693798D01*
X10656577Y-14693798D02*
X10666101Y-14712846D01*
X10666101Y-14712846D02*
X10666101Y-14769988D01*
X10666101Y-14769988D02*
X10656577Y-14789036D01*
X10656577Y-14789036D02*
X10647053Y-14798560D01*
X10647053Y-14798560D02*
X10628006Y-14808084D01*
X10628006Y-14808084D02*
X10599434Y-14808084D01*
X10780387Y-14808084D02*
X10761339Y-14798560D01*
X10761339Y-14798560D02*
X10751815Y-14779512D01*
X10751815Y-14779512D02*
X10751815Y-14608084D01*
X10932768Y-14798560D02*
X10913720Y-14808084D01*
X10913720Y-14808084D02*
X10875625Y-14808084D01*
X10875625Y-14808084D02*
X10856577Y-14798560D01*
X10856577Y-14798560D02*
X10847053Y-14779512D01*
X10847053Y-14779512D02*
X10847053Y-14703322D01*
X10847053Y-14703322D02*
X10856577Y-14684274D01*
X10856577Y-14684274D02*
X10875625Y-14674750D01*
X10875625Y-14674750D02*
X10913720Y-14674750D01*
X10913720Y-14674750D02*
X10932768Y-14684274D01*
X10932768Y-14684274D02*
X10942292Y-14703322D01*
X10942292Y-14703322D02*
X10942292Y-14722369D01*
X10942292Y-14722369D02*
X10847053Y-14741417D01*
X11018482Y-14798560D02*
X11037530Y-14808084D01*
X11037530Y-14808084D02*
X11075625Y-14808084D01*
X11075625Y-14808084D02*
X11094673Y-14798560D01*
X11094673Y-14798560D02*
X11104196Y-14779512D01*
X11104196Y-14779512D02*
X11104196Y-14769988D01*
X11104196Y-14769988D02*
X11094673Y-14750941D01*
X11094673Y-14750941D02*
X11075625Y-14741417D01*
X11075625Y-14741417D02*
X11047053Y-14741417D01*
X11047053Y-14741417D02*
X11028006Y-14731893D01*
X11028006Y-14731893D02*
X11018482Y-14712846D01*
X11018482Y-14712846D02*
X11018482Y-14703322D01*
X11018482Y-14703322D02*
X11028006Y-14684274D01*
X11028006Y-14684274D02*
X11047053Y-14674750D01*
X11047053Y-14674750D02*
X11075625Y-14674750D01*
X11075625Y-14674750D02*
X11094673Y-14684274D01*
X11170863Y-14884274D02*
X11180387Y-14874750D01*
X11180387Y-14874750D02*
X11199434Y-14846179D01*
X11199434Y-14846179D02*
X11208958Y-14827131D01*
X11208958Y-14827131D02*
X11218482Y-14798560D01*
X11218482Y-14798560D02*
X11228006Y-14750941D01*
X11228006Y-14750941D02*
X11228006Y-14712846D01*
X11228006Y-14712846D02*
X11218482Y-14665227D01*
X11218482Y-14665227D02*
X11208958Y-14636655D01*
X11208958Y-14636655D02*
X11199434Y-14617608D01*
X11199434Y-14617608D02*
X11180387Y-14589036D01*
X11180387Y-14589036D02*
X11170863Y-14579512D01*
X11532768Y-14884274D02*
X11523244Y-14874750D01*
X11523244Y-14874750D02*
X11504196Y-14846179D01*
X11504196Y-14846179D02*
X11494672Y-14827131D01*
X11494672Y-14827131D02*
X11485149Y-14798560D01*
X11485149Y-14798560D02*
X11475625Y-14750941D01*
X11475625Y-14750941D02*
X11475625Y-14712846D01*
X11475625Y-14712846D02*
X11485149Y-14665227D01*
X11485149Y-14665227D02*
X11494672Y-14636655D01*
X11494672Y-14636655D02*
X11504196Y-14617608D01*
X11504196Y-14617608D02*
X11523244Y-14589036D01*
X11523244Y-14589036D02*
X11532768Y-14579512D01*
X11608958Y-14674750D02*
X11608958Y-14808084D01*
X11608958Y-14693798D02*
X11618482Y-14684274D01*
X11618482Y-14684274D02*
X11637530Y-14674750D01*
X11637530Y-14674750D02*
X11666101Y-14674750D01*
X11666101Y-14674750D02*
X11685149Y-14684274D01*
X11685149Y-14684274D02*
X11694672Y-14703322D01*
X11694672Y-14703322D02*
X11694672Y-14808084D01*
X11818482Y-14808084D02*
X11799434Y-14798560D01*
X11799434Y-14798560D02*
X11789911Y-14789036D01*
X11789911Y-14789036D02*
X11780387Y-14769988D01*
X11780387Y-14769988D02*
X11780387Y-14712846D01*
X11780387Y-14712846D02*
X11789911Y-14693798D01*
X11789911Y-14693798D02*
X11799434Y-14684274D01*
X11799434Y-14684274D02*
X11818482Y-14674750D01*
X11818482Y-14674750D02*
X11847053Y-14674750D01*
X11847053Y-14674750D02*
X11866101Y-14684274D01*
X11866101Y-14684274D02*
X11875625Y-14693798D01*
X11875625Y-14693798D02*
X11885149Y-14712846D01*
X11885149Y-14712846D02*
X11885149Y-14769988D01*
X11885149Y-14769988D02*
X11875625Y-14789036D01*
X11875625Y-14789036D02*
X11866101Y-14798560D01*
X11866101Y-14798560D02*
X11847053Y-14808084D01*
X11847053Y-14808084D02*
X11818482Y-14808084D01*
X11942292Y-14674750D02*
X12018482Y-14674750D01*
X11970863Y-14608084D02*
X11970863Y-14779512D01*
X11970863Y-14779512D02*
X11980387Y-14798560D01*
X11980387Y-14798560D02*
X11999434Y-14808084D01*
X11999434Y-14808084D02*
X12018482Y-14808084D01*
X12237530Y-14674750D02*
X12237530Y-14874750D01*
X12237530Y-14684274D02*
X12256577Y-14674750D01*
X12256577Y-14674750D02*
X12294673Y-14674750D01*
X12294673Y-14674750D02*
X12313720Y-14684274D01*
X12313720Y-14684274D02*
X12323244Y-14693798D01*
X12323244Y-14693798D02*
X12332768Y-14712846D01*
X12332768Y-14712846D02*
X12332768Y-14769988D01*
X12332768Y-14769988D02*
X12323244Y-14789036D01*
X12323244Y-14789036D02*
X12313720Y-14798560D01*
X12313720Y-14798560D02*
X12294673Y-14808084D01*
X12294673Y-14808084D02*
X12256577Y-14808084D01*
X12256577Y-14808084D02*
X12237530Y-14798560D01*
X12447053Y-14808084D02*
X12428006Y-14798560D01*
X12428006Y-14798560D02*
X12418482Y-14779512D01*
X12418482Y-14779512D02*
X12418482Y-14608084D01*
X12608958Y-14808084D02*
X12608958Y-14703322D01*
X12608958Y-14703322D02*
X12599434Y-14684274D01*
X12599434Y-14684274D02*
X12580387Y-14674750D01*
X12580387Y-14674750D02*
X12542292Y-14674750D01*
X12542292Y-14674750D02*
X12523244Y-14684274D01*
X12608958Y-14798560D02*
X12589911Y-14808084D01*
X12589911Y-14808084D02*
X12542292Y-14808084D01*
X12542292Y-14808084D02*
X12523244Y-14798560D01*
X12523244Y-14798560D02*
X12513720Y-14779512D01*
X12513720Y-14779512D02*
X12513720Y-14760465D01*
X12513720Y-14760465D02*
X12523244Y-14741417D01*
X12523244Y-14741417D02*
X12542292Y-14731893D01*
X12542292Y-14731893D02*
X12589911Y-14731893D01*
X12589911Y-14731893D02*
X12608958Y-14722369D01*
X12675625Y-14674750D02*
X12751815Y-14674750D01*
X12704196Y-14608084D02*
X12704196Y-14779512D01*
X12704196Y-14779512D02*
X12713720Y-14798560D01*
X12713720Y-14798560D02*
X12732768Y-14808084D01*
X12732768Y-14808084D02*
X12751815Y-14808084D01*
X12894673Y-14798560D02*
X12875625Y-14808084D01*
X12875625Y-14808084D02*
X12837530Y-14808084D01*
X12837530Y-14808084D02*
X12818482Y-14798560D01*
X12818482Y-14798560D02*
X12808958Y-14779512D01*
X12808958Y-14779512D02*
X12808958Y-14703322D01*
X12808958Y-14703322D02*
X12818482Y-14684274D01*
X12818482Y-14684274D02*
X12837530Y-14674750D01*
X12837530Y-14674750D02*
X12875625Y-14674750D01*
X12875625Y-14674750D02*
X12894673Y-14684274D01*
X12894673Y-14684274D02*
X12904196Y-14703322D01*
X12904196Y-14703322D02*
X12904196Y-14722369D01*
X12904196Y-14722369D02*
X12808958Y-14741417D01*
X13075625Y-14808084D02*
X13075625Y-14608084D01*
X13075625Y-14798560D02*
X13056577Y-14808084D01*
X13056577Y-14808084D02*
X13018482Y-14808084D01*
X13018482Y-14808084D02*
X12999434Y-14798560D01*
X12999434Y-14798560D02*
X12989911Y-14789036D01*
X12989911Y-14789036D02*
X12980387Y-14769988D01*
X12980387Y-14769988D02*
X12980387Y-14712846D01*
X12980387Y-14712846D02*
X12989911Y-14693798D01*
X12989911Y-14693798D02*
X12999434Y-14684274D01*
X12999434Y-14684274D02*
X13018482Y-14674750D01*
X13018482Y-14674750D02*
X13056577Y-14674750D01*
X13056577Y-14674750D02*
X13075625Y-14684274D01*
X13151815Y-14884274D02*
X13161339Y-14874750D01*
X13161339Y-14874750D02*
X13180387Y-14846179D01*
X13180387Y-14846179D02*
X13189911Y-14827131D01*
X13189911Y-14827131D02*
X13199434Y-14798560D01*
X13199434Y-14798560D02*
X13208958Y-14750941D01*
X13208958Y-14750941D02*
X13208958Y-14712846D01*
X13208958Y-14712846D02*
X13199434Y-14665227D01*
X13199434Y-14665227D02*
X13189911Y-14636655D01*
X13189911Y-14636655D02*
X13180387Y-14617608D01*
X13180387Y-14617608D02*
X13161339Y-14589036D01*
X13161339Y-14589036D02*
X13151815Y-14579512D01*
D13*
X6395800Y-14986600D02*
G75*
G03*
X6395800Y-14986600I-80000J0D01*
G01*
D11*
X6761339Y-15078084D02*
X6647053Y-15078084D01*
X6704196Y-15078084D02*
X6704196Y-14878084D01*
X6704196Y-14878084D02*
X6685148Y-14906655D01*
X6685148Y-14906655D02*
X6666101Y-14925703D01*
X6666101Y-14925703D02*
X6647053Y-14935227D01*
X6847053Y-15059036D02*
X6856577Y-15068560D01*
X6856577Y-15068560D02*
X6847053Y-15078084D01*
X6847053Y-15078084D02*
X6837529Y-15068560D01*
X6837529Y-15068560D02*
X6847053Y-15059036D01*
X6847053Y-15059036D02*
X6847053Y-15078084D01*
X7028005Y-14878084D02*
X6989910Y-14878084D01*
X6989910Y-14878084D02*
X6970862Y-14887608D01*
X6970862Y-14887608D02*
X6961339Y-14897131D01*
X6961339Y-14897131D02*
X6942291Y-14925703D01*
X6942291Y-14925703D02*
X6932767Y-14963798D01*
X6932767Y-14963798D02*
X6932767Y-15039988D01*
X6932767Y-15039988D02*
X6942291Y-15059036D01*
X6942291Y-15059036D02*
X6951815Y-15068560D01*
X6951815Y-15068560D02*
X6970862Y-15078084D01*
X6970862Y-15078084D02*
X7008958Y-15078084D01*
X7008958Y-15078084D02*
X7028005Y-15068560D01*
X7028005Y-15068560D02*
X7037529Y-15059036D01*
X7037529Y-15059036D02*
X7047053Y-15039988D01*
X7047053Y-15039988D02*
X7047053Y-14992369D01*
X7047053Y-14992369D02*
X7037529Y-14973322D01*
X7037529Y-14973322D02*
X7028005Y-14963798D01*
X7028005Y-14963798D02*
X7008958Y-14954274D01*
X7008958Y-14954274D02*
X6970862Y-14954274D01*
X6970862Y-14954274D02*
X6951815Y-14963798D01*
X6951815Y-14963798D02*
X6942291Y-14973322D01*
X6942291Y-14973322D02*
X6932767Y-14992369D01*
X7170862Y-14878084D02*
X7189910Y-14878084D01*
X7189910Y-14878084D02*
X7208958Y-14887608D01*
X7208958Y-14887608D02*
X7218482Y-14897131D01*
X7218482Y-14897131D02*
X7228005Y-14916179D01*
X7228005Y-14916179D02*
X7237529Y-14954274D01*
X7237529Y-14954274D02*
X7237529Y-15001893D01*
X7237529Y-15001893D02*
X7228005Y-15039988D01*
X7228005Y-15039988D02*
X7218482Y-15059036D01*
X7218482Y-15059036D02*
X7208958Y-15068560D01*
X7208958Y-15068560D02*
X7189910Y-15078084D01*
X7189910Y-15078084D02*
X7170862Y-15078084D01*
X7170862Y-15078084D02*
X7151815Y-15068560D01*
X7151815Y-15068560D02*
X7142291Y-15059036D01*
X7142291Y-15059036D02*
X7132767Y-15039988D01*
X7132767Y-15039988D02*
X7123243Y-15001893D01*
X7123243Y-15001893D02*
X7123243Y-14954274D01*
X7123243Y-14954274D02*
X7132767Y-14916179D01*
X7132767Y-14916179D02*
X7142291Y-14897131D01*
X7142291Y-14897131D02*
X7151815Y-14887608D01*
X7151815Y-14887608D02*
X7170862Y-14878084D01*
X7361339Y-14878084D02*
X7380386Y-14878084D01*
X7380386Y-14878084D02*
X7399434Y-14887608D01*
X7399434Y-14887608D02*
X7408958Y-14897131D01*
X7408958Y-14897131D02*
X7418482Y-14916179D01*
X7418482Y-14916179D02*
X7428005Y-14954274D01*
X7428005Y-14954274D02*
X7428005Y-15001893D01*
X7428005Y-15001893D02*
X7418482Y-15039988D01*
X7418482Y-15039988D02*
X7408958Y-15059036D01*
X7408958Y-15059036D02*
X7399434Y-15068560D01*
X7399434Y-15068560D02*
X7380386Y-15078084D01*
X7380386Y-15078084D02*
X7361339Y-15078084D01*
X7361339Y-15078084D02*
X7342291Y-15068560D01*
X7342291Y-15068560D02*
X7332767Y-15059036D01*
X7332767Y-15059036D02*
X7323243Y-15039988D01*
X7323243Y-15039988D02*
X7313720Y-15001893D01*
X7313720Y-15001893D02*
X7313720Y-14954274D01*
X7313720Y-14954274D02*
X7323243Y-14916179D01*
X7323243Y-14916179D02*
X7332767Y-14897131D01*
X7332767Y-14897131D02*
X7342291Y-14887608D01*
X7342291Y-14887608D02*
X7361339Y-14878084D01*
X7513720Y-15078084D02*
X7513720Y-14944750D01*
X7513720Y-14963798D02*
X7523243Y-14954274D01*
X7523243Y-14954274D02*
X7542291Y-14944750D01*
X7542291Y-14944750D02*
X7570863Y-14944750D01*
X7570863Y-14944750D02*
X7589910Y-14954274D01*
X7589910Y-14954274D02*
X7599434Y-14973322D01*
X7599434Y-14973322D02*
X7599434Y-15078084D01*
X7599434Y-14973322D02*
X7608958Y-14954274D01*
X7608958Y-14954274D02*
X7628005Y-14944750D01*
X7628005Y-14944750D02*
X7656577Y-14944750D01*
X7656577Y-14944750D02*
X7675624Y-14954274D01*
X7675624Y-14954274D02*
X7685148Y-14973322D01*
X7685148Y-14973322D02*
X7685148Y-15078084D01*
X7780386Y-15078084D02*
X7780386Y-14944750D01*
X7780386Y-14963798D02*
X7789910Y-14954274D01*
X7789910Y-14954274D02*
X7808958Y-14944750D01*
X7808958Y-14944750D02*
X7837529Y-14944750D01*
X7837529Y-14944750D02*
X7856577Y-14954274D01*
X7856577Y-14954274D02*
X7866101Y-14973322D01*
X7866101Y-14973322D02*
X7866101Y-15078084D01*
X7866101Y-14973322D02*
X7875624Y-14954274D01*
X7875624Y-14954274D02*
X7894672Y-14944750D01*
X7894672Y-14944750D02*
X7923243Y-14944750D01*
X7923243Y-14944750D02*
X7942291Y-14954274D01*
X7942291Y-14954274D02*
X7951815Y-14973322D01*
X7951815Y-14973322D02*
X7951815Y-15078084D01*
X8342291Y-14868560D02*
X8170863Y-15125703D01*
X8599434Y-14878084D02*
X8618482Y-14878084D01*
X8618482Y-14878084D02*
X8637529Y-14887608D01*
X8637529Y-14887608D02*
X8647053Y-14897131D01*
X8647053Y-14897131D02*
X8656577Y-14916179D01*
X8656577Y-14916179D02*
X8666101Y-14954274D01*
X8666101Y-14954274D02*
X8666101Y-15001893D01*
X8666101Y-15001893D02*
X8656577Y-15039988D01*
X8656577Y-15039988D02*
X8647053Y-15059036D01*
X8647053Y-15059036D02*
X8637529Y-15068560D01*
X8637529Y-15068560D02*
X8618482Y-15078084D01*
X8618482Y-15078084D02*
X8599434Y-15078084D01*
X8599434Y-15078084D02*
X8580387Y-15068560D01*
X8580387Y-15068560D02*
X8570863Y-15059036D01*
X8570863Y-15059036D02*
X8561339Y-15039988D01*
X8561339Y-15039988D02*
X8551815Y-15001893D01*
X8551815Y-15001893D02*
X8551815Y-14954274D01*
X8551815Y-14954274D02*
X8561339Y-14916179D01*
X8561339Y-14916179D02*
X8570863Y-14897131D01*
X8570863Y-14897131D02*
X8580387Y-14887608D01*
X8580387Y-14887608D02*
X8599434Y-14878084D01*
X8751815Y-15059036D02*
X8761339Y-15068560D01*
X8761339Y-15068560D02*
X8751815Y-15078084D01*
X8751815Y-15078084D02*
X8742291Y-15068560D01*
X8742291Y-15068560D02*
X8751815Y-15059036D01*
X8751815Y-15059036D02*
X8751815Y-15078084D01*
X8885148Y-14878084D02*
X8904196Y-14878084D01*
X8904196Y-14878084D02*
X8923244Y-14887608D01*
X8923244Y-14887608D02*
X8932768Y-14897131D01*
X8932768Y-14897131D02*
X8942291Y-14916179D01*
X8942291Y-14916179D02*
X8951815Y-14954274D01*
X8951815Y-14954274D02*
X8951815Y-15001893D01*
X8951815Y-15001893D02*
X8942291Y-15039988D01*
X8942291Y-15039988D02*
X8932768Y-15059036D01*
X8932768Y-15059036D02*
X8923244Y-15068560D01*
X8923244Y-15068560D02*
X8904196Y-15078084D01*
X8904196Y-15078084D02*
X8885148Y-15078084D01*
X8885148Y-15078084D02*
X8866101Y-15068560D01*
X8866101Y-15068560D02*
X8856577Y-15059036D01*
X8856577Y-15059036D02*
X8847053Y-15039988D01*
X8847053Y-15039988D02*
X8837529Y-15001893D01*
X8837529Y-15001893D02*
X8837529Y-14954274D01*
X8837529Y-14954274D02*
X8847053Y-14916179D01*
X8847053Y-14916179D02*
X8856577Y-14897131D01*
X8856577Y-14897131D02*
X8866101Y-14887608D01*
X8866101Y-14887608D02*
X8885148Y-14878084D01*
X9123244Y-14878084D02*
X9085148Y-14878084D01*
X9085148Y-14878084D02*
X9066101Y-14887608D01*
X9066101Y-14887608D02*
X9056577Y-14897131D01*
X9056577Y-14897131D02*
X9037529Y-14925703D01*
X9037529Y-14925703D02*
X9028006Y-14963798D01*
X9028006Y-14963798D02*
X9028006Y-15039988D01*
X9028006Y-15039988D02*
X9037529Y-15059036D01*
X9037529Y-15059036D02*
X9047053Y-15068560D01*
X9047053Y-15068560D02*
X9066101Y-15078084D01*
X9066101Y-15078084D02*
X9104196Y-15078084D01*
X9104196Y-15078084D02*
X9123244Y-15068560D01*
X9123244Y-15068560D02*
X9132768Y-15059036D01*
X9132768Y-15059036D02*
X9142291Y-15039988D01*
X9142291Y-15039988D02*
X9142291Y-14992369D01*
X9142291Y-14992369D02*
X9132768Y-14973322D01*
X9132768Y-14973322D02*
X9123244Y-14963798D01*
X9123244Y-14963798D02*
X9104196Y-14954274D01*
X9104196Y-14954274D02*
X9066101Y-14954274D01*
X9066101Y-14954274D02*
X9047053Y-14963798D01*
X9047053Y-14963798D02*
X9037529Y-14973322D01*
X9037529Y-14973322D02*
X9028006Y-14992369D01*
X9208958Y-14878084D02*
X9332768Y-14878084D01*
X9332768Y-14878084D02*
X9266101Y-14954274D01*
X9266101Y-14954274D02*
X9294672Y-14954274D01*
X9294672Y-14954274D02*
X9313720Y-14963798D01*
X9313720Y-14963798D02*
X9323244Y-14973322D01*
X9323244Y-14973322D02*
X9332768Y-14992369D01*
X9332768Y-14992369D02*
X9332768Y-15039988D01*
X9332768Y-15039988D02*
X9323244Y-15059036D01*
X9323244Y-15059036D02*
X9313720Y-15068560D01*
X9313720Y-15068560D02*
X9294672Y-15078084D01*
X9294672Y-15078084D02*
X9237529Y-15078084D01*
X9237529Y-15078084D02*
X9218482Y-15068560D01*
X9218482Y-15068560D02*
X9208958Y-15059036D01*
X9456577Y-14878084D02*
X9475625Y-14878084D01*
X9475625Y-14878084D02*
X9494672Y-14887608D01*
X9494672Y-14887608D02*
X9504196Y-14897131D01*
X9504196Y-14897131D02*
X9513720Y-14916179D01*
X9513720Y-14916179D02*
X9523244Y-14954274D01*
X9523244Y-14954274D02*
X9523244Y-15001893D01*
X9523244Y-15001893D02*
X9513720Y-15039988D01*
X9513720Y-15039988D02*
X9504196Y-15059036D01*
X9504196Y-15059036D02*
X9494672Y-15068560D01*
X9494672Y-15068560D02*
X9475625Y-15078084D01*
X9475625Y-15078084D02*
X9456577Y-15078084D01*
X9456577Y-15078084D02*
X9437529Y-15068560D01*
X9437529Y-15068560D02*
X9428006Y-15059036D01*
X9428006Y-15059036D02*
X9418482Y-15039988D01*
X9418482Y-15039988D02*
X9408958Y-15001893D01*
X9408958Y-15001893D02*
X9408958Y-14954274D01*
X9408958Y-14954274D02*
X9418482Y-14916179D01*
X9418482Y-14916179D02*
X9428006Y-14897131D01*
X9428006Y-14897131D02*
X9437529Y-14887608D01*
X9437529Y-14887608D02*
X9456577Y-14878084D01*
X9599434Y-14878084D02*
X9599434Y-14916179D01*
X9675625Y-14878084D02*
X9675625Y-14916179D01*
X9970863Y-15154274D02*
X9961339Y-15144750D01*
X9961339Y-15144750D02*
X9942291Y-15116179D01*
X9942291Y-15116179D02*
X9932768Y-15097131D01*
X9932768Y-15097131D02*
X9923244Y-15068560D01*
X9923244Y-15068560D02*
X9913720Y-15020941D01*
X9913720Y-15020941D02*
X9913720Y-14982846D01*
X9913720Y-14982846D02*
X9923244Y-14935227D01*
X9923244Y-14935227D02*
X9932768Y-14906655D01*
X9932768Y-14906655D02*
X9942291Y-14887608D01*
X9942291Y-14887608D02*
X9961339Y-14859036D01*
X9961339Y-14859036D02*
X9970863Y-14849512D01*
X10151815Y-15078084D02*
X10037530Y-15078084D01*
X10094672Y-15078084D02*
X10094672Y-14878084D01*
X10094672Y-14878084D02*
X10075625Y-14906655D01*
X10075625Y-14906655D02*
X10056577Y-14925703D01*
X10056577Y-14925703D02*
X10037530Y-14935227D01*
X10266101Y-14963798D02*
X10247053Y-14954274D01*
X10247053Y-14954274D02*
X10237530Y-14944750D01*
X10237530Y-14944750D02*
X10228006Y-14925703D01*
X10228006Y-14925703D02*
X10228006Y-14916179D01*
X10228006Y-14916179D02*
X10237530Y-14897131D01*
X10237530Y-14897131D02*
X10247053Y-14887608D01*
X10247053Y-14887608D02*
X10266101Y-14878084D01*
X10266101Y-14878084D02*
X10304196Y-14878084D01*
X10304196Y-14878084D02*
X10323244Y-14887608D01*
X10323244Y-14887608D02*
X10332768Y-14897131D01*
X10332768Y-14897131D02*
X10342291Y-14916179D01*
X10342291Y-14916179D02*
X10342291Y-14925703D01*
X10342291Y-14925703D02*
X10332768Y-14944750D01*
X10332768Y-14944750D02*
X10323244Y-14954274D01*
X10323244Y-14954274D02*
X10304196Y-14963798D01*
X10304196Y-14963798D02*
X10266101Y-14963798D01*
X10266101Y-14963798D02*
X10247053Y-14973322D01*
X10247053Y-14973322D02*
X10237530Y-14982846D01*
X10237530Y-14982846D02*
X10228006Y-15001893D01*
X10228006Y-15001893D02*
X10228006Y-15039988D01*
X10228006Y-15039988D02*
X10237530Y-15059036D01*
X10237530Y-15059036D02*
X10247053Y-15068560D01*
X10247053Y-15068560D02*
X10266101Y-15078084D01*
X10266101Y-15078084D02*
X10304196Y-15078084D01*
X10304196Y-15078084D02*
X10323244Y-15068560D01*
X10323244Y-15068560D02*
X10332768Y-15059036D01*
X10332768Y-15059036D02*
X10342291Y-15039988D01*
X10342291Y-15039988D02*
X10342291Y-15001893D01*
X10342291Y-15001893D02*
X10332768Y-14982846D01*
X10332768Y-14982846D02*
X10323244Y-14973322D01*
X10323244Y-14973322D02*
X10304196Y-14963798D01*
X10580387Y-15078084D02*
X10580387Y-14878084D01*
X10666101Y-15078084D02*
X10666101Y-14973322D01*
X10666101Y-14973322D02*
X10656577Y-14954274D01*
X10656577Y-14954274D02*
X10637530Y-14944750D01*
X10637530Y-14944750D02*
X10608958Y-14944750D01*
X10608958Y-14944750D02*
X10589911Y-14954274D01*
X10589911Y-14954274D02*
X10580387Y-14963798D01*
X10789911Y-15078084D02*
X10770863Y-15068560D01*
X10770863Y-15068560D02*
X10761339Y-15059036D01*
X10761339Y-15059036D02*
X10751815Y-15039988D01*
X10751815Y-15039988D02*
X10751815Y-14982846D01*
X10751815Y-14982846D02*
X10761339Y-14963798D01*
X10761339Y-14963798D02*
X10770863Y-14954274D01*
X10770863Y-14954274D02*
X10789911Y-14944750D01*
X10789911Y-14944750D02*
X10818482Y-14944750D01*
X10818482Y-14944750D02*
X10837530Y-14954274D01*
X10837530Y-14954274D02*
X10847053Y-14963798D01*
X10847053Y-14963798D02*
X10856577Y-14982846D01*
X10856577Y-14982846D02*
X10856577Y-15039988D01*
X10856577Y-15039988D02*
X10847053Y-15059036D01*
X10847053Y-15059036D02*
X10837530Y-15068560D01*
X10837530Y-15068560D02*
X10818482Y-15078084D01*
X10818482Y-15078084D02*
X10789911Y-15078084D01*
X10970863Y-15078084D02*
X10951815Y-15068560D01*
X10951815Y-15068560D02*
X10942292Y-15049512D01*
X10942292Y-15049512D02*
X10942292Y-14878084D01*
X11123244Y-15068560D02*
X11104196Y-15078084D01*
X11104196Y-15078084D02*
X11066101Y-15078084D01*
X11066101Y-15078084D02*
X11047053Y-15068560D01*
X11047053Y-15068560D02*
X11037530Y-15049512D01*
X11037530Y-15049512D02*
X11037530Y-14973322D01*
X11037530Y-14973322D02*
X11047053Y-14954274D01*
X11047053Y-14954274D02*
X11066101Y-14944750D01*
X11066101Y-14944750D02*
X11104196Y-14944750D01*
X11104196Y-14944750D02*
X11123244Y-14954274D01*
X11123244Y-14954274D02*
X11132768Y-14973322D01*
X11132768Y-14973322D02*
X11132768Y-14992369D01*
X11132768Y-14992369D02*
X11037530Y-15011417D01*
X11208958Y-15068560D02*
X11228006Y-15078084D01*
X11228006Y-15078084D02*
X11266101Y-15078084D01*
X11266101Y-15078084D02*
X11285149Y-15068560D01*
X11285149Y-15068560D02*
X11294672Y-15049512D01*
X11294672Y-15049512D02*
X11294672Y-15039988D01*
X11294672Y-15039988D02*
X11285149Y-15020941D01*
X11285149Y-15020941D02*
X11266101Y-15011417D01*
X11266101Y-15011417D02*
X11237530Y-15011417D01*
X11237530Y-15011417D02*
X11218482Y-15001893D01*
X11218482Y-15001893D02*
X11208958Y-14982846D01*
X11208958Y-14982846D02*
X11208958Y-14973322D01*
X11208958Y-14973322D02*
X11218482Y-14954274D01*
X11218482Y-14954274D02*
X11237530Y-14944750D01*
X11237530Y-14944750D02*
X11266101Y-14944750D01*
X11266101Y-14944750D02*
X11285149Y-14954274D01*
X11361339Y-15154274D02*
X11370863Y-15144750D01*
X11370863Y-15144750D02*
X11389911Y-15116179D01*
X11389911Y-15116179D02*
X11399434Y-15097131D01*
X11399434Y-15097131D02*
X11408958Y-15068560D01*
X11408958Y-15068560D02*
X11418482Y-15020941D01*
X11418482Y-15020941D02*
X11418482Y-14982846D01*
X11418482Y-14982846D02*
X11408958Y-14935227D01*
X11408958Y-14935227D02*
X11399434Y-14906655D01*
X11399434Y-14906655D02*
X11389911Y-14887608D01*
X11389911Y-14887608D02*
X11370863Y-14859036D01*
X11370863Y-14859036D02*
X11361339Y-14849512D01*
X11723244Y-15154274D02*
X11713720Y-15144750D01*
X11713720Y-15144750D02*
X11694672Y-15116179D01*
X11694672Y-15116179D02*
X11685149Y-15097131D01*
X11685149Y-15097131D02*
X11675625Y-15068560D01*
X11675625Y-15068560D02*
X11666101Y-15020941D01*
X11666101Y-15020941D02*
X11666101Y-14982846D01*
X11666101Y-14982846D02*
X11675625Y-14935227D01*
X11675625Y-14935227D02*
X11685149Y-14906655D01*
X11685149Y-14906655D02*
X11694672Y-14887608D01*
X11694672Y-14887608D02*
X11713720Y-14859036D01*
X11713720Y-14859036D02*
X11723244Y-14849512D01*
X11799434Y-14944750D02*
X11799434Y-15078084D01*
X11799434Y-14963798D02*
X11808958Y-14954274D01*
X11808958Y-14954274D02*
X11828006Y-14944750D01*
X11828006Y-14944750D02*
X11856577Y-14944750D01*
X11856577Y-14944750D02*
X11875625Y-14954274D01*
X11875625Y-14954274D02*
X11885149Y-14973322D01*
X11885149Y-14973322D02*
X11885149Y-15078084D01*
X12008958Y-15078084D02*
X11989911Y-15068560D01*
X11989911Y-15068560D02*
X11980387Y-15059036D01*
X11980387Y-15059036D02*
X11970863Y-15039988D01*
X11970863Y-15039988D02*
X11970863Y-14982846D01*
X11970863Y-14982846D02*
X11980387Y-14963798D01*
X11980387Y-14963798D02*
X11989911Y-14954274D01*
X11989911Y-14954274D02*
X12008958Y-14944750D01*
X12008958Y-14944750D02*
X12037530Y-14944750D01*
X12037530Y-14944750D02*
X12056577Y-14954274D01*
X12056577Y-14954274D02*
X12066101Y-14963798D01*
X12066101Y-14963798D02*
X12075625Y-14982846D01*
X12075625Y-14982846D02*
X12075625Y-15039988D01*
X12075625Y-15039988D02*
X12066101Y-15059036D01*
X12066101Y-15059036D02*
X12056577Y-15068560D01*
X12056577Y-15068560D02*
X12037530Y-15078084D01*
X12037530Y-15078084D02*
X12008958Y-15078084D01*
X12132768Y-14944750D02*
X12208958Y-14944750D01*
X12161339Y-14878084D02*
X12161339Y-15049512D01*
X12161339Y-15049512D02*
X12170863Y-15068560D01*
X12170863Y-15068560D02*
X12189911Y-15078084D01*
X12189911Y-15078084D02*
X12208958Y-15078084D01*
X12428006Y-14944750D02*
X12428006Y-15144750D01*
X12428006Y-14954274D02*
X12447053Y-14944750D01*
X12447053Y-14944750D02*
X12485149Y-14944750D01*
X12485149Y-14944750D02*
X12504196Y-14954274D01*
X12504196Y-14954274D02*
X12513720Y-14963798D01*
X12513720Y-14963798D02*
X12523244Y-14982846D01*
X12523244Y-14982846D02*
X12523244Y-15039988D01*
X12523244Y-15039988D02*
X12513720Y-15059036D01*
X12513720Y-15059036D02*
X12504196Y-15068560D01*
X12504196Y-15068560D02*
X12485149Y-15078084D01*
X12485149Y-15078084D02*
X12447053Y-15078084D01*
X12447053Y-15078084D02*
X12428006Y-15068560D01*
X12637530Y-15078084D02*
X12618482Y-15068560D01*
X12618482Y-15068560D02*
X12608958Y-15049512D01*
X12608958Y-15049512D02*
X12608958Y-14878084D01*
X12799434Y-15078084D02*
X12799434Y-14973322D01*
X12799434Y-14973322D02*
X12789911Y-14954274D01*
X12789911Y-14954274D02*
X12770863Y-14944750D01*
X12770863Y-14944750D02*
X12732768Y-14944750D01*
X12732768Y-14944750D02*
X12713720Y-14954274D01*
X12799434Y-15068560D02*
X12780387Y-15078084D01*
X12780387Y-15078084D02*
X12732768Y-15078084D01*
X12732768Y-15078084D02*
X12713720Y-15068560D01*
X12713720Y-15068560D02*
X12704196Y-15049512D01*
X12704196Y-15049512D02*
X12704196Y-15030465D01*
X12704196Y-15030465D02*
X12713720Y-15011417D01*
X12713720Y-15011417D02*
X12732768Y-15001893D01*
X12732768Y-15001893D02*
X12780387Y-15001893D01*
X12780387Y-15001893D02*
X12799434Y-14992369D01*
X12866101Y-14944750D02*
X12942292Y-14944750D01*
X12894673Y-14878084D02*
X12894673Y-15049512D01*
X12894673Y-15049512D02*
X12904196Y-15068560D01*
X12904196Y-15068560D02*
X12923244Y-15078084D01*
X12923244Y-15078084D02*
X12942292Y-15078084D01*
X13085149Y-15068560D02*
X13066101Y-15078084D01*
X13066101Y-15078084D02*
X13028006Y-15078084D01*
X13028006Y-15078084D02*
X13008958Y-15068560D01*
X13008958Y-15068560D02*
X12999434Y-15049512D01*
X12999434Y-15049512D02*
X12999434Y-14973322D01*
X12999434Y-14973322D02*
X13008958Y-14954274D01*
X13008958Y-14954274D02*
X13028006Y-14944750D01*
X13028006Y-14944750D02*
X13066101Y-14944750D01*
X13066101Y-14944750D02*
X13085149Y-14954274D01*
X13085149Y-14954274D02*
X13094673Y-14973322D01*
X13094673Y-14973322D02*
X13094673Y-14992369D01*
X13094673Y-14992369D02*
X12999434Y-15011417D01*
X13266101Y-15078084D02*
X13266101Y-14878084D01*
X13266101Y-15068560D02*
X13247054Y-15078084D01*
X13247054Y-15078084D02*
X13208958Y-15078084D01*
X13208958Y-15078084D02*
X13189911Y-15068560D01*
X13189911Y-15068560D02*
X13180387Y-15059036D01*
X13180387Y-15059036D02*
X13170863Y-15039988D01*
X13170863Y-15039988D02*
X13170863Y-14982846D01*
X13170863Y-14982846D02*
X13180387Y-14963798D01*
X13180387Y-14963798D02*
X13189911Y-14954274D01*
X13189911Y-14954274D02*
X13208958Y-14944750D01*
X13208958Y-14944750D02*
X13247054Y-14944750D01*
X13247054Y-14944750D02*
X13266101Y-14954274D01*
X13342292Y-15154274D02*
X13351815Y-15144750D01*
X13351815Y-15144750D02*
X13370863Y-15116179D01*
X13370863Y-15116179D02*
X13380387Y-15097131D01*
X13380387Y-15097131D02*
X13389911Y-15068560D01*
X13389911Y-15068560D02*
X13399434Y-15020941D01*
X13399434Y-15020941D02*
X13399434Y-14982846D01*
X13399434Y-14982846D02*
X13389911Y-14935227D01*
X13389911Y-14935227D02*
X13380387Y-14906655D01*
X13380387Y-14906655D02*
X13370863Y-14887608D01*
X13370863Y-14887608D02*
X13351815Y-14859036D01*
X13351815Y-14859036D02*
X13342292Y-14849512D01*
D14*
X6305800Y-15176600D02*
X6305800Y-15356600D01*
X6215800Y-15266600D02*
X6395800Y-15266600D01*
D11*
X6761339Y-15358084D02*
X6647053Y-15358084D01*
X6704196Y-15358084D02*
X6704196Y-15158084D01*
X6704196Y-15158084D02*
X6685148Y-15186655D01*
X6685148Y-15186655D02*
X6666101Y-15205703D01*
X6666101Y-15205703D02*
X6647053Y-15215227D01*
X6847053Y-15339036D02*
X6856577Y-15348560D01*
X6856577Y-15348560D02*
X6847053Y-15358084D01*
X6847053Y-15358084D02*
X6837529Y-15348560D01*
X6837529Y-15348560D02*
X6847053Y-15339036D01*
X6847053Y-15339036D02*
X6847053Y-15358084D01*
X6970862Y-15243798D02*
X6951815Y-15234274D01*
X6951815Y-15234274D02*
X6942291Y-15224750D01*
X6942291Y-15224750D02*
X6932767Y-15205703D01*
X6932767Y-15205703D02*
X6932767Y-15196179D01*
X6932767Y-15196179D02*
X6942291Y-15177131D01*
X6942291Y-15177131D02*
X6951815Y-15167608D01*
X6951815Y-15167608D02*
X6970862Y-15158084D01*
X6970862Y-15158084D02*
X7008958Y-15158084D01*
X7008958Y-15158084D02*
X7028005Y-15167608D01*
X7028005Y-15167608D02*
X7037529Y-15177131D01*
X7037529Y-15177131D02*
X7047053Y-15196179D01*
X7047053Y-15196179D02*
X7047053Y-15205703D01*
X7047053Y-15205703D02*
X7037529Y-15224750D01*
X7037529Y-15224750D02*
X7028005Y-15234274D01*
X7028005Y-15234274D02*
X7008958Y-15243798D01*
X7008958Y-15243798D02*
X6970862Y-15243798D01*
X6970862Y-15243798D02*
X6951815Y-15253322D01*
X6951815Y-15253322D02*
X6942291Y-15262846D01*
X6942291Y-15262846D02*
X6932767Y-15281893D01*
X6932767Y-15281893D02*
X6932767Y-15319988D01*
X6932767Y-15319988D02*
X6942291Y-15339036D01*
X6942291Y-15339036D02*
X6951815Y-15348560D01*
X6951815Y-15348560D02*
X6970862Y-15358084D01*
X6970862Y-15358084D02*
X7008958Y-15358084D01*
X7008958Y-15358084D02*
X7028005Y-15348560D01*
X7028005Y-15348560D02*
X7037529Y-15339036D01*
X7037529Y-15339036D02*
X7047053Y-15319988D01*
X7047053Y-15319988D02*
X7047053Y-15281893D01*
X7047053Y-15281893D02*
X7037529Y-15262846D01*
X7037529Y-15262846D02*
X7028005Y-15253322D01*
X7028005Y-15253322D02*
X7008958Y-15243798D01*
X7170862Y-15158084D02*
X7189910Y-15158084D01*
X7189910Y-15158084D02*
X7208958Y-15167608D01*
X7208958Y-15167608D02*
X7218482Y-15177131D01*
X7218482Y-15177131D02*
X7228005Y-15196179D01*
X7228005Y-15196179D02*
X7237529Y-15234274D01*
X7237529Y-15234274D02*
X7237529Y-15281893D01*
X7237529Y-15281893D02*
X7228005Y-15319988D01*
X7228005Y-15319988D02*
X7218482Y-15339036D01*
X7218482Y-15339036D02*
X7208958Y-15348560D01*
X7208958Y-15348560D02*
X7189910Y-15358084D01*
X7189910Y-15358084D02*
X7170862Y-15358084D01*
X7170862Y-15358084D02*
X7151815Y-15348560D01*
X7151815Y-15348560D02*
X7142291Y-15339036D01*
X7142291Y-15339036D02*
X7132767Y-15319988D01*
X7132767Y-15319988D02*
X7123243Y-15281893D01*
X7123243Y-15281893D02*
X7123243Y-15234274D01*
X7123243Y-15234274D02*
X7132767Y-15196179D01*
X7132767Y-15196179D02*
X7142291Y-15177131D01*
X7142291Y-15177131D02*
X7151815Y-15167608D01*
X7151815Y-15167608D02*
X7170862Y-15158084D01*
X7361339Y-15158084D02*
X7380386Y-15158084D01*
X7380386Y-15158084D02*
X7399434Y-15167608D01*
X7399434Y-15167608D02*
X7408958Y-15177131D01*
X7408958Y-15177131D02*
X7418482Y-15196179D01*
X7418482Y-15196179D02*
X7428005Y-15234274D01*
X7428005Y-15234274D02*
X7428005Y-15281893D01*
X7428005Y-15281893D02*
X7418482Y-15319988D01*
X7418482Y-15319988D02*
X7408958Y-15339036D01*
X7408958Y-15339036D02*
X7399434Y-15348560D01*
X7399434Y-15348560D02*
X7380386Y-15358084D01*
X7380386Y-15358084D02*
X7361339Y-15358084D01*
X7361339Y-15358084D02*
X7342291Y-15348560D01*
X7342291Y-15348560D02*
X7332767Y-15339036D01*
X7332767Y-15339036D02*
X7323243Y-15319988D01*
X7323243Y-15319988D02*
X7313720Y-15281893D01*
X7313720Y-15281893D02*
X7313720Y-15234274D01*
X7313720Y-15234274D02*
X7323243Y-15196179D01*
X7323243Y-15196179D02*
X7332767Y-15177131D01*
X7332767Y-15177131D02*
X7342291Y-15167608D01*
X7342291Y-15167608D02*
X7361339Y-15158084D01*
X7513720Y-15358084D02*
X7513720Y-15224750D01*
X7513720Y-15243798D02*
X7523243Y-15234274D01*
X7523243Y-15234274D02*
X7542291Y-15224750D01*
X7542291Y-15224750D02*
X7570863Y-15224750D01*
X7570863Y-15224750D02*
X7589910Y-15234274D01*
X7589910Y-15234274D02*
X7599434Y-15253322D01*
X7599434Y-15253322D02*
X7599434Y-15358084D01*
X7599434Y-15253322D02*
X7608958Y-15234274D01*
X7608958Y-15234274D02*
X7628005Y-15224750D01*
X7628005Y-15224750D02*
X7656577Y-15224750D01*
X7656577Y-15224750D02*
X7675624Y-15234274D01*
X7675624Y-15234274D02*
X7685148Y-15253322D01*
X7685148Y-15253322D02*
X7685148Y-15358084D01*
X7780386Y-15358084D02*
X7780386Y-15224750D01*
X7780386Y-15243798D02*
X7789910Y-15234274D01*
X7789910Y-15234274D02*
X7808958Y-15224750D01*
X7808958Y-15224750D02*
X7837529Y-15224750D01*
X7837529Y-15224750D02*
X7856577Y-15234274D01*
X7856577Y-15234274D02*
X7866101Y-15253322D01*
X7866101Y-15253322D02*
X7866101Y-15358084D01*
X7866101Y-15253322D02*
X7875624Y-15234274D01*
X7875624Y-15234274D02*
X7894672Y-15224750D01*
X7894672Y-15224750D02*
X7923243Y-15224750D01*
X7923243Y-15224750D02*
X7942291Y-15234274D01*
X7942291Y-15234274D02*
X7951815Y-15253322D01*
X7951815Y-15253322D02*
X7951815Y-15358084D01*
X8342291Y-15148560D02*
X8170863Y-15405703D01*
X8599434Y-15158084D02*
X8618482Y-15158084D01*
X8618482Y-15158084D02*
X8637529Y-15167608D01*
X8637529Y-15167608D02*
X8647053Y-15177131D01*
X8647053Y-15177131D02*
X8656577Y-15196179D01*
X8656577Y-15196179D02*
X8666101Y-15234274D01*
X8666101Y-15234274D02*
X8666101Y-15281893D01*
X8666101Y-15281893D02*
X8656577Y-15319988D01*
X8656577Y-15319988D02*
X8647053Y-15339036D01*
X8647053Y-15339036D02*
X8637529Y-15348560D01*
X8637529Y-15348560D02*
X8618482Y-15358084D01*
X8618482Y-15358084D02*
X8599434Y-15358084D01*
X8599434Y-15358084D02*
X8580387Y-15348560D01*
X8580387Y-15348560D02*
X8570863Y-15339036D01*
X8570863Y-15339036D02*
X8561339Y-15319988D01*
X8561339Y-15319988D02*
X8551815Y-15281893D01*
X8551815Y-15281893D02*
X8551815Y-15234274D01*
X8551815Y-15234274D02*
X8561339Y-15196179D01*
X8561339Y-15196179D02*
X8570863Y-15177131D01*
X8570863Y-15177131D02*
X8580387Y-15167608D01*
X8580387Y-15167608D02*
X8599434Y-15158084D01*
X8751815Y-15339036D02*
X8761339Y-15348560D01*
X8761339Y-15348560D02*
X8751815Y-15358084D01*
X8751815Y-15358084D02*
X8742291Y-15348560D01*
X8742291Y-15348560D02*
X8751815Y-15339036D01*
X8751815Y-15339036D02*
X8751815Y-15358084D01*
X8885148Y-15158084D02*
X8904196Y-15158084D01*
X8904196Y-15158084D02*
X8923244Y-15167608D01*
X8923244Y-15167608D02*
X8932768Y-15177131D01*
X8932768Y-15177131D02*
X8942291Y-15196179D01*
X8942291Y-15196179D02*
X8951815Y-15234274D01*
X8951815Y-15234274D02*
X8951815Y-15281893D01*
X8951815Y-15281893D02*
X8942291Y-15319988D01*
X8942291Y-15319988D02*
X8932768Y-15339036D01*
X8932768Y-15339036D02*
X8923244Y-15348560D01*
X8923244Y-15348560D02*
X8904196Y-15358084D01*
X8904196Y-15358084D02*
X8885148Y-15358084D01*
X8885148Y-15358084D02*
X8866101Y-15348560D01*
X8866101Y-15348560D02*
X8856577Y-15339036D01*
X8856577Y-15339036D02*
X8847053Y-15319988D01*
X8847053Y-15319988D02*
X8837529Y-15281893D01*
X8837529Y-15281893D02*
X8837529Y-15234274D01*
X8837529Y-15234274D02*
X8847053Y-15196179D01*
X8847053Y-15196179D02*
X8856577Y-15177131D01*
X8856577Y-15177131D02*
X8866101Y-15167608D01*
X8866101Y-15167608D02*
X8885148Y-15158084D01*
X9018482Y-15158084D02*
X9151815Y-15158084D01*
X9151815Y-15158084D02*
X9066101Y-15358084D01*
X9266101Y-15158084D02*
X9285149Y-15158084D01*
X9285149Y-15158084D02*
X9304196Y-15167608D01*
X9304196Y-15167608D02*
X9313720Y-15177131D01*
X9313720Y-15177131D02*
X9323244Y-15196179D01*
X9323244Y-15196179D02*
X9332768Y-15234274D01*
X9332768Y-15234274D02*
X9332768Y-15281893D01*
X9332768Y-15281893D02*
X9323244Y-15319988D01*
X9323244Y-15319988D02*
X9313720Y-15339036D01*
X9313720Y-15339036D02*
X9304196Y-15348560D01*
X9304196Y-15348560D02*
X9285149Y-15358084D01*
X9285149Y-15358084D02*
X9266101Y-15358084D01*
X9266101Y-15358084D02*
X9247053Y-15348560D01*
X9247053Y-15348560D02*
X9237529Y-15339036D01*
X9237529Y-15339036D02*
X9228006Y-15319988D01*
X9228006Y-15319988D02*
X9218482Y-15281893D01*
X9218482Y-15281893D02*
X9218482Y-15234274D01*
X9218482Y-15234274D02*
X9228006Y-15196179D01*
X9228006Y-15196179D02*
X9237529Y-15177131D01*
X9237529Y-15177131D02*
X9247053Y-15167608D01*
X9247053Y-15167608D02*
X9266101Y-15158084D01*
X9428006Y-15358084D02*
X9466101Y-15358084D01*
X9466101Y-15358084D02*
X9485149Y-15348560D01*
X9485149Y-15348560D02*
X9494672Y-15339036D01*
X9494672Y-15339036D02*
X9513720Y-15310465D01*
X9513720Y-15310465D02*
X9523244Y-15272369D01*
X9523244Y-15272369D02*
X9523244Y-15196179D01*
X9523244Y-15196179D02*
X9513720Y-15177131D01*
X9513720Y-15177131D02*
X9504196Y-15167608D01*
X9504196Y-15167608D02*
X9485149Y-15158084D01*
X9485149Y-15158084D02*
X9447053Y-15158084D01*
X9447053Y-15158084D02*
X9428006Y-15167608D01*
X9428006Y-15167608D02*
X9418482Y-15177131D01*
X9418482Y-15177131D02*
X9408958Y-15196179D01*
X9408958Y-15196179D02*
X9408958Y-15243798D01*
X9408958Y-15243798D02*
X9418482Y-15262846D01*
X9418482Y-15262846D02*
X9428006Y-15272369D01*
X9428006Y-15272369D02*
X9447053Y-15281893D01*
X9447053Y-15281893D02*
X9485149Y-15281893D01*
X9485149Y-15281893D02*
X9504196Y-15272369D01*
X9504196Y-15272369D02*
X9513720Y-15262846D01*
X9513720Y-15262846D02*
X9523244Y-15243798D01*
X9599434Y-15158084D02*
X9599434Y-15196179D01*
X9675625Y-15158084D02*
X9675625Y-15196179D01*
X9970863Y-15434274D02*
X9961339Y-15424750D01*
X9961339Y-15424750D02*
X9942291Y-15396179D01*
X9942291Y-15396179D02*
X9932768Y-15377131D01*
X9932768Y-15377131D02*
X9923244Y-15348560D01*
X9923244Y-15348560D02*
X9913720Y-15300941D01*
X9913720Y-15300941D02*
X9913720Y-15262846D01*
X9913720Y-15262846D02*
X9923244Y-15215227D01*
X9923244Y-15215227D02*
X9932768Y-15186655D01*
X9932768Y-15186655D02*
X9942291Y-15167608D01*
X9942291Y-15167608D02*
X9961339Y-15139036D01*
X9961339Y-15139036D02*
X9970863Y-15129512D01*
X10037530Y-15177131D02*
X10047053Y-15167608D01*
X10047053Y-15167608D02*
X10066101Y-15158084D01*
X10066101Y-15158084D02*
X10113720Y-15158084D01*
X10113720Y-15158084D02*
X10132768Y-15167608D01*
X10132768Y-15167608D02*
X10142291Y-15177131D01*
X10142291Y-15177131D02*
X10151815Y-15196179D01*
X10151815Y-15196179D02*
X10151815Y-15215227D01*
X10151815Y-15215227D02*
X10142291Y-15243798D01*
X10142291Y-15243798D02*
X10028006Y-15358084D01*
X10028006Y-15358084D02*
X10151815Y-15358084D01*
X10389911Y-15358084D02*
X10389911Y-15158084D01*
X10475625Y-15358084D02*
X10475625Y-15253322D01*
X10475625Y-15253322D02*
X10466101Y-15234274D01*
X10466101Y-15234274D02*
X10447053Y-15224750D01*
X10447053Y-15224750D02*
X10418482Y-15224750D01*
X10418482Y-15224750D02*
X10399434Y-15234274D01*
X10399434Y-15234274D02*
X10389911Y-15243798D01*
X10599434Y-15358084D02*
X10580387Y-15348560D01*
X10580387Y-15348560D02*
X10570863Y-15339036D01*
X10570863Y-15339036D02*
X10561339Y-15319988D01*
X10561339Y-15319988D02*
X10561339Y-15262846D01*
X10561339Y-15262846D02*
X10570863Y-15243798D01*
X10570863Y-15243798D02*
X10580387Y-15234274D01*
X10580387Y-15234274D02*
X10599434Y-15224750D01*
X10599434Y-15224750D02*
X10628006Y-15224750D01*
X10628006Y-15224750D02*
X10647053Y-15234274D01*
X10647053Y-15234274D02*
X10656577Y-15243798D01*
X10656577Y-15243798D02*
X10666101Y-15262846D01*
X10666101Y-15262846D02*
X10666101Y-15319988D01*
X10666101Y-15319988D02*
X10656577Y-15339036D01*
X10656577Y-15339036D02*
X10647053Y-15348560D01*
X10647053Y-15348560D02*
X10628006Y-15358084D01*
X10628006Y-15358084D02*
X10599434Y-15358084D01*
X10780387Y-15358084D02*
X10761339Y-15348560D01*
X10761339Y-15348560D02*
X10751815Y-15329512D01*
X10751815Y-15329512D02*
X10751815Y-15158084D01*
X10932768Y-15348560D02*
X10913720Y-15358084D01*
X10913720Y-15358084D02*
X10875625Y-15358084D01*
X10875625Y-15358084D02*
X10856577Y-15348560D01*
X10856577Y-15348560D02*
X10847053Y-15329512D01*
X10847053Y-15329512D02*
X10847053Y-15253322D01*
X10847053Y-15253322D02*
X10856577Y-15234274D01*
X10856577Y-15234274D02*
X10875625Y-15224750D01*
X10875625Y-15224750D02*
X10913720Y-15224750D01*
X10913720Y-15224750D02*
X10932768Y-15234274D01*
X10932768Y-15234274D02*
X10942292Y-15253322D01*
X10942292Y-15253322D02*
X10942292Y-15272369D01*
X10942292Y-15272369D02*
X10847053Y-15291417D01*
X11018482Y-15348560D02*
X11037530Y-15358084D01*
X11037530Y-15358084D02*
X11075625Y-15358084D01*
X11075625Y-15358084D02*
X11094673Y-15348560D01*
X11094673Y-15348560D02*
X11104196Y-15329512D01*
X11104196Y-15329512D02*
X11104196Y-15319988D01*
X11104196Y-15319988D02*
X11094673Y-15300941D01*
X11094673Y-15300941D02*
X11075625Y-15291417D01*
X11075625Y-15291417D02*
X11047053Y-15291417D01*
X11047053Y-15291417D02*
X11028006Y-15281893D01*
X11028006Y-15281893D02*
X11018482Y-15262846D01*
X11018482Y-15262846D02*
X11018482Y-15253322D01*
X11018482Y-15253322D02*
X11028006Y-15234274D01*
X11028006Y-15234274D02*
X11047053Y-15224750D01*
X11047053Y-15224750D02*
X11075625Y-15224750D01*
X11075625Y-15224750D02*
X11094673Y-15234274D01*
X11170863Y-15434274D02*
X11180387Y-15424750D01*
X11180387Y-15424750D02*
X11199434Y-15396179D01*
X11199434Y-15396179D02*
X11208958Y-15377131D01*
X11208958Y-15377131D02*
X11218482Y-15348560D01*
X11218482Y-15348560D02*
X11228006Y-15300941D01*
X11228006Y-15300941D02*
X11228006Y-15262846D01*
X11228006Y-15262846D02*
X11218482Y-15215227D01*
X11218482Y-15215227D02*
X11208958Y-15186655D01*
X11208958Y-15186655D02*
X11199434Y-15167608D01*
X11199434Y-15167608D02*
X11180387Y-15139036D01*
X11180387Y-15139036D02*
X11170863Y-15129512D01*
X11532768Y-15434274D02*
X11523244Y-15424750D01*
X11523244Y-15424750D02*
X11504196Y-15396179D01*
X11504196Y-15396179D02*
X11494672Y-15377131D01*
X11494672Y-15377131D02*
X11485149Y-15348560D01*
X11485149Y-15348560D02*
X11475625Y-15300941D01*
X11475625Y-15300941D02*
X11475625Y-15262846D01*
X11475625Y-15262846D02*
X11485149Y-15215227D01*
X11485149Y-15215227D02*
X11494672Y-15186655D01*
X11494672Y-15186655D02*
X11504196Y-15167608D01*
X11504196Y-15167608D02*
X11523244Y-15139036D01*
X11523244Y-15139036D02*
X11532768Y-15129512D01*
X11608958Y-15224750D02*
X11608958Y-15358084D01*
X11608958Y-15243798D02*
X11618482Y-15234274D01*
X11618482Y-15234274D02*
X11637530Y-15224750D01*
X11637530Y-15224750D02*
X11666101Y-15224750D01*
X11666101Y-15224750D02*
X11685149Y-15234274D01*
X11685149Y-15234274D02*
X11694672Y-15253322D01*
X11694672Y-15253322D02*
X11694672Y-15358084D01*
X11818482Y-15358084D02*
X11799434Y-15348560D01*
X11799434Y-15348560D02*
X11789911Y-15339036D01*
X11789911Y-15339036D02*
X11780387Y-15319988D01*
X11780387Y-15319988D02*
X11780387Y-15262846D01*
X11780387Y-15262846D02*
X11789911Y-15243798D01*
X11789911Y-15243798D02*
X11799434Y-15234274D01*
X11799434Y-15234274D02*
X11818482Y-15224750D01*
X11818482Y-15224750D02*
X11847053Y-15224750D01*
X11847053Y-15224750D02*
X11866101Y-15234274D01*
X11866101Y-15234274D02*
X11875625Y-15243798D01*
X11875625Y-15243798D02*
X11885149Y-15262846D01*
X11885149Y-15262846D02*
X11885149Y-15319988D01*
X11885149Y-15319988D02*
X11875625Y-15339036D01*
X11875625Y-15339036D02*
X11866101Y-15348560D01*
X11866101Y-15348560D02*
X11847053Y-15358084D01*
X11847053Y-15358084D02*
X11818482Y-15358084D01*
X11942292Y-15224750D02*
X12018482Y-15224750D01*
X11970863Y-15158084D02*
X11970863Y-15329512D01*
X11970863Y-15329512D02*
X11980387Y-15348560D01*
X11980387Y-15348560D02*
X11999434Y-15358084D01*
X11999434Y-15358084D02*
X12018482Y-15358084D01*
X12237530Y-15224750D02*
X12237530Y-15424750D01*
X12237530Y-15234274D02*
X12256577Y-15224750D01*
X12256577Y-15224750D02*
X12294673Y-15224750D01*
X12294673Y-15224750D02*
X12313720Y-15234274D01*
X12313720Y-15234274D02*
X12323244Y-15243798D01*
X12323244Y-15243798D02*
X12332768Y-15262846D01*
X12332768Y-15262846D02*
X12332768Y-15319988D01*
X12332768Y-15319988D02*
X12323244Y-15339036D01*
X12323244Y-15339036D02*
X12313720Y-15348560D01*
X12313720Y-15348560D02*
X12294673Y-15358084D01*
X12294673Y-15358084D02*
X12256577Y-15358084D01*
X12256577Y-15358084D02*
X12237530Y-15348560D01*
X12447053Y-15358084D02*
X12428006Y-15348560D01*
X12428006Y-15348560D02*
X12418482Y-15329512D01*
X12418482Y-15329512D02*
X12418482Y-15158084D01*
X12608958Y-15358084D02*
X12608958Y-15253322D01*
X12608958Y-15253322D02*
X12599434Y-15234274D01*
X12599434Y-15234274D02*
X12580387Y-15224750D01*
X12580387Y-15224750D02*
X12542292Y-15224750D01*
X12542292Y-15224750D02*
X12523244Y-15234274D01*
X12608958Y-15348560D02*
X12589911Y-15358084D01*
X12589911Y-15358084D02*
X12542292Y-15358084D01*
X12542292Y-15358084D02*
X12523244Y-15348560D01*
X12523244Y-15348560D02*
X12513720Y-15329512D01*
X12513720Y-15329512D02*
X12513720Y-15310465D01*
X12513720Y-15310465D02*
X12523244Y-15291417D01*
X12523244Y-15291417D02*
X12542292Y-15281893D01*
X12542292Y-15281893D02*
X12589911Y-15281893D01*
X12589911Y-15281893D02*
X12608958Y-15272369D01*
X12675625Y-15224750D02*
X12751815Y-15224750D01*
X12704196Y-15158084D02*
X12704196Y-15329512D01*
X12704196Y-15329512D02*
X12713720Y-15348560D01*
X12713720Y-15348560D02*
X12732768Y-15358084D01*
X12732768Y-15358084D02*
X12751815Y-15358084D01*
X12894673Y-15348560D02*
X12875625Y-15358084D01*
X12875625Y-15358084D02*
X12837530Y-15358084D01*
X12837530Y-15358084D02*
X12818482Y-15348560D01*
X12818482Y-15348560D02*
X12808958Y-15329512D01*
X12808958Y-15329512D02*
X12808958Y-15253322D01*
X12808958Y-15253322D02*
X12818482Y-15234274D01*
X12818482Y-15234274D02*
X12837530Y-15224750D01*
X12837530Y-15224750D02*
X12875625Y-15224750D01*
X12875625Y-15224750D02*
X12894673Y-15234274D01*
X12894673Y-15234274D02*
X12904196Y-15253322D01*
X12904196Y-15253322D02*
X12904196Y-15272369D01*
X12904196Y-15272369D02*
X12808958Y-15291417D01*
X13075625Y-15358084D02*
X13075625Y-15158084D01*
X13075625Y-15348560D02*
X13056577Y-15358084D01*
X13056577Y-15358084D02*
X13018482Y-15358084D01*
X13018482Y-15358084D02*
X12999434Y-15348560D01*
X12999434Y-15348560D02*
X12989911Y-15339036D01*
X12989911Y-15339036D02*
X12980387Y-15319988D01*
X12980387Y-15319988D02*
X12980387Y-15262846D01*
X12980387Y-15262846D02*
X12989911Y-15243798D01*
X12989911Y-15243798D02*
X12999434Y-15234274D01*
X12999434Y-15234274D02*
X13018482Y-15224750D01*
X13018482Y-15224750D02*
X13056577Y-15224750D01*
X13056577Y-15224750D02*
X13075625Y-15234274D01*
X13151815Y-15434274D02*
X13161339Y-15424750D01*
X13161339Y-15424750D02*
X13180387Y-15396179D01*
X13180387Y-15396179D02*
X13189911Y-15377131D01*
X13189911Y-15377131D02*
X13199434Y-15348560D01*
X13199434Y-15348560D02*
X13208958Y-15300941D01*
X13208958Y-15300941D02*
X13208958Y-15262846D01*
X13208958Y-15262846D02*
X13199434Y-15215227D01*
X13199434Y-15215227D02*
X13189911Y-15186655D01*
X13189911Y-15186655D02*
X13180387Y-15167608D01*
X13180387Y-15167608D02*
X13161339Y-15139036D01*
X13161339Y-15139036D02*
X13151815Y-15129512D01*
D15*
X6367976Y-15633776D02*
X6367976Y-15499424D01*
X6233624Y-15499424D01*
X6233624Y-15633776D01*
X6367976Y-15633776D01*
D11*
X6761339Y-15658084D02*
X6647053Y-15658084D01*
X6704196Y-15658084D02*
X6704196Y-15458084D01*
X6704196Y-15458084D02*
X6685148Y-15486655D01*
X6685148Y-15486655D02*
X6666101Y-15505703D01*
X6666101Y-15505703D02*
X6647053Y-15515227D01*
X6847053Y-15639036D02*
X6856577Y-15648560D01*
X6856577Y-15648560D02*
X6847053Y-15658084D01*
X6847053Y-15658084D02*
X6837529Y-15648560D01*
X6837529Y-15648560D02*
X6847053Y-15639036D01*
X6847053Y-15639036D02*
X6847053Y-15658084D01*
X6951815Y-15658084D02*
X6989910Y-15658084D01*
X6989910Y-15658084D02*
X7008958Y-15648560D01*
X7008958Y-15648560D02*
X7018482Y-15639036D01*
X7018482Y-15639036D02*
X7037529Y-15610465D01*
X7037529Y-15610465D02*
X7047053Y-15572369D01*
X7047053Y-15572369D02*
X7047053Y-15496179D01*
X7047053Y-15496179D02*
X7037529Y-15477131D01*
X7037529Y-15477131D02*
X7028005Y-15467608D01*
X7028005Y-15467608D02*
X7008958Y-15458084D01*
X7008958Y-15458084D02*
X6970862Y-15458084D01*
X6970862Y-15458084D02*
X6951815Y-15467608D01*
X6951815Y-15467608D02*
X6942291Y-15477131D01*
X6942291Y-15477131D02*
X6932767Y-15496179D01*
X6932767Y-15496179D02*
X6932767Y-15543798D01*
X6932767Y-15543798D02*
X6942291Y-15562846D01*
X6942291Y-15562846D02*
X6951815Y-15572369D01*
X6951815Y-15572369D02*
X6970862Y-15581893D01*
X6970862Y-15581893D02*
X7008958Y-15581893D01*
X7008958Y-15581893D02*
X7028005Y-15572369D01*
X7028005Y-15572369D02*
X7037529Y-15562846D01*
X7037529Y-15562846D02*
X7047053Y-15543798D01*
X7170862Y-15458084D02*
X7189910Y-15458084D01*
X7189910Y-15458084D02*
X7208958Y-15467608D01*
X7208958Y-15467608D02*
X7218482Y-15477131D01*
X7218482Y-15477131D02*
X7228005Y-15496179D01*
X7228005Y-15496179D02*
X7237529Y-15534274D01*
X7237529Y-15534274D02*
X7237529Y-15581893D01*
X7237529Y-15581893D02*
X7228005Y-15619988D01*
X7228005Y-15619988D02*
X7218482Y-15639036D01*
X7218482Y-15639036D02*
X7208958Y-15648560D01*
X7208958Y-15648560D02*
X7189910Y-15658084D01*
X7189910Y-15658084D02*
X7170862Y-15658084D01*
X7170862Y-15658084D02*
X7151815Y-15648560D01*
X7151815Y-15648560D02*
X7142291Y-15639036D01*
X7142291Y-15639036D02*
X7132767Y-15619988D01*
X7132767Y-15619988D02*
X7123243Y-15581893D01*
X7123243Y-15581893D02*
X7123243Y-15534274D01*
X7123243Y-15534274D02*
X7132767Y-15496179D01*
X7132767Y-15496179D02*
X7142291Y-15477131D01*
X7142291Y-15477131D02*
X7151815Y-15467608D01*
X7151815Y-15467608D02*
X7170862Y-15458084D01*
X7361339Y-15458084D02*
X7380386Y-15458084D01*
X7380386Y-15458084D02*
X7399434Y-15467608D01*
X7399434Y-15467608D02*
X7408958Y-15477131D01*
X7408958Y-15477131D02*
X7418482Y-15496179D01*
X7418482Y-15496179D02*
X7428005Y-15534274D01*
X7428005Y-15534274D02*
X7428005Y-15581893D01*
X7428005Y-15581893D02*
X7418482Y-15619988D01*
X7418482Y-15619988D02*
X7408958Y-15639036D01*
X7408958Y-15639036D02*
X7399434Y-15648560D01*
X7399434Y-15648560D02*
X7380386Y-15658084D01*
X7380386Y-15658084D02*
X7361339Y-15658084D01*
X7361339Y-15658084D02*
X7342291Y-15648560D01*
X7342291Y-15648560D02*
X7332767Y-15639036D01*
X7332767Y-15639036D02*
X7323243Y-15619988D01*
X7323243Y-15619988D02*
X7313720Y-15581893D01*
X7313720Y-15581893D02*
X7313720Y-15534274D01*
X7313720Y-15534274D02*
X7323243Y-15496179D01*
X7323243Y-15496179D02*
X7332767Y-15477131D01*
X7332767Y-15477131D02*
X7342291Y-15467608D01*
X7342291Y-15467608D02*
X7361339Y-15458084D01*
X7513720Y-15658084D02*
X7513720Y-15524750D01*
X7513720Y-15543798D02*
X7523243Y-15534274D01*
X7523243Y-15534274D02*
X7542291Y-15524750D01*
X7542291Y-15524750D02*
X7570863Y-15524750D01*
X7570863Y-15524750D02*
X7589910Y-15534274D01*
X7589910Y-15534274D02*
X7599434Y-15553322D01*
X7599434Y-15553322D02*
X7599434Y-15658084D01*
X7599434Y-15553322D02*
X7608958Y-15534274D01*
X7608958Y-15534274D02*
X7628005Y-15524750D01*
X7628005Y-15524750D02*
X7656577Y-15524750D01*
X7656577Y-15524750D02*
X7675624Y-15534274D01*
X7675624Y-15534274D02*
X7685148Y-15553322D01*
X7685148Y-15553322D02*
X7685148Y-15658084D01*
X7780386Y-15658084D02*
X7780386Y-15524750D01*
X7780386Y-15543798D02*
X7789910Y-15534274D01*
X7789910Y-15534274D02*
X7808958Y-15524750D01*
X7808958Y-15524750D02*
X7837529Y-15524750D01*
X7837529Y-15524750D02*
X7856577Y-15534274D01*
X7856577Y-15534274D02*
X7866101Y-15553322D01*
X7866101Y-15553322D02*
X7866101Y-15658084D01*
X7866101Y-15553322D02*
X7875624Y-15534274D01*
X7875624Y-15534274D02*
X7894672Y-15524750D01*
X7894672Y-15524750D02*
X7923243Y-15524750D01*
X7923243Y-15524750D02*
X7942291Y-15534274D01*
X7942291Y-15534274D02*
X7951815Y-15553322D01*
X7951815Y-15553322D02*
X7951815Y-15658084D01*
X8342291Y-15448560D02*
X8170863Y-15705703D01*
X8599434Y-15458084D02*
X8618482Y-15458084D01*
X8618482Y-15458084D02*
X8637529Y-15467608D01*
X8637529Y-15467608D02*
X8647053Y-15477131D01*
X8647053Y-15477131D02*
X8656577Y-15496179D01*
X8656577Y-15496179D02*
X8666101Y-15534274D01*
X8666101Y-15534274D02*
X8666101Y-15581893D01*
X8666101Y-15581893D02*
X8656577Y-15619988D01*
X8656577Y-15619988D02*
X8647053Y-15639036D01*
X8647053Y-15639036D02*
X8637529Y-15648560D01*
X8637529Y-15648560D02*
X8618482Y-15658084D01*
X8618482Y-15658084D02*
X8599434Y-15658084D01*
X8599434Y-15658084D02*
X8580387Y-15648560D01*
X8580387Y-15648560D02*
X8570863Y-15639036D01*
X8570863Y-15639036D02*
X8561339Y-15619988D01*
X8561339Y-15619988D02*
X8551815Y-15581893D01*
X8551815Y-15581893D02*
X8551815Y-15534274D01*
X8551815Y-15534274D02*
X8561339Y-15496179D01*
X8561339Y-15496179D02*
X8570863Y-15477131D01*
X8570863Y-15477131D02*
X8580387Y-15467608D01*
X8580387Y-15467608D02*
X8599434Y-15458084D01*
X8751815Y-15639036D02*
X8761339Y-15648560D01*
X8761339Y-15648560D02*
X8751815Y-15658084D01*
X8751815Y-15658084D02*
X8742291Y-15648560D01*
X8742291Y-15648560D02*
X8751815Y-15639036D01*
X8751815Y-15639036D02*
X8751815Y-15658084D01*
X8885148Y-15458084D02*
X8904196Y-15458084D01*
X8904196Y-15458084D02*
X8923244Y-15467608D01*
X8923244Y-15467608D02*
X8932768Y-15477131D01*
X8932768Y-15477131D02*
X8942291Y-15496179D01*
X8942291Y-15496179D02*
X8951815Y-15534274D01*
X8951815Y-15534274D02*
X8951815Y-15581893D01*
X8951815Y-15581893D02*
X8942291Y-15619988D01*
X8942291Y-15619988D02*
X8932768Y-15639036D01*
X8932768Y-15639036D02*
X8923244Y-15648560D01*
X8923244Y-15648560D02*
X8904196Y-15658084D01*
X8904196Y-15658084D02*
X8885148Y-15658084D01*
X8885148Y-15658084D02*
X8866101Y-15648560D01*
X8866101Y-15648560D02*
X8856577Y-15639036D01*
X8856577Y-15639036D02*
X8847053Y-15619988D01*
X8847053Y-15619988D02*
X8837529Y-15581893D01*
X8837529Y-15581893D02*
X8837529Y-15534274D01*
X8837529Y-15534274D02*
X8847053Y-15496179D01*
X8847053Y-15496179D02*
X8856577Y-15477131D01*
X8856577Y-15477131D02*
X8866101Y-15467608D01*
X8866101Y-15467608D02*
X8885148Y-15458084D01*
X9018482Y-15458084D02*
X9151815Y-15458084D01*
X9151815Y-15458084D02*
X9066101Y-15658084D01*
X9313720Y-15524750D02*
X9313720Y-15658084D01*
X9266101Y-15448560D02*
X9218482Y-15591417D01*
X9218482Y-15591417D02*
X9342291Y-15591417D01*
X9447053Y-15543798D02*
X9428006Y-15534274D01*
X9428006Y-15534274D02*
X9418482Y-15524750D01*
X9418482Y-15524750D02*
X9408958Y-15505703D01*
X9408958Y-15505703D02*
X9408958Y-15496179D01*
X9408958Y-15496179D02*
X9418482Y-15477131D01*
X9418482Y-15477131D02*
X9428006Y-15467608D01*
X9428006Y-15467608D02*
X9447053Y-15458084D01*
X9447053Y-15458084D02*
X9485149Y-15458084D01*
X9485149Y-15458084D02*
X9504196Y-15467608D01*
X9504196Y-15467608D02*
X9513720Y-15477131D01*
X9513720Y-15477131D02*
X9523244Y-15496179D01*
X9523244Y-15496179D02*
X9523244Y-15505703D01*
X9523244Y-15505703D02*
X9513720Y-15524750D01*
X9513720Y-15524750D02*
X9504196Y-15534274D01*
X9504196Y-15534274D02*
X9485149Y-15543798D01*
X9485149Y-15543798D02*
X9447053Y-15543798D01*
X9447053Y-15543798D02*
X9428006Y-15553322D01*
X9428006Y-15553322D02*
X9418482Y-15562846D01*
X9418482Y-15562846D02*
X9408958Y-15581893D01*
X9408958Y-15581893D02*
X9408958Y-15619988D01*
X9408958Y-15619988D02*
X9418482Y-15639036D01*
X9418482Y-15639036D02*
X9428006Y-15648560D01*
X9428006Y-15648560D02*
X9447053Y-15658084D01*
X9447053Y-15658084D02*
X9485149Y-15658084D01*
X9485149Y-15658084D02*
X9504196Y-15648560D01*
X9504196Y-15648560D02*
X9513720Y-15639036D01*
X9513720Y-15639036D02*
X9523244Y-15619988D01*
X9523244Y-15619988D02*
X9523244Y-15581893D01*
X9523244Y-15581893D02*
X9513720Y-15562846D01*
X9513720Y-15562846D02*
X9504196Y-15553322D01*
X9504196Y-15553322D02*
X9485149Y-15543798D01*
X9599434Y-15458084D02*
X9599434Y-15496179D01*
X9675625Y-15458084D02*
X9675625Y-15496179D01*
X9970863Y-15734274D02*
X9961339Y-15724750D01*
X9961339Y-15724750D02*
X9942291Y-15696179D01*
X9942291Y-15696179D02*
X9932768Y-15677131D01*
X9932768Y-15677131D02*
X9923244Y-15648560D01*
X9923244Y-15648560D02*
X9913720Y-15600941D01*
X9913720Y-15600941D02*
X9913720Y-15562846D01*
X9913720Y-15562846D02*
X9923244Y-15515227D01*
X9923244Y-15515227D02*
X9932768Y-15486655D01*
X9932768Y-15486655D02*
X9942291Y-15467608D01*
X9942291Y-15467608D02*
X9961339Y-15439036D01*
X9961339Y-15439036D02*
X9970863Y-15429512D01*
X10028006Y-15458084D02*
X10151815Y-15458084D01*
X10151815Y-15458084D02*
X10085149Y-15534274D01*
X10085149Y-15534274D02*
X10113720Y-15534274D01*
X10113720Y-15534274D02*
X10132768Y-15543798D01*
X10132768Y-15543798D02*
X10142291Y-15553322D01*
X10142291Y-15553322D02*
X10151815Y-15572369D01*
X10151815Y-15572369D02*
X10151815Y-15619988D01*
X10151815Y-15619988D02*
X10142291Y-15639036D01*
X10142291Y-15639036D02*
X10132768Y-15648560D01*
X10132768Y-15648560D02*
X10113720Y-15658084D01*
X10113720Y-15658084D02*
X10056577Y-15658084D01*
X10056577Y-15658084D02*
X10037530Y-15648560D01*
X10037530Y-15648560D02*
X10028006Y-15639036D01*
X10323244Y-15458084D02*
X10285149Y-15458084D01*
X10285149Y-15458084D02*
X10266101Y-15467608D01*
X10266101Y-15467608D02*
X10256577Y-15477131D01*
X10256577Y-15477131D02*
X10237530Y-15505703D01*
X10237530Y-15505703D02*
X10228006Y-15543798D01*
X10228006Y-15543798D02*
X10228006Y-15619988D01*
X10228006Y-15619988D02*
X10237530Y-15639036D01*
X10237530Y-15639036D02*
X10247053Y-15648560D01*
X10247053Y-15648560D02*
X10266101Y-15658084D01*
X10266101Y-15658084D02*
X10304196Y-15658084D01*
X10304196Y-15658084D02*
X10323244Y-15648560D01*
X10323244Y-15648560D02*
X10332768Y-15639036D01*
X10332768Y-15639036D02*
X10342291Y-15619988D01*
X10342291Y-15619988D02*
X10342291Y-15572369D01*
X10342291Y-15572369D02*
X10332768Y-15553322D01*
X10332768Y-15553322D02*
X10323244Y-15543798D01*
X10323244Y-15543798D02*
X10304196Y-15534274D01*
X10304196Y-15534274D02*
X10266101Y-15534274D01*
X10266101Y-15534274D02*
X10247053Y-15543798D01*
X10247053Y-15543798D02*
X10237530Y-15553322D01*
X10237530Y-15553322D02*
X10228006Y-15572369D01*
X10580387Y-15658084D02*
X10580387Y-15458084D01*
X10666101Y-15658084D02*
X10666101Y-15553322D01*
X10666101Y-15553322D02*
X10656577Y-15534274D01*
X10656577Y-15534274D02*
X10637530Y-15524750D01*
X10637530Y-15524750D02*
X10608958Y-15524750D01*
X10608958Y-15524750D02*
X10589911Y-15534274D01*
X10589911Y-15534274D02*
X10580387Y-15543798D01*
X10789911Y-15658084D02*
X10770863Y-15648560D01*
X10770863Y-15648560D02*
X10761339Y-15639036D01*
X10761339Y-15639036D02*
X10751815Y-15619988D01*
X10751815Y-15619988D02*
X10751815Y-15562846D01*
X10751815Y-15562846D02*
X10761339Y-15543798D01*
X10761339Y-15543798D02*
X10770863Y-15534274D01*
X10770863Y-15534274D02*
X10789911Y-15524750D01*
X10789911Y-15524750D02*
X10818482Y-15524750D01*
X10818482Y-15524750D02*
X10837530Y-15534274D01*
X10837530Y-15534274D02*
X10847053Y-15543798D01*
X10847053Y-15543798D02*
X10856577Y-15562846D01*
X10856577Y-15562846D02*
X10856577Y-15619988D01*
X10856577Y-15619988D02*
X10847053Y-15639036D01*
X10847053Y-15639036D02*
X10837530Y-15648560D01*
X10837530Y-15648560D02*
X10818482Y-15658084D01*
X10818482Y-15658084D02*
X10789911Y-15658084D01*
X10970863Y-15658084D02*
X10951815Y-15648560D01*
X10951815Y-15648560D02*
X10942292Y-15629512D01*
X10942292Y-15629512D02*
X10942292Y-15458084D01*
X11123244Y-15648560D02*
X11104196Y-15658084D01*
X11104196Y-15658084D02*
X11066101Y-15658084D01*
X11066101Y-15658084D02*
X11047053Y-15648560D01*
X11047053Y-15648560D02*
X11037530Y-15629512D01*
X11037530Y-15629512D02*
X11037530Y-15553322D01*
X11037530Y-15553322D02*
X11047053Y-15534274D01*
X11047053Y-15534274D02*
X11066101Y-15524750D01*
X11066101Y-15524750D02*
X11104196Y-15524750D01*
X11104196Y-15524750D02*
X11123244Y-15534274D01*
X11123244Y-15534274D02*
X11132768Y-15553322D01*
X11132768Y-15553322D02*
X11132768Y-15572369D01*
X11132768Y-15572369D02*
X11037530Y-15591417D01*
X11208958Y-15648560D02*
X11228006Y-15658084D01*
X11228006Y-15658084D02*
X11266101Y-15658084D01*
X11266101Y-15658084D02*
X11285149Y-15648560D01*
X11285149Y-15648560D02*
X11294672Y-15629512D01*
X11294672Y-15629512D02*
X11294672Y-15619988D01*
X11294672Y-15619988D02*
X11285149Y-15600941D01*
X11285149Y-15600941D02*
X11266101Y-15591417D01*
X11266101Y-15591417D02*
X11237530Y-15591417D01*
X11237530Y-15591417D02*
X11218482Y-15581893D01*
X11218482Y-15581893D02*
X11208958Y-15562846D01*
X11208958Y-15562846D02*
X11208958Y-15553322D01*
X11208958Y-15553322D02*
X11218482Y-15534274D01*
X11218482Y-15534274D02*
X11237530Y-15524750D01*
X11237530Y-15524750D02*
X11266101Y-15524750D01*
X11266101Y-15524750D02*
X11285149Y-15534274D01*
X11361339Y-15734274D02*
X11370863Y-15724750D01*
X11370863Y-15724750D02*
X11389911Y-15696179D01*
X11389911Y-15696179D02*
X11399434Y-15677131D01*
X11399434Y-15677131D02*
X11408958Y-15648560D01*
X11408958Y-15648560D02*
X11418482Y-15600941D01*
X11418482Y-15600941D02*
X11418482Y-15562846D01*
X11418482Y-15562846D02*
X11408958Y-15515227D01*
X11408958Y-15515227D02*
X11399434Y-15486655D01*
X11399434Y-15486655D02*
X11389911Y-15467608D01*
X11389911Y-15467608D02*
X11370863Y-15439036D01*
X11370863Y-15439036D02*
X11361339Y-15429512D01*
X11723244Y-15734274D02*
X11713720Y-15724750D01*
X11713720Y-15724750D02*
X11694672Y-15696179D01*
X11694672Y-15696179D02*
X11685149Y-15677131D01*
X11685149Y-15677131D02*
X11675625Y-15648560D01*
X11675625Y-15648560D02*
X11666101Y-15600941D01*
X11666101Y-15600941D02*
X11666101Y-15562846D01*
X11666101Y-15562846D02*
X11675625Y-15515227D01*
X11675625Y-15515227D02*
X11685149Y-15486655D01*
X11685149Y-15486655D02*
X11694672Y-15467608D01*
X11694672Y-15467608D02*
X11713720Y-15439036D01*
X11713720Y-15439036D02*
X11723244Y-15429512D01*
X11799434Y-15524750D02*
X11799434Y-15658084D01*
X11799434Y-15543798D02*
X11808958Y-15534274D01*
X11808958Y-15534274D02*
X11828006Y-15524750D01*
X11828006Y-15524750D02*
X11856577Y-15524750D01*
X11856577Y-15524750D02*
X11875625Y-15534274D01*
X11875625Y-15534274D02*
X11885149Y-15553322D01*
X11885149Y-15553322D02*
X11885149Y-15658084D01*
X12008958Y-15658084D02*
X11989911Y-15648560D01*
X11989911Y-15648560D02*
X11980387Y-15639036D01*
X11980387Y-15639036D02*
X11970863Y-15619988D01*
X11970863Y-15619988D02*
X11970863Y-15562846D01*
X11970863Y-15562846D02*
X11980387Y-15543798D01*
X11980387Y-15543798D02*
X11989911Y-15534274D01*
X11989911Y-15534274D02*
X12008958Y-15524750D01*
X12008958Y-15524750D02*
X12037530Y-15524750D01*
X12037530Y-15524750D02*
X12056577Y-15534274D01*
X12056577Y-15534274D02*
X12066101Y-15543798D01*
X12066101Y-15543798D02*
X12075625Y-15562846D01*
X12075625Y-15562846D02*
X12075625Y-15619988D01*
X12075625Y-15619988D02*
X12066101Y-15639036D01*
X12066101Y-15639036D02*
X12056577Y-15648560D01*
X12056577Y-15648560D02*
X12037530Y-15658084D01*
X12037530Y-15658084D02*
X12008958Y-15658084D01*
X12132768Y-15524750D02*
X12208958Y-15524750D01*
X12161339Y-15458084D02*
X12161339Y-15629512D01*
X12161339Y-15629512D02*
X12170863Y-15648560D01*
X12170863Y-15648560D02*
X12189911Y-15658084D01*
X12189911Y-15658084D02*
X12208958Y-15658084D01*
X12428006Y-15524750D02*
X12428006Y-15724750D01*
X12428006Y-15534274D02*
X12447053Y-15524750D01*
X12447053Y-15524750D02*
X12485149Y-15524750D01*
X12485149Y-15524750D02*
X12504196Y-15534274D01*
X12504196Y-15534274D02*
X12513720Y-15543798D01*
X12513720Y-15543798D02*
X12523244Y-15562846D01*
X12523244Y-15562846D02*
X12523244Y-15619988D01*
X12523244Y-15619988D02*
X12513720Y-15639036D01*
X12513720Y-15639036D02*
X12504196Y-15648560D01*
X12504196Y-15648560D02*
X12485149Y-15658084D01*
X12485149Y-15658084D02*
X12447053Y-15658084D01*
X12447053Y-15658084D02*
X12428006Y-15648560D01*
X12637530Y-15658084D02*
X12618482Y-15648560D01*
X12618482Y-15648560D02*
X12608958Y-15629512D01*
X12608958Y-15629512D02*
X12608958Y-15458084D01*
X12799434Y-15658084D02*
X12799434Y-15553322D01*
X12799434Y-15553322D02*
X12789911Y-15534274D01*
X12789911Y-15534274D02*
X12770863Y-15524750D01*
X12770863Y-15524750D02*
X12732768Y-15524750D01*
X12732768Y-15524750D02*
X12713720Y-15534274D01*
X12799434Y-15648560D02*
X12780387Y-15658084D01*
X12780387Y-15658084D02*
X12732768Y-15658084D01*
X12732768Y-15658084D02*
X12713720Y-15648560D01*
X12713720Y-15648560D02*
X12704196Y-15629512D01*
X12704196Y-15629512D02*
X12704196Y-15610465D01*
X12704196Y-15610465D02*
X12713720Y-15591417D01*
X12713720Y-15591417D02*
X12732768Y-15581893D01*
X12732768Y-15581893D02*
X12780387Y-15581893D01*
X12780387Y-15581893D02*
X12799434Y-15572369D01*
X12866101Y-15524750D02*
X12942292Y-15524750D01*
X12894673Y-15458084D02*
X12894673Y-15629512D01*
X12894673Y-15629512D02*
X12904196Y-15648560D01*
X12904196Y-15648560D02*
X12923244Y-15658084D01*
X12923244Y-15658084D02*
X12942292Y-15658084D01*
X13085149Y-15648560D02*
X13066101Y-15658084D01*
X13066101Y-15658084D02*
X13028006Y-15658084D01*
X13028006Y-15658084D02*
X13008958Y-15648560D01*
X13008958Y-15648560D02*
X12999434Y-15629512D01*
X12999434Y-15629512D02*
X12999434Y-15553322D01*
X12999434Y-15553322D02*
X13008958Y-15534274D01*
X13008958Y-15534274D02*
X13028006Y-15524750D01*
X13028006Y-15524750D02*
X13066101Y-15524750D01*
X13066101Y-15524750D02*
X13085149Y-15534274D01*
X13085149Y-15534274D02*
X13094673Y-15553322D01*
X13094673Y-15553322D02*
X13094673Y-15572369D01*
X13094673Y-15572369D02*
X12999434Y-15591417D01*
X13266101Y-15658084D02*
X13266101Y-15458084D01*
X13266101Y-15648560D02*
X13247054Y-15658084D01*
X13247054Y-15658084D02*
X13208958Y-15658084D01*
X13208958Y-15658084D02*
X13189911Y-15648560D01*
X13189911Y-15648560D02*
X13180387Y-15639036D01*
X13180387Y-15639036D02*
X13170863Y-15619988D01*
X13170863Y-15619988D02*
X13170863Y-15562846D01*
X13170863Y-15562846D02*
X13180387Y-15543798D01*
X13180387Y-15543798D02*
X13189911Y-15534274D01*
X13189911Y-15534274D02*
X13208958Y-15524750D01*
X13208958Y-15524750D02*
X13247054Y-15524750D01*
X13247054Y-15524750D02*
X13266101Y-15534274D01*
X13342292Y-15734274D02*
X13351815Y-15724750D01*
X13351815Y-15724750D02*
X13370863Y-15696179D01*
X13370863Y-15696179D02*
X13380387Y-15677131D01*
X13380387Y-15677131D02*
X13389911Y-15648560D01*
X13389911Y-15648560D02*
X13399434Y-15600941D01*
X13399434Y-15600941D02*
X13399434Y-15562846D01*
X13399434Y-15562846D02*
X13389911Y-15515227D01*
X13389911Y-15515227D02*
X13380387Y-15486655D01*
X13380387Y-15486655D02*
X13370863Y-15467608D01*
X13370863Y-15467608D02*
X13351815Y-15439036D01*
X13351815Y-15439036D02*
X13342292Y-15429512D01*
X6295800Y-15976600D02*
X6395800Y-15876600D01*
X6295800Y-15776600D01*
X6195800Y-15876600D01*
X6295800Y-15976600D01*
X6637529Y-15768084D02*
X6761339Y-15768084D01*
X6761339Y-15768084D02*
X6694672Y-15844274D01*
X6694672Y-15844274D02*
X6723243Y-15844274D01*
X6723243Y-15844274D02*
X6742291Y-15853798D01*
X6742291Y-15853798D02*
X6751815Y-15863322D01*
X6751815Y-15863322D02*
X6761339Y-15882369D01*
X6761339Y-15882369D02*
X6761339Y-15929988D01*
X6761339Y-15929988D02*
X6751815Y-15949036D01*
X6751815Y-15949036D02*
X6742291Y-15958560D01*
X6742291Y-15958560D02*
X6723243Y-15968084D01*
X6723243Y-15968084D02*
X6666101Y-15968084D01*
X6666101Y-15968084D02*
X6647053Y-15958560D01*
X6647053Y-15958560D02*
X6637529Y-15949036D01*
X6847053Y-15949036D02*
X6856577Y-15958560D01*
X6856577Y-15958560D02*
X6847053Y-15968084D01*
X6847053Y-15968084D02*
X6837529Y-15958560D01*
X6837529Y-15958560D02*
X6847053Y-15949036D01*
X6847053Y-15949036D02*
X6847053Y-15968084D01*
X6980386Y-15768084D02*
X6999434Y-15768084D01*
X6999434Y-15768084D02*
X7018482Y-15777608D01*
X7018482Y-15777608D02*
X7028005Y-15787131D01*
X7028005Y-15787131D02*
X7037529Y-15806179D01*
X7037529Y-15806179D02*
X7047053Y-15844274D01*
X7047053Y-15844274D02*
X7047053Y-15891893D01*
X7047053Y-15891893D02*
X7037529Y-15929988D01*
X7037529Y-15929988D02*
X7028005Y-15949036D01*
X7028005Y-15949036D02*
X7018482Y-15958560D01*
X7018482Y-15958560D02*
X6999434Y-15968084D01*
X6999434Y-15968084D02*
X6980386Y-15968084D01*
X6980386Y-15968084D02*
X6961339Y-15958560D01*
X6961339Y-15958560D02*
X6951815Y-15949036D01*
X6951815Y-15949036D02*
X6942291Y-15929988D01*
X6942291Y-15929988D02*
X6932767Y-15891893D01*
X6932767Y-15891893D02*
X6932767Y-15844274D01*
X6932767Y-15844274D02*
X6942291Y-15806179D01*
X6942291Y-15806179D02*
X6951815Y-15787131D01*
X6951815Y-15787131D02*
X6961339Y-15777608D01*
X6961339Y-15777608D02*
X6980386Y-15768084D01*
X7228005Y-15768084D02*
X7132767Y-15768084D01*
X7132767Y-15768084D02*
X7123243Y-15863322D01*
X7123243Y-15863322D02*
X7132767Y-15853798D01*
X7132767Y-15853798D02*
X7151815Y-15844274D01*
X7151815Y-15844274D02*
X7199434Y-15844274D01*
X7199434Y-15844274D02*
X7218482Y-15853798D01*
X7218482Y-15853798D02*
X7228005Y-15863322D01*
X7228005Y-15863322D02*
X7237529Y-15882369D01*
X7237529Y-15882369D02*
X7237529Y-15929988D01*
X7237529Y-15929988D02*
X7228005Y-15949036D01*
X7228005Y-15949036D02*
X7218482Y-15958560D01*
X7218482Y-15958560D02*
X7199434Y-15968084D01*
X7199434Y-15968084D02*
X7151815Y-15968084D01*
X7151815Y-15968084D02*
X7132767Y-15958560D01*
X7132767Y-15958560D02*
X7123243Y-15949036D01*
X7361339Y-15768084D02*
X7380386Y-15768084D01*
X7380386Y-15768084D02*
X7399434Y-15777608D01*
X7399434Y-15777608D02*
X7408958Y-15787131D01*
X7408958Y-15787131D02*
X7418482Y-15806179D01*
X7418482Y-15806179D02*
X7428005Y-15844274D01*
X7428005Y-15844274D02*
X7428005Y-15891893D01*
X7428005Y-15891893D02*
X7418482Y-15929988D01*
X7418482Y-15929988D02*
X7408958Y-15949036D01*
X7408958Y-15949036D02*
X7399434Y-15958560D01*
X7399434Y-15958560D02*
X7380386Y-15968084D01*
X7380386Y-15968084D02*
X7361339Y-15968084D01*
X7361339Y-15968084D02*
X7342291Y-15958560D01*
X7342291Y-15958560D02*
X7332767Y-15949036D01*
X7332767Y-15949036D02*
X7323243Y-15929988D01*
X7323243Y-15929988D02*
X7313720Y-15891893D01*
X7313720Y-15891893D02*
X7313720Y-15844274D01*
X7313720Y-15844274D02*
X7323243Y-15806179D01*
X7323243Y-15806179D02*
X7332767Y-15787131D01*
X7332767Y-15787131D02*
X7342291Y-15777608D01*
X7342291Y-15777608D02*
X7361339Y-15768084D01*
X7513720Y-15968084D02*
X7513720Y-15834750D01*
X7513720Y-15853798D02*
X7523243Y-15844274D01*
X7523243Y-15844274D02*
X7542291Y-15834750D01*
X7542291Y-15834750D02*
X7570863Y-15834750D01*
X7570863Y-15834750D02*
X7589910Y-15844274D01*
X7589910Y-15844274D02*
X7599434Y-15863322D01*
X7599434Y-15863322D02*
X7599434Y-15968084D01*
X7599434Y-15863322D02*
X7608958Y-15844274D01*
X7608958Y-15844274D02*
X7628005Y-15834750D01*
X7628005Y-15834750D02*
X7656577Y-15834750D01*
X7656577Y-15834750D02*
X7675624Y-15844274D01*
X7675624Y-15844274D02*
X7685148Y-15863322D01*
X7685148Y-15863322D02*
X7685148Y-15968084D01*
X7780386Y-15968084D02*
X7780386Y-15834750D01*
X7780386Y-15853798D02*
X7789910Y-15844274D01*
X7789910Y-15844274D02*
X7808958Y-15834750D01*
X7808958Y-15834750D02*
X7837529Y-15834750D01*
X7837529Y-15834750D02*
X7856577Y-15844274D01*
X7856577Y-15844274D02*
X7866101Y-15863322D01*
X7866101Y-15863322D02*
X7866101Y-15968084D01*
X7866101Y-15863322D02*
X7875624Y-15844274D01*
X7875624Y-15844274D02*
X7894672Y-15834750D01*
X7894672Y-15834750D02*
X7923243Y-15834750D01*
X7923243Y-15834750D02*
X7942291Y-15844274D01*
X7942291Y-15844274D02*
X7951815Y-15863322D01*
X7951815Y-15863322D02*
X7951815Y-15968084D01*
X8342291Y-15758560D02*
X8170863Y-16015703D01*
X8599434Y-15768084D02*
X8618482Y-15768084D01*
X8618482Y-15768084D02*
X8637529Y-15777608D01*
X8637529Y-15777608D02*
X8647053Y-15787131D01*
X8647053Y-15787131D02*
X8656577Y-15806179D01*
X8656577Y-15806179D02*
X8666101Y-15844274D01*
X8666101Y-15844274D02*
X8666101Y-15891893D01*
X8666101Y-15891893D02*
X8656577Y-15929988D01*
X8656577Y-15929988D02*
X8647053Y-15949036D01*
X8647053Y-15949036D02*
X8637529Y-15958560D01*
X8637529Y-15958560D02*
X8618482Y-15968084D01*
X8618482Y-15968084D02*
X8599434Y-15968084D01*
X8599434Y-15968084D02*
X8580387Y-15958560D01*
X8580387Y-15958560D02*
X8570863Y-15949036D01*
X8570863Y-15949036D02*
X8561339Y-15929988D01*
X8561339Y-15929988D02*
X8551815Y-15891893D01*
X8551815Y-15891893D02*
X8551815Y-15844274D01*
X8551815Y-15844274D02*
X8561339Y-15806179D01*
X8561339Y-15806179D02*
X8570863Y-15787131D01*
X8570863Y-15787131D02*
X8580387Y-15777608D01*
X8580387Y-15777608D02*
X8599434Y-15768084D01*
X8751815Y-15949036D02*
X8761339Y-15958560D01*
X8761339Y-15958560D02*
X8751815Y-15968084D01*
X8751815Y-15968084D02*
X8742291Y-15958560D01*
X8742291Y-15958560D02*
X8751815Y-15949036D01*
X8751815Y-15949036D02*
X8751815Y-15968084D01*
X8951815Y-15968084D02*
X8837529Y-15968084D01*
X8894672Y-15968084D02*
X8894672Y-15768084D01*
X8894672Y-15768084D02*
X8875625Y-15796655D01*
X8875625Y-15796655D02*
X8856577Y-15815703D01*
X8856577Y-15815703D02*
X8837529Y-15825227D01*
X9028006Y-15787131D02*
X9037529Y-15777608D01*
X9037529Y-15777608D02*
X9056577Y-15768084D01*
X9056577Y-15768084D02*
X9104196Y-15768084D01*
X9104196Y-15768084D02*
X9123244Y-15777608D01*
X9123244Y-15777608D02*
X9132768Y-15787131D01*
X9132768Y-15787131D02*
X9142291Y-15806179D01*
X9142291Y-15806179D02*
X9142291Y-15825227D01*
X9142291Y-15825227D02*
X9132768Y-15853798D01*
X9132768Y-15853798D02*
X9018482Y-15968084D01*
X9018482Y-15968084D02*
X9142291Y-15968084D01*
X9266101Y-15768084D02*
X9285149Y-15768084D01*
X9285149Y-15768084D02*
X9304196Y-15777608D01*
X9304196Y-15777608D02*
X9313720Y-15787131D01*
X9313720Y-15787131D02*
X9323244Y-15806179D01*
X9323244Y-15806179D02*
X9332768Y-15844274D01*
X9332768Y-15844274D02*
X9332768Y-15891893D01*
X9332768Y-15891893D02*
X9323244Y-15929988D01*
X9323244Y-15929988D02*
X9313720Y-15949036D01*
X9313720Y-15949036D02*
X9304196Y-15958560D01*
X9304196Y-15958560D02*
X9285149Y-15968084D01*
X9285149Y-15968084D02*
X9266101Y-15968084D01*
X9266101Y-15968084D02*
X9247053Y-15958560D01*
X9247053Y-15958560D02*
X9237529Y-15949036D01*
X9237529Y-15949036D02*
X9228006Y-15929988D01*
X9228006Y-15929988D02*
X9218482Y-15891893D01*
X9218482Y-15891893D02*
X9218482Y-15844274D01*
X9218482Y-15844274D02*
X9228006Y-15806179D01*
X9228006Y-15806179D02*
X9237529Y-15787131D01*
X9237529Y-15787131D02*
X9247053Y-15777608D01*
X9247053Y-15777608D02*
X9266101Y-15768084D01*
X9523244Y-15968084D02*
X9408958Y-15968084D01*
X9466101Y-15968084D02*
X9466101Y-15768084D01*
X9466101Y-15768084D02*
X9447053Y-15796655D01*
X9447053Y-15796655D02*
X9428006Y-15815703D01*
X9428006Y-15815703D02*
X9408958Y-15825227D01*
X9599434Y-15768084D02*
X9599434Y-15806179D01*
X9675625Y-15768084D02*
X9675625Y-15806179D01*
X9970863Y-16044274D02*
X9961339Y-16034750D01*
X9961339Y-16034750D02*
X9942291Y-16006179D01*
X9942291Y-16006179D02*
X9932768Y-15987131D01*
X9932768Y-15987131D02*
X9923244Y-15958560D01*
X9923244Y-15958560D02*
X9913720Y-15910941D01*
X9913720Y-15910941D02*
X9913720Y-15872846D01*
X9913720Y-15872846D02*
X9923244Y-15825227D01*
X9923244Y-15825227D02*
X9932768Y-15796655D01*
X9932768Y-15796655D02*
X9942291Y-15777608D01*
X9942291Y-15777608D02*
X9961339Y-15749036D01*
X9961339Y-15749036D02*
X9970863Y-15739512D01*
X10028006Y-15768084D02*
X10151815Y-15768084D01*
X10151815Y-15768084D02*
X10085149Y-15844274D01*
X10085149Y-15844274D02*
X10113720Y-15844274D01*
X10113720Y-15844274D02*
X10132768Y-15853798D01*
X10132768Y-15853798D02*
X10142291Y-15863322D01*
X10142291Y-15863322D02*
X10151815Y-15882369D01*
X10151815Y-15882369D02*
X10151815Y-15929988D01*
X10151815Y-15929988D02*
X10142291Y-15949036D01*
X10142291Y-15949036D02*
X10132768Y-15958560D01*
X10132768Y-15958560D02*
X10113720Y-15968084D01*
X10113720Y-15968084D02*
X10056577Y-15968084D01*
X10056577Y-15968084D02*
X10037530Y-15958560D01*
X10037530Y-15958560D02*
X10028006Y-15949036D01*
X10323244Y-15768084D02*
X10285149Y-15768084D01*
X10285149Y-15768084D02*
X10266101Y-15777608D01*
X10266101Y-15777608D02*
X10256577Y-15787131D01*
X10256577Y-15787131D02*
X10237530Y-15815703D01*
X10237530Y-15815703D02*
X10228006Y-15853798D01*
X10228006Y-15853798D02*
X10228006Y-15929988D01*
X10228006Y-15929988D02*
X10237530Y-15949036D01*
X10237530Y-15949036D02*
X10247053Y-15958560D01*
X10247053Y-15958560D02*
X10266101Y-15968084D01*
X10266101Y-15968084D02*
X10304196Y-15968084D01*
X10304196Y-15968084D02*
X10323244Y-15958560D01*
X10323244Y-15958560D02*
X10332768Y-15949036D01*
X10332768Y-15949036D02*
X10342291Y-15929988D01*
X10342291Y-15929988D02*
X10342291Y-15882369D01*
X10342291Y-15882369D02*
X10332768Y-15863322D01*
X10332768Y-15863322D02*
X10323244Y-15853798D01*
X10323244Y-15853798D02*
X10304196Y-15844274D01*
X10304196Y-15844274D02*
X10266101Y-15844274D01*
X10266101Y-15844274D02*
X10247053Y-15853798D01*
X10247053Y-15853798D02*
X10237530Y-15863322D01*
X10237530Y-15863322D02*
X10228006Y-15882369D01*
X10580387Y-15968084D02*
X10580387Y-15768084D01*
X10666101Y-15968084D02*
X10666101Y-15863322D01*
X10666101Y-15863322D02*
X10656577Y-15844274D01*
X10656577Y-15844274D02*
X10637530Y-15834750D01*
X10637530Y-15834750D02*
X10608958Y-15834750D01*
X10608958Y-15834750D02*
X10589911Y-15844274D01*
X10589911Y-15844274D02*
X10580387Y-15853798D01*
X10789911Y-15968084D02*
X10770863Y-15958560D01*
X10770863Y-15958560D02*
X10761339Y-15949036D01*
X10761339Y-15949036D02*
X10751815Y-15929988D01*
X10751815Y-15929988D02*
X10751815Y-15872846D01*
X10751815Y-15872846D02*
X10761339Y-15853798D01*
X10761339Y-15853798D02*
X10770863Y-15844274D01*
X10770863Y-15844274D02*
X10789911Y-15834750D01*
X10789911Y-15834750D02*
X10818482Y-15834750D01*
X10818482Y-15834750D02*
X10837530Y-15844274D01*
X10837530Y-15844274D02*
X10847053Y-15853798D01*
X10847053Y-15853798D02*
X10856577Y-15872846D01*
X10856577Y-15872846D02*
X10856577Y-15929988D01*
X10856577Y-15929988D02*
X10847053Y-15949036D01*
X10847053Y-15949036D02*
X10837530Y-15958560D01*
X10837530Y-15958560D02*
X10818482Y-15968084D01*
X10818482Y-15968084D02*
X10789911Y-15968084D01*
X10970863Y-15968084D02*
X10951815Y-15958560D01*
X10951815Y-15958560D02*
X10942292Y-15939512D01*
X10942292Y-15939512D02*
X10942292Y-15768084D01*
X11123244Y-15958560D02*
X11104196Y-15968084D01*
X11104196Y-15968084D02*
X11066101Y-15968084D01*
X11066101Y-15968084D02*
X11047053Y-15958560D01*
X11047053Y-15958560D02*
X11037530Y-15939512D01*
X11037530Y-15939512D02*
X11037530Y-15863322D01*
X11037530Y-15863322D02*
X11047053Y-15844274D01*
X11047053Y-15844274D02*
X11066101Y-15834750D01*
X11066101Y-15834750D02*
X11104196Y-15834750D01*
X11104196Y-15834750D02*
X11123244Y-15844274D01*
X11123244Y-15844274D02*
X11132768Y-15863322D01*
X11132768Y-15863322D02*
X11132768Y-15882369D01*
X11132768Y-15882369D02*
X11037530Y-15901417D01*
X11208958Y-15958560D02*
X11228006Y-15968084D01*
X11228006Y-15968084D02*
X11266101Y-15968084D01*
X11266101Y-15968084D02*
X11285149Y-15958560D01*
X11285149Y-15958560D02*
X11294672Y-15939512D01*
X11294672Y-15939512D02*
X11294672Y-15929988D01*
X11294672Y-15929988D02*
X11285149Y-15910941D01*
X11285149Y-15910941D02*
X11266101Y-15901417D01*
X11266101Y-15901417D02*
X11237530Y-15901417D01*
X11237530Y-15901417D02*
X11218482Y-15891893D01*
X11218482Y-15891893D02*
X11208958Y-15872846D01*
X11208958Y-15872846D02*
X11208958Y-15863322D01*
X11208958Y-15863322D02*
X11218482Y-15844274D01*
X11218482Y-15844274D02*
X11237530Y-15834750D01*
X11237530Y-15834750D02*
X11266101Y-15834750D01*
X11266101Y-15834750D02*
X11285149Y-15844274D01*
X11361339Y-16044274D02*
X11370863Y-16034750D01*
X11370863Y-16034750D02*
X11389911Y-16006179D01*
X11389911Y-16006179D02*
X11399434Y-15987131D01*
X11399434Y-15987131D02*
X11408958Y-15958560D01*
X11408958Y-15958560D02*
X11418482Y-15910941D01*
X11418482Y-15910941D02*
X11418482Y-15872846D01*
X11418482Y-15872846D02*
X11408958Y-15825227D01*
X11408958Y-15825227D02*
X11399434Y-15796655D01*
X11399434Y-15796655D02*
X11389911Y-15777608D01*
X11389911Y-15777608D02*
X11370863Y-15749036D01*
X11370863Y-15749036D02*
X11361339Y-15739512D01*
X11723244Y-16044274D02*
X11713720Y-16034750D01*
X11713720Y-16034750D02*
X11694672Y-16006179D01*
X11694672Y-16006179D02*
X11685149Y-15987131D01*
X11685149Y-15987131D02*
X11675625Y-15958560D01*
X11675625Y-15958560D02*
X11666101Y-15910941D01*
X11666101Y-15910941D02*
X11666101Y-15872846D01*
X11666101Y-15872846D02*
X11675625Y-15825227D01*
X11675625Y-15825227D02*
X11685149Y-15796655D01*
X11685149Y-15796655D02*
X11694672Y-15777608D01*
X11694672Y-15777608D02*
X11713720Y-15749036D01*
X11713720Y-15749036D02*
X11723244Y-15739512D01*
X11799434Y-15834750D02*
X11799434Y-15968084D01*
X11799434Y-15853798D02*
X11808958Y-15844274D01*
X11808958Y-15844274D02*
X11828006Y-15834750D01*
X11828006Y-15834750D02*
X11856577Y-15834750D01*
X11856577Y-15834750D02*
X11875625Y-15844274D01*
X11875625Y-15844274D02*
X11885149Y-15863322D01*
X11885149Y-15863322D02*
X11885149Y-15968084D01*
X12008958Y-15968084D02*
X11989911Y-15958560D01*
X11989911Y-15958560D02*
X11980387Y-15949036D01*
X11980387Y-15949036D02*
X11970863Y-15929988D01*
X11970863Y-15929988D02*
X11970863Y-15872846D01*
X11970863Y-15872846D02*
X11980387Y-15853798D01*
X11980387Y-15853798D02*
X11989911Y-15844274D01*
X11989911Y-15844274D02*
X12008958Y-15834750D01*
X12008958Y-15834750D02*
X12037530Y-15834750D01*
X12037530Y-15834750D02*
X12056577Y-15844274D01*
X12056577Y-15844274D02*
X12066101Y-15853798D01*
X12066101Y-15853798D02*
X12075625Y-15872846D01*
X12075625Y-15872846D02*
X12075625Y-15929988D01*
X12075625Y-15929988D02*
X12066101Y-15949036D01*
X12066101Y-15949036D02*
X12056577Y-15958560D01*
X12056577Y-15958560D02*
X12037530Y-15968084D01*
X12037530Y-15968084D02*
X12008958Y-15968084D01*
X12132768Y-15834750D02*
X12208958Y-15834750D01*
X12161339Y-15768084D02*
X12161339Y-15939512D01*
X12161339Y-15939512D02*
X12170863Y-15958560D01*
X12170863Y-15958560D02*
X12189911Y-15968084D01*
X12189911Y-15968084D02*
X12208958Y-15968084D01*
X12428006Y-15834750D02*
X12428006Y-16034750D01*
X12428006Y-15844274D02*
X12447053Y-15834750D01*
X12447053Y-15834750D02*
X12485149Y-15834750D01*
X12485149Y-15834750D02*
X12504196Y-15844274D01*
X12504196Y-15844274D02*
X12513720Y-15853798D01*
X12513720Y-15853798D02*
X12523244Y-15872846D01*
X12523244Y-15872846D02*
X12523244Y-15929988D01*
X12523244Y-15929988D02*
X12513720Y-15949036D01*
X12513720Y-15949036D02*
X12504196Y-15958560D01*
X12504196Y-15958560D02*
X12485149Y-15968084D01*
X12485149Y-15968084D02*
X12447053Y-15968084D01*
X12447053Y-15968084D02*
X12428006Y-15958560D01*
X12637530Y-15968084D02*
X12618482Y-15958560D01*
X12618482Y-15958560D02*
X12608958Y-15939512D01*
X12608958Y-15939512D02*
X12608958Y-15768084D01*
X12799434Y-15968084D02*
X12799434Y-15863322D01*
X12799434Y-15863322D02*
X12789911Y-15844274D01*
X12789911Y-15844274D02*
X12770863Y-15834750D01*
X12770863Y-15834750D02*
X12732768Y-15834750D01*
X12732768Y-15834750D02*
X12713720Y-15844274D01*
X12799434Y-15958560D02*
X12780387Y-15968084D01*
X12780387Y-15968084D02*
X12732768Y-15968084D01*
X12732768Y-15968084D02*
X12713720Y-15958560D01*
X12713720Y-15958560D02*
X12704196Y-15939512D01*
X12704196Y-15939512D02*
X12704196Y-15920465D01*
X12704196Y-15920465D02*
X12713720Y-15901417D01*
X12713720Y-15901417D02*
X12732768Y-15891893D01*
X12732768Y-15891893D02*
X12780387Y-15891893D01*
X12780387Y-15891893D02*
X12799434Y-15882369D01*
X12866101Y-15834750D02*
X12942292Y-15834750D01*
X12894673Y-15768084D02*
X12894673Y-15939512D01*
X12894673Y-15939512D02*
X12904196Y-15958560D01*
X12904196Y-15958560D02*
X12923244Y-15968084D01*
X12923244Y-15968084D02*
X12942292Y-15968084D01*
X13085149Y-15958560D02*
X13066101Y-15968084D01*
X13066101Y-15968084D02*
X13028006Y-15968084D01*
X13028006Y-15968084D02*
X13008958Y-15958560D01*
X13008958Y-15958560D02*
X12999434Y-15939512D01*
X12999434Y-15939512D02*
X12999434Y-15863322D01*
X12999434Y-15863322D02*
X13008958Y-15844274D01*
X13008958Y-15844274D02*
X13028006Y-15834750D01*
X13028006Y-15834750D02*
X13066101Y-15834750D01*
X13066101Y-15834750D02*
X13085149Y-15844274D01*
X13085149Y-15844274D02*
X13094673Y-15863322D01*
X13094673Y-15863322D02*
X13094673Y-15882369D01*
X13094673Y-15882369D02*
X12999434Y-15901417D01*
X13266101Y-15968084D02*
X13266101Y-15768084D01*
X13266101Y-15958560D02*
X13247054Y-15968084D01*
X13247054Y-15968084D02*
X13208958Y-15968084D01*
X13208958Y-15968084D02*
X13189911Y-15958560D01*
X13189911Y-15958560D02*
X13180387Y-15949036D01*
X13180387Y-15949036D02*
X13170863Y-15929988D01*
X13170863Y-15929988D02*
X13170863Y-15872846D01*
X13170863Y-15872846D02*
X13180387Y-15853798D01*
X13180387Y-15853798D02*
X13189911Y-15844274D01*
X13189911Y-15844274D02*
X13208958Y-15834750D01*
X13208958Y-15834750D02*
X13247054Y-15834750D01*
X13247054Y-15834750D02*
X13266101Y-15844274D01*
X13342292Y-16044274D02*
X13351815Y-16034750D01*
X13351815Y-16034750D02*
X13370863Y-16006179D01*
X13370863Y-16006179D02*
X13380387Y-15987131D01*
X13380387Y-15987131D02*
X13389911Y-15958560D01*
X13389911Y-15958560D02*
X13399434Y-15910941D01*
X13399434Y-15910941D02*
X13399434Y-15872846D01*
X13399434Y-15872846D02*
X13389911Y-15825227D01*
X13389911Y-15825227D02*
X13380387Y-15796655D01*
X13380387Y-15796655D02*
X13370863Y-15777608D01*
X13370863Y-15777608D02*
X13351815Y-15749036D01*
X13351815Y-15749036D02*
X13342292Y-15739512D01*
X6195800Y-16096600D02*
X6395800Y-16296600D01*
X6395800Y-16096600D02*
X6195800Y-16296600D01*
X6395800Y-16196600D02*
G75*
G03*
X6395800Y-16196600I-100000J0D01*
G01*
X6637529Y-16088084D02*
X6761339Y-16088084D01*
X6761339Y-16088084D02*
X6694672Y-16164274D01*
X6694672Y-16164274D02*
X6723243Y-16164274D01*
X6723243Y-16164274D02*
X6742291Y-16173798D01*
X6742291Y-16173798D02*
X6751815Y-16183322D01*
X6751815Y-16183322D02*
X6761339Y-16202369D01*
X6761339Y-16202369D02*
X6761339Y-16249988D01*
X6761339Y-16249988D02*
X6751815Y-16269036D01*
X6751815Y-16269036D02*
X6742291Y-16278560D01*
X6742291Y-16278560D02*
X6723243Y-16288084D01*
X6723243Y-16288084D02*
X6666101Y-16288084D01*
X6666101Y-16288084D02*
X6647053Y-16278560D01*
X6647053Y-16278560D02*
X6637529Y-16269036D01*
X6847053Y-16269036D02*
X6856577Y-16278560D01*
X6856577Y-16278560D02*
X6847053Y-16288084D01*
X6847053Y-16288084D02*
X6837529Y-16278560D01*
X6837529Y-16278560D02*
X6847053Y-16269036D01*
X6847053Y-16269036D02*
X6847053Y-16288084D01*
X6932767Y-16107131D02*
X6942291Y-16097608D01*
X6942291Y-16097608D02*
X6961339Y-16088084D01*
X6961339Y-16088084D02*
X7008958Y-16088084D01*
X7008958Y-16088084D02*
X7028005Y-16097608D01*
X7028005Y-16097608D02*
X7037529Y-16107131D01*
X7037529Y-16107131D02*
X7047053Y-16126179D01*
X7047053Y-16126179D02*
X7047053Y-16145227D01*
X7047053Y-16145227D02*
X7037529Y-16173798D01*
X7037529Y-16173798D02*
X6923243Y-16288084D01*
X6923243Y-16288084D02*
X7047053Y-16288084D01*
X7170862Y-16088084D02*
X7189910Y-16088084D01*
X7189910Y-16088084D02*
X7208958Y-16097608D01*
X7208958Y-16097608D02*
X7218482Y-16107131D01*
X7218482Y-16107131D02*
X7228005Y-16126179D01*
X7228005Y-16126179D02*
X7237529Y-16164274D01*
X7237529Y-16164274D02*
X7237529Y-16211893D01*
X7237529Y-16211893D02*
X7228005Y-16249988D01*
X7228005Y-16249988D02*
X7218482Y-16269036D01*
X7218482Y-16269036D02*
X7208958Y-16278560D01*
X7208958Y-16278560D02*
X7189910Y-16288084D01*
X7189910Y-16288084D02*
X7170862Y-16288084D01*
X7170862Y-16288084D02*
X7151815Y-16278560D01*
X7151815Y-16278560D02*
X7142291Y-16269036D01*
X7142291Y-16269036D02*
X7132767Y-16249988D01*
X7132767Y-16249988D02*
X7123243Y-16211893D01*
X7123243Y-16211893D02*
X7123243Y-16164274D01*
X7123243Y-16164274D02*
X7132767Y-16126179D01*
X7132767Y-16126179D02*
X7142291Y-16107131D01*
X7142291Y-16107131D02*
X7151815Y-16097608D01*
X7151815Y-16097608D02*
X7170862Y-16088084D01*
X7361339Y-16088084D02*
X7380386Y-16088084D01*
X7380386Y-16088084D02*
X7399434Y-16097608D01*
X7399434Y-16097608D02*
X7408958Y-16107131D01*
X7408958Y-16107131D02*
X7418482Y-16126179D01*
X7418482Y-16126179D02*
X7428005Y-16164274D01*
X7428005Y-16164274D02*
X7428005Y-16211893D01*
X7428005Y-16211893D02*
X7418482Y-16249988D01*
X7418482Y-16249988D02*
X7408958Y-16269036D01*
X7408958Y-16269036D02*
X7399434Y-16278560D01*
X7399434Y-16278560D02*
X7380386Y-16288084D01*
X7380386Y-16288084D02*
X7361339Y-16288084D01*
X7361339Y-16288084D02*
X7342291Y-16278560D01*
X7342291Y-16278560D02*
X7332767Y-16269036D01*
X7332767Y-16269036D02*
X7323243Y-16249988D01*
X7323243Y-16249988D02*
X7313720Y-16211893D01*
X7313720Y-16211893D02*
X7313720Y-16164274D01*
X7313720Y-16164274D02*
X7323243Y-16126179D01*
X7323243Y-16126179D02*
X7332767Y-16107131D01*
X7332767Y-16107131D02*
X7342291Y-16097608D01*
X7342291Y-16097608D02*
X7361339Y-16088084D01*
X7513720Y-16288084D02*
X7513720Y-16154750D01*
X7513720Y-16173798D02*
X7523243Y-16164274D01*
X7523243Y-16164274D02*
X7542291Y-16154750D01*
X7542291Y-16154750D02*
X7570863Y-16154750D01*
X7570863Y-16154750D02*
X7589910Y-16164274D01*
X7589910Y-16164274D02*
X7599434Y-16183322D01*
X7599434Y-16183322D02*
X7599434Y-16288084D01*
X7599434Y-16183322D02*
X7608958Y-16164274D01*
X7608958Y-16164274D02*
X7628005Y-16154750D01*
X7628005Y-16154750D02*
X7656577Y-16154750D01*
X7656577Y-16154750D02*
X7675624Y-16164274D01*
X7675624Y-16164274D02*
X7685148Y-16183322D01*
X7685148Y-16183322D02*
X7685148Y-16288084D01*
X7780386Y-16288084D02*
X7780386Y-16154750D01*
X7780386Y-16173798D02*
X7789910Y-16164274D01*
X7789910Y-16164274D02*
X7808958Y-16154750D01*
X7808958Y-16154750D02*
X7837529Y-16154750D01*
X7837529Y-16154750D02*
X7856577Y-16164274D01*
X7856577Y-16164274D02*
X7866101Y-16183322D01*
X7866101Y-16183322D02*
X7866101Y-16288084D01*
X7866101Y-16183322D02*
X7875624Y-16164274D01*
X7875624Y-16164274D02*
X7894672Y-16154750D01*
X7894672Y-16154750D02*
X7923243Y-16154750D01*
X7923243Y-16154750D02*
X7942291Y-16164274D01*
X7942291Y-16164274D02*
X7951815Y-16183322D01*
X7951815Y-16183322D02*
X7951815Y-16288084D01*
X8342291Y-16078560D02*
X8170863Y-16335703D01*
X8599434Y-16088084D02*
X8618482Y-16088084D01*
X8618482Y-16088084D02*
X8637529Y-16097608D01*
X8637529Y-16097608D02*
X8647053Y-16107131D01*
X8647053Y-16107131D02*
X8656577Y-16126179D01*
X8656577Y-16126179D02*
X8666101Y-16164274D01*
X8666101Y-16164274D02*
X8666101Y-16211893D01*
X8666101Y-16211893D02*
X8656577Y-16249988D01*
X8656577Y-16249988D02*
X8647053Y-16269036D01*
X8647053Y-16269036D02*
X8637529Y-16278560D01*
X8637529Y-16278560D02*
X8618482Y-16288084D01*
X8618482Y-16288084D02*
X8599434Y-16288084D01*
X8599434Y-16288084D02*
X8580387Y-16278560D01*
X8580387Y-16278560D02*
X8570863Y-16269036D01*
X8570863Y-16269036D02*
X8561339Y-16249988D01*
X8561339Y-16249988D02*
X8551815Y-16211893D01*
X8551815Y-16211893D02*
X8551815Y-16164274D01*
X8551815Y-16164274D02*
X8561339Y-16126179D01*
X8561339Y-16126179D02*
X8570863Y-16107131D01*
X8570863Y-16107131D02*
X8580387Y-16097608D01*
X8580387Y-16097608D02*
X8599434Y-16088084D01*
X8751815Y-16269036D02*
X8761339Y-16278560D01*
X8761339Y-16278560D02*
X8751815Y-16288084D01*
X8751815Y-16288084D02*
X8742291Y-16278560D01*
X8742291Y-16278560D02*
X8751815Y-16269036D01*
X8751815Y-16269036D02*
X8751815Y-16288084D01*
X8951815Y-16288084D02*
X8837529Y-16288084D01*
X8894672Y-16288084D02*
X8894672Y-16088084D01*
X8894672Y-16088084D02*
X8875625Y-16116655D01*
X8875625Y-16116655D02*
X8856577Y-16135703D01*
X8856577Y-16135703D02*
X8837529Y-16145227D01*
X9028006Y-16107131D02*
X9037529Y-16097608D01*
X9037529Y-16097608D02*
X9056577Y-16088084D01*
X9056577Y-16088084D02*
X9104196Y-16088084D01*
X9104196Y-16088084D02*
X9123244Y-16097608D01*
X9123244Y-16097608D02*
X9132768Y-16107131D01*
X9132768Y-16107131D02*
X9142291Y-16126179D01*
X9142291Y-16126179D02*
X9142291Y-16145227D01*
X9142291Y-16145227D02*
X9132768Y-16173798D01*
X9132768Y-16173798D02*
X9018482Y-16288084D01*
X9018482Y-16288084D02*
X9142291Y-16288084D01*
X9313720Y-16088084D02*
X9275625Y-16088084D01*
X9275625Y-16088084D02*
X9256577Y-16097608D01*
X9256577Y-16097608D02*
X9247053Y-16107131D01*
X9247053Y-16107131D02*
X9228006Y-16135703D01*
X9228006Y-16135703D02*
X9218482Y-16173798D01*
X9218482Y-16173798D02*
X9218482Y-16249988D01*
X9218482Y-16249988D02*
X9228006Y-16269036D01*
X9228006Y-16269036D02*
X9237529Y-16278560D01*
X9237529Y-16278560D02*
X9256577Y-16288084D01*
X9256577Y-16288084D02*
X9294672Y-16288084D01*
X9294672Y-16288084D02*
X9313720Y-16278560D01*
X9313720Y-16278560D02*
X9323244Y-16269036D01*
X9323244Y-16269036D02*
X9332768Y-16249988D01*
X9332768Y-16249988D02*
X9332768Y-16202369D01*
X9332768Y-16202369D02*
X9323244Y-16183322D01*
X9323244Y-16183322D02*
X9313720Y-16173798D01*
X9313720Y-16173798D02*
X9294672Y-16164274D01*
X9294672Y-16164274D02*
X9256577Y-16164274D01*
X9256577Y-16164274D02*
X9237529Y-16173798D01*
X9237529Y-16173798D02*
X9228006Y-16183322D01*
X9228006Y-16183322D02*
X9218482Y-16202369D01*
X9456577Y-16088084D02*
X9475625Y-16088084D01*
X9475625Y-16088084D02*
X9494672Y-16097608D01*
X9494672Y-16097608D02*
X9504196Y-16107131D01*
X9504196Y-16107131D02*
X9513720Y-16126179D01*
X9513720Y-16126179D02*
X9523244Y-16164274D01*
X9523244Y-16164274D02*
X9523244Y-16211893D01*
X9523244Y-16211893D02*
X9513720Y-16249988D01*
X9513720Y-16249988D02*
X9504196Y-16269036D01*
X9504196Y-16269036D02*
X9494672Y-16278560D01*
X9494672Y-16278560D02*
X9475625Y-16288084D01*
X9475625Y-16288084D02*
X9456577Y-16288084D01*
X9456577Y-16288084D02*
X9437529Y-16278560D01*
X9437529Y-16278560D02*
X9428006Y-16269036D01*
X9428006Y-16269036D02*
X9418482Y-16249988D01*
X9418482Y-16249988D02*
X9408958Y-16211893D01*
X9408958Y-16211893D02*
X9408958Y-16164274D01*
X9408958Y-16164274D02*
X9418482Y-16126179D01*
X9418482Y-16126179D02*
X9428006Y-16107131D01*
X9428006Y-16107131D02*
X9437529Y-16097608D01*
X9437529Y-16097608D02*
X9456577Y-16088084D01*
X9599434Y-16088084D02*
X9599434Y-16126179D01*
X9675625Y-16088084D02*
X9675625Y-16126179D01*
X9970863Y-16364274D02*
X9961339Y-16354750D01*
X9961339Y-16354750D02*
X9942291Y-16326179D01*
X9942291Y-16326179D02*
X9932768Y-16307131D01*
X9932768Y-16307131D02*
X9923244Y-16278560D01*
X9923244Y-16278560D02*
X9913720Y-16230941D01*
X9913720Y-16230941D02*
X9913720Y-16192846D01*
X9913720Y-16192846D02*
X9923244Y-16145227D01*
X9923244Y-16145227D02*
X9932768Y-16116655D01*
X9932768Y-16116655D02*
X9942291Y-16097608D01*
X9942291Y-16097608D02*
X9961339Y-16069036D01*
X9961339Y-16069036D02*
X9970863Y-16059512D01*
X10132768Y-16154750D02*
X10132768Y-16288084D01*
X10085149Y-16078560D02*
X10037530Y-16221417D01*
X10037530Y-16221417D02*
X10161339Y-16221417D01*
X10389911Y-16288084D02*
X10389911Y-16088084D01*
X10475625Y-16288084D02*
X10475625Y-16183322D01*
X10475625Y-16183322D02*
X10466101Y-16164274D01*
X10466101Y-16164274D02*
X10447053Y-16154750D01*
X10447053Y-16154750D02*
X10418482Y-16154750D01*
X10418482Y-16154750D02*
X10399434Y-16164274D01*
X10399434Y-16164274D02*
X10389911Y-16173798D01*
X10599434Y-16288084D02*
X10580387Y-16278560D01*
X10580387Y-16278560D02*
X10570863Y-16269036D01*
X10570863Y-16269036D02*
X10561339Y-16249988D01*
X10561339Y-16249988D02*
X10561339Y-16192846D01*
X10561339Y-16192846D02*
X10570863Y-16173798D01*
X10570863Y-16173798D02*
X10580387Y-16164274D01*
X10580387Y-16164274D02*
X10599434Y-16154750D01*
X10599434Y-16154750D02*
X10628006Y-16154750D01*
X10628006Y-16154750D02*
X10647053Y-16164274D01*
X10647053Y-16164274D02*
X10656577Y-16173798D01*
X10656577Y-16173798D02*
X10666101Y-16192846D01*
X10666101Y-16192846D02*
X10666101Y-16249988D01*
X10666101Y-16249988D02*
X10656577Y-16269036D01*
X10656577Y-16269036D02*
X10647053Y-16278560D01*
X10647053Y-16278560D02*
X10628006Y-16288084D01*
X10628006Y-16288084D02*
X10599434Y-16288084D01*
X10780387Y-16288084D02*
X10761339Y-16278560D01*
X10761339Y-16278560D02*
X10751815Y-16259512D01*
X10751815Y-16259512D02*
X10751815Y-16088084D01*
X10932768Y-16278560D02*
X10913720Y-16288084D01*
X10913720Y-16288084D02*
X10875625Y-16288084D01*
X10875625Y-16288084D02*
X10856577Y-16278560D01*
X10856577Y-16278560D02*
X10847053Y-16259512D01*
X10847053Y-16259512D02*
X10847053Y-16183322D01*
X10847053Y-16183322D02*
X10856577Y-16164274D01*
X10856577Y-16164274D02*
X10875625Y-16154750D01*
X10875625Y-16154750D02*
X10913720Y-16154750D01*
X10913720Y-16154750D02*
X10932768Y-16164274D01*
X10932768Y-16164274D02*
X10942292Y-16183322D01*
X10942292Y-16183322D02*
X10942292Y-16202369D01*
X10942292Y-16202369D02*
X10847053Y-16221417D01*
X11018482Y-16278560D02*
X11037530Y-16288084D01*
X11037530Y-16288084D02*
X11075625Y-16288084D01*
X11075625Y-16288084D02*
X11094673Y-16278560D01*
X11094673Y-16278560D02*
X11104196Y-16259512D01*
X11104196Y-16259512D02*
X11104196Y-16249988D01*
X11104196Y-16249988D02*
X11094673Y-16230941D01*
X11094673Y-16230941D02*
X11075625Y-16221417D01*
X11075625Y-16221417D02*
X11047053Y-16221417D01*
X11047053Y-16221417D02*
X11028006Y-16211893D01*
X11028006Y-16211893D02*
X11018482Y-16192846D01*
X11018482Y-16192846D02*
X11018482Y-16183322D01*
X11018482Y-16183322D02*
X11028006Y-16164274D01*
X11028006Y-16164274D02*
X11047053Y-16154750D01*
X11047053Y-16154750D02*
X11075625Y-16154750D01*
X11075625Y-16154750D02*
X11094673Y-16164274D01*
X11170863Y-16364274D02*
X11180387Y-16354750D01*
X11180387Y-16354750D02*
X11199434Y-16326179D01*
X11199434Y-16326179D02*
X11208958Y-16307131D01*
X11208958Y-16307131D02*
X11218482Y-16278560D01*
X11218482Y-16278560D02*
X11228006Y-16230941D01*
X11228006Y-16230941D02*
X11228006Y-16192846D01*
X11228006Y-16192846D02*
X11218482Y-16145227D01*
X11218482Y-16145227D02*
X11208958Y-16116655D01*
X11208958Y-16116655D02*
X11199434Y-16097608D01*
X11199434Y-16097608D02*
X11180387Y-16069036D01*
X11180387Y-16069036D02*
X11170863Y-16059512D01*
X11532768Y-16364274D02*
X11523244Y-16354750D01*
X11523244Y-16354750D02*
X11504196Y-16326179D01*
X11504196Y-16326179D02*
X11494672Y-16307131D01*
X11494672Y-16307131D02*
X11485149Y-16278560D01*
X11485149Y-16278560D02*
X11475625Y-16230941D01*
X11475625Y-16230941D02*
X11475625Y-16192846D01*
X11475625Y-16192846D02*
X11485149Y-16145227D01*
X11485149Y-16145227D02*
X11494672Y-16116655D01*
X11494672Y-16116655D02*
X11504196Y-16097608D01*
X11504196Y-16097608D02*
X11523244Y-16069036D01*
X11523244Y-16069036D02*
X11532768Y-16059512D01*
X11608958Y-16154750D02*
X11608958Y-16288084D01*
X11608958Y-16173798D02*
X11618482Y-16164274D01*
X11618482Y-16164274D02*
X11637530Y-16154750D01*
X11637530Y-16154750D02*
X11666101Y-16154750D01*
X11666101Y-16154750D02*
X11685149Y-16164274D01*
X11685149Y-16164274D02*
X11694672Y-16183322D01*
X11694672Y-16183322D02*
X11694672Y-16288084D01*
X11818482Y-16288084D02*
X11799434Y-16278560D01*
X11799434Y-16278560D02*
X11789911Y-16269036D01*
X11789911Y-16269036D02*
X11780387Y-16249988D01*
X11780387Y-16249988D02*
X11780387Y-16192846D01*
X11780387Y-16192846D02*
X11789911Y-16173798D01*
X11789911Y-16173798D02*
X11799434Y-16164274D01*
X11799434Y-16164274D02*
X11818482Y-16154750D01*
X11818482Y-16154750D02*
X11847053Y-16154750D01*
X11847053Y-16154750D02*
X11866101Y-16164274D01*
X11866101Y-16164274D02*
X11875625Y-16173798D01*
X11875625Y-16173798D02*
X11885149Y-16192846D01*
X11885149Y-16192846D02*
X11885149Y-16249988D01*
X11885149Y-16249988D02*
X11875625Y-16269036D01*
X11875625Y-16269036D02*
X11866101Y-16278560D01*
X11866101Y-16278560D02*
X11847053Y-16288084D01*
X11847053Y-16288084D02*
X11818482Y-16288084D01*
X11942292Y-16154750D02*
X12018482Y-16154750D01*
X11970863Y-16088084D02*
X11970863Y-16259512D01*
X11970863Y-16259512D02*
X11980387Y-16278560D01*
X11980387Y-16278560D02*
X11999434Y-16288084D01*
X11999434Y-16288084D02*
X12018482Y-16288084D01*
X12237530Y-16154750D02*
X12237530Y-16354750D01*
X12237530Y-16164274D02*
X12256577Y-16154750D01*
X12256577Y-16154750D02*
X12294673Y-16154750D01*
X12294673Y-16154750D02*
X12313720Y-16164274D01*
X12313720Y-16164274D02*
X12323244Y-16173798D01*
X12323244Y-16173798D02*
X12332768Y-16192846D01*
X12332768Y-16192846D02*
X12332768Y-16249988D01*
X12332768Y-16249988D02*
X12323244Y-16269036D01*
X12323244Y-16269036D02*
X12313720Y-16278560D01*
X12313720Y-16278560D02*
X12294673Y-16288084D01*
X12294673Y-16288084D02*
X12256577Y-16288084D01*
X12256577Y-16288084D02*
X12237530Y-16278560D01*
X12447053Y-16288084D02*
X12428006Y-16278560D01*
X12428006Y-16278560D02*
X12418482Y-16259512D01*
X12418482Y-16259512D02*
X12418482Y-16088084D01*
X12608958Y-16288084D02*
X12608958Y-16183322D01*
X12608958Y-16183322D02*
X12599434Y-16164274D01*
X12599434Y-16164274D02*
X12580387Y-16154750D01*
X12580387Y-16154750D02*
X12542292Y-16154750D01*
X12542292Y-16154750D02*
X12523244Y-16164274D01*
X12608958Y-16278560D02*
X12589911Y-16288084D01*
X12589911Y-16288084D02*
X12542292Y-16288084D01*
X12542292Y-16288084D02*
X12523244Y-16278560D01*
X12523244Y-16278560D02*
X12513720Y-16259512D01*
X12513720Y-16259512D02*
X12513720Y-16240465D01*
X12513720Y-16240465D02*
X12523244Y-16221417D01*
X12523244Y-16221417D02*
X12542292Y-16211893D01*
X12542292Y-16211893D02*
X12589911Y-16211893D01*
X12589911Y-16211893D02*
X12608958Y-16202369D01*
X12675625Y-16154750D02*
X12751815Y-16154750D01*
X12704196Y-16088084D02*
X12704196Y-16259512D01*
X12704196Y-16259512D02*
X12713720Y-16278560D01*
X12713720Y-16278560D02*
X12732768Y-16288084D01*
X12732768Y-16288084D02*
X12751815Y-16288084D01*
X12894673Y-16278560D02*
X12875625Y-16288084D01*
X12875625Y-16288084D02*
X12837530Y-16288084D01*
X12837530Y-16288084D02*
X12818482Y-16278560D01*
X12818482Y-16278560D02*
X12808958Y-16259512D01*
X12808958Y-16259512D02*
X12808958Y-16183322D01*
X12808958Y-16183322D02*
X12818482Y-16164274D01*
X12818482Y-16164274D02*
X12837530Y-16154750D01*
X12837530Y-16154750D02*
X12875625Y-16154750D01*
X12875625Y-16154750D02*
X12894673Y-16164274D01*
X12894673Y-16164274D02*
X12904196Y-16183322D01*
X12904196Y-16183322D02*
X12904196Y-16202369D01*
X12904196Y-16202369D02*
X12808958Y-16221417D01*
X13075625Y-16288084D02*
X13075625Y-16088084D01*
X13075625Y-16278560D02*
X13056577Y-16288084D01*
X13056577Y-16288084D02*
X13018482Y-16288084D01*
X13018482Y-16288084D02*
X12999434Y-16278560D01*
X12999434Y-16278560D02*
X12989911Y-16269036D01*
X12989911Y-16269036D02*
X12980387Y-16249988D01*
X12980387Y-16249988D02*
X12980387Y-16192846D01*
X12980387Y-16192846D02*
X12989911Y-16173798D01*
X12989911Y-16173798D02*
X12999434Y-16164274D01*
X12999434Y-16164274D02*
X13018482Y-16154750D01*
X13018482Y-16154750D02*
X13056577Y-16154750D01*
X13056577Y-16154750D02*
X13075625Y-16164274D01*
X13151815Y-16364274D02*
X13161339Y-16354750D01*
X13161339Y-16354750D02*
X13180387Y-16326179D01*
X13180387Y-16326179D02*
X13189911Y-16307131D01*
X13189911Y-16307131D02*
X13199434Y-16278560D01*
X13199434Y-16278560D02*
X13208958Y-16230941D01*
X13208958Y-16230941D02*
X13208958Y-16192846D01*
X13208958Y-16192846D02*
X13199434Y-16145227D01*
X13199434Y-16145227D02*
X13189911Y-16116655D01*
X13189911Y-16116655D02*
X13180387Y-16097608D01*
X13180387Y-16097608D02*
X13161339Y-16069036D01*
X13161339Y-16069036D02*
X13151815Y-16059512D01*
X6195800Y-16416600D02*
X6395800Y-16616600D01*
X6395800Y-16416600D02*
X6195800Y-16616600D01*
X6295800Y-16416600D02*
X6295800Y-16616600D01*
X6195800Y-16516600D02*
X6395800Y-16516600D01*
X6751815Y-16408084D02*
X6656577Y-16408084D01*
X6656577Y-16408084D02*
X6647053Y-16503322D01*
X6647053Y-16503322D02*
X6656577Y-16493798D01*
X6656577Y-16493798D02*
X6675624Y-16484274D01*
X6675624Y-16484274D02*
X6723243Y-16484274D01*
X6723243Y-16484274D02*
X6742291Y-16493798D01*
X6742291Y-16493798D02*
X6751815Y-16503322D01*
X6751815Y-16503322D02*
X6761339Y-16522369D01*
X6761339Y-16522369D02*
X6761339Y-16569988D01*
X6761339Y-16569988D02*
X6751815Y-16589036D01*
X6751815Y-16589036D02*
X6742291Y-16598560D01*
X6742291Y-16598560D02*
X6723243Y-16608084D01*
X6723243Y-16608084D02*
X6675624Y-16608084D01*
X6675624Y-16608084D02*
X6656577Y-16598560D01*
X6656577Y-16598560D02*
X6647053Y-16589036D01*
X6847053Y-16589036D02*
X6856577Y-16598560D01*
X6856577Y-16598560D02*
X6847053Y-16608084D01*
X6847053Y-16608084D02*
X6837529Y-16598560D01*
X6837529Y-16598560D02*
X6847053Y-16589036D01*
X6847053Y-16589036D02*
X6847053Y-16608084D01*
X6980386Y-16408084D02*
X6999434Y-16408084D01*
X6999434Y-16408084D02*
X7018482Y-16417608D01*
X7018482Y-16417608D02*
X7028005Y-16427131D01*
X7028005Y-16427131D02*
X7037529Y-16446179D01*
X7037529Y-16446179D02*
X7047053Y-16484274D01*
X7047053Y-16484274D02*
X7047053Y-16531893D01*
X7047053Y-16531893D02*
X7037529Y-16569988D01*
X7037529Y-16569988D02*
X7028005Y-16589036D01*
X7028005Y-16589036D02*
X7018482Y-16598560D01*
X7018482Y-16598560D02*
X6999434Y-16608084D01*
X6999434Y-16608084D02*
X6980386Y-16608084D01*
X6980386Y-16608084D02*
X6961339Y-16598560D01*
X6961339Y-16598560D02*
X6951815Y-16589036D01*
X6951815Y-16589036D02*
X6942291Y-16569988D01*
X6942291Y-16569988D02*
X6932767Y-16531893D01*
X6932767Y-16531893D02*
X6932767Y-16484274D01*
X6932767Y-16484274D02*
X6942291Y-16446179D01*
X6942291Y-16446179D02*
X6951815Y-16427131D01*
X6951815Y-16427131D02*
X6961339Y-16417608D01*
X6961339Y-16417608D02*
X6980386Y-16408084D01*
X7228005Y-16408084D02*
X7132767Y-16408084D01*
X7132767Y-16408084D02*
X7123243Y-16503322D01*
X7123243Y-16503322D02*
X7132767Y-16493798D01*
X7132767Y-16493798D02*
X7151815Y-16484274D01*
X7151815Y-16484274D02*
X7199434Y-16484274D01*
X7199434Y-16484274D02*
X7218482Y-16493798D01*
X7218482Y-16493798D02*
X7228005Y-16503322D01*
X7228005Y-16503322D02*
X7237529Y-16522369D01*
X7237529Y-16522369D02*
X7237529Y-16569988D01*
X7237529Y-16569988D02*
X7228005Y-16589036D01*
X7228005Y-16589036D02*
X7218482Y-16598560D01*
X7218482Y-16598560D02*
X7199434Y-16608084D01*
X7199434Y-16608084D02*
X7151815Y-16608084D01*
X7151815Y-16608084D02*
X7132767Y-16598560D01*
X7132767Y-16598560D02*
X7123243Y-16589036D01*
X7361339Y-16408084D02*
X7380386Y-16408084D01*
X7380386Y-16408084D02*
X7399434Y-16417608D01*
X7399434Y-16417608D02*
X7408958Y-16427131D01*
X7408958Y-16427131D02*
X7418482Y-16446179D01*
X7418482Y-16446179D02*
X7428005Y-16484274D01*
X7428005Y-16484274D02*
X7428005Y-16531893D01*
X7428005Y-16531893D02*
X7418482Y-16569988D01*
X7418482Y-16569988D02*
X7408958Y-16589036D01*
X7408958Y-16589036D02*
X7399434Y-16598560D01*
X7399434Y-16598560D02*
X7380386Y-16608084D01*
X7380386Y-16608084D02*
X7361339Y-16608084D01*
X7361339Y-16608084D02*
X7342291Y-16598560D01*
X7342291Y-16598560D02*
X7332767Y-16589036D01*
X7332767Y-16589036D02*
X7323243Y-16569988D01*
X7323243Y-16569988D02*
X7313720Y-16531893D01*
X7313720Y-16531893D02*
X7313720Y-16484274D01*
X7313720Y-16484274D02*
X7323243Y-16446179D01*
X7323243Y-16446179D02*
X7332767Y-16427131D01*
X7332767Y-16427131D02*
X7342291Y-16417608D01*
X7342291Y-16417608D02*
X7361339Y-16408084D01*
X7513720Y-16608084D02*
X7513720Y-16474750D01*
X7513720Y-16493798D02*
X7523243Y-16484274D01*
X7523243Y-16484274D02*
X7542291Y-16474750D01*
X7542291Y-16474750D02*
X7570863Y-16474750D01*
X7570863Y-16474750D02*
X7589910Y-16484274D01*
X7589910Y-16484274D02*
X7599434Y-16503322D01*
X7599434Y-16503322D02*
X7599434Y-16608084D01*
X7599434Y-16503322D02*
X7608958Y-16484274D01*
X7608958Y-16484274D02*
X7628005Y-16474750D01*
X7628005Y-16474750D02*
X7656577Y-16474750D01*
X7656577Y-16474750D02*
X7675624Y-16484274D01*
X7675624Y-16484274D02*
X7685148Y-16503322D01*
X7685148Y-16503322D02*
X7685148Y-16608084D01*
X7780386Y-16608084D02*
X7780386Y-16474750D01*
X7780386Y-16493798D02*
X7789910Y-16484274D01*
X7789910Y-16484274D02*
X7808958Y-16474750D01*
X7808958Y-16474750D02*
X7837529Y-16474750D01*
X7837529Y-16474750D02*
X7856577Y-16484274D01*
X7856577Y-16484274D02*
X7866101Y-16503322D01*
X7866101Y-16503322D02*
X7866101Y-16608084D01*
X7866101Y-16503322D02*
X7875624Y-16484274D01*
X7875624Y-16484274D02*
X7894672Y-16474750D01*
X7894672Y-16474750D02*
X7923243Y-16474750D01*
X7923243Y-16474750D02*
X7942291Y-16484274D01*
X7942291Y-16484274D02*
X7951815Y-16503322D01*
X7951815Y-16503322D02*
X7951815Y-16608084D01*
X8342291Y-16398560D02*
X8170863Y-16655703D01*
X8599434Y-16408084D02*
X8618482Y-16408084D01*
X8618482Y-16408084D02*
X8637529Y-16417608D01*
X8637529Y-16417608D02*
X8647053Y-16427131D01*
X8647053Y-16427131D02*
X8656577Y-16446179D01*
X8656577Y-16446179D02*
X8666101Y-16484274D01*
X8666101Y-16484274D02*
X8666101Y-16531893D01*
X8666101Y-16531893D02*
X8656577Y-16569988D01*
X8656577Y-16569988D02*
X8647053Y-16589036D01*
X8647053Y-16589036D02*
X8637529Y-16598560D01*
X8637529Y-16598560D02*
X8618482Y-16608084D01*
X8618482Y-16608084D02*
X8599434Y-16608084D01*
X8599434Y-16608084D02*
X8580387Y-16598560D01*
X8580387Y-16598560D02*
X8570863Y-16589036D01*
X8570863Y-16589036D02*
X8561339Y-16569988D01*
X8561339Y-16569988D02*
X8551815Y-16531893D01*
X8551815Y-16531893D02*
X8551815Y-16484274D01*
X8551815Y-16484274D02*
X8561339Y-16446179D01*
X8561339Y-16446179D02*
X8570863Y-16427131D01*
X8570863Y-16427131D02*
X8580387Y-16417608D01*
X8580387Y-16417608D02*
X8599434Y-16408084D01*
X8751815Y-16589036D02*
X8761339Y-16598560D01*
X8761339Y-16598560D02*
X8751815Y-16608084D01*
X8751815Y-16608084D02*
X8742291Y-16598560D01*
X8742291Y-16598560D02*
X8751815Y-16589036D01*
X8751815Y-16589036D02*
X8751815Y-16608084D01*
X8951815Y-16608084D02*
X8837529Y-16608084D01*
X8894672Y-16608084D02*
X8894672Y-16408084D01*
X8894672Y-16408084D02*
X8875625Y-16436655D01*
X8875625Y-16436655D02*
X8856577Y-16455703D01*
X8856577Y-16455703D02*
X8837529Y-16465227D01*
X9047053Y-16608084D02*
X9085148Y-16608084D01*
X9085148Y-16608084D02*
X9104196Y-16598560D01*
X9104196Y-16598560D02*
X9113720Y-16589036D01*
X9113720Y-16589036D02*
X9132768Y-16560465D01*
X9132768Y-16560465D02*
X9142291Y-16522369D01*
X9142291Y-16522369D02*
X9142291Y-16446179D01*
X9142291Y-16446179D02*
X9132768Y-16427131D01*
X9132768Y-16427131D02*
X9123244Y-16417608D01*
X9123244Y-16417608D02*
X9104196Y-16408084D01*
X9104196Y-16408084D02*
X9066101Y-16408084D01*
X9066101Y-16408084D02*
X9047053Y-16417608D01*
X9047053Y-16417608D02*
X9037529Y-16427131D01*
X9037529Y-16427131D02*
X9028006Y-16446179D01*
X9028006Y-16446179D02*
X9028006Y-16493798D01*
X9028006Y-16493798D02*
X9037529Y-16512846D01*
X9037529Y-16512846D02*
X9047053Y-16522369D01*
X9047053Y-16522369D02*
X9066101Y-16531893D01*
X9066101Y-16531893D02*
X9104196Y-16531893D01*
X9104196Y-16531893D02*
X9123244Y-16522369D01*
X9123244Y-16522369D02*
X9132768Y-16512846D01*
X9132768Y-16512846D02*
X9142291Y-16493798D01*
X9256577Y-16493798D02*
X9237529Y-16484274D01*
X9237529Y-16484274D02*
X9228006Y-16474750D01*
X9228006Y-16474750D02*
X9218482Y-16455703D01*
X9218482Y-16455703D02*
X9218482Y-16446179D01*
X9218482Y-16446179D02*
X9228006Y-16427131D01*
X9228006Y-16427131D02*
X9237529Y-16417608D01*
X9237529Y-16417608D02*
X9256577Y-16408084D01*
X9256577Y-16408084D02*
X9294672Y-16408084D01*
X9294672Y-16408084D02*
X9313720Y-16417608D01*
X9313720Y-16417608D02*
X9323244Y-16427131D01*
X9323244Y-16427131D02*
X9332768Y-16446179D01*
X9332768Y-16446179D02*
X9332768Y-16455703D01*
X9332768Y-16455703D02*
X9323244Y-16474750D01*
X9323244Y-16474750D02*
X9313720Y-16484274D01*
X9313720Y-16484274D02*
X9294672Y-16493798D01*
X9294672Y-16493798D02*
X9256577Y-16493798D01*
X9256577Y-16493798D02*
X9237529Y-16503322D01*
X9237529Y-16503322D02*
X9228006Y-16512846D01*
X9228006Y-16512846D02*
X9218482Y-16531893D01*
X9218482Y-16531893D02*
X9218482Y-16569988D01*
X9218482Y-16569988D02*
X9228006Y-16589036D01*
X9228006Y-16589036D02*
X9237529Y-16598560D01*
X9237529Y-16598560D02*
X9256577Y-16608084D01*
X9256577Y-16608084D02*
X9294672Y-16608084D01*
X9294672Y-16608084D02*
X9313720Y-16598560D01*
X9313720Y-16598560D02*
X9323244Y-16589036D01*
X9323244Y-16589036D02*
X9332768Y-16569988D01*
X9332768Y-16569988D02*
X9332768Y-16531893D01*
X9332768Y-16531893D02*
X9323244Y-16512846D01*
X9323244Y-16512846D02*
X9313720Y-16503322D01*
X9313720Y-16503322D02*
X9294672Y-16493798D01*
X9447053Y-16493798D02*
X9428006Y-16484274D01*
X9428006Y-16484274D02*
X9418482Y-16474750D01*
X9418482Y-16474750D02*
X9408958Y-16455703D01*
X9408958Y-16455703D02*
X9408958Y-16446179D01*
X9408958Y-16446179D02*
X9418482Y-16427131D01*
X9418482Y-16427131D02*
X9428006Y-16417608D01*
X9428006Y-16417608D02*
X9447053Y-16408084D01*
X9447053Y-16408084D02*
X9485149Y-16408084D01*
X9485149Y-16408084D02*
X9504196Y-16417608D01*
X9504196Y-16417608D02*
X9513720Y-16427131D01*
X9513720Y-16427131D02*
X9523244Y-16446179D01*
X9523244Y-16446179D02*
X9523244Y-16455703D01*
X9523244Y-16455703D02*
X9513720Y-16474750D01*
X9513720Y-16474750D02*
X9504196Y-16484274D01*
X9504196Y-16484274D02*
X9485149Y-16493798D01*
X9485149Y-16493798D02*
X9447053Y-16493798D01*
X9447053Y-16493798D02*
X9428006Y-16503322D01*
X9428006Y-16503322D02*
X9418482Y-16512846D01*
X9418482Y-16512846D02*
X9408958Y-16531893D01*
X9408958Y-16531893D02*
X9408958Y-16569988D01*
X9408958Y-16569988D02*
X9418482Y-16589036D01*
X9418482Y-16589036D02*
X9428006Y-16598560D01*
X9428006Y-16598560D02*
X9447053Y-16608084D01*
X9447053Y-16608084D02*
X9485149Y-16608084D01*
X9485149Y-16608084D02*
X9504196Y-16598560D01*
X9504196Y-16598560D02*
X9513720Y-16589036D01*
X9513720Y-16589036D02*
X9523244Y-16569988D01*
X9523244Y-16569988D02*
X9523244Y-16531893D01*
X9523244Y-16531893D02*
X9513720Y-16512846D01*
X9513720Y-16512846D02*
X9504196Y-16503322D01*
X9504196Y-16503322D02*
X9485149Y-16493798D01*
X9599434Y-16408084D02*
X9599434Y-16446179D01*
X9675625Y-16408084D02*
X9675625Y-16446179D01*
X9970863Y-16684274D02*
X9961339Y-16674750D01*
X9961339Y-16674750D02*
X9942291Y-16646179D01*
X9942291Y-16646179D02*
X9932768Y-16627131D01*
X9932768Y-16627131D02*
X9923244Y-16598560D01*
X9923244Y-16598560D02*
X9913720Y-16550941D01*
X9913720Y-16550941D02*
X9913720Y-16512846D01*
X9913720Y-16512846D02*
X9923244Y-16465227D01*
X9923244Y-16465227D02*
X9932768Y-16436655D01*
X9932768Y-16436655D02*
X9942291Y-16417608D01*
X9942291Y-16417608D02*
X9961339Y-16389036D01*
X9961339Y-16389036D02*
X9970863Y-16379512D01*
X10151815Y-16608084D02*
X10037530Y-16608084D01*
X10094672Y-16608084D02*
X10094672Y-16408084D01*
X10094672Y-16408084D02*
X10075625Y-16436655D01*
X10075625Y-16436655D02*
X10056577Y-16455703D01*
X10056577Y-16455703D02*
X10037530Y-16465227D01*
X10266101Y-16493798D02*
X10247053Y-16484274D01*
X10247053Y-16484274D02*
X10237530Y-16474750D01*
X10237530Y-16474750D02*
X10228006Y-16455703D01*
X10228006Y-16455703D02*
X10228006Y-16446179D01*
X10228006Y-16446179D02*
X10237530Y-16427131D01*
X10237530Y-16427131D02*
X10247053Y-16417608D01*
X10247053Y-16417608D02*
X10266101Y-16408084D01*
X10266101Y-16408084D02*
X10304196Y-16408084D01*
X10304196Y-16408084D02*
X10323244Y-16417608D01*
X10323244Y-16417608D02*
X10332768Y-16427131D01*
X10332768Y-16427131D02*
X10342291Y-16446179D01*
X10342291Y-16446179D02*
X10342291Y-16455703D01*
X10342291Y-16455703D02*
X10332768Y-16474750D01*
X10332768Y-16474750D02*
X10323244Y-16484274D01*
X10323244Y-16484274D02*
X10304196Y-16493798D01*
X10304196Y-16493798D02*
X10266101Y-16493798D01*
X10266101Y-16493798D02*
X10247053Y-16503322D01*
X10247053Y-16503322D02*
X10237530Y-16512846D01*
X10237530Y-16512846D02*
X10228006Y-16531893D01*
X10228006Y-16531893D02*
X10228006Y-16569988D01*
X10228006Y-16569988D02*
X10237530Y-16589036D01*
X10237530Y-16589036D02*
X10247053Y-16598560D01*
X10247053Y-16598560D02*
X10266101Y-16608084D01*
X10266101Y-16608084D02*
X10304196Y-16608084D01*
X10304196Y-16608084D02*
X10323244Y-16598560D01*
X10323244Y-16598560D02*
X10332768Y-16589036D01*
X10332768Y-16589036D02*
X10342291Y-16569988D01*
X10342291Y-16569988D02*
X10342291Y-16531893D01*
X10342291Y-16531893D02*
X10332768Y-16512846D01*
X10332768Y-16512846D02*
X10323244Y-16503322D01*
X10323244Y-16503322D02*
X10304196Y-16493798D01*
X10580387Y-16608084D02*
X10580387Y-16408084D01*
X10666101Y-16608084D02*
X10666101Y-16503322D01*
X10666101Y-16503322D02*
X10656577Y-16484274D01*
X10656577Y-16484274D02*
X10637530Y-16474750D01*
X10637530Y-16474750D02*
X10608958Y-16474750D01*
X10608958Y-16474750D02*
X10589911Y-16484274D01*
X10589911Y-16484274D02*
X10580387Y-16493798D01*
X10789911Y-16608084D02*
X10770863Y-16598560D01*
X10770863Y-16598560D02*
X10761339Y-16589036D01*
X10761339Y-16589036D02*
X10751815Y-16569988D01*
X10751815Y-16569988D02*
X10751815Y-16512846D01*
X10751815Y-16512846D02*
X10761339Y-16493798D01*
X10761339Y-16493798D02*
X10770863Y-16484274D01*
X10770863Y-16484274D02*
X10789911Y-16474750D01*
X10789911Y-16474750D02*
X10818482Y-16474750D01*
X10818482Y-16474750D02*
X10837530Y-16484274D01*
X10837530Y-16484274D02*
X10847053Y-16493798D01*
X10847053Y-16493798D02*
X10856577Y-16512846D01*
X10856577Y-16512846D02*
X10856577Y-16569988D01*
X10856577Y-16569988D02*
X10847053Y-16589036D01*
X10847053Y-16589036D02*
X10837530Y-16598560D01*
X10837530Y-16598560D02*
X10818482Y-16608084D01*
X10818482Y-16608084D02*
X10789911Y-16608084D01*
X10970863Y-16608084D02*
X10951815Y-16598560D01*
X10951815Y-16598560D02*
X10942292Y-16579512D01*
X10942292Y-16579512D02*
X10942292Y-16408084D01*
X11123244Y-16598560D02*
X11104196Y-16608084D01*
X11104196Y-16608084D02*
X11066101Y-16608084D01*
X11066101Y-16608084D02*
X11047053Y-16598560D01*
X11047053Y-16598560D02*
X11037530Y-16579512D01*
X11037530Y-16579512D02*
X11037530Y-16503322D01*
X11037530Y-16503322D02*
X11047053Y-16484274D01*
X11047053Y-16484274D02*
X11066101Y-16474750D01*
X11066101Y-16474750D02*
X11104196Y-16474750D01*
X11104196Y-16474750D02*
X11123244Y-16484274D01*
X11123244Y-16484274D02*
X11132768Y-16503322D01*
X11132768Y-16503322D02*
X11132768Y-16522369D01*
X11132768Y-16522369D02*
X11037530Y-16541417D01*
X11208958Y-16598560D02*
X11228006Y-16608084D01*
X11228006Y-16608084D02*
X11266101Y-16608084D01*
X11266101Y-16608084D02*
X11285149Y-16598560D01*
X11285149Y-16598560D02*
X11294672Y-16579512D01*
X11294672Y-16579512D02*
X11294672Y-16569988D01*
X11294672Y-16569988D02*
X11285149Y-16550941D01*
X11285149Y-16550941D02*
X11266101Y-16541417D01*
X11266101Y-16541417D02*
X11237530Y-16541417D01*
X11237530Y-16541417D02*
X11218482Y-16531893D01*
X11218482Y-16531893D02*
X11208958Y-16512846D01*
X11208958Y-16512846D02*
X11208958Y-16503322D01*
X11208958Y-16503322D02*
X11218482Y-16484274D01*
X11218482Y-16484274D02*
X11237530Y-16474750D01*
X11237530Y-16474750D02*
X11266101Y-16474750D01*
X11266101Y-16474750D02*
X11285149Y-16484274D01*
X11361339Y-16684274D02*
X11370863Y-16674750D01*
X11370863Y-16674750D02*
X11389911Y-16646179D01*
X11389911Y-16646179D02*
X11399434Y-16627131D01*
X11399434Y-16627131D02*
X11408958Y-16598560D01*
X11408958Y-16598560D02*
X11418482Y-16550941D01*
X11418482Y-16550941D02*
X11418482Y-16512846D01*
X11418482Y-16512846D02*
X11408958Y-16465227D01*
X11408958Y-16465227D02*
X11399434Y-16436655D01*
X11399434Y-16436655D02*
X11389911Y-16417608D01*
X11389911Y-16417608D02*
X11370863Y-16389036D01*
X11370863Y-16389036D02*
X11361339Y-16379512D01*
X11723244Y-16684274D02*
X11713720Y-16674750D01*
X11713720Y-16674750D02*
X11694672Y-16646179D01*
X11694672Y-16646179D02*
X11685149Y-16627131D01*
X11685149Y-16627131D02*
X11675625Y-16598560D01*
X11675625Y-16598560D02*
X11666101Y-16550941D01*
X11666101Y-16550941D02*
X11666101Y-16512846D01*
X11666101Y-16512846D02*
X11675625Y-16465227D01*
X11675625Y-16465227D02*
X11685149Y-16436655D01*
X11685149Y-16436655D02*
X11694672Y-16417608D01*
X11694672Y-16417608D02*
X11713720Y-16389036D01*
X11713720Y-16389036D02*
X11723244Y-16379512D01*
X11799434Y-16474750D02*
X11799434Y-16608084D01*
X11799434Y-16493798D02*
X11808958Y-16484274D01*
X11808958Y-16484274D02*
X11828006Y-16474750D01*
X11828006Y-16474750D02*
X11856577Y-16474750D01*
X11856577Y-16474750D02*
X11875625Y-16484274D01*
X11875625Y-16484274D02*
X11885149Y-16503322D01*
X11885149Y-16503322D02*
X11885149Y-16608084D01*
X12008958Y-16608084D02*
X11989911Y-16598560D01*
X11989911Y-16598560D02*
X11980387Y-16589036D01*
X11980387Y-16589036D02*
X11970863Y-16569988D01*
X11970863Y-16569988D02*
X11970863Y-16512846D01*
X11970863Y-16512846D02*
X11980387Y-16493798D01*
X11980387Y-16493798D02*
X11989911Y-16484274D01*
X11989911Y-16484274D02*
X12008958Y-16474750D01*
X12008958Y-16474750D02*
X12037530Y-16474750D01*
X12037530Y-16474750D02*
X12056577Y-16484274D01*
X12056577Y-16484274D02*
X12066101Y-16493798D01*
X12066101Y-16493798D02*
X12075625Y-16512846D01*
X12075625Y-16512846D02*
X12075625Y-16569988D01*
X12075625Y-16569988D02*
X12066101Y-16589036D01*
X12066101Y-16589036D02*
X12056577Y-16598560D01*
X12056577Y-16598560D02*
X12037530Y-16608084D01*
X12037530Y-16608084D02*
X12008958Y-16608084D01*
X12132768Y-16474750D02*
X12208958Y-16474750D01*
X12161339Y-16408084D02*
X12161339Y-16579512D01*
X12161339Y-16579512D02*
X12170863Y-16598560D01*
X12170863Y-16598560D02*
X12189911Y-16608084D01*
X12189911Y-16608084D02*
X12208958Y-16608084D01*
X12428006Y-16474750D02*
X12428006Y-16674750D01*
X12428006Y-16484274D02*
X12447053Y-16474750D01*
X12447053Y-16474750D02*
X12485149Y-16474750D01*
X12485149Y-16474750D02*
X12504196Y-16484274D01*
X12504196Y-16484274D02*
X12513720Y-16493798D01*
X12513720Y-16493798D02*
X12523244Y-16512846D01*
X12523244Y-16512846D02*
X12523244Y-16569988D01*
X12523244Y-16569988D02*
X12513720Y-16589036D01*
X12513720Y-16589036D02*
X12504196Y-16598560D01*
X12504196Y-16598560D02*
X12485149Y-16608084D01*
X12485149Y-16608084D02*
X12447053Y-16608084D01*
X12447053Y-16608084D02*
X12428006Y-16598560D01*
X12637530Y-16608084D02*
X12618482Y-16598560D01*
X12618482Y-16598560D02*
X12608958Y-16579512D01*
X12608958Y-16579512D02*
X12608958Y-16408084D01*
X12799434Y-16608084D02*
X12799434Y-16503322D01*
X12799434Y-16503322D02*
X12789911Y-16484274D01*
X12789911Y-16484274D02*
X12770863Y-16474750D01*
X12770863Y-16474750D02*
X12732768Y-16474750D01*
X12732768Y-16474750D02*
X12713720Y-16484274D01*
X12799434Y-16598560D02*
X12780387Y-16608084D01*
X12780387Y-16608084D02*
X12732768Y-16608084D01*
X12732768Y-16608084D02*
X12713720Y-16598560D01*
X12713720Y-16598560D02*
X12704196Y-16579512D01*
X12704196Y-16579512D02*
X12704196Y-16560465D01*
X12704196Y-16560465D02*
X12713720Y-16541417D01*
X12713720Y-16541417D02*
X12732768Y-16531893D01*
X12732768Y-16531893D02*
X12780387Y-16531893D01*
X12780387Y-16531893D02*
X12799434Y-16522369D01*
X12866101Y-16474750D02*
X12942292Y-16474750D01*
X12894673Y-16408084D02*
X12894673Y-16579512D01*
X12894673Y-16579512D02*
X12904196Y-16598560D01*
X12904196Y-16598560D02*
X12923244Y-16608084D01*
X12923244Y-16608084D02*
X12942292Y-16608084D01*
X13085149Y-16598560D02*
X13066101Y-16608084D01*
X13066101Y-16608084D02*
X13028006Y-16608084D01*
X13028006Y-16608084D02*
X13008958Y-16598560D01*
X13008958Y-16598560D02*
X12999434Y-16579512D01*
X12999434Y-16579512D02*
X12999434Y-16503322D01*
X12999434Y-16503322D02*
X13008958Y-16484274D01*
X13008958Y-16484274D02*
X13028006Y-16474750D01*
X13028006Y-16474750D02*
X13066101Y-16474750D01*
X13066101Y-16474750D02*
X13085149Y-16484274D01*
X13085149Y-16484274D02*
X13094673Y-16503322D01*
X13094673Y-16503322D02*
X13094673Y-16522369D01*
X13094673Y-16522369D02*
X12999434Y-16541417D01*
X13266101Y-16608084D02*
X13266101Y-16408084D01*
X13266101Y-16598560D02*
X13247054Y-16608084D01*
X13247054Y-16608084D02*
X13208958Y-16608084D01*
X13208958Y-16608084D02*
X13189911Y-16598560D01*
X13189911Y-16598560D02*
X13180387Y-16589036D01*
X13180387Y-16589036D02*
X13170863Y-16569988D01*
X13170863Y-16569988D02*
X13170863Y-16512846D01*
X13170863Y-16512846D02*
X13180387Y-16493798D01*
X13180387Y-16493798D02*
X13189911Y-16484274D01*
X13189911Y-16484274D02*
X13208958Y-16474750D01*
X13208958Y-16474750D02*
X13247054Y-16474750D01*
X13247054Y-16474750D02*
X13266101Y-16484274D01*
X13342292Y-16684274D02*
X13351815Y-16674750D01*
X13351815Y-16674750D02*
X13370863Y-16646179D01*
X13370863Y-16646179D02*
X13380387Y-16627131D01*
X13380387Y-16627131D02*
X13389911Y-16598560D01*
X13389911Y-16598560D02*
X13399434Y-16550941D01*
X13399434Y-16550941D02*
X13399434Y-16512846D01*
X13399434Y-16512846D02*
X13389911Y-16465227D01*
X13389911Y-16465227D02*
X13380387Y-16436655D01*
X13380387Y-16436655D02*
X13370863Y-16417608D01*
X13370863Y-16417608D02*
X13351815Y-16389036D01*
X13351815Y-16389036D02*
X13342292Y-16379512D01*
M02*
