999
FreeCAD v0.20 29603 (Git)
  0
SECTION
  2
HEADER
  9
$ACADVER
  1
AC1014
  9
$ACADMAINTVER
 70
     9
  9
$DWGCODEPAGE
  3
ANSI_1252
  9
$TEXTSTYLE
  7
STANDARD
  9
$DIMSTYLE
  2
STANDARD
  9
$DIMTXSTY
  7
STANDARD
  9
$CMLSTYLE
  2
STANDARD
  9
$LUNITS
 70
2
  9
$INSUNITS
 70
4
  9
$PEXTMAX
 10
50
 20
50
 30
50
  9
$PEXTMIN
 10
0
 20
0
 30
0
  9
$HANDSEED
  5
FFFF
  0
ENDSEC
  0
SECTION
  2
CLASSES
  0
CLASS
  1
ACDBDICTIONARYWDFLT
  2
AcDbDictionaryWithDefault
  3
ObjectDBX Classes
 90
        0
280
     0
281
     0
  0
CLASS
  1
XRECORD
  2
AcDbXrecord
  3
ObjectDBX Classes
 90
        0
280
     0
281
     0
  0
CLASS
  1
LWPOLYLINE
  2
AcDbPolyline
  3
ObjectDBX Classes
 90
        0
280
     0
281
     1
  0
ENDSEC
  0
SECTION
  2
TABLES
  0
TABLE
  2
VPORT
  5
20
330
0
100
AcDbSymbolTable
 70
     1
  0
VPORT
  5
21
330
20
100
AcDbSymbolTableRecord
100
AcDbViewportTableRecord
  2
*ACTIVE
 70
     0
  0
ENDTAB
  0
TABLE
  2
LTYPE
  5
22
330
0
100
AcDbSymbolTable
 70
     1
  0
LTYPE
  5
23
330
21
100
AcDbSymbolTableRecord
100
AcDbLinetypeTableRecord
  2
BYBLOCK
 70
     0
  3

 72
    65
 73
     0
 40
0.0
  0
LTYPE
  5
24
330
21
100
AcDbSymbolTableRecord
100
AcDbLinetypeTableRecord
  2
BYLAYER
 70
     0
  3

 72
    65
 73
     0
 40
0.0
  0
LTYPE
  5
25
330
21
100
AcDbSymbolTableRecord
100
AcDbLinetypeTableRecord
  2
CONTINUOUS
 70
     0
  3
Solid line
 72
    65
 73
     0
 40
0.0
  0
ENDTAB
  0
TABLE
  2
LAYER
  5
AD4
330
0
100
AcDbSymbolTable
 70
3
  0
LAYER
  5
AD5
330
AD4
100
AcDbSymbolTableRecord
100
AcDbLayerTableRecord
  2
0
 70
   0
 62
   7
  6
CONTINUOUS
  0
LAYER
  5
AD6
330
AD4
100
AcDbSymbolTableRecord
100
AcDbLayerTableRecord
  2
none
 70
    0
 62
    7
  6
CONTINUOUS
  0
LAYER
  5
AD7
330
AD4
100
AcDbSymbolTableRecord
100
AcDbLayerTableRecord
  2
Pocket005
 70
    0
 62
    7
  6
CONTINUOUS
  0
ENDTAB
  0
TABLE
  2
STYLE
  5
70
330
0
100
AcDbSymbolTable
 70
     2
  0
STYLE
  5
71
330
70
100
AcDbSymbolTableRecord
100
AcDbTextStyleTableRecord
  2
STANDARD
 70
     0
 40
0.0
 41
1.0
 50
0.0
 71
     0
 42
2.5
  3
arial.ttf
  4

  0
STYLE
  5
72
330
70
100
AcDbSymbolTableRecord
100
AcDbTextStyleTableRecord
  2
ANNOTATIVE
 70
     0
 40
0.0
 41
1.0
 50
0.0
 71
     0
 42
2.5
  3
arial.ttf
  4

  0
ENDTAB
  0
TABLE
  2
VIEW
  5
73
330
0
100
AcDbSymbolTable
 70
     0
  0
ENDTAB
  0
TABLE
  2
UCS
  5
74
330
0
100
AcDbSymbolTable
 70
     0
  0
ENDTAB
  0
TABLE
  2
APPID
  5
75
330
0
100
AcDbSymbolTable
 70
     2
  0
APPID
  5
76
330
75
100
AcDbSymbolTableRecord
100
AcDbRegAppTableRecord
  2
ACAD
 70
     0
  0
APPID
  5
77
330
75
100
AcDbSymbolTableRecord
100
AcDbRegAppTableRecord
  2
ACADANNOTATIVE
 70
     0
  0
ENDTAB
  0
TABLE
  2
DIMSTYLE
  5
78
330
0
100
AcDbSymbolTable
 70
     2
  0
DIMSTYLE
105
79
330
78
100
AcDbSymbolTableRecord
100
AcDbDimStyleTableRecord
  2
STANDARD
 70
     0
  3

  4

  5

  6

  7

 40
0.0
 41
2.5
 42
0.625
 43
3.75
 44
1.25
 45
0.0
 46
0.0
 47
0.0
 48
0.0
140
2.5
141
2.5
142
0.0
143
0.03937007874016
144
1.0
145
0.0
146
1.0
147
0.625
 71
     0
 72
     0
 73
     0
 74
     0
 75
     0
 76
     0
 77
     1
 78
     8
170
     0
171
     3
172
     1
173
     0
174
     0
175
     0
176
     0
177
     0
178
     0
270
     2
271
     2
272
     2
273
     2
274
     3
340
71
275
     0
280
     0
281
     0
282
     0
283
     0
284
     8
285
     0
286
     0
287
     3
288
     0
  0
ENDTAB
  0
TABLE
  2
BLOCK_RECORD
  5
A01
330
0
100
AcDbSymbolTable
  70
5
  0
BLOCK_RECORD
  5
A02
330
A01
100
AcDbSymbolTableRecord
100
AcDbBlockTableRecord
  2
*MODEL_SPACE
  0
BLOCK_RECORD
  5
A03
330
A01
100
AcDbSymbolTableRecord
100
AcDbBlockTableRecord
  2
*PAPER_SPACE
  0
ENDTAB
  0
ENDSEC
  0
SECTION
  2
BLOCKS
  0
BLOCK
  5
A04
330
A02
100
AcDbEntity
  8
0
100
AcDbBlockBegin
  2
*MODEL_SPACE
 70
   0
 10
0
 20
0
 30
0
  3
*MODEL_SPACE
  1
 
  0
ENDBLK
  5
A05
330
A02
100
AcDbEntity
  8
0
100
AcDbBlockEnd
  0
BLOCK
  5
A06
330
A03
100
AcDbEntity
 67
1
  8
0
100
AcDbBlockBegin
  2
*PAPER_SPACE
 70
   0
 10
0
 20
0
 30
0
  3
*PAPER_SPACE
  1
 
  0
ENDBLK
  5
A07
330
A03
100
AcDbEntity
 67
    1
  8
0
100
AcDbBlockEnd
  0
ENDSEC
  0
SECTION
  2
ENTITIES
  0
LINE
  5
A08
330
A02
100
AcDbEntity
  8
Pocket005
100
AcDbLine
 10
-2.14326
 20
-96.7746
 30
0
 11
-2.14326
 21
-96.7746
 31
-5
  0
LINE
  5
A09
330
A02
100
AcDbEntity
  8
Pocket005
100
AcDbLine
 10
-2.14326
 20
5.63346
 30
0
 11
-2.14326
 21
5.63346
 31
-5
  0
LINE
  5
A0A
330
A02
100
AcDbEntity
  8
Pocket005
100
AcDbLine
 10
-2.14326
 20
-96.7746
 30
0
 11
-2.14326
 21
5.63346
 31
0
  0
LINE
  5
A0B
330
A02
100
AcDbEntity
  8
Pocket005
100
AcDbLine
 10
-2.14326
 20
-96.7746
 30
-5
 11
-2.14326
 21
5.63346
 31
-5
  0
LINE
  5
A0C
330
A02
100
AcDbEntity
  8
Pocket005
100
AcDbLine
 10
-2.14326
 20
-96.7746
 30
0
 11
-2.14326
 21
-96.7746
 31
-5
  0
LINE
  5
A0D
330
A02
100
AcDbEntity
  8
Pocket005
100
AcDbLine
 10
1.30016
 20
-100.218
 30
0
 11
1.30016
 21
-100.218
 31
-5
  0
ARC
  5
A0E
330
A02
100
AcDbEntity
  8
Pocket005
100
AcDbCircle
 10
1.30016
 20
-96.7746
 30
0
 40
3.44342
100
AcDbArc
 50
180
 51
-90
  0
ARC
  5
A0F
330
A02
100
AcDbEntity
  8
Pocket005
100
AcDbCircle
 10
1.30016
 20
-96.7746
 30
-5
 40
3.44342
100
AcDbArc
 50
180
 51
-90
  0
LINE
  5
A10
330
A02
100
AcDbEntity
  8
Pocket005
100
AcDbLine
 10
2.94989
 20
10.7266
 30
0
 11
2.94989
 21
10.7266
 31
-5
  0
LINE
  5
A11
330
A02
100
AcDbEntity
  8
Pocket005
100
AcDbLine
 10
-2.14326
 20
5.63346
 30
0
 11
-2.14326
 21
5.63346
 31
-5
  0
ARC
  5
A12
330
A02
100
AcDbEntity
  8
Pocket005
100
AcDbCircle
 10
2.94989
 20
5.63346
 30
0
 40
5.09315
100
AcDbArc
 50
90
 51
180
  0
ARC
  5
A13
330
A02
100
AcDbEntity
  8
Pocket005
100
AcDbCircle
 10
2.94989
 20
5.63346
 30
-5
 40
5.09315
100
AcDbArc
 50
90
 51
180
  0
LINE
  5
A14
330
A02
100
AcDbEntity
  8
Pocket005
100
AcDbLine
 10
-2.14326
 20
-96.7746
 30
0
 11
-2.14326
 21
5.63346
 31
0
  0
ARC
  5
A15
330
A02
100
AcDbEntity
  8
Pocket005
100
AcDbCircle
 10
1.30016
 20
-96.7746
 30
0
 40
3.44342
100
AcDbArc
 50
180
 51
-90
  0
ARC
  5
A16
330
A02
100
AcDbEntity
  8
Pocket005
100
AcDbCircle
 10
2.94989
 20
5.63346
 30
0
 40
5.09315
100
AcDbArc
 50
90
 51
180
  0
LINE
  5
A17
330
A02
100
AcDbEntity
  8
Pocket005
100
AcDbLine
 10
241.329
 20
-100.218
 30
0
 11
1.30016
 21
-100.218
 31
0
  0
LINE
  5
A18
330
A02
100
AcDbEntity
  8
Pocket005
100
AcDbLine
 10
2.94989
 20
10.7266
 30
0
 11
243.407
 21
10.7266
 31
0
  0
ARC
  5
A19
330
A02
100
AcDbEntity
  8
Pocket005
100
AcDbCircle
 10
241.329
 20
-94.9947
 30
0
 40
5.22335
100
AcDbArc
 50
-90
 51
0
  0
ARC
  5
A1A
330
A02
100
AcDbEntity
  8
Pocket005
100
AcDbCircle
 10
243.407
 20
7.58096
 30
0
 40
3.14564
100
AcDbArc
 50
0
 51
90
  0
LINE
  5
A1B
330
A02
100
AcDbEntity
  8
Pocket005
100
AcDbLine
 10
246.552
 20
7.58096
 30
0
 11
246.552
 21
-94.9947
 31
0
  0
CIRCLE
  5
A1C
330
A02
100
AcDbEntity
  8
Pocket005
100
AcDbCircle
 10
5.84222
 20
-89.7545
 40
2
  0
CIRCLE
  5
A1D
330
A02
100
AcDbEntity
  8
Pocket005
100
AcDbCircle
 10
114.223
 20
-86.6552
 40
11.5
  0
LINE
  5
A1E
330
A02
100
AcDbEntity
  8
Pocket005
100
AcDbLine
 10
61.9544
 20
-50.3226
 30
0
 11
58.2197
 21
-59.5375
 31
0
  0
LINE
  5
A1F
330
A02
100
AcDbEntity
  8
Pocket005
100
AcDbLine
 10
40.3474
 20
-52.975
 30
0
 11
58.2197
 21
-59.5375
 31
0
  0
LINE
  5
A20
330
A02
100
AcDbEntity
  8
Pocket005
100
AcDbLine
 10
40.3474
 20
-52.975
 30
0
 11
34.0657
 21
-70.232
 31
0
  0
LINE
  5
A21
330
A02
100
AcDbEntity
  8
Pocket005
100
AcDbLine
 10
34.0657
 20
-70.232
 30
0
 11
87.1238
 21
-90.0486
 31
0
  0
LINE
  5
A22
330
A02
100
AcDbEntity
  8
Pocket005
100
AcDbLine
 10
93.4166
 20
-72.7756
 30
0
 11
87.1238
 21
-90.0486
 31
0
  0
LINE
  5
A23
330
A02
100
AcDbEntity
  8
Pocket005
100
AcDbLine
 10
75.5554
 20
-66.136
 30
0
 11
93.4166
 21
-72.7756
 31
0
  0
LINE
  5
A24
330
A02
100
AcDbEntity
  8
Pocket005
100
AcDbLine
 10
79.2356
 20
-56.6277
 30
0
 11
75.5554
 21
-66.136
 31
0
  0
LINE
  5
A25
330
A02
100
AcDbEntity
  8
Pocket005
100
AcDbLine
 10
79.2356
 20
-56.6277
 30
0
 11
82.411
 21
-47.9487
 31
0
  0
LINE
  5
A26
330
A02
100
AcDbEntity
  8
Pocket005
100
AcDbLine
 10
65.087
 20
-41.7096
 30
0
 11
82.411
 21
-47.9487
 31
0
  0
LINE
  5
A27
330
A02
100
AcDbEntity
  8
Pocket005
100
AcDbLine
 10
61.9544
 20
-50.3226
 30
0
 11
65.087
 21
-41.7096
 31
0
  0
CIRCLE
  5
A28
330
A02
100
AcDbEntity
  8
Pocket005
100
AcDbCircle
 10
119.488
 20
-52.5802
 40
11.5
  0
CIRCLE
  5
A29
330
A02
100
AcDbEntity
  8
Pocket005
100
AcDbCircle
 10
147.48
 20
-80.9628
 40
11.5
  0
CIRCLE
  5
A2A
330
A02
100
AcDbEntity
  8
Pocket005
100
AcDbCircle
 10
236.989
 20
-90.0368
 40
2
  0
CIRCLE
  5
A2B
330
A02
100
AcDbEntity
  8
Pocket005
100
AcDbCircle
 10
180.537
 20
-80.9206
 40
11.5
  0
CIRCLE
  5
A2C
330
A02
100
AcDbEntity
  8
Pocket005
100
AcDbCircle
 10
213.522
 20
-80.9288
 40
11.5
  0
CIRCLE
  5
A2D
330
A02
100
AcDbEntity
  8
Pocket005
100
AcDbCircle
 10
6.04919
 20
0.907758
 40
2
  0
LINE
  5
A2E
330
A02
100
AcDbEntity
  8
Pocket005
100
AcDbLine
 10
3.6778
 20
-21.8796
 30
0
 11
3.6778
 21
-3.67118
 31
0
  0
LINE
  5
A2F
330
A02
100
AcDbEntity
  8
Pocket005
100
AcDbLine
 10
123.261
 20
-21.8796
 30
0
 11
3.6778
 21
-21.8796
 31
0
  0
LINE
  5
A30
330
A02
100
AcDbEntity
  8
Pocket005
100
AcDbLine
 10
3.6778
 20
-3.67118
 30
0
 11
123.261
 21
-3.67118
 31
0
  0
LINE
  5
A31
330
A02
100
AcDbEntity
  8
Pocket005
100
AcDbLine
 10
123.261
 20
-3.67118
 30
0
 11
123.261
 21
-21.8796
 31
0
  0
CIRCLE
  5
A32
330
A02
100
AcDbEntity
  8
Pocket005
100
AcDbCircle
 10
152.53
 20
-45.5313
 40
11.5
  0
CIRCLE
  5
A33
330
A02
100
AcDbEntity
  8
Pocket005
100
AcDbCircle
 10
185.521
 20
-45.4089
 40
11.5
  0
CIRCLE
  5
A34
330
A02
100
AcDbEntity
  8
Pocket005
100
AcDbCircle
 10
218.439
 20
-45.401
 40
11.5
  0
CIRCLE
  5
A35
330
A02
100
AcDbEntity
  8
Pocket005
100
AcDbCircle
 10
237.133
 20
1.15289
 40
2
  0
LINE
  5
A36
330
A02
100
AcDbEntity
  8
Pocket005
100
AcDbLine
 10
-2.14326
 20
-96.7746
 30
-5
 11
-2.14326
 21
5.63346
 31
-5
  0
ARC
  5
A37
330
A02
100
AcDbEntity
  8
Pocket005
100
AcDbCircle
 10
1.30016
 20
-96.7746
 30
-5
 40
3.44342
100
AcDbArc
 50
180
 51
-90
  0
ARC
  5
A38
330
A02
100
AcDbEntity
  8
Pocket005
100
AcDbCircle
 10
2.94989
 20
5.63346
 30
-5
 40
5.09315
100
AcDbArc
 50
90
 51
180
  0
LINE
  5
A39
330
A02
100
AcDbEntity
  8
Pocket005
100
AcDbLine
 10
241.329
 20
-100.218
 30
-5
 11
1.30016
 21
-100.218
 31
-5
  0
LINE
  5
A3A
330
A02
100
AcDbEntity
  8
Pocket005
100
AcDbLine
 10
2.94989
 20
10.7266
 30
-5
 11
243.407
 21
10.7266
 31
-5
  0
ARC
  5
A3B
330
A02
100
AcDbEntity
  8
Pocket005
100
AcDbCircle
 10
241.329
 20
-94.9947
 30
-5
 40
5.22335
100
AcDbArc
 50
-90
 51
0
  0
ARC
  5
A3C
330
A02
100
AcDbEntity
  8
Pocket005
100
AcDbCircle
 10
243.407
 20
7.58096
 30
-5
 40
3.14564
100
AcDbArc
 50
0
 51
90
  0
LINE
  5
A3D
330
A02
100
AcDbEntity
  8
Pocket005
100
AcDbLine
 10
246.552
 20
7.58096
 30
-5
 11
246.552
 21
-94.9947
 31
-5
  0
CIRCLE
  5
A3E
330
A02
100
AcDbEntity
  8
Pocket005
100
AcDbCircle
 10
5.84222
 20
-89.7545
 40
2
  0
CIRCLE
  5
A3F
330
A02
100
AcDbEntity
  8
Pocket005
100
AcDbCircle
 10
114.223
 20
-86.6552
 40
11.5
  0
LINE
  5
A40
330
A02
100
AcDbEntity
  8
Pocket005
100
AcDbLine
 10
61.9544
 20
-50.3226
 30
-5
 11
58.2197
 21
-59.5375
 31
-5
  0
LINE
  5
A41
330
A02
100
AcDbEntity
  8
Pocket005
100
AcDbLine
 10
40.3474
 20
-52.975
 30
-5
 11
58.2197
 21
-59.5375
 31
-5
  0
LINE
  5
A42
330
A02
100
AcDbEntity
  8
Pocket005
100
AcDbLine
 10
40.3474
 20
-52.975
 30
-5
 11
34.0657
 21
-70.232
 31
-5
  0
LINE
  5
A43
330
A02
100
AcDbEntity
  8
Pocket005
100
AcDbLine
 10
34.0657
 20
-70.232
 30
-5
 11
87.1238
 21
-90.0486
 31
-5
  0
LINE
  5
A44
330
A02
100
AcDbEntity
  8
Pocket005
100
AcDbLine
 10
93.4166
 20
-72.7756
 30
-5
 11
87.1238
 21
-90.0486
 31
-5
  0
LINE
  5
A45
330
A02
100
AcDbEntity
  8
Pocket005
100
AcDbLine
 10
75.5554
 20
-66.136
 30
-5
 11
93.4166
 21
-72.7756
 31
-5
  0
LINE
  5
A46
330
A02
100
AcDbEntity
  8
Pocket005
100
AcDbLine
 10
79.2356
 20
-56.6277
 30
-5
 11
75.5554
 21
-66.136
 31
-5
  0
LINE
  5
A47
330
A02
100
AcDbEntity
  8
Pocket005
100
AcDbLine
 10
79.2356
 20
-56.6277
 30
-5
 11
82.411
 21
-47.9487
 31
-5
  0
LINE
  5
A48
330
A02
100
AcDbEntity
  8
Pocket005
100
AcDbLine
 10
65.087
 20
-41.7096
 30
-5
 11
82.411
 21
-47.9487
 31
-5
  0
LINE
  5
A49
330
A02
100
AcDbEntity
  8
Pocket005
100
AcDbLine
 10
61.9544
 20
-50.3226
 30
-5
 11
65.087
 21
-41.7096
 31
-5
  0
CIRCLE
  5
A4A
330
A02
100
AcDbEntity
  8
Pocket005
100
AcDbCircle
 10
119.488
 20
-52.5802
 40
11.5
  0
CIRCLE
  5
A4B
330
A02
100
AcDbEntity
  8
Pocket005
100
AcDbCircle
 10
147.48
 20
-80.9628
 40
11.5
  0
CIRCLE
  5
A4C
330
A02
100
AcDbEntity
  8
Pocket005
100
AcDbCircle
 10
236.989
 20
-90.0368
 40
2
  0
CIRCLE
  5
A4D
330
A02
100
AcDbEntity
  8
Pocket005
100
AcDbCircle
 10
180.537
 20
-80.9206
 40
11.5
  0
CIRCLE
  5
A4E
330
A02
100
AcDbEntity
  8
Pocket005
100
AcDbCircle
 10
213.522
 20
-80.9288
 40
11.5
  0
CIRCLE
  5
A4F
330
A02
100
AcDbEntity
  8
Pocket005
100
AcDbCircle
 10
6.04919
 20
0.907758
 40
2
  0
LINE
  5
A50
330
A02
100
AcDbEntity
  8
Pocket005
100
AcDbLine
 10
3.6778
 20
-21.8796
 30
-5
 11
3.6778
 21
-3.67118
 31
-5
  0
LINE
  5
A51
330
A02
100
AcDbEntity
  8
Pocket005
100
AcDbLine
 10
123.261
 20
-21.8796
 30
-5
 11
3.6778
 21
-21.8796
 31
-5
  0
LINE
  5
A52
330
A02
100
AcDbEntity
  8
Pocket005
100
AcDbLine
 10
3.6778
 20
-3.67118
 30
-5
 11
123.261
 21
-3.67118
 31
-5
  0
LINE
  5
A53
330
A02
100
AcDbEntity
  8
Pocket005
100
AcDbLine
 10
123.261
 20
-3.67118
 30
-5
 11
123.261
 21
-21.8796
 31
-5
  0
CIRCLE
  5
A54
330
A02
100
AcDbEntity
  8
Pocket005
100
AcDbCircle
 10
152.53
 20
-45.5313
 40
11.5
  0
CIRCLE
  5
A55
330
A02
100
AcDbEntity
  8
Pocket005
100
AcDbCircle
 10
185.521
 20
-45.4089
 40
11.5
  0
CIRCLE
  5
A56
330
A02
100
AcDbEntity
  8
Pocket005
100
AcDbCircle
 10
218.439
 20
-45.401
 40
11.5
  0
CIRCLE
  5
A57
330
A02
100
AcDbEntity
  8
Pocket005
100
AcDbCircle
 10
237.133
 20
1.15289
 40
2
  0
LINE
  5
A58
330
A02
100
AcDbEntity
  8
Pocket005
100
AcDbLine
 10
241.329
 20
-100.218
 30
0
 11
241.329
 21
-100.218
 31
-5
  0
LINE
  5
A59
330
A02
100
AcDbEntity
  8
Pocket005
100
AcDbLine
 10
1.30016
 20
-100.218
 30
0
 11
1.30016
 21
-100.218
 31
-5
  0
LINE
  5
A5A
330
A02
100
AcDbEntity
  8
Pocket005
100
AcDbLine
 10
241.329
 20
-100.218
 30
0
 11
1.30016
 21
-100.218
 31
0
  0
LINE
  5
A5B
330
A02
100
AcDbEntity
  8
Pocket005
100
AcDbLine
 10
241.329
 20
-100.218
 30
-5
 11
1.30016
 21
-100.218
 31
-5
  0
LINE
  5
A5C
330
A02
100
AcDbEntity
  8
Pocket005
100
AcDbLine
 10
2.94989
 20
10.7266
 30
0
 11
2.94989
 21
10.7266
 31
-5
  0
LINE
  5
A5D
330
A02
100
AcDbEntity
  8
Pocket005
100
AcDbLine
 10
243.407
 20
10.7266
 30
0
 11
243.407
 21
10.7266
 31
-5
  0
LINE
  5
A5E
330
A02
100
AcDbEntity
  8
Pocket005
100
AcDbLine
 10
2.94989
 20
10.7266
 30
0
 11
243.407
 21
10.7266
 31
0
  0
LINE
  5
A5F
330
A02
100
AcDbEntity
  8
Pocket005
100
AcDbLine
 10
2.94989
 20
10.7266
 30
-5
 11
243.407
 21
10.7266
 31
-5
  0
LINE
  5
A60
330
A02
100
AcDbEntity
  8
Pocket005
100
AcDbLine
 10
241.329
 20
-100.218
 30
0
 11
241.329
 21
-100.218
 31
-5
  0
LINE
  5
A61
330
A02
100
AcDbEntity
  8
Pocket005
100
AcDbLine
 10
246.552
 20
-94.9947
 30
0
 11
246.552
 21
-94.9947
 31
-5
  0
ARC
  5
A62
330
A02
100
AcDbEntity
  8
Pocket005
100
AcDbCircle
 10
241.329
 20
-94.9947
 30
0
 40
5.22335
100
AcDbArc
 50
-90
 51
0
  0
ARC
  5
A63
330
A02
100
AcDbEntity
  8
Pocket005
100
AcDbCircle
 10
241.329
 20
-94.9947
 30
-5
 40
5.22335
100
AcDbArc
 50
-90
 51
0
  0
LINE
  5
A64
330
A02
100
AcDbEntity
  8
Pocket005
100
AcDbLine
 10
246.552
 20
7.58096
 30
0
 11
246.552
 21
7.58096
 31
-5
  0
LINE
  5
A65
330
A02
100
AcDbEntity
  8
Pocket005
100
AcDbLine
 10
243.407
 20
10.7266
 30
0
 11
243.407
 21
10.7266
 31
-5
  0
ARC
  5
A66
330
A02
100
AcDbEntity
  8
Pocket005
100
AcDbCircle
 10
243.407
 20
7.58096
 30
0
 40
3.14564
100
AcDbArc
 50
0
 51
90
  0
ARC
  5
A67
330
A02
100
AcDbEntity
  8
Pocket005
100
AcDbCircle
 10
243.407
 20
7.58096
 30
-5
 40
3.14564
100
AcDbArc
 50
0
 51
90
  0
LINE
  5
A68
330
A02
100
AcDbEntity
  8
Pocket005
100
AcDbLine
 10
246.552
 20
7.58096
 30
0
 11
246.552
 21
7.58096
 31
-5
  0
LINE
  5
A69
330
A02
100
AcDbEntity
  8
Pocket005
100
AcDbLine
 10
246.552
 20
-94.9947
 30
0
 11
246.552
 21
-94.9947
 31
-5
  0
LINE
  5
A6A
330
A02
100
AcDbEntity
  8
Pocket005
100
AcDbLine
 10
246.552
 20
7.58096
 30
0
 11
246.552
 21
-94.9947
 31
0
  0
LINE
  5
A6B
330
A02
100
AcDbEntity
  8
Pocket005
100
AcDbLine
 10
246.552
 20
7.58096
 30
-5
 11
246.552
 21
-94.9947
 31
-5
  0
LINE
  5
A6C
330
A02
100
AcDbEntity
  8
Pocket005
100
AcDbLine
 10
7.84222
 20
-89.7545
 30
0
 11
7.84222
 21
-89.7545
 31
-5
  0
CIRCLE
  5
A6D
330
A02
100
AcDbEntity
  8
Pocket005
100
AcDbCircle
 10
5.84222
 20
-89.7545
 40
2
  0
LINE
  5
A6E
330
A02
100
AcDbEntity
  8
Pocket005
100
AcDbLine
 10
7.84222
 20
-89.7545
 30
0
 11
7.84222
 21
-89.7545
 31
-5
  0
CIRCLE
  5
A6F
330
A02
100
AcDbEntity
  8
Pocket005
100
AcDbCircle
 10
5.84222
 20
-89.7545
 40
2
  0
LINE
  5
A70
330
A02
100
AcDbEntity
  8
Pocket005
100
AcDbLine
 10
125.723
 20
-86.6552
 30
0
 11
125.723
 21
-86.6552
 31
-5
  0
CIRCLE
  5
A71
330
A02
100
AcDbEntity
  8
Pocket005
100
AcDbCircle
 10
114.223
 20
-86.6552
 40
11.5
  0
LINE
  5
A72
330
A02
100
AcDbEntity
  8
Pocket005
100
AcDbLine
 10
125.723
 20
-86.6552
 30
0
 11
125.723
 21
-86.6552
 31
-5
  0
CIRCLE
  5
A73
330
A02
100
AcDbEntity
  8
Pocket005
100
AcDbCircle
 10
114.223
 20
-86.6552
 40
11.5
  0
LINE
  5
A74
330
A02
100
AcDbEntity
  8
Pocket005
100
AcDbLine
 10
61.9544
 20
-50.3226
 30
0
 11
58.2197
 21
-59.5375
 31
0
  0
LINE
  5
A75
330
A02
100
AcDbEntity
  8
Pocket005
100
AcDbLine
 10
58.2197
 20
-59.5375
 30
0
 11
58.2197
 21
-59.5375
 31
-5
  0
LINE
  5
A76
330
A02
100
AcDbEntity
  8
Pocket005
100
AcDbLine
 10
61.9544
 20
-50.3226
 30
-5
 11
58.2197
 21
-59.5375
 31
-5
  0
LINE
  5
A77
330
A02
100
AcDbEntity
  8
Pocket005
100
AcDbLine
 10
61.9544
 20
-50.3226
 30
0
 11
61.9544
 21
-50.3226
 31
-5
  0
LINE
  5
A78
330
A02
100
AcDbEntity
  8
Pocket005
100
AcDbLine
 10
40.3474
 20
-52.975
 30
0
 11
58.2197
 21
-59.5375
 31
0
  0
LINE
  5
A79
330
A02
100
AcDbEntity
  8
Pocket005
100
AcDbLine
 10
58.2197
 20
-59.5375
 30
0
 11
58.2197
 21
-59.5375
 31
-5
  0
LINE
  5
A7A
330
A02
100
AcDbEntity
  8
Pocket005
100
AcDbLine
 10
40.3474
 20
-52.975
 30
-5
 11
58.2197
 21
-59.5375
 31
-5
  0
LINE
  5
A7B
330
A02
100
AcDbEntity
  8
Pocket005
100
AcDbLine
 10
40.3474
 20
-52.975
 30
0
 11
40.3474
 21
-52.975
 31
-5
  0
LINE
  5
A7C
330
A02
100
AcDbEntity
  8
Pocket005
100
AcDbLine
 10
40.3474
 20
-52.975
 30
0
 11
34.0657
 21
-70.232
 31
0
  0
LINE
  5
A7D
330
A02
100
AcDbEntity
  8
Pocket005
100
AcDbLine
 10
34.0657
 20
-70.232
 30
0
 11
34.0657
 21
-70.232
 31
-5
  0
LINE
  5
A7E
330
A02
100
AcDbEntity
  8
Pocket005
100
AcDbLine
 10
40.3474
 20
-52.975
 30
-5
 11
34.0657
 21
-70.232
 31
-5
  0
LINE
  5
A7F
330
A02
100
AcDbEntity
  8
Pocket005
100
AcDbLine
 10
40.3474
 20
-52.975
 30
0
 11
40.3474
 21
-52.975
 31
-5
  0
LINE
  5
A80
330
A02
100
AcDbEntity
  8
Pocket005
100
AcDbLine
 10
34.0657
 20
-70.232
 30
0
 11
87.1238
 21
-90.0486
 31
0
  0
LINE
  5
A81
330
A02
100
AcDbEntity
  8
Pocket005
100
AcDbLine
 10
87.1238
 20
-90.0486
 30
0
 11
87.1238
 21
-90.0486
 31
-5
  0
LINE
  5
A82
330
A02
100
AcDbEntity
  8
Pocket005
100
AcDbLine
 10
34.0657
 20
-70.232
 30
-5
 11
87.1238
 21
-90.0486
 31
-5
  0
LINE
  5
A83
330
A02
100
AcDbEntity
  8
Pocket005
100
AcDbLine
 10
34.0657
 20
-70.232
 30
0
 11
34.0657
 21
-70.232
 31
-5
  0
LINE
  5
A84
330
A02
100
AcDbEntity
  8
Pocket005
100
AcDbLine
 10
93.4166
 20
-72.7756
 30
0
 11
87.1238
 21
-90.0486
 31
0
  0
LINE
  5
A85
330
A02
100
AcDbEntity
  8
Pocket005
100
AcDbLine
 10
87.1238
 20
-90.0486
 30
0
 11
87.1238
 21
-90.0486
 31
-5
  0
LINE
  5
A86
330
A02
100
AcDbEntity
  8
Pocket005
100
AcDbLine
 10
93.4166
 20
-72.7756
 30
-5
 11
87.1238
 21
-90.0486
 31
-5
  0
LINE
  5
A87
330
A02
100
AcDbEntity
  8
Pocket005
100
AcDbLine
 10
93.4166
 20
-72.7756
 30
0
 11
93.4166
 21
-72.7756
 31
-5
  0
LINE
  5
A88
330
A02
100
AcDbEntity
  8
Pocket005
100
AcDbLine
 10
75.5554
 20
-66.136
 30
0
 11
93.4166
 21
-72.7756
 31
0
  0
LINE
  5
A89
330
A02
100
AcDbEntity
  8
Pocket005
100
AcDbLine
 10
93.4166
 20
-72.7756
 30
0
 11
93.4166
 21
-72.7756
 31
-5
  0
LINE
  5
A8A
330
A02
100
AcDbEntity
  8
Pocket005
100
AcDbLine
 10
75.5554
 20
-66.136
 30
-5
 11
93.4166
 21
-72.7756
 31
-5
  0
LINE
  5
A8B
330
A02
100
AcDbEntity
  8
Pocket005
100
AcDbLine
 10
75.5554
 20
-66.136
 30
0
 11
75.5554
 21
-66.136
 31
-5
  0
LINE
  5
A8C
330
A02
100
AcDbEntity
  8
Pocket005
100
AcDbLine
 10
79.2356
 20
-56.6277
 30
0
 11
75.5554
 21
-66.136
 31
0
  0
LINE
  5
A8D
330
A02
100
AcDbEntity
  8
Pocket005
100
AcDbLine
 10
75.5554
 20
-66.136
 30
0
 11
75.5554
 21
-66.136
 31
-5
  0
LINE
  5
A8E
330
A02
100
AcDbEntity
  8
Pocket005
100
AcDbLine
 10
79.2356
 20
-56.6277
 30
-5
 11
75.5554
 21
-66.136
 31
-5
  0
LINE
  5
A8F
330
A02
100
AcDbEntity
  8
Pocket005
100
AcDbLine
 10
79.2356
 20
-56.6277
 30
0
 11
79.2356
 21
-56.6277
 31
-5
  0
LINE
  5
A90
330
A02
100
AcDbEntity
  8
Pocket005
100
AcDbLine
 10
79.2356
 20
-56.6277
 30
0
 11
82.411
 21
-47.9487
 31
0
  0
LINE
  5
A91
330
A02
100
AcDbEntity
  8
Pocket005
100
AcDbLine
 10
82.411
 20
-47.9487
 30
0
 11
82.411
 21
-47.9487
 31
-5
  0
LINE
  5
A92
330
A02
100
AcDbEntity
  8
Pocket005
100
AcDbLine
 10
79.2356
 20
-56.6277
 30
-5
 11
82.411
 21
-47.9487
 31
-5
  0
LINE
  5
A93
330
A02
100
AcDbEntity
  8
Pocket005
100
AcDbLine
 10
79.2356
 20
-56.6277
 30
0
 11
79.2356
 21
-56.6277
 31
-5
  0
LINE
  5
A94
330
A02
100
AcDbEntity
  8
Pocket005
100
AcDbLine
 10
65.087
 20
-41.7096
 30
0
 11
82.411
 21
-47.9487
 31
0
  0
LINE
  5
A95
330
A02
100
AcDbEntity
  8
Pocket005
100
AcDbLine
 10
82.411
 20
-47.9487
 30
0
 11
82.411
 21
-47.9487
 31
-5
  0
LINE
  5
A96
330
A02
100
AcDbEntity
  8
Pocket005
100
AcDbLine
 10
65.087
 20
-41.7096
 30
-5
 11
82.411
 21
-47.9487
 31
-5
  0
LINE
  5
A97
330
A02
100
AcDbEntity
  8
Pocket005
100
AcDbLine
 10
65.087
 20
-41.7096
 30
0
 11
65.087
 21
-41.7096
 31
-5
  0
LINE
  5
A98
330
A02
100
AcDbEntity
  8
Pocket005
100
AcDbLine
 10
61.9544
 20
-50.3226
 30
0
 11
65.087
 21
-41.7096
 31
0
  0
LINE
  5
A99
330
A02
100
AcDbEntity
  8
Pocket005
100
AcDbLine
 10
65.087
 20
-41.7096
 30
0
 11
65.087
 21
-41.7096
 31
-5
  0
LINE
  5
A9A
330
A02
100
AcDbEntity
  8
Pocket005
100
AcDbLine
 10
61.9544
 20
-50.3226
 30
-5
 11
65.087
 21
-41.7096
 31
-5
  0
LINE
  5
A9B
330
A02
100
AcDbEntity
  8
Pocket005
100
AcDbLine
 10
61.9544
 20
-50.3226
 30
0
 11
61.9544
 21
-50.3226
 31
-5
  0
LINE
  5
A9C
330
A02
100
AcDbEntity
  8
Pocket005
100
AcDbLine
 10
130.988
 20
-52.5802
 30
0
 11
130.988
 21
-52.5802
 31
-5
  0
CIRCLE
  5
A9D
330
A02
100
AcDbEntity
  8
Pocket005
100
AcDbCircle
 10
119.488
 20
-52.5802
 40
11.5
  0
LINE
  5
A9E
330
A02
100
AcDbEntity
  8
Pocket005
100
AcDbLine
 10
130.988
 20
-52.5802
 30
0
 11
130.988
 21
-52.5802
 31
-5
  0
CIRCLE
  5
A9F
330
A02
100
AcDbEntity
  8
Pocket005
100
AcDbCircle
 10
119.488
 20
-52.5802
 40
11.5
  0
LINE
  5
AA0
330
A02
100
AcDbEntity
  8
Pocket005
100
AcDbLine
 10
158.98
 20
-80.9628
 30
0
 11
158.98
 21
-80.9628
 31
-5
  0
CIRCLE
  5
AA1
330
A02
100
AcDbEntity
  8
Pocket005
100
AcDbCircle
 10
147.48
 20
-80.9628
 40
11.5
  0
LINE
  5
AA2
330
A02
100
AcDbEntity
  8
Pocket005
100
AcDbLine
 10
158.98
 20
-80.9628
 30
0
 11
158.98
 21
-80.9628
 31
-5
  0
CIRCLE
  5
AA3
330
A02
100
AcDbEntity
  8
Pocket005
100
AcDbCircle
 10
147.48
 20
-80.9628
 40
11.5
  0
LINE
  5
AA4
330
A02
100
AcDbEntity
  8
Pocket005
100
AcDbLine
 10
238.989
 20
-90.0368
 30
0
 11
238.989
 21
-90.0368
 31
-5
  0
CIRCLE
  5
AA5
330
A02
100
AcDbEntity
  8
Pocket005
100
AcDbCircle
 10
236.989
 20
-90.0368
 40
2
  0
LINE
  5
AA6
330
A02
100
AcDbEntity
  8
Pocket005
100
AcDbLine
 10
238.989
 20
-90.0368
 30
0
 11
238.989
 21
-90.0368
 31
-5
  0
CIRCLE
  5
AA7
330
A02
100
AcDbEntity
  8
Pocket005
100
AcDbCircle
 10
236.989
 20
-90.0368
 40
2
  0
LINE
  5
AA8
330
A02
100
AcDbEntity
  8
Pocket005
100
AcDbLine
 10
192.037
 20
-80.9206
 30
0
 11
192.037
 21
-80.9206
 31
-5
  0
CIRCLE
  5
AA9
330
A02
100
AcDbEntity
  8
Pocket005
100
AcDbCircle
 10
180.537
 20
-80.9206
 40
11.5
  0
LINE
  5
AAA
330
A02
100
AcDbEntity
  8
Pocket005
100
AcDbLine
 10
192.037
 20
-80.9206
 30
0
 11
192.037
 21
-80.9206
 31
-5
  0
CIRCLE
  5
AAB
330
A02
100
AcDbEntity
  8
Pocket005
100
AcDbCircle
 10
180.537
 20
-80.9206
 40
11.5
  0
LINE
  5
AAC
330
A02
100
AcDbEntity
  8
Pocket005
100
AcDbLine
 10
225.022
 20
-80.9288
 30
0
 11
225.022
 21
-80.9288
 31
-5
  0
CIRCLE
  5
AAD
330
A02
100
AcDbEntity
  8
Pocket005
100
AcDbCircle
 10
213.522
 20
-80.9288
 40
11.5
  0
LINE
  5
AAE
330
A02
100
AcDbEntity
  8
Pocket005
100
AcDbLine
 10
225.022
 20
-80.9288
 30
0
 11
225.022
 21
-80.9288
 31
-5
  0
CIRCLE
  5
AAF
330
A02
100
AcDbEntity
  8
Pocket005
100
AcDbCircle
 10
213.522
 20
-80.9288
 40
11.5
  0
LINE
  5
AB0
330
A02
100
AcDbEntity
  8
Pocket005
100
AcDbLine
 10
8.04919
 20
0.907758
 30
0
 11
8.04919
 21
0.907758
 31
-5
  0
CIRCLE
  5
AB1
330
A02
100
AcDbEntity
  8
Pocket005
100
AcDbCircle
 10
6.04919
 20
0.907758
 40
2
  0
LINE
  5
AB2
330
A02
100
AcDbEntity
  8
Pocket005
100
AcDbLine
 10
8.04919
 20
0.907758
 30
0
 11
8.04919
 21
0.907758
 31
-5
  0
CIRCLE
  5
AB3
330
A02
100
AcDbEntity
  8
Pocket005
100
AcDbCircle
 10
6.04919
 20
0.907758
 40
2
  0
LINE
  5
AB4
330
A02
100
AcDbEntity
  8
Pocket005
100
AcDbLine
 10
3.6778
 20
-21.8796
 30
0
 11
3.6778
 21
-3.67118
 31
0
  0
LINE
  5
AB5
330
A02
100
AcDbEntity
  8
Pocket005
100
AcDbLine
 10
3.6778
 20
-3.67118
 30
0
 11
3.6778
 21
-3.67118
 31
-5
  0
LINE
  5
AB6
330
A02
100
AcDbEntity
  8
Pocket005
100
AcDbLine
 10
3.6778
 20
-21.8796
 30
-5
 11
3.6778
 21
-3.67118
 31
-5
  0
LINE
  5
AB7
330
A02
100
AcDbEntity
  8
Pocket005
100
AcDbLine
 10
3.6778
 20
-21.8796
 30
0
 11
3.6778
 21
-21.8796
 31
-5
  0
LINE
  5
AB8
330
A02
100
AcDbEntity
  8
Pocket005
100
AcDbLine
 10
123.261
 20
-21.8796
 30
0
 11
3.6778
 21
-21.8796
 31
0
  0
LINE
  5
AB9
330
A02
100
AcDbEntity
  8
Pocket005
100
AcDbLine
 10
3.6778
 20
-21.8796
 30
0
 11
3.6778
 21
-21.8796
 31
-5
  0
LINE
  5
ABA
330
A02
100
AcDbEntity
  8
Pocket005
100
AcDbLine
 10
123.261
 20
-21.8796
 30
-5
 11
3.6778
 21
-21.8796
 31
-5
  0
LINE
  5
ABB
330
A02
100
AcDbEntity
  8
Pocket005
100
AcDbLine
 10
123.261
 20
-21.8796
 30
0
 11
123.261
 21
-21.8796
 31
-5
  0
LINE
  5
ABC
330
A02
100
AcDbEntity
  8
Pocket005
100
AcDbLine
 10
3.6778
 20
-3.67118
 30
0
 11
123.261
 21
-3.67118
 31
0
  0
LINE
  5
ABD
330
A02
100
AcDbEntity
  8
Pocket005
100
AcDbLine
 10
123.261
 20
-3.67118
 30
0
 11
123.261
 21
-3.67118
 31
-5
  0
LINE
  5
ABE
330
A02
100
AcDbEntity
  8
Pocket005
100
AcDbLine
 10
3.6778
 20
-3.67118
 30
-5
 11
123.261
 21
-3.67118
 31
-5
  0
LINE
  5
ABF
330
A02
100
AcDbEntity
  8
Pocket005
100
AcDbLine
 10
3.6778
 20
-3.67118
 30
0
 11
3.6778
 21
-3.67118
 31
-5
  0
LINE
  5
AC0
330
A02
100
AcDbEntity
  8
Pocket005
100
AcDbLine
 10
123.261
 20
-3.67118
 30
0
 11
123.261
 21
-21.8796
 31
0
  0
LINE
  5
AC1
330
A02
100
AcDbEntity
  8
Pocket005
100
AcDbLine
 10
123.261
 20
-21.8796
 30
0
 11
123.261
 21
-21.8796
 31
-5
  0
LINE
  5
AC2
330
A02
100
AcDbEntity
  8
Pocket005
100
AcDbLine
 10
123.261
 20
-3.67118
 30
-5
 11
123.261
 21
-21.8796
 31
-5
  0
LINE
  5
AC3
330
A02
100
AcDbEntity
  8
Pocket005
100
AcDbLine
 10
123.261
 20
-3.67118
 30
0
 11
123.261
 21
-3.67118
 31
-5
  0
LINE
  5
AC4
330
A02
100
AcDbEntity
  8
Pocket005
100
AcDbLine
 10
164.03
 20
-45.5313
 30
0
 11
164.03
 21
-45.5313
 31
-5
  0
CIRCLE
  5
AC5
330
A02
100
AcDbEntity
  8
Pocket005
100
AcDbCircle
 10
152.53
 20
-45.5313
 40
11.5
  0
LINE
  5
AC6
330
A02
100
AcDbEntity
  8
Pocket005
100
AcDbLine
 10
164.03
 20
-45.5313
 30
0
 11
164.03
 21
-45.5313
 31
-5
  0
CIRCLE
  5
AC7
330
A02
100
AcDbEntity
  8
Pocket005
100
AcDbCircle
 10
152.53
 20
-45.5313
 40
11.5
  0
LINE
  5
AC8
330
A02
100
AcDbEntity
  8
Pocket005
100
AcDbLine
 10
197.021
 20
-45.4089
 30
0
 11
197.021
 21
-45.4089
 31
-5
  0
CIRCLE
  5
AC9
330
A02
100
AcDbEntity
  8
Pocket005
100
AcDbCircle
 10
185.521
 20
-45.4089
 40
11.5
  0
LINE
  5
ACA
330
A02
100
AcDbEntity
  8
Pocket005
100
AcDbLine
 10
197.021
 20
-45.4089
 30
0
 11
197.021
 21
-45.4089
 31
-5
  0
CIRCLE
  5
ACB
330
A02
100
AcDbEntity
  8
Pocket005
100
AcDbCircle
 10
185.521
 20
-45.4089
 40
11.5
  0
LINE
  5
ACC
330
A02
100
AcDbEntity
  8
Pocket005
100
AcDbLine
 10
229.939
 20
-45.401
 30
0
 11
229.939
 21
-45.401
 31
-5
  0
CIRCLE
  5
ACD
330
A02
100
AcDbEntity
  8
Pocket005
100
AcDbCircle
 10
218.439
 20
-45.401
 40
11.5
  0
LINE
  5
ACE
330
A02
100
AcDbEntity
  8
Pocket005
100
AcDbLine
 10
229.939
 20
-45.401
 30
0
 11
229.939
 21
-45.401
 31
-5
  0
CIRCLE
  5
ACF
330
A02
100
AcDbEntity
  8
Pocket005
100
AcDbCircle
 10
218.439
 20
-45.401
 40
11.5
  0
LINE
  5
AD0
330
A02
100
AcDbEntity
  8
Pocket005
100
AcDbLine
 10
239.133
 20
1.15289
 30
0
 11
239.133
 21
1.15289
 31
-5
  0
CIRCLE
  5
AD1
330
A02
100
AcDbEntity
  8
Pocket005
100
AcDbCircle
 10
237.133
 20
1.15289
 40
2
  0
LINE
  5
AD2
330
A02
100
AcDbEntity
  8
Pocket005
100
AcDbLine
 10
239.133
 20
1.15289
 30
0
 11
239.133
 21
1.15289
 31
-5
  0
CIRCLE
  5
AD3
330
A02
100
AcDbEntity
  8
Pocket005
100
AcDbCircle
 10
237.133
 20
1.15289
 40
2
  0
ENDSEC
  0
SECTION
  2
OBJECTS
  0
DICTIONARY
  5
F000
330
0
100
AcDbDictionary
  3
ACAD_GROUP
350
F001
  0
DICTIONARY
  5
F001
330
F000
100
AcDbDictionary
  0
ENDSEC
  0
EOF