%TF.GenerationSoftware,KiCad,Pcbnew,7.0.5*%
%TF.CreationDate,2023-07-09T01:02:00-05:00*%
%TF.ProjectId,NanoSwap,4e616e6f-5377-4617-902e-6b696361645f,rev?*%
%TF.SameCoordinates,Original*%
%TF.FileFunction,Soldermask,Bot*%
%TF.FilePolarity,Negative*%
%FSLAX46Y46*%
G04 Gerber Fmt 4.6, Leading zero omitted, Abs format (unit mm)*
G04 Created by KiCad (PCBNEW 7.0.5) date 2023-07-09 01:02:00*
%MOMM*%
%LPD*%
G01*
G04 APERTURE LIST*
G04 Aperture macros list*
%AMRoundRect*
0 Rectangle with rounded corners*
0 $1 Rounding radius*
0 $2 $3 $4 $5 $6 $7 $8 $9 X,Y pos of 4 corners*
0 Add a 4 corners polygon primitive as box body*
4,1,4,$2,$3,$4,$5,$6,$7,$8,$9,$2,$3,0*
0 Add four circle primitives for the rounded corners*
1,1,$1+$1,$2,$3*
1,1,$1+$1,$4,$5*
1,1,$1+$1,$6,$7*
1,1,$1+$1,$8,$9*
0 Add four rect primitives between the rounded corners*
20,1,$1+$1,$2,$3,$4,$5,0*
20,1,$1+$1,$4,$5,$6,$7,0*
20,1,$1+$1,$6,$7,$8,$9,0*
20,1,$1+$1,$8,$9,$2,$3,0*%
G04 Aperture macros list end*
%ADD10C,1.900000*%
%ADD11C,1.600000*%
%ADD12C,3.050000*%
%ADD13C,5.050000*%
%ADD14RoundRect,0.250000X-1.025000X-1.000000X1.025000X-1.000000X1.025000X1.000000X-1.025000X1.000000X0*%
%ADD15O,1.800000X1.800000*%
%ADD16O,1.500000X1.500000*%
%ADD17O,1.700000X1.700000*%
%ADD18R,1.700000X1.700000*%
%ADD19RoundRect,0.250000X-1.329660X-0.531629X0.564293X-1.316130X1.329660X0.531629X-0.564293X1.316130X0*%
%ADD20RoundRect,0.250000X-0.564293X-1.316130X1.329660X-0.531629X0.564293X1.316130X-1.329660X0.531629X0*%
%ADD21C,2.100000*%
G04 APERTURE END LIST*
D10*
%TO.C,REF\u002A\u002A*%
X113131810Y-51308000D03*
D11*
X113631810Y-56458000D03*
D12*
X118631810Y-45408000D03*
D13*
X118631810Y-51308000D03*
D12*
X123631810Y-47508000D03*
D10*
X124131810Y-51308000D03*
D14*
X115131810Y-45308000D03*
X127131810Y-47508000D03*
%TD*%
D15*
%TO.C,USB Right*%
X227454000Y-46805000D03*
D16*
X224424000Y-47105000D03*
X224424000Y-51955000D03*
D15*
X227454000Y-52255000D03*
D17*
X227584000Y-40640000D03*
X225044000Y-40640000D03*
D18*
X222504000Y-40640000D03*
D17*
X219964000Y-40640000D03*
X217424000Y-40640000D03*
X214884000Y-40640000D03*
X212344000Y-40640000D03*
D18*
X209804000Y-40640000D03*
D17*
X207264000Y-40640000D03*
X204724000Y-40640000D03*
X202184000Y-40640000D03*
X199644000Y-40640000D03*
D18*
X197104000Y-40640000D03*
D17*
X194564000Y-40640000D03*
X192024000Y-40640000D03*
X189484000Y-40640000D03*
X186944000Y-40640000D03*
D18*
X184404000Y-40640000D03*
D17*
X181864000Y-40640000D03*
X179324000Y-40640000D03*
X179324000Y-58420000D03*
X181864000Y-58420000D03*
D18*
X184404000Y-58420000D03*
D17*
X186944000Y-58420000D03*
X189484000Y-58420000D03*
X192024000Y-58420000D03*
X194564000Y-58420000D03*
D18*
X197104000Y-58420000D03*
D17*
X199644000Y-58420000D03*
X202184000Y-58420000D03*
X204724000Y-58420000D03*
X207264000Y-58420000D03*
D18*
X209804000Y-58420000D03*
D17*
X212344000Y-58420000D03*
X214884000Y-58420000D03*
X217424000Y-58420000D03*
X219964000Y-58420000D03*
D18*
X222504000Y-58420000D03*
D17*
X225044000Y-58420000D03*
X227584000Y-58420000D03*
X179554000Y-46990000D03*
D18*
X179554000Y-49530000D03*
D17*
X179554000Y-52070000D03*
%TD*%
D10*
%TO.C,REF\u002A\u002A*%
X84833326Y-104502482D03*
D11*
X83324446Y-109451803D03*
D12*
X92172495Y-101156352D03*
D13*
X89914663Y-106607241D03*
D12*
X95988258Y-105009916D03*
D10*
X94996000Y-108712000D03*
D19*
X88977185Y-99724572D03*
X99221836Y-106349308D03*
%TD*%
D10*
%TO.C,REF\u002A\u002A*%
X153366700Y-128136285D03*
D11*
X155799459Y-132702923D03*
D12*
X156190205Y-120580637D03*
D13*
X158448037Y-126031526D03*
D12*
X161613238Y-120607367D03*
D10*
X163529374Y-123926767D03*
D20*
X152918358Y-121827641D03*
X164846816Y-119267975D03*
%TD*%
D21*
%TO.C,REF\u002A\u002A*%
X236220000Y-137668000D03*
%TD*%
D10*
%TO.C,REF\u002A\u002A*%
X92227326Y-86881745D03*
D11*
X90718446Y-91831066D03*
D12*
X99566495Y-83535615D03*
D13*
X97308663Y-88986504D03*
D12*
X103382258Y-87389179D03*
D10*
X102390000Y-91091263D03*
D19*
X96371185Y-82103835D03*
X106615836Y-88728571D03*
%TD*%
D10*
%TO.C,REF\u002A\u002A*%
X93874810Y-51318000D03*
D11*
X94374810Y-56468000D03*
D12*
X99374810Y-45418000D03*
D13*
X99374810Y-51318000D03*
D12*
X104374810Y-47518000D03*
D10*
X104874810Y-51318000D03*
D14*
X95874810Y-45318000D03*
X107874810Y-47518000D03*
%TD*%
D10*
%TO.C,REF\u002A\u002A*%
X187333462Y-109128918D03*
D11*
X189766221Y-113695556D03*
D12*
X190156967Y-101573270D03*
D13*
X192414799Y-107024159D03*
D12*
X195580000Y-101600000D03*
D10*
X197496136Y-104919400D03*
D20*
X186885120Y-102820274D03*
X198813578Y-100260608D03*
%TD*%
D10*
%TO.C,REF\u002A\u002A*%
X205003451Y-101798945D03*
D11*
X207436210Y-106365583D03*
D12*
X207826956Y-94243297D03*
D13*
X210084788Y-99694186D03*
D12*
X213249989Y-94270027D03*
D10*
X215166125Y-97589427D03*
D20*
X204555109Y-95490301D03*
X216483567Y-92930635D03*
%TD*%
D10*
%TO.C,REF\u002A\u002A*%
X67036636Y-97130854D03*
D11*
X65527756Y-102080175D03*
D12*
X74375805Y-93784724D03*
D13*
X72117973Y-99235613D03*
D12*
X78191568Y-97638288D03*
D10*
X77199310Y-101340372D03*
D19*
X71180495Y-92352944D03*
X81425146Y-98977680D03*
%TD*%
D21*
%TO.C,REF\u002A\u002A*%
X49276000Y-37592000D03*
%TD*%
D10*
%TO.C,REF\u002A\u002A*%
X161978573Y-98938082D03*
D11*
X164411332Y-103504720D03*
D12*
X164802078Y-91382434D03*
D13*
X167059910Y-96833323D03*
D12*
X170225111Y-91409164D03*
D10*
X172141247Y-94728564D03*
D20*
X161530231Y-92629438D03*
X173458689Y-90069772D03*
%TD*%
D10*
%TO.C,REF\u002A\u002A*%
X102630490Y-111872981D03*
D11*
X101121610Y-116822302D03*
D12*
X109969659Y-108526851D03*
D13*
X107711827Y-113977740D03*
D12*
X113785422Y-112380415D03*
D10*
X112793164Y-116082499D03*
D19*
X106774349Y-107095071D03*
X117019000Y-113719807D03*
%TD*%
D10*
%TO.C,REF\u002A\u002A*%
X197694963Y-84154695D03*
D11*
X200127722Y-88721333D03*
D12*
X200518468Y-76599047D03*
D13*
X202776300Y-82049936D03*
D12*
X205941501Y-76625777D03*
D10*
X207857637Y-79945177D03*
D20*
X197246621Y-77846051D03*
X209175079Y-75286385D03*
%TD*%
D21*
%TO.C,REF\u002A\u002A*%
X50292000Y-140716000D03*
%TD*%
D10*
%TO.C,REF\u002A\u002A*%
X132254000Y-51318000D03*
D11*
X132754000Y-56468000D03*
D12*
X137754000Y-45418000D03*
D13*
X137754000Y-51318000D03*
D12*
X142754000Y-47518000D03*
D10*
X143254000Y-51318000D03*
D14*
X134254000Y-45318000D03*
X146254000Y-47518000D03*
%TD*%
D21*
%TO.C,REF\u002A\u002A*%
X238760000Y-38100000D03*
%TD*%
D10*
%TO.C,REF\u002A\u002A*%
X169287060Y-116582335D03*
D11*
X171719819Y-121148973D03*
D12*
X172110565Y-109026687D03*
D13*
X174368397Y-114477576D03*
D12*
X177533598Y-109053417D03*
D10*
X179449734Y-112372817D03*
D20*
X168838718Y-110273691D03*
X180767176Y-107714025D03*
%TD*%
D10*
%TO.C,REF\u002A\u002A*%
X74744810Y-51328000D03*
D11*
X75244810Y-56478000D03*
D12*
X80244810Y-45428000D03*
D13*
X80244810Y-51328000D03*
D12*
X85244810Y-47528000D03*
D10*
X85744810Y-51328000D03*
D14*
X76744810Y-45328000D03*
X88744810Y-47528000D03*
%TD*%
D10*
%TO.C,REF\u002A\u002A*%
X151384000Y-51308000D03*
D11*
X151884000Y-56458000D03*
D12*
X156884000Y-45408000D03*
D13*
X156884000Y-51308000D03*
D12*
X161884000Y-47508000D03*
D10*
X162384000Y-51308000D03*
D14*
X153384000Y-45308000D03*
X165384000Y-47508000D03*
%TD*%
D10*
%TO.C,REF\u002A\u002A*%
X180024971Y-91484669D03*
D11*
X182457730Y-96051307D03*
D12*
X182848476Y-83929021D03*
D13*
X185106308Y-89379910D03*
D12*
X188271509Y-83955751D03*
D10*
X190187645Y-87275151D03*
D20*
X179576629Y-85176025D03*
X191505087Y-82616359D03*
%TD*%
D10*
%TO.C,REF\u002A\u002A*%
X55219810Y-51308000D03*
D11*
X55719810Y-56458000D03*
D12*
X60719810Y-45408000D03*
D13*
X60719810Y-51308000D03*
D12*
X65719810Y-47508000D03*
D10*
X66219810Y-51308000D03*
D14*
X57219810Y-45308000D03*
X69219810Y-47508000D03*
%TD*%
D10*
%TO.C,REF\u002A\u002A*%
X146058212Y-110492033D03*
D11*
X148490971Y-115058671D03*
D12*
X148881717Y-102936385D03*
D13*
X151139549Y-108387274D03*
D12*
X154304750Y-102963115D03*
D10*
X156220886Y-106282515D03*
D20*
X145609870Y-104183389D03*
X157538328Y-101623723D03*
%TD*%
M02*
