%TF.GenerationSoftware,KiCad,Pcbnew,7.0.5*%
%TF.CreationDate,2023-07-09T01:02:00-05:00*%
%TF.ProjectId,NanoSwap,4e616e6f-5377-4617-902e-6b696361645f,rev?*%
%TF.SameCoordinates,Original*%
%TF.FileFunction,Legend,Bot*%
%TF.FilePolarity,Positive*%
%FSLAX46Y46*%
G04 Gerber Fmt 4.6, Leading zero omitted, Abs format (unit mm)*
G04 Created by KiCad (PCBNEW 7.0.5) date 2023-07-09 01:02:00*
%MOMM*%
%LPD*%
G01*
G04 APERTURE LIST*
%ADD10C,0.120000*%
G04 APERTURE END LIST*
D10*
%TO.C,REF\u002A\u002A*%
X116215810Y-43899000D02*
X117152810Y-42962000D01*
X117152810Y-42962000D02*
X119899810Y-42962000D01*
X117152810Y-47754000D02*
X116131810Y-46733000D01*
X119799810Y-47754000D02*
X117152810Y-47754000D01*
X119899810Y-42962000D02*
X120302810Y-43042000D01*
X120302810Y-43042000D02*
X120644810Y-43271000D01*
X120361810Y-47859000D02*
X119799810Y-47754000D01*
X120644810Y-43271000D02*
X121177810Y-43804000D01*
X120840810Y-48158000D02*
X120361810Y-47859000D01*
X121177810Y-43804000D02*
X121177810Y-44026000D01*
X121177810Y-44026000D02*
X121264810Y-44464000D01*
X121178810Y-48611000D02*
X120840810Y-48158000D01*
X121264810Y-44464000D02*
X121508810Y-44831000D01*
X121332810Y-49169000D02*
X121178810Y-48611000D01*
X121414810Y-49467000D02*
X121332810Y-49169000D01*
X121508810Y-44831000D02*
X121875810Y-45075000D01*
X121607810Y-49725000D02*
X121414810Y-49467000D01*
X121875810Y-45075000D02*
X122313810Y-45162000D01*
X121881810Y-49895000D02*
X121607810Y-49725000D01*
X122191810Y-49954000D02*
X121881810Y-49895000D01*
X122313810Y-45162000D02*
X125113810Y-45162000D01*
X125113810Y-45162000D02*
X125440810Y-45227000D01*
X125440810Y-45227000D02*
X125723810Y-45416000D01*
X125723810Y-45416000D02*
X125912810Y-45699000D01*
X125912810Y-45699000D02*
X125997810Y-46126000D01*
X125914810Y-49012000D02*
X126277810Y-49012000D01*
X126277810Y-49012000D02*
X126277810Y-49954000D01*
X126277810Y-49954000D02*
X122191810Y-49954000D01*
X90517872Y-98837654D02*
X91742121Y-98330554D01*
X91742121Y-98330554D02*
X94280018Y-99381785D01*
X89908302Y-102757784D02*
X89355741Y-101423784D01*
X92353811Y-103770747D02*
X89908302Y-102757784D01*
X94280018Y-99381785D02*
X94621727Y-99609917D01*
X94621727Y-99609917D02*
X94850059Y-99952363D01*
X92832850Y-104082823D02*
X92353811Y-103770747D01*
X94850059Y-99952363D02*
X95138517Y-100648761D01*
X93160966Y-104542368D02*
X92832850Y-104082823D01*
X95138517Y-100648761D02*
X95053561Y-100853862D01*
X95053561Y-100853862D02*
X94966323Y-101291815D01*
X93299881Y-105090233D02*
X93160966Y-104542368D01*
X94966323Y-101291815D02*
X95051305Y-101724254D01*
X93228621Y-105664691D02*
X93299881Y-105090233D01*
X93190340Y-105971387D02*
X93228621Y-105664691D01*
X95051305Y-101724254D02*
X95296994Y-102090125D01*
X93269916Y-106283606D02*
X93190340Y-105971387D01*
X95296994Y-102090125D02*
X95668360Y-102338118D01*
X93458003Y-106545520D02*
X93269916Y-106283606D01*
X93721828Y-106718661D02*
X93458003Y-106545520D01*
X95668360Y-102338118D02*
X98255223Y-103409631D01*
X98255223Y-103409631D02*
X98532457Y-103594821D01*
X98532457Y-103594821D02*
X98721587Y-103877734D01*
X98721587Y-103877734D02*
X98787901Y-104211519D01*
X98787901Y-104211519D02*
X98703025Y-104638543D01*
X97521919Y-107273097D02*
X97857287Y-107412011D01*
X97857287Y-107412011D02*
X97496799Y-108282306D01*
X97496799Y-108282306D02*
X93721828Y-106718661D01*
X153380642Y-120111066D02*
X153887743Y-118886816D01*
X153887743Y-118886816D02*
X156425640Y-117835585D01*
X155721562Y-123314047D02*
X154387561Y-122761486D01*
X158167071Y-122301084D02*
X155721562Y-123314047D01*
X156425640Y-117835585D02*
X156828578Y-117755274D01*
X156828578Y-117755274D02*
X157232180Y-117835964D01*
X158726473Y-122183023D02*
X158167071Y-122301084D01*
X157232180Y-117835964D02*
X157928578Y-118124422D01*
X159283434Y-122275958D02*
X158726473Y-122183023D01*
X157928578Y-118124422D02*
X158013534Y-118329523D01*
X158013534Y-118329523D02*
X158261526Y-118700889D01*
X159769061Y-122565128D02*
X159283434Y-122275958D01*
X158261526Y-118700889D02*
X158627398Y-118946578D01*
X160124876Y-123021720D02*
X159769061Y-122565128D01*
X160314674Y-123265656D02*
X160124876Y-123021720D01*
X158627398Y-118946578D02*
X159059836Y-119031560D01*
X160591715Y-123430159D02*
X160314674Y-123265656D01*
X159059836Y-119031560D02*
X159497789Y-118944322D01*
X160909914Y-123482363D02*
X160591715Y-123430159D01*
X161218895Y-123418240D02*
X160909914Y-123482363D01*
X159497789Y-118944322D02*
X162084652Y-117872808D01*
X162084652Y-117872808D02*
X162411635Y-117807723D01*
X162411635Y-117807723D02*
X162745420Y-117874037D01*
X162745420Y-117874037D02*
X163028333Y-118063168D01*
X163028333Y-118063168D02*
X163270268Y-118425136D01*
X164298010Y-121123215D02*
X164633379Y-120984301D01*
X164633379Y-120984301D02*
X164993867Y-121854596D01*
X164993867Y-121854596D02*
X161218895Y-123418240D01*
X97911872Y-81216917D02*
X99136121Y-80709817D01*
X99136121Y-80709817D02*
X101674018Y-81761048D01*
X97302302Y-85137047D02*
X96749741Y-83803047D01*
X99747811Y-86150010D02*
X97302302Y-85137047D01*
X101674018Y-81761048D02*
X102015727Y-81989180D01*
X102015727Y-81989180D02*
X102244059Y-82331626D01*
X100226850Y-86462086D02*
X99747811Y-86150010D01*
X102244059Y-82331626D02*
X102532517Y-83028024D01*
X100554966Y-86921631D02*
X100226850Y-86462086D01*
X102532517Y-83028024D02*
X102447561Y-83233125D01*
X102447561Y-83233125D02*
X102360323Y-83671078D01*
X100693881Y-87469496D02*
X100554966Y-86921631D01*
X102360323Y-83671078D02*
X102445305Y-84103517D01*
X100622621Y-88043954D02*
X100693881Y-87469496D01*
X100584340Y-88350650D02*
X100622621Y-88043954D01*
X102445305Y-84103517D02*
X102690994Y-84469388D01*
X100663916Y-88662869D02*
X100584340Y-88350650D01*
X102690994Y-84469388D02*
X103062360Y-84717381D01*
X100852003Y-88924783D02*
X100663916Y-88662869D01*
X101115828Y-89097924D02*
X100852003Y-88924783D01*
X103062360Y-84717381D02*
X105649223Y-85788894D01*
X105649223Y-85788894D02*
X105926457Y-85974084D01*
X105926457Y-85974084D02*
X106115587Y-86256997D01*
X106115587Y-86256997D02*
X106181901Y-86590782D01*
X106181901Y-86590782D02*
X106097025Y-87017806D01*
X104915919Y-89652360D02*
X105251287Y-89791274D01*
X105251287Y-89791274D02*
X104890799Y-90661569D01*
X104890799Y-90661569D02*
X101115828Y-89097924D01*
X96958810Y-43909000D02*
X97895810Y-42972000D01*
X97895810Y-42972000D02*
X100642810Y-42972000D01*
X97895810Y-47764000D02*
X96874810Y-46743000D01*
X100542810Y-47764000D02*
X97895810Y-47764000D01*
X100642810Y-42972000D02*
X101045810Y-43052000D01*
X101045810Y-43052000D02*
X101387810Y-43281000D01*
X101104810Y-47869000D02*
X100542810Y-47764000D01*
X101387810Y-43281000D02*
X101920810Y-43814000D01*
X101583810Y-48168000D02*
X101104810Y-47869000D01*
X101920810Y-43814000D02*
X101920810Y-44036000D01*
X101920810Y-44036000D02*
X102007810Y-44474000D01*
X101921810Y-48621000D02*
X101583810Y-48168000D01*
X102007810Y-44474000D02*
X102251810Y-44841000D01*
X102075810Y-49179000D02*
X101921810Y-48621000D01*
X102157810Y-49477000D02*
X102075810Y-49179000D01*
X102251810Y-44841000D02*
X102618810Y-45085000D01*
X102350810Y-49735000D02*
X102157810Y-49477000D01*
X102618810Y-45085000D02*
X103056810Y-45172000D01*
X102624810Y-49905000D02*
X102350810Y-49735000D01*
X102934810Y-49964000D02*
X102624810Y-49905000D01*
X103056810Y-45172000D02*
X105856810Y-45172000D01*
X105856810Y-45172000D02*
X106183810Y-45237000D01*
X106183810Y-45237000D02*
X106466810Y-45426000D01*
X106466810Y-45426000D02*
X106655810Y-45709000D01*
X106655810Y-45709000D02*
X106740810Y-46136000D01*
X106657810Y-49022000D02*
X107020810Y-49022000D01*
X107020810Y-49022000D02*
X107020810Y-49964000D01*
X107020810Y-49964000D02*
X102934810Y-49964000D01*
X187347404Y-101103699D02*
X187854505Y-99879449D01*
X187854505Y-99879449D02*
X190392402Y-98828218D01*
X189688324Y-104306680D02*
X188354323Y-103754119D01*
X192133833Y-103293717D02*
X189688324Y-104306680D01*
X190392402Y-98828218D02*
X190795340Y-98747907D01*
X190795340Y-98747907D02*
X191198942Y-98828597D01*
X192693235Y-103175656D02*
X192133833Y-103293717D01*
X191198942Y-98828597D02*
X191895340Y-99117055D01*
X193250196Y-103268591D02*
X192693235Y-103175656D01*
X191895340Y-99117055D02*
X191980296Y-99322156D01*
X191980296Y-99322156D02*
X192228288Y-99693522D01*
X193735823Y-103557761D02*
X193250196Y-103268591D01*
X192228288Y-99693522D02*
X192594160Y-99939211D01*
X194091638Y-104014353D02*
X193735823Y-103557761D01*
X194281436Y-104258289D02*
X194091638Y-104014353D01*
X192594160Y-99939211D02*
X193026598Y-100024193D01*
X194558477Y-104422792D02*
X194281436Y-104258289D01*
X193026598Y-100024193D02*
X193464551Y-99936955D01*
X194876676Y-104474996D02*
X194558477Y-104422792D01*
X195185657Y-104410873D02*
X194876676Y-104474996D01*
X193464551Y-99936955D02*
X196051414Y-98865441D01*
X196051414Y-98865441D02*
X196378397Y-98800356D01*
X196378397Y-98800356D02*
X196712182Y-98866670D01*
X196712182Y-98866670D02*
X196995095Y-99055801D01*
X196995095Y-99055801D02*
X197237030Y-99417769D01*
X198264772Y-102115848D02*
X198600141Y-101976934D01*
X198600141Y-101976934D02*
X198960629Y-102847229D01*
X198960629Y-102847229D02*
X195185657Y-104410873D01*
X205017393Y-93773726D02*
X205524494Y-92549476D01*
X205524494Y-92549476D02*
X208062391Y-91498245D01*
X207358313Y-96976707D02*
X206024312Y-96424146D01*
X209803822Y-95963744D02*
X207358313Y-96976707D01*
X208062391Y-91498245D02*
X208465329Y-91417934D01*
X208465329Y-91417934D02*
X208868931Y-91498624D01*
X210363224Y-95845683D02*
X209803822Y-95963744D01*
X208868931Y-91498624D02*
X209565329Y-91787082D01*
X210920185Y-95938618D02*
X210363224Y-95845683D01*
X209565329Y-91787082D02*
X209650285Y-91992183D01*
X209650285Y-91992183D02*
X209898277Y-92363549D01*
X211405812Y-96227788D02*
X210920185Y-95938618D01*
X209898277Y-92363549D02*
X210264149Y-92609238D01*
X211761627Y-96684380D02*
X211405812Y-96227788D01*
X211951425Y-96928316D02*
X211761627Y-96684380D01*
X210264149Y-92609238D02*
X210696587Y-92694220D01*
X212228466Y-97092819D02*
X211951425Y-96928316D01*
X210696587Y-92694220D02*
X211134540Y-92606982D01*
X212546665Y-97145023D02*
X212228466Y-97092819D01*
X212855646Y-97080900D02*
X212546665Y-97145023D01*
X211134540Y-92606982D02*
X213721403Y-91535468D01*
X213721403Y-91535468D02*
X214048386Y-91470383D01*
X214048386Y-91470383D02*
X214382171Y-91536697D01*
X214382171Y-91536697D02*
X214665084Y-91725828D01*
X214665084Y-91725828D02*
X214907019Y-92087796D01*
X215934761Y-94785875D02*
X216270130Y-94646961D01*
X216270130Y-94646961D02*
X216630618Y-95517256D01*
X216630618Y-95517256D02*
X212855646Y-97080900D01*
X72721182Y-91466026D02*
X73945431Y-90958926D01*
X73945431Y-90958926D02*
X76483328Y-92010157D01*
X72111612Y-95386156D02*
X71559051Y-94052156D01*
X74557121Y-96399119D02*
X72111612Y-95386156D01*
X76483328Y-92010157D02*
X76825037Y-92238289D01*
X76825037Y-92238289D02*
X77053369Y-92580735D01*
X75036160Y-96711195D02*
X74557121Y-96399119D01*
X77053369Y-92580735D02*
X77341827Y-93277133D01*
X75364276Y-97170740D02*
X75036160Y-96711195D01*
X77341827Y-93277133D02*
X77256871Y-93482234D01*
X77256871Y-93482234D02*
X77169633Y-93920187D01*
X75503191Y-97718605D02*
X75364276Y-97170740D01*
X77169633Y-93920187D02*
X77254615Y-94352626D01*
X75431931Y-98293063D02*
X75503191Y-97718605D01*
X75393650Y-98599759D02*
X75431931Y-98293063D01*
X77254615Y-94352626D02*
X77500304Y-94718497D01*
X75473226Y-98911978D02*
X75393650Y-98599759D01*
X77500304Y-94718497D02*
X77871670Y-94966490D01*
X75661313Y-99173892D02*
X75473226Y-98911978D01*
X75925138Y-99347033D02*
X75661313Y-99173892D01*
X77871670Y-94966490D02*
X80458533Y-96038003D01*
X80458533Y-96038003D02*
X80735767Y-96223193D01*
X80735767Y-96223193D02*
X80924897Y-96506106D01*
X80924897Y-96506106D02*
X80991211Y-96839891D01*
X80991211Y-96839891D02*
X80906335Y-97266915D01*
X79725229Y-99901469D02*
X80060597Y-100040383D01*
X80060597Y-100040383D02*
X79700109Y-100910678D01*
X79700109Y-100910678D02*
X75925138Y-99347033D01*
X161992515Y-90912863D02*
X162499616Y-89688613D01*
X162499616Y-89688613D02*
X165037513Y-88637382D01*
X164333435Y-94115844D02*
X162999434Y-93563283D01*
X166778944Y-93102881D02*
X164333435Y-94115844D01*
X165037513Y-88637382D02*
X165440451Y-88557071D01*
X165440451Y-88557071D02*
X165844053Y-88637761D01*
X167338346Y-92984820D02*
X166778944Y-93102881D01*
X165844053Y-88637761D02*
X166540451Y-88926219D01*
X167895307Y-93077755D02*
X167338346Y-92984820D01*
X166540451Y-88926219D02*
X166625407Y-89131320D01*
X166625407Y-89131320D02*
X166873399Y-89502686D01*
X168380934Y-93366925D02*
X167895307Y-93077755D01*
X166873399Y-89502686D02*
X167239271Y-89748375D01*
X168736749Y-93823517D02*
X168380934Y-93366925D01*
X168926547Y-94067453D02*
X168736749Y-93823517D01*
X167239271Y-89748375D02*
X167671709Y-89833357D01*
X169203588Y-94231956D02*
X168926547Y-94067453D01*
X167671709Y-89833357D02*
X168109662Y-89746119D01*
X169521787Y-94284160D02*
X169203588Y-94231956D01*
X169830768Y-94220037D02*
X169521787Y-94284160D01*
X168109662Y-89746119D02*
X170696525Y-88674605D01*
X170696525Y-88674605D02*
X171023508Y-88609520D01*
X171023508Y-88609520D02*
X171357293Y-88675834D01*
X171357293Y-88675834D02*
X171640206Y-88864965D01*
X171640206Y-88864965D02*
X171882141Y-89226933D01*
X172909883Y-91925012D02*
X173245252Y-91786098D01*
X173245252Y-91786098D02*
X173605740Y-92656393D01*
X173605740Y-92656393D02*
X169830768Y-94220037D01*
X108315036Y-106208153D02*
X109539285Y-105701053D01*
X109539285Y-105701053D02*
X112077182Y-106752284D01*
X107705466Y-110128283D02*
X107152905Y-108794283D01*
X110150975Y-111141246D02*
X107705466Y-110128283D01*
X112077182Y-106752284D02*
X112418891Y-106980416D01*
X112418891Y-106980416D02*
X112647223Y-107322862D01*
X110630014Y-111453322D02*
X110150975Y-111141246D01*
X112647223Y-107322862D02*
X112935681Y-108019260D01*
X110958130Y-111912867D02*
X110630014Y-111453322D01*
X112935681Y-108019260D02*
X112850725Y-108224361D01*
X112850725Y-108224361D02*
X112763487Y-108662314D01*
X111097045Y-112460732D02*
X110958130Y-111912867D01*
X112763487Y-108662314D02*
X112848469Y-109094753D01*
X111025785Y-113035190D02*
X111097045Y-112460732D01*
X110987504Y-113341886D02*
X111025785Y-113035190D01*
X112848469Y-109094753D02*
X113094158Y-109460624D01*
X111067080Y-113654105D02*
X110987504Y-113341886D01*
X113094158Y-109460624D02*
X113465524Y-109708617D01*
X111255167Y-113916019D02*
X111067080Y-113654105D01*
X111518992Y-114089160D02*
X111255167Y-113916019D01*
X113465524Y-109708617D02*
X116052387Y-110780130D01*
X116052387Y-110780130D02*
X116329621Y-110965320D01*
X116329621Y-110965320D02*
X116518751Y-111248233D01*
X116518751Y-111248233D02*
X116585065Y-111582018D01*
X116585065Y-111582018D02*
X116500189Y-112009042D01*
X115319083Y-114643596D02*
X115654451Y-114782510D01*
X115654451Y-114782510D02*
X115293963Y-115652805D01*
X115293963Y-115652805D02*
X111518992Y-114089160D01*
X197708905Y-76129476D02*
X198216006Y-74905226D01*
X198216006Y-74905226D02*
X200753903Y-73853995D01*
X200049825Y-79332457D02*
X198715824Y-78779896D01*
X202495334Y-78319494D02*
X200049825Y-79332457D01*
X200753903Y-73853995D02*
X201156841Y-73773684D01*
X201156841Y-73773684D02*
X201560443Y-73854374D01*
X203054736Y-78201433D02*
X202495334Y-78319494D01*
X201560443Y-73854374D02*
X202256841Y-74142832D01*
X203611697Y-78294368D02*
X203054736Y-78201433D01*
X202256841Y-74142832D02*
X202341797Y-74347933D01*
X202341797Y-74347933D02*
X202589789Y-74719299D01*
X204097324Y-78583538D02*
X203611697Y-78294368D01*
X202589789Y-74719299D02*
X202955661Y-74964988D01*
X204453139Y-79040130D02*
X204097324Y-78583538D01*
X204642937Y-79284066D02*
X204453139Y-79040130D01*
X202955661Y-74964988D02*
X203388099Y-75049970D01*
X204919978Y-79448569D02*
X204642937Y-79284066D01*
X203388099Y-75049970D02*
X203826052Y-74962732D01*
X205238177Y-79500773D02*
X204919978Y-79448569D01*
X205547158Y-79436650D02*
X205238177Y-79500773D01*
X203826052Y-74962732D02*
X206412915Y-73891218D01*
X206412915Y-73891218D02*
X206739898Y-73826133D01*
X206739898Y-73826133D02*
X207073683Y-73892447D01*
X207073683Y-73892447D02*
X207356596Y-74081578D01*
X207356596Y-74081578D02*
X207598531Y-74443546D01*
X208626273Y-77141625D02*
X208961642Y-77002711D01*
X208961642Y-77002711D02*
X209322130Y-77873006D01*
X209322130Y-77873006D02*
X205547158Y-79436650D01*
X135338000Y-43909000D02*
X136275000Y-42972000D01*
X136275000Y-42972000D02*
X139022000Y-42972000D01*
X136275000Y-47764000D02*
X135254000Y-46743000D01*
X138922000Y-47764000D02*
X136275000Y-47764000D01*
X139022000Y-42972000D02*
X139425000Y-43052000D01*
X139425000Y-43052000D02*
X139767000Y-43281000D01*
X139484000Y-47869000D02*
X138922000Y-47764000D01*
X139767000Y-43281000D02*
X140300000Y-43814000D01*
X139963000Y-48168000D02*
X139484000Y-47869000D01*
X140300000Y-43814000D02*
X140300000Y-44036000D01*
X140300000Y-44036000D02*
X140387000Y-44474000D01*
X140301000Y-48621000D02*
X139963000Y-48168000D01*
X140387000Y-44474000D02*
X140631000Y-44841000D01*
X140455000Y-49179000D02*
X140301000Y-48621000D01*
X140537000Y-49477000D02*
X140455000Y-49179000D01*
X140631000Y-44841000D02*
X140998000Y-45085000D01*
X140730000Y-49735000D02*
X140537000Y-49477000D01*
X140998000Y-45085000D02*
X141436000Y-45172000D01*
X141004000Y-49905000D02*
X140730000Y-49735000D01*
X141314000Y-49964000D02*
X141004000Y-49905000D01*
X141436000Y-45172000D02*
X144236000Y-45172000D01*
X144236000Y-45172000D02*
X144563000Y-45237000D01*
X144563000Y-45237000D02*
X144846000Y-45426000D01*
X144846000Y-45426000D02*
X145035000Y-45709000D01*
X145035000Y-45709000D02*
X145120000Y-46136000D01*
X145037000Y-49022000D02*
X145400000Y-49022000D01*
X145400000Y-49022000D02*
X145400000Y-49964000D01*
X145400000Y-49964000D02*
X141314000Y-49964000D01*
X169301002Y-108557116D02*
X169808103Y-107332866D01*
X169808103Y-107332866D02*
X172346000Y-106281635D01*
X171641922Y-111760097D02*
X170307921Y-111207536D01*
X174087431Y-110747134D02*
X171641922Y-111760097D01*
X172346000Y-106281635D02*
X172748938Y-106201324D01*
X172748938Y-106201324D02*
X173152540Y-106282014D01*
X174646833Y-110629073D02*
X174087431Y-110747134D01*
X173152540Y-106282014D02*
X173848938Y-106570472D01*
X175203794Y-110722008D02*
X174646833Y-110629073D01*
X173848938Y-106570472D02*
X173933894Y-106775573D01*
X173933894Y-106775573D02*
X174181886Y-107146939D01*
X175689421Y-111011178D02*
X175203794Y-110722008D01*
X174181886Y-107146939D02*
X174547758Y-107392628D01*
X176045236Y-111467770D02*
X175689421Y-111011178D01*
X176235034Y-111711706D02*
X176045236Y-111467770D01*
X174547758Y-107392628D02*
X174980196Y-107477610D01*
X176512075Y-111876209D02*
X176235034Y-111711706D01*
X174980196Y-107477610D02*
X175418149Y-107390372D01*
X176830274Y-111928413D02*
X176512075Y-111876209D01*
X177139255Y-111864290D02*
X176830274Y-111928413D01*
X175418149Y-107390372D02*
X178005012Y-106318858D01*
X178005012Y-106318858D02*
X178331995Y-106253773D01*
X178331995Y-106253773D02*
X178665780Y-106320087D01*
X178665780Y-106320087D02*
X178948693Y-106509218D01*
X178948693Y-106509218D02*
X179190628Y-106871186D01*
X180218370Y-109569265D02*
X180553739Y-109430351D01*
X180553739Y-109430351D02*
X180914227Y-110300646D01*
X180914227Y-110300646D02*
X177139255Y-111864290D01*
X77828810Y-43919000D02*
X78765810Y-42982000D01*
X78765810Y-42982000D02*
X81512810Y-42982000D01*
X78765810Y-47774000D02*
X77744810Y-46753000D01*
X81412810Y-47774000D02*
X78765810Y-47774000D01*
X81512810Y-42982000D02*
X81915810Y-43062000D01*
X81915810Y-43062000D02*
X82257810Y-43291000D01*
X81974810Y-47879000D02*
X81412810Y-47774000D01*
X82257810Y-43291000D02*
X82790810Y-43824000D01*
X82453810Y-48178000D02*
X81974810Y-47879000D01*
X82790810Y-43824000D02*
X82790810Y-44046000D01*
X82790810Y-44046000D02*
X82877810Y-44484000D01*
X82791810Y-48631000D02*
X82453810Y-48178000D01*
X82877810Y-44484000D02*
X83121810Y-44851000D01*
X82945810Y-49189000D02*
X82791810Y-48631000D01*
X83027810Y-49487000D02*
X82945810Y-49189000D01*
X83121810Y-44851000D02*
X83488810Y-45095000D01*
X83220810Y-49745000D02*
X83027810Y-49487000D01*
X83488810Y-45095000D02*
X83926810Y-45182000D01*
X83494810Y-49915000D02*
X83220810Y-49745000D01*
X83804810Y-49974000D02*
X83494810Y-49915000D01*
X83926810Y-45182000D02*
X86726810Y-45182000D01*
X86726810Y-45182000D02*
X87053810Y-45247000D01*
X87053810Y-45247000D02*
X87336810Y-45436000D01*
X87336810Y-45436000D02*
X87525810Y-45719000D01*
X87525810Y-45719000D02*
X87610810Y-46146000D01*
X87527810Y-49032000D02*
X87890810Y-49032000D01*
X87890810Y-49032000D02*
X87890810Y-49974000D01*
X87890810Y-49974000D02*
X83804810Y-49974000D01*
X154468000Y-43899000D02*
X155405000Y-42962000D01*
X155405000Y-42962000D02*
X158152000Y-42962000D01*
X155405000Y-47754000D02*
X154384000Y-46733000D01*
X158052000Y-47754000D02*
X155405000Y-47754000D01*
X158152000Y-42962000D02*
X158555000Y-43042000D01*
X158555000Y-43042000D02*
X158897000Y-43271000D01*
X158614000Y-47859000D02*
X158052000Y-47754000D01*
X158897000Y-43271000D02*
X159430000Y-43804000D01*
X159093000Y-48158000D02*
X158614000Y-47859000D01*
X159430000Y-43804000D02*
X159430000Y-44026000D01*
X159430000Y-44026000D02*
X159517000Y-44464000D01*
X159431000Y-48611000D02*
X159093000Y-48158000D01*
X159517000Y-44464000D02*
X159761000Y-44831000D01*
X159585000Y-49169000D02*
X159431000Y-48611000D01*
X159667000Y-49467000D02*
X159585000Y-49169000D01*
X159761000Y-44831000D02*
X160128000Y-45075000D01*
X159860000Y-49725000D02*
X159667000Y-49467000D01*
X160128000Y-45075000D02*
X160566000Y-45162000D01*
X160134000Y-49895000D02*
X159860000Y-49725000D01*
X160444000Y-49954000D02*
X160134000Y-49895000D01*
X160566000Y-45162000D02*
X163366000Y-45162000D01*
X163366000Y-45162000D02*
X163693000Y-45227000D01*
X163693000Y-45227000D02*
X163976000Y-45416000D01*
X163976000Y-45416000D02*
X164165000Y-45699000D01*
X164165000Y-45699000D02*
X164250000Y-46126000D01*
X164167000Y-49012000D02*
X164530000Y-49012000D01*
X164530000Y-49012000D02*
X164530000Y-49954000D01*
X164530000Y-49954000D02*
X160444000Y-49954000D01*
X180038913Y-83459450D02*
X180546014Y-82235200D01*
X180546014Y-82235200D02*
X183083911Y-81183969D01*
X182379833Y-86662431D02*
X181045832Y-86109870D01*
X184825342Y-85649468D02*
X182379833Y-86662431D01*
X183083911Y-81183969D02*
X183486849Y-81103658D01*
X183486849Y-81103658D02*
X183890451Y-81184348D01*
X185384744Y-85531407D02*
X184825342Y-85649468D01*
X183890451Y-81184348D02*
X184586849Y-81472806D01*
X185941705Y-85624342D02*
X185384744Y-85531407D01*
X184586849Y-81472806D02*
X184671805Y-81677907D01*
X184671805Y-81677907D02*
X184919797Y-82049273D01*
X186427332Y-85913512D02*
X185941705Y-85624342D01*
X184919797Y-82049273D02*
X185285669Y-82294962D01*
X186783147Y-86370104D02*
X186427332Y-85913512D01*
X186972945Y-86614040D02*
X186783147Y-86370104D01*
X185285669Y-82294962D02*
X185718107Y-82379944D01*
X187249986Y-86778543D02*
X186972945Y-86614040D01*
X185718107Y-82379944D02*
X186156060Y-82292706D01*
X187568185Y-86830747D02*
X187249986Y-86778543D01*
X187877166Y-86766624D02*
X187568185Y-86830747D01*
X186156060Y-82292706D02*
X188742923Y-81221192D01*
X188742923Y-81221192D02*
X189069906Y-81156107D01*
X189069906Y-81156107D02*
X189403691Y-81222421D01*
X189403691Y-81222421D02*
X189686604Y-81411552D01*
X189686604Y-81411552D02*
X189928539Y-81773520D01*
X190956281Y-84471599D02*
X191291650Y-84332685D01*
X191291650Y-84332685D02*
X191652138Y-85202980D01*
X191652138Y-85202980D02*
X187877166Y-86766624D01*
X58303810Y-43899000D02*
X59240810Y-42962000D01*
X59240810Y-42962000D02*
X61987810Y-42962000D01*
X59240810Y-47754000D02*
X58219810Y-46733000D01*
X61887810Y-47754000D02*
X59240810Y-47754000D01*
X61987810Y-42962000D02*
X62390810Y-43042000D01*
X62390810Y-43042000D02*
X62732810Y-43271000D01*
X62449810Y-47859000D02*
X61887810Y-47754000D01*
X62732810Y-43271000D02*
X63265810Y-43804000D01*
X62928810Y-48158000D02*
X62449810Y-47859000D01*
X63265810Y-43804000D02*
X63265810Y-44026000D01*
X63265810Y-44026000D02*
X63352810Y-44464000D01*
X63266810Y-48611000D02*
X62928810Y-48158000D01*
X63352810Y-44464000D02*
X63596810Y-44831000D01*
X63420810Y-49169000D02*
X63266810Y-48611000D01*
X63502810Y-49467000D02*
X63420810Y-49169000D01*
X63596810Y-44831000D02*
X63963810Y-45075000D01*
X63695810Y-49725000D02*
X63502810Y-49467000D01*
X63963810Y-45075000D02*
X64401810Y-45162000D01*
X63969810Y-49895000D02*
X63695810Y-49725000D01*
X64279810Y-49954000D02*
X63969810Y-49895000D01*
X64401810Y-45162000D02*
X67201810Y-45162000D01*
X67201810Y-45162000D02*
X67528810Y-45227000D01*
X67528810Y-45227000D02*
X67811810Y-45416000D01*
X67811810Y-45416000D02*
X68000810Y-45699000D01*
X68000810Y-45699000D02*
X68085810Y-46126000D01*
X68002810Y-49012000D02*
X68365810Y-49012000D01*
X68365810Y-49012000D02*
X68365810Y-49954000D01*
X68365810Y-49954000D02*
X64279810Y-49954000D01*
X146072154Y-102466814D02*
X146579255Y-101242564D01*
X146579255Y-101242564D02*
X149117152Y-100191333D01*
X148413074Y-105669795D02*
X147079073Y-105117234D01*
X150858583Y-104656832D02*
X148413074Y-105669795D01*
X149117152Y-100191333D02*
X149520090Y-100111022D01*
X149520090Y-100111022D02*
X149923692Y-100191712D01*
X151417985Y-104538771D02*
X150858583Y-104656832D01*
X149923692Y-100191712D02*
X150620090Y-100480170D01*
X151974946Y-104631706D02*
X151417985Y-104538771D01*
X150620090Y-100480170D02*
X150705046Y-100685271D01*
X150705046Y-100685271D02*
X150953038Y-101056637D01*
X152460573Y-104920876D02*
X151974946Y-104631706D01*
X150953038Y-101056637D02*
X151318910Y-101302326D01*
X152816388Y-105377468D02*
X152460573Y-104920876D01*
X153006186Y-105621404D02*
X152816388Y-105377468D01*
X151318910Y-101302326D02*
X151751348Y-101387308D01*
X153283227Y-105785907D02*
X153006186Y-105621404D01*
X151751348Y-101387308D02*
X152189301Y-101300070D01*
X153601426Y-105838111D02*
X153283227Y-105785907D01*
X153910407Y-105773988D02*
X153601426Y-105838111D01*
X152189301Y-101300070D02*
X154776164Y-100228556D01*
X154776164Y-100228556D02*
X155103147Y-100163471D01*
X155103147Y-100163471D02*
X155436932Y-100229785D01*
X155436932Y-100229785D02*
X155719845Y-100418916D01*
X155719845Y-100418916D02*
X155961780Y-100780884D01*
X156989522Y-103478963D02*
X157324891Y-103340049D01*
X157324891Y-103340049D02*
X157685379Y-104210344D01*
X157685379Y-104210344D02*
X153910407Y-105773988D01*
%TD*%
M02*
