%TF.GenerationSoftware,KiCad,Pcbnew,7.0.5*%
%TF.CreationDate,2023-07-09T01:02:00-05:00*%
%TF.ProjectId,NanoSwap,4e616e6f-5377-4617-902e-6b696361645f,rev?*%
%TF.SameCoordinates,Original*%
%TF.FileFunction,Copper,L1,Top*%
%TF.FilePolarity,Positive*%
%FSLAX46Y46*%
G04 Gerber Fmt 4.6, Leading zero omitted, Abs format (unit mm)*
G04 Created by KiCad (PCBNEW 7.0.5) date 2023-07-09 01:02:00*
%MOMM*%
%LPD*%
G01*
G04 APERTURE LIST*
%TA.AperFunction,ComponentPad*%
%ADD10O,1.700000X1.700000*%
%TD*%
%TA.AperFunction,SMDPad,CuDef*%
%ADD11R,1.700000X3.500000*%
%TD*%
%TA.AperFunction,ComponentPad*%
%ADD12R,1.700000X1.700000*%
%TD*%
%TA.AperFunction,SMDPad,CuDef*%
%ADD13R,3.500000X1.700000*%
%TD*%
%TA.AperFunction,ViaPad*%
%ADD14C,0.800000*%
%TD*%
%TA.AperFunction,Conductor*%
%ADD15C,0.050000*%
%TD*%
G04 APERTURE END LIST*
D10*
%TO.P,USB Right,1*%
%TO.N,N/C*%
X227584000Y-40640000D03*
D11*
X227584000Y-39740000D03*
D10*
%TO.P,USB Right,2*%
X225044000Y-40640000D03*
D11*
X225044000Y-39740000D03*
D12*
%TO.P,USB Right,3*%
X222504000Y-40640000D03*
D11*
X222504000Y-39740000D03*
D10*
%TO.P,USB Right,4*%
X219964000Y-40640000D03*
D11*
X219964000Y-39740000D03*
D10*
%TO.P,USB Right,5*%
X217424000Y-40640000D03*
D11*
X217424000Y-39740000D03*
D10*
%TO.P,USB Right,6*%
X214884000Y-40640000D03*
D11*
X214884000Y-39740000D03*
D10*
%TO.P,USB Right,7*%
X212344000Y-40640000D03*
D11*
X212344000Y-39740000D03*
D12*
%TO.P,USB Right,8*%
X209804000Y-40640000D03*
D11*
X209804000Y-39740000D03*
D10*
%TO.P,USB Right,9*%
X207264000Y-40640000D03*
D11*
X207264000Y-39740000D03*
D10*
%TO.P,USB Right,10*%
X204724000Y-40640000D03*
D11*
X204724000Y-39740000D03*
D10*
%TO.P,USB Right,11*%
X202184000Y-40640000D03*
D11*
X202184000Y-39740000D03*
D10*
%TO.P,USB Right,12*%
X199644000Y-40640000D03*
D11*
X199644000Y-39740000D03*
D12*
%TO.P,USB Right,13*%
X197104000Y-40640000D03*
D11*
X197104000Y-39740000D03*
D10*
%TO.P,USB Right,14*%
X194564000Y-40640000D03*
D11*
X194564000Y-39740000D03*
D10*
%TO.P,USB Right,15*%
X192024000Y-40640000D03*
D11*
X192024000Y-39740000D03*
D10*
%TO.P,USB Right,16*%
X189484000Y-40640000D03*
D11*
X189484000Y-39740000D03*
D10*
%TO.P,USB Right,17*%
X186944000Y-40640000D03*
D11*
X186944000Y-39740000D03*
D12*
%TO.P,USB Right,18*%
X184404000Y-40640000D03*
D11*
X184404000Y-39740000D03*
D10*
%TO.P,USB Right,19*%
X181864000Y-40640000D03*
D11*
X181864000Y-39740000D03*
D10*
%TO.P,USB Right,20*%
X179324000Y-40640000D03*
D11*
X179324000Y-39740000D03*
D10*
%TO.P,USB Right,21*%
X179324000Y-58420000D03*
D11*
X179324000Y-59320000D03*
D10*
%TO.P,USB Right,22*%
X181864000Y-58420000D03*
D11*
X181864000Y-59320000D03*
D12*
%TO.P,USB Right,23*%
X184404000Y-58420000D03*
D11*
X184404000Y-59320000D03*
D10*
%TO.P,USB Right,24*%
X186944000Y-58420000D03*
D11*
X186944000Y-59320000D03*
D10*
%TO.P,USB Right,25*%
X189484000Y-58420000D03*
D11*
X189484000Y-59320000D03*
D10*
%TO.P,USB Right,26*%
X192024000Y-58420000D03*
D11*
X192024000Y-59320000D03*
D10*
%TO.P,USB Right,27*%
X194564000Y-58420000D03*
D11*
X194564000Y-59320000D03*
D12*
%TO.P,USB Right,28*%
X197104000Y-58420000D03*
D11*
X197104000Y-59320000D03*
D10*
%TO.P,USB Right,29*%
X199644000Y-58420000D03*
D11*
X199644000Y-59320000D03*
D10*
%TO.P,USB Right,30*%
X202184000Y-58420000D03*
D11*
X202184000Y-59320000D03*
D10*
%TO.P,USB Right,31*%
X204724000Y-58420000D03*
D11*
X204724000Y-59320000D03*
D10*
%TO.P,USB Right,32*%
X207264000Y-58420000D03*
D11*
X207264000Y-59320000D03*
D12*
%TO.P,USB Right,33*%
X209804000Y-58420000D03*
D11*
X209804000Y-59320000D03*
D10*
%TO.P,USB Right,34*%
X212344000Y-58420000D03*
D11*
X212344000Y-59320000D03*
D10*
%TO.P,USB Right,35*%
X214884000Y-58420000D03*
D11*
X214884000Y-59320000D03*
D10*
%TO.P,USB Right,36*%
X217424000Y-58420000D03*
D11*
X217424000Y-59320000D03*
D10*
%TO.P,USB Right,37*%
X219964000Y-58420000D03*
D11*
X219964000Y-59320000D03*
D12*
%TO.P,USB Right,38*%
X222504000Y-58420000D03*
D11*
X222504000Y-59320000D03*
D10*
%TO.P,USB Right,39*%
X225044000Y-58420000D03*
D11*
X225044000Y-59320000D03*
D10*
%TO.P,USB Right,40*%
X227584000Y-58420000D03*
D11*
X227584000Y-59320000D03*
D10*
%TO.P,USB Right,41*%
X179554000Y-46990000D03*
D13*
X178654000Y-46990000D03*
D12*
%TO.P,USB Right,42*%
X179554000Y-49530000D03*
D13*
X178654000Y-49530000D03*
D10*
%TO.P,USB Right,43*%
X179554000Y-52070000D03*
D13*
X178654000Y-52070000D03*
%TD*%
D14*
%TO.N,*%
X180848000Y-103632000D03*
X109728000Y-86868000D03*
X147320000Y-45212000D03*
X108712000Y-45212000D03*
X120904000Y-113792000D03*
X167640000Y-47244000D03*
X70104000Y-45212000D03*
X191008000Y-78740000D03*
X215900000Y-89408000D03*
X82804000Y-96520000D03*
X156972000Y-98044000D03*
X101600000Y-104648000D03*
X198628000Y-96520000D03*
X208788000Y-71628000D03*
X164592000Y-115824000D03*
X172720000Y-85852000D03*
X128016000Y-45212000D03*
X89408000Y-45212000D03*
%TD*%
D15*
%TO.N,*%
X185682148Y-62270965D02*
X185675050Y-62263867D01*
X82804000Y-96520000D02*
X138176000Y-96520000D01*
X153924000Y-86868000D02*
X153924000Y-72644000D01*
X176276000Y-99060000D02*
X176276000Y-78232000D01*
X153924000Y-72644000D02*
X179324000Y-72644000D01*
X185928000Y-76200000D02*
X185928000Y-67056000D01*
X187960000Y-69088000D02*
X199644000Y-69088000D01*
X172720000Y-85852000D02*
X172720000Y-77216000D01*
X183896000Y-73152000D02*
X183896000Y-64516000D01*
X190500000Y-66040000D02*
X190500000Y-60418727D01*
X194056000Y-70104000D02*
X207264000Y-70104000D01*
X233680000Y-89408000D02*
X234188000Y-88900000D01*
X207264000Y-70104000D02*
X207264000Y-58420000D01*
X173736000Y-47244000D02*
X176276000Y-44704000D01*
X154940000Y-93980000D02*
X154940000Y-73660000D01*
X156972000Y-98044000D02*
X156972000Y-75184000D01*
X184404000Y-73660000D02*
X184404000Y-65024000D01*
X156972000Y-75184000D02*
X185420000Y-75184000D01*
X164592000Y-111252000D02*
X160020000Y-106680000D01*
X174244000Y-37592000D02*
X202184000Y-37592000D01*
X189981353Y-51297353D02*
X189992000Y-51308000D01*
X184912000Y-74168000D02*
X184912000Y-65532000D01*
X171196000Y-40640000D02*
X174244000Y-37592000D01*
X214884000Y-43688000D02*
X214884000Y-40640000D01*
X183896000Y-64516000D02*
X185420000Y-64516000D01*
X171196000Y-42164000D02*
X172212000Y-43180000D01*
X155448000Y-94488000D02*
X155448000Y-74168000D01*
X138684000Y-93980000D02*
X154940000Y-93980000D01*
X185420000Y-66548000D02*
X185928000Y-66040000D01*
X194564000Y-68072000D02*
X194564000Y-58420000D01*
X109728000Y-86868000D02*
X153924000Y-86868000D01*
X176276000Y-78232000D02*
X187960000Y-78232000D01*
X70104000Y-40640000D02*
X171196000Y-40640000D01*
X128016000Y-42164000D02*
X171196000Y-42164000D01*
X185675050Y-51297353D02*
X189981353Y-51297353D01*
X217932000Y-50292000D02*
X217424000Y-49784000D01*
X138176000Y-93472000D02*
X154432000Y-93472000D01*
X185420000Y-62533113D02*
X185682148Y-62270965D01*
X138176000Y-96520000D02*
X138176000Y-93472000D01*
X181356000Y-44704000D02*
X181864000Y-45212000D01*
X139192000Y-94488000D02*
X155448000Y-94488000D01*
X176276000Y-44704000D02*
X181356000Y-44704000D01*
X172212000Y-42672000D02*
X207264000Y-42672000D01*
X190724844Y-51591156D02*
X191008000Y-51308000D01*
X147320000Y-45212000D02*
X147320000Y-42672000D01*
X181864000Y-45212000D02*
X181864000Y-58420000D01*
X108712000Y-41656000D02*
X171196000Y-41656000D01*
X212344000Y-43180000D02*
X212344000Y-40640000D01*
X89408000Y-45212000D02*
X89408000Y-41148000D01*
X164592000Y-115824000D02*
X164592000Y-111252000D01*
X185928000Y-67056000D02*
X192024000Y-67056000D01*
X212344000Y-71628000D02*
X212344000Y-58420000D01*
X199644000Y-69088000D02*
X199644000Y-58420000D01*
X186944000Y-68072000D02*
X194564000Y-68072000D01*
X217424000Y-49784000D02*
X217424000Y-40640000D01*
X234188000Y-40640000D02*
X227584000Y-40640000D01*
X189992000Y-50292000D02*
X217932000Y-50292000D01*
X172212000Y-42164000D02*
X204724000Y-42164000D01*
X208788000Y-71628000D02*
X212344000Y-71628000D01*
X186944000Y-65024000D02*
X186944000Y-58420000D01*
X190500000Y-60418727D02*
X190724844Y-60193883D01*
X190724844Y-60193883D02*
X190724844Y-51591156D01*
X204724000Y-69596000D02*
X204724000Y-58420000D01*
X184912000Y-65532000D02*
X189484000Y-65532000D01*
X160020000Y-106680000D02*
X160020000Y-97536000D01*
X138684000Y-102108000D02*
X138684000Y-93980000D01*
X204724000Y-42164000D02*
X204724000Y-40640000D01*
X187960000Y-78232000D02*
X187960000Y-69088000D01*
X189992000Y-51308000D02*
X189992000Y-50292000D01*
X198628000Y-96520000D02*
X198628000Y-93980000D01*
X171196000Y-41656000D02*
X172212000Y-42672000D01*
X147320000Y-42672000D02*
X171196000Y-42672000D01*
X191008000Y-51308000D02*
X219964000Y-51308000D01*
X185675050Y-62263867D02*
X185675050Y-51297353D01*
X189484000Y-65532000D02*
X189484000Y-58420000D01*
X194056000Y-89408000D02*
X194056000Y-70104000D01*
X167640000Y-47244000D02*
X173736000Y-47244000D01*
X128016000Y-45212000D02*
X128016000Y-42164000D01*
X154432000Y-93472000D02*
X154432000Y-73152000D01*
X179324000Y-72644000D02*
X179324000Y-58420000D01*
X139192000Y-113792000D02*
X139192000Y-94488000D01*
X172212000Y-43180000D02*
X212344000Y-43180000D01*
X185928000Y-66040000D02*
X190500000Y-66040000D01*
X191008000Y-69596000D02*
X204724000Y-69596000D01*
X198628000Y-93980000D02*
X194056000Y-89408000D01*
X158496000Y-76200000D02*
X185928000Y-76200000D01*
X160020000Y-97536000D02*
X158496000Y-96012000D01*
X158496000Y-96012000D02*
X158496000Y-76200000D01*
X186944000Y-77216000D02*
X186944000Y-68072000D01*
X101600000Y-104648000D02*
X104140000Y-102108000D01*
X184404000Y-65024000D02*
X186944000Y-65024000D01*
X89408000Y-41148000D02*
X171196000Y-41148000D01*
X191008000Y-78740000D02*
X191008000Y-69596000D01*
X180848000Y-103632000D02*
X176276000Y-99060000D01*
X120904000Y-113792000D02*
X139192000Y-113792000D01*
X172720000Y-77216000D02*
X186944000Y-77216000D01*
X108712000Y-45212000D02*
X108712000Y-41656000D01*
X154940000Y-73660000D02*
X184404000Y-73660000D01*
X154432000Y-73152000D02*
X183896000Y-73152000D01*
X155448000Y-74168000D02*
X184912000Y-74168000D01*
X171196000Y-41148000D02*
X172212000Y-42164000D01*
X202184000Y-37592000D02*
X202184000Y-40640000D01*
X172212000Y-43688000D02*
X214884000Y-43688000D01*
X104140000Y-102108000D02*
X138684000Y-102108000D01*
X234188000Y-88900000D02*
X234188000Y-40640000D01*
X185420000Y-75184000D02*
X185420000Y-66548000D01*
X185420000Y-64516000D02*
X185420000Y-62533113D01*
X215900000Y-89408000D02*
X233680000Y-89408000D01*
X70104000Y-45212000D02*
X70104000Y-40640000D01*
X192024000Y-67056000D02*
X192024000Y-58420000D01*
X207264000Y-42672000D02*
X207264000Y-40640000D01*
X171196000Y-42672000D02*
X172212000Y-43688000D01*
X219964000Y-51308000D02*
X219964000Y-40640000D01*
%TD*%
M02*
