%TF.GenerationSoftware,KiCad,Pcbnew,7.0.5*%
%TF.CreationDate,2023-07-09T01:00:59-05:00*%
%TF.ProjectId,NanoSwap,4e616e6f-5377-4617-902e-6b696361645f,rev?*%
%TF.SameCoordinates,Original*%
%TF.FileFunction,Copper,L2,Bot*%
%TF.FilePolarity,Positive*%
%FSLAX46Y46*%
G04 Gerber Fmt 4.6, Leading zero omitted, Abs format (unit mm)*
G04 Created by KiCad (PCBNEW 7.0.5) date 2023-07-09 01:00:59*
%MOMM*%
%LPD*%
G01*
G04 APERTURE LIST*
G04 Aperture macros list*
%AMRoundRect*
0 Rectangle with rounded corners*
0 $1 Rounding radius*
0 $2 $3 $4 $5 $6 $7 $8 $9 X,Y pos of 4 corners*
0 Add a 4 corners polygon primitive as box body*
4,1,4,$2,$3,$4,$5,$6,$7,$8,$9,$2,$3,0*
0 Add four circle primitives for the rounded corners*
1,1,$1+$1,$2,$3*
1,1,$1+$1,$4,$5*
1,1,$1+$1,$6,$7*
1,1,$1+$1,$8,$9*
0 Add four rect primitives between the rounded corners*
20,1,$1+$1,$2,$3,$4,$5,0*
20,1,$1+$1,$4,$5,$6,$7,0*
20,1,$1+$1,$6,$7,$8,$9,0*
20,1,$1+$1,$8,$9,$2,$3,0*%
G04 Aperture macros list end*
%TA.AperFunction,SMDPad,CuDef*%
%ADD10RoundRect,0.250000X-1.025000X-1.000000X1.025000X-1.000000X1.025000X1.000000X-1.025000X1.000000X0*%
%TD*%
%TA.AperFunction,ComponentPad*%
%ADD11O,1.700000X1.700000*%
%TD*%
%TA.AperFunction,ComponentPad*%
%ADD12R,1.700000X1.700000*%
%TD*%
%TA.AperFunction,SMDPad,CuDef*%
%ADD13RoundRect,0.250000X-1.329660X-0.531629X0.564293X-1.316130X1.329660X0.531629X-0.564293X1.316130X0*%
%TD*%
%TA.AperFunction,SMDPad,CuDef*%
%ADD14RoundRect,0.250000X-0.564293X-1.316130X1.329660X-0.531629X0.564293X1.316130X-1.329660X0.531629X0*%
%TD*%
%TA.AperFunction,ViaPad*%
%ADD15C,0.800000*%
%TD*%
%TA.AperFunction,Conductor*%
%ADD16C,0.050000*%
%TD*%
%TA.AperFunction,Conductor*%
%ADD17C,0.000000*%
%TD*%
%TA.AperFunction,Conductor*%
%ADD18C,0.045000*%
%TD*%
G04 APERTURE END LIST*
D10*
%TO.P,REF\u002A\u002A,1*%
%TO.N,N/C*%
X115131810Y-45308000D03*
%TO.P,REF\u002A\u002A,2*%
X127131810Y-47508000D03*
%TD*%
D11*
%TO.P,USB Right,1*%
%TO.N,N/C*%
X227584000Y-40640000D03*
%TO.P,USB Right,2*%
X225044000Y-40640000D03*
D12*
%TO.P,USB Right,3*%
X222504000Y-40640000D03*
D11*
%TO.P,USB Right,4*%
X219964000Y-40640000D03*
%TO.P,USB Right,5*%
X217424000Y-40640000D03*
%TO.P,USB Right,6*%
X214884000Y-40640000D03*
%TO.P,USB Right,7*%
X212344000Y-40640000D03*
D12*
%TO.P,USB Right,8*%
X209804000Y-40640000D03*
D11*
%TO.P,USB Right,9*%
X207264000Y-40640000D03*
%TO.P,USB Right,10*%
X204724000Y-40640000D03*
%TO.P,USB Right,11*%
X202184000Y-40640000D03*
%TO.P,USB Right,12*%
X199644000Y-40640000D03*
D12*
%TO.P,USB Right,13*%
X197104000Y-40640000D03*
D11*
%TO.P,USB Right,14*%
X194564000Y-40640000D03*
%TO.P,USB Right,15*%
X192024000Y-40640000D03*
%TO.P,USB Right,16*%
X189484000Y-40640000D03*
%TO.P,USB Right,17*%
X186944000Y-40640000D03*
D12*
%TO.P,USB Right,18*%
X184404000Y-40640000D03*
D11*
%TO.P,USB Right,19*%
X181864000Y-40640000D03*
%TO.P,USB Right,20*%
X179324000Y-40640000D03*
%TO.P,USB Right,21*%
X179324000Y-58420000D03*
%TO.P,USB Right,22*%
X181864000Y-58420000D03*
D12*
%TO.P,USB Right,23*%
X184404000Y-58420000D03*
D11*
%TO.P,USB Right,24*%
X186944000Y-58420000D03*
%TO.P,USB Right,25*%
X189484000Y-58420000D03*
%TO.P,USB Right,26*%
X192024000Y-58420000D03*
%TO.P,USB Right,27*%
X194564000Y-58420000D03*
D12*
%TO.P,USB Right,28*%
X197104000Y-58420000D03*
D11*
%TO.P,USB Right,29*%
X199644000Y-58420000D03*
%TO.P,USB Right,30*%
X202184000Y-58420000D03*
%TO.P,USB Right,31*%
X204724000Y-58420000D03*
%TO.P,USB Right,32*%
X207264000Y-58420000D03*
D12*
%TO.P,USB Right,33*%
X209804000Y-58420000D03*
D11*
%TO.P,USB Right,34*%
X212344000Y-58420000D03*
%TO.P,USB Right,35*%
X214884000Y-58420000D03*
%TO.P,USB Right,36*%
X217424000Y-58420000D03*
%TO.P,USB Right,37*%
X219964000Y-58420000D03*
D12*
%TO.P,USB Right,38*%
X222504000Y-58420000D03*
D11*
%TO.P,USB Right,39*%
X225044000Y-58420000D03*
%TO.P,USB Right,40*%
X227584000Y-58420000D03*
%TO.P,USB Right,41*%
X179554000Y-46990000D03*
D12*
%TO.P,USB Right,42*%
X179554000Y-49530000D03*
D11*
%TO.P,USB Right,43*%
X179554000Y-52070000D03*
%TD*%
D13*
%TO.P,REF\u002A\u002A,1*%
%TO.N,N/C*%
X88977185Y-99724572D03*
%TO.P,REF\u002A\u002A,2*%
X99221836Y-106349308D03*
%TD*%
D14*
%TO.P,REF\u002A\u002A,1*%
%TO.N,N/C*%
X152918358Y-121827641D03*
%TO.P,REF\u002A\u002A,2*%
X164846816Y-119267975D03*
%TD*%
D13*
%TO.P,REF\u002A\u002A,1*%
%TO.N,N/C*%
X96371185Y-82103835D03*
%TO.P,REF\u002A\u002A,2*%
X106615836Y-88728571D03*
%TD*%
D10*
%TO.P,REF\u002A\u002A,1*%
%TO.N,N/C*%
X95874810Y-45318000D03*
%TO.P,REF\u002A\u002A,2*%
X107874810Y-47518000D03*
%TD*%
D14*
%TO.P,REF\u002A\u002A,1*%
%TO.N,N/C*%
X186885120Y-102820274D03*
%TO.P,REF\u002A\u002A,2*%
X198813578Y-100260608D03*
%TD*%
%TO.P,REF\u002A\u002A,1*%
%TO.N,N/C*%
X204555109Y-95490301D03*
%TO.P,REF\u002A\u002A,2*%
X216483567Y-92930635D03*
%TD*%
D13*
%TO.P,REF\u002A\u002A,1*%
%TO.N,N/C*%
X71180495Y-92352944D03*
%TO.P,REF\u002A\u002A,2*%
X81425146Y-98977680D03*
%TD*%
D14*
%TO.P,REF\u002A\u002A,1*%
%TO.N,N/C*%
X161530231Y-92629438D03*
%TO.P,REF\u002A\u002A,2*%
X173458689Y-90069772D03*
%TD*%
D13*
%TO.P,REF\u002A\u002A,1*%
%TO.N,N/C*%
X106774349Y-107095071D03*
%TO.P,REF\u002A\u002A,2*%
X117019000Y-113719807D03*
%TD*%
D14*
%TO.P,REF\u002A\u002A,1*%
%TO.N,N/C*%
X197246621Y-77846051D03*
%TO.P,REF\u002A\u002A,2*%
X209175079Y-75286385D03*
%TD*%
D10*
%TO.P,REF\u002A\u002A,1*%
%TO.N,N/C*%
X134254000Y-45318000D03*
%TO.P,REF\u002A\u002A,2*%
X146254000Y-47518000D03*
%TD*%
D14*
%TO.P,REF\u002A\u002A,1*%
%TO.N,N/C*%
X168838718Y-110273691D03*
%TO.P,REF\u002A\u002A,2*%
X180767176Y-107714025D03*
%TD*%
D10*
%TO.P,REF\u002A\u002A,1*%
%TO.N,N/C*%
X76744810Y-45328000D03*
%TO.P,REF\u002A\u002A,2*%
X88744810Y-47528000D03*
%TD*%
%TO.P,REF\u002A\u002A,1*%
%TO.N,N/C*%
X153384000Y-45308000D03*
%TO.P,REF\u002A\u002A,2*%
X165384000Y-47508000D03*
%TD*%
D14*
%TO.P,REF\u002A\u002A,1*%
%TO.N,N/C*%
X179576629Y-85176025D03*
%TO.P,REF\u002A\u002A,2*%
X191505087Y-82616359D03*
%TD*%
D10*
%TO.P,REF\u002A\u002A,1*%
%TO.N,N/C*%
X57219810Y-45308000D03*
%TO.P,REF\u002A\u002A,2*%
X69219810Y-47508000D03*
%TD*%
D14*
%TO.P,REF\u002A\u002A,1*%
%TO.N,N/C*%
X145609870Y-104183389D03*
%TO.P,REF\u002A\u002A,2*%
X157538328Y-101623723D03*
%TD*%
D15*
%TO.N,*%
X180848000Y-103632000D03*
X109728000Y-86868000D03*
X147320000Y-45212000D03*
X108712000Y-45212000D03*
X120904000Y-113792000D03*
X167640000Y-47244000D03*
X70104000Y-45212000D03*
X191008000Y-78740000D03*
X215900000Y-89408000D03*
X82804000Y-96520000D03*
X156972000Y-98044000D03*
X101600000Y-104648000D03*
X198628000Y-96520000D03*
X208788000Y-71628000D03*
X164592000Y-115824000D03*
X172720000Y-85852000D03*
X128016000Y-45212000D03*
X89408000Y-45212000D03*
%TD*%
D16*
%TO.N,*%
X173458689Y-90069772D02*
X172720000Y-89331083D01*
X48768000Y-82804000D02*
X83312000Y-82804000D01*
D17*
X76744810Y-41184810D02*
X76708000Y-41148000D01*
D16*
X213868000Y-80772000D02*
X213868000Y-67772132D01*
X117019000Y-113719807D02*
X117091193Y-113792000D01*
X145607075Y-94213171D02*
X145609870Y-94210376D01*
X164592000Y-110236000D02*
X161544000Y-113284000D01*
X145609870Y-69274130D02*
X145796000Y-69088000D01*
X186885120Y-102820274D02*
X184100274Y-102820274D01*
X191505087Y-82616359D02*
X191008000Y-82119272D01*
X99221836Y-106349308D02*
X99898692Y-106349308D01*
X117091193Y-113792000D02*
X120904000Y-113792000D01*
X115131810Y-41886435D02*
X115131810Y-41428265D01*
X205740000Y-86360000D02*
X208280000Y-86360000D01*
X184470715Y-67772132D02*
X184170847Y-68072000D01*
X164084000Y-109728000D02*
X164084000Y-110744000D01*
X181356000Y-68671508D02*
X181356000Y-72644000D01*
D17*
X161530231Y-69101769D02*
X161544000Y-69088000D01*
D16*
X140732655Y-94213171D02*
X145607075Y-94213171D01*
X180767176Y-107714025D02*
X180848000Y-107633201D01*
X107874810Y-47518000D02*
X107874810Y-46049190D01*
X172720000Y-89331083D02*
X172720000Y-85852000D01*
X145609870Y-104183389D02*
X145609870Y-69274130D01*
X197612000Y-72644000D02*
X197246621Y-73009379D01*
X127131810Y-46096190D02*
X128016000Y-45212000D01*
X88744810Y-45875190D02*
X89408000Y-45212000D01*
X157538328Y-101623723D02*
X157538328Y-98610328D01*
X161530231Y-92629438D02*
X161530231Y-69101769D01*
X106774349Y-95598349D02*
X106680000Y-95504000D01*
X179740492Y-68671508D02*
X184170847Y-68671508D01*
X152400000Y-117856000D02*
X139192000Y-117856000D01*
X95874810Y-41518810D02*
X95259724Y-40903724D01*
X179576629Y-69340629D02*
X179324000Y-69088000D01*
X167376000Y-47508000D02*
X167640000Y-47244000D01*
X88977185Y-95581185D02*
X88900000Y-95504000D01*
X164846816Y-116078816D02*
X164592000Y-115824000D01*
X184170847Y-68671508D02*
X184170847Y-58653153D01*
X115131810Y-45308000D02*
X115131810Y-41886435D01*
X161544000Y-69088000D02*
X179324000Y-69088000D01*
X197246621Y-73009379D02*
X197246621Y-77846051D01*
X139441826Y-95504000D02*
X140732655Y-94213171D01*
X168838718Y-110273691D02*
X164629691Y-110273691D01*
X70104000Y-46623810D02*
X70104000Y-45212000D01*
X76744810Y-45328000D02*
X76744810Y-41184810D01*
X81425146Y-98977680D02*
X81425146Y-97898854D01*
X162560000Y-108204000D02*
X164084000Y-109728000D01*
X139284359Y-121827641D02*
X139441826Y-121670174D01*
X164846816Y-119267975D02*
X164846816Y-116078816D01*
X152918358Y-121827641D02*
X139284359Y-121827641D01*
X134112000Y-42164000D02*
X115409375Y-42164000D01*
X48768000Y-45308000D02*
X48768000Y-82804000D01*
X161544000Y-113284000D02*
X156972000Y-113284000D01*
X157538328Y-98610328D02*
X156972000Y-98044000D01*
X153384000Y-45308000D02*
X153384000Y-42196000D01*
X115130556Y-41427011D02*
X95779234Y-41427011D01*
X174244000Y-100584000D02*
X166624000Y-108204000D01*
X107874810Y-46049190D02*
X108712000Y-45212000D01*
X215900000Y-92347068D02*
X215900000Y-89408000D01*
X198813578Y-96705578D02*
X198628000Y-96520000D01*
X106774349Y-107095071D02*
X106774349Y-95598349D01*
X166624000Y-108204000D02*
X162560000Y-108204000D01*
X165384000Y-47508000D02*
X167376000Y-47508000D01*
X145796000Y-69088000D02*
X161544000Y-69088000D01*
X73904276Y-40903724D02*
X73660000Y-41148000D01*
X107867429Y-88728571D02*
X109728000Y-86868000D01*
X69219810Y-47508000D02*
X70104000Y-46623810D01*
X209175079Y-75286385D02*
X209175079Y-72015079D01*
X146254000Y-47518000D02*
X146254000Y-46278000D01*
X57219810Y-45308000D02*
X48768000Y-45308000D01*
X179324000Y-69088000D02*
X179740492Y-68671508D01*
X184170847Y-58653153D02*
X184404000Y-58420000D01*
X49784000Y-41148000D02*
X49784000Y-45320000D01*
X86868000Y-94996000D02*
X87376000Y-95504000D01*
X146254000Y-46278000D02*
X147320000Y-45212000D01*
X115409375Y-42164000D02*
X115131810Y-41886435D01*
X71120000Y-86868000D02*
X86868000Y-86868000D01*
X208280000Y-86360000D02*
X213868000Y-80772000D01*
X191008000Y-82119272D02*
X191008000Y-78740000D01*
X134254000Y-42306000D02*
X134112000Y-42164000D01*
X83627835Y-82103835D02*
X83312000Y-81788000D01*
X81425146Y-97898854D02*
X82804000Y-96520000D01*
X216483567Y-92930635D02*
X215900000Y-92347068D01*
X96371185Y-82103835D02*
X83627835Y-82103835D01*
X76708000Y-41148000D02*
X49784000Y-41148000D01*
X95259724Y-40903724D02*
X73904276Y-40903724D01*
X213868000Y-67772132D02*
X184470715Y-67772132D01*
X183896000Y-100584000D02*
X174244000Y-100584000D01*
X134254000Y-45318000D02*
X134254000Y-42306000D01*
X106615836Y-88728571D02*
X107867429Y-88728571D01*
X127131810Y-47508000D02*
X127131810Y-46096190D01*
X139441826Y-121670174D02*
X139441826Y-95504000D01*
X153416000Y-42164000D02*
X131064000Y-42164000D01*
X204555109Y-95490301D02*
X204555109Y-87544891D01*
X88977185Y-99724572D02*
X88977185Y-95581185D01*
D18*
X156972000Y-113284000D02*
X152400000Y-117856000D01*
D16*
X99898692Y-106349308D02*
X101600000Y-104648000D01*
X181356000Y-72644000D02*
X197612000Y-72644000D01*
X88900000Y-95504000D02*
X107188000Y-95504000D01*
X83312000Y-81788000D02*
X83312000Y-86868000D01*
X204555109Y-87544891D02*
X205740000Y-86360000D01*
X180848000Y-107633201D02*
X180848000Y-103632000D01*
X71180495Y-86928495D02*
X71120000Y-86868000D01*
X87376000Y-95504000D02*
X90424000Y-95504000D01*
X115131810Y-41428265D02*
X115130556Y-41427011D01*
X88744810Y-47528000D02*
X88744810Y-45875190D01*
D17*
X153384000Y-42196000D02*
X153416000Y-42164000D01*
D16*
X179576629Y-85176025D02*
X179576629Y-69340629D01*
X198813578Y-100260608D02*
X198813578Y-96705578D01*
X209175079Y-72015079D02*
X208788000Y-71628000D01*
X183896000Y-102616000D02*
X183896000Y-100584000D01*
X71180495Y-92352944D02*
X71180495Y-86928495D01*
X184100274Y-102820274D02*
X183896000Y-102616000D01*
X86868000Y-86868000D02*
X86868000Y-94996000D01*
X106680000Y-95504000D02*
X139441826Y-95504000D01*
X164629691Y-110273691D02*
X164592000Y-110236000D01*
X95874810Y-45318000D02*
X95874810Y-41518810D01*
%TD*%
M02*
