M48
; DRILL file {KiCad 7.0.5} date Sun Aug  6 16:06:23 2023
; FORMAT={-:-/ absolute / inch / decimal}
; #@! TF.CreationDate,2023-08-06T16:06:23-05:00
; #@! TF.GenerationSoftware,Kicad,Pcbnew,7.0.5
; #@! TF.FileFunction,NonPlated,1,2,NPTH
FMAT,2
INCH
; #@! TA.AperFunction,NonPlated,NPTH,ComponentDrill
T1C0.0591
; #@! TA.AperFunction,NonPlated,NPTH,ComponentDrill
T2C0.0630
; #@! TA.AperFunction,NonPlated,NPTH,ComponentDrill
T3C0.0709
; #@! TA.AperFunction,NonPlated,NPTH,ComponentDrill
T4C0.0748
; #@! TA.AperFunction,NonPlated,NPTH,ComponentDrill
T5C0.1201
; #@! TA.AperFunction,NonPlated,NPTH,ComponentDrill
T6C0.1378
; #@! TA.AperFunction,NonPlated,NPTH,ComponentDrill
T7C0.1988
%
G90
G05
T1
X4.9345Y-1.6244
X5.1255Y-1.6244
T2
X2.2048Y-2.3024
X2.5798Y-4.0189
X2.9735Y-2.3031
X3.2805Y-4.3091
X3.5716Y-3.6154
X3.7266Y-2.3028
X3.9812Y-4.5993
X5.415Y-4.5049
X5.7028Y-5.1996
X6.0418Y-4.05
X6.0703Y-2.2224
X6.3296Y-4.7447
X6.7523Y-3.7566
X6.8231Y-2.2228
X7.0401Y-4.4512
X7.448Y-3.468
X7.5763Y-2.2224
X7.7357Y-4.1627
T3
X4.9227Y-1.5051
X5.1373Y-1.5051
T4
X2.1851Y-2.0996
X2.6181Y-2.0996
X2.6392Y-3.824
X2.9538Y-2.1004
X3.0393Y-3.9898
X3.3399Y-4.1143
X3.3869Y-2.1004
X3.631Y-3.4205
X3.7069Y-2.1
X3.74Y-4.28
X4.0311Y-3.5863
X4.0406Y-4.4044
X4.14Y-2.1
X4.4407Y-4.5702
X5.3193Y-4.3251
X5.607Y-5.0198
X5.7194Y-4.1594
X5.9461Y-3.8702
X6.0071Y-4.854
X6.0506Y-2.0196
X6.2338Y-4.5649
X6.3462Y-3.7045
X6.4837Y-2.0196
X6.6339Y-4.3992
X6.6565Y-3.5768
X6.8035Y-2.02
X6.9443Y-4.2714
X7.0566Y-3.4111
X7.2365Y-2.02
X7.3444Y-4.1057
X7.3522Y-3.2882
X7.5566Y-2.0196
X7.6399Y-3.9829
X7.7523Y-3.1225
X7.9897Y-2.0196
X8.0401Y-3.8171
T5
X2.4016Y-1.8673
X2.5985Y-1.95
X2.9282Y-3.6923
X3.0784Y-3.844
X3.1703Y-1.8681
X3.3672Y-1.9508
X3.6288Y-3.9825
X3.7791Y-4.1342
X3.9199Y-3.2888
X3.9235Y-1.8677
X4.0702Y-3.4405
X4.1203Y-1.9504
X4.3295Y-4.2727
X4.4797Y-4.4244
X5.4304Y-4.0276
X5.6439Y-4.0287
X5.7182Y-4.7223
X5.9317Y-4.7234
X6.0572Y-3.5728
X6.2672Y-1.7873
X6.2707Y-3.5738
X6.345Y-4.2674
X6.464Y-1.87
X6.5585Y-4.2685
X6.7677Y-3.2793
X6.9812Y-3.2804
X7.02Y-1.7877
X7.0554Y-3.974
X7.2169Y-1.8704
X7.2689Y-3.975
X7.4634Y-2.9907
X7.6769Y-2.9918
X7.7511Y-3.6854
X7.7731Y-1.7873
X7.9646Y-3.6865
X7.97Y-1.87
T6
X1.94Y-1.62
X2.02Y-5.34
X8.5Y-5.36
X8.54Y-1.62
T7
X2.4016Y-2.0996
X2.8393Y-3.9069
X3.1703Y-2.1004
X3.5399Y-4.1971
X3.831Y-3.5034
X3.9235Y-2.1
X4.2406Y-4.4873
X5.5193Y-4.2422
X5.8071Y-4.9369
X6.1461Y-3.7874
X6.2672Y-2.0196
X6.4338Y-4.482
X6.8566Y-3.4939
X7.02Y-2.02
X7.1443Y-4.1886
X7.5523Y-3.2053
X7.7731Y-2.0196
X7.84Y-3.9
T0
M30
