%TF.GenerationSoftware,KiCad,Pcbnew,7.0.5*%
%TF.CreationDate,2023-08-06T16:06:22-05:00*%
%TF.ProjectId,NanoSwap,4e616e6f-5377-4617-902e-6b696361645f,rev?*%
%TF.SameCoordinates,Original*%
%TF.FileFunction,Legend,Top*%
%TF.FilePolarity,Positive*%
%FSLAX46Y46*%
G04 Gerber Fmt 4.6, Leading zero omitted, Abs format (unit mm)*
G04 Created by KiCad (PCBNEW 7.0.5) date 2023-08-06 16:06:22*
%MOMM*%
%LPD*%
G01*
G04 APERTURE LIST*
%ADD10C,1.000000*%
%ADD11C,0.300000*%
%ADD12C,0.120000*%
G04 APERTURE END LIST*
D10*
G36*
X87329819Y-136896157D02*
G01*
X86993986Y-136896157D01*
X84033762Y-132242110D01*
X84048417Y-132234782D01*
X84066735Y-136427211D01*
X84685891Y-136427211D01*
X84685891Y-136818000D01*
X82993288Y-136818000D01*
X82993288Y-136427211D01*
X83679610Y-136427211D01*
X83679610Y-132128537D01*
X82993288Y-132128537D01*
X82993288Y-131737748D01*
X84588193Y-131737748D01*
X86975667Y-135473443D01*
X86961013Y-135480770D01*
X86942695Y-132128537D01*
X86256372Y-132128537D01*
X86256372Y-131737748D01*
X88017363Y-131737748D01*
X88017363Y-132128537D01*
X87329819Y-132128537D01*
X87329819Y-136896157D01*
G37*
G36*
X89777171Y-133770650D02*
G01*
X89837736Y-133773054D01*
X89896545Y-133777062D01*
X89953598Y-133782672D01*
X90008896Y-133789884D01*
X90062439Y-133798700D01*
X90114226Y-133809118D01*
X90164258Y-133821140D01*
X90212801Y-133834726D01*
X90259512Y-133850449D01*
X90315326Y-133873108D01*
X90368277Y-133899107D01*
X90418366Y-133928444D01*
X90465592Y-133961121D01*
X90501313Y-133989667D01*
X90543471Y-134028564D01*
X90582171Y-134071217D01*
X90617412Y-134117626D01*
X90649194Y-134167793D01*
X90677518Y-134221716D01*
X90697687Y-134267559D01*
X90711362Y-134303519D01*
X90727676Y-134353761D01*
X90741816Y-134406788D01*
X90753780Y-134462602D01*
X90763569Y-134521201D01*
X90771182Y-134582586D01*
X90776620Y-134646757D01*
X90779271Y-134696713D01*
X90780699Y-134748237D01*
X90780971Y-134783457D01*
X90780732Y-134835668D01*
X90780198Y-134889974D01*
X90779480Y-134946633D01*
X90778679Y-135001988D01*
X90778528Y-135011824D01*
X90778087Y-135061859D01*
X90777527Y-135113504D01*
X90776847Y-135166759D01*
X90776048Y-135221624D01*
X90775130Y-135278100D01*
X90774092Y-135336185D01*
X90773644Y-135359870D01*
X90772880Y-135419553D01*
X90772117Y-135479534D01*
X90771354Y-135539814D01*
X90770591Y-135600392D01*
X90769827Y-135661268D01*
X90769217Y-135710183D01*
X90768759Y-135746995D01*
X90768407Y-135806922D01*
X90768115Y-135864584D01*
X90767882Y-135919980D01*
X90767709Y-135973110D01*
X90767596Y-136023974D01*
X90767539Y-136082020D01*
X90767538Y-136091377D01*
X90767752Y-136146317D01*
X90768396Y-136197565D01*
X90769690Y-136252688D01*
X90771568Y-136302785D01*
X90773644Y-136341726D01*
X90778924Y-136393010D01*
X90787511Y-136441381D01*
X90802953Y-136490714D01*
X90831346Y-136533762D01*
X90870120Y-136562766D01*
X90918539Y-136576958D01*
X90969045Y-136582533D01*
X91006896Y-136583526D01*
X91061432Y-136581401D01*
X91114668Y-136576810D01*
X91167833Y-136570828D01*
X91217451Y-136564400D01*
X91271899Y-136556660D01*
X91271899Y-136810672D01*
X91217463Y-136821024D01*
X91165591Y-136829945D01*
X91116284Y-136837434D01*
X91060499Y-136844532D01*
X91008407Y-136849570D01*
X90967817Y-136852193D01*
X90915774Y-136855049D01*
X90862308Y-136857453D01*
X90809822Y-136859063D01*
X90769980Y-136859521D01*
X90713463Y-136858895D01*
X90659928Y-136857016D01*
X90609374Y-136853886D01*
X90552644Y-136848476D01*
X90500208Y-136841263D01*
X90459792Y-136833875D01*
X90407574Y-136821428D01*
X90359914Y-136806527D01*
X90311028Y-136786491D01*
X90263146Y-136760119D01*
X90258291Y-136756939D01*
X90218986Y-136726252D01*
X90183017Y-136687851D01*
X90155158Y-136644917D01*
X90148382Y-136631154D01*
X90131662Y-136584833D01*
X90124014Y-136534432D01*
X90124444Y-136528484D01*
X90111674Y-136546122D01*
X90076655Y-136589613D01*
X90039660Y-136630958D01*
X90000691Y-136670156D01*
X89959747Y-136707208D01*
X89945660Y-136719081D01*
X89902684Y-136753013D01*
X89858935Y-136784283D01*
X89814413Y-136812890D01*
X89769119Y-136838836D01*
X89723051Y-136862121D01*
X89707524Y-136869290D01*
X89660640Y-136889240D01*
X89613414Y-136906957D01*
X89565844Y-136922442D01*
X89517930Y-136935694D01*
X89469673Y-136946714D01*
X89453511Y-136949891D01*
X89404925Y-136958191D01*
X89356253Y-136964774D01*
X89307495Y-136969640D01*
X89258651Y-136972788D01*
X89209721Y-136974220D01*
X89193392Y-136974315D01*
X89140041Y-136973380D01*
X89088063Y-136970575D01*
X89037459Y-136965900D01*
X88988228Y-136959355D01*
X88928623Y-136948544D01*
X88871164Y-136934812D01*
X88815851Y-136918157D01*
X88805046Y-136914475D01*
X88752519Y-136894553D01*
X88702555Y-136872186D01*
X88655155Y-136847374D01*
X88610320Y-136820118D01*
X88568048Y-136790416D01*
X88528341Y-136758270D01*
X88513176Y-136744727D01*
X88477529Y-136708985D01*
X88444626Y-136671215D01*
X88414465Y-136631418D01*
X88387048Y-136589594D01*
X88362373Y-136545743D01*
X88340441Y-136499864D01*
X88332436Y-136480944D01*
X88314846Y-136432525D01*
X88300236Y-136382675D01*
X88288609Y-136331393D01*
X88279962Y-136278681D01*
X88274297Y-136224537D01*
X88271614Y-136168962D01*
X88271376Y-136146332D01*
X88272704Y-136102368D01*
X88991892Y-136102368D01*
X88993476Y-136162017D01*
X88998227Y-136217620D01*
X89006146Y-136269178D01*
X89020499Y-136327937D01*
X89039801Y-136380375D01*
X89064052Y-136426493D01*
X89093253Y-136466290D01*
X89133925Y-136506132D01*
X89179921Y-136537731D01*
X89231240Y-136561087D01*
X89287884Y-136576199D01*
X89339153Y-136582496D01*
X89371690Y-136583526D01*
X89423362Y-136580931D01*
X89478241Y-136573146D01*
X89528889Y-136562076D01*
X89581991Y-136547033D01*
X89597614Y-136542005D01*
X89644226Y-136524588D01*
X89689721Y-136503480D01*
X89734099Y-136478678D01*
X89777362Y-136450185D01*
X89819508Y-136417999D01*
X89833309Y-136406450D01*
X89873652Y-136369127D01*
X89911333Y-136327682D01*
X89946352Y-136282115D01*
X89973501Y-136240995D01*
X89998802Y-136197012D01*
X90017712Y-136159765D01*
X90039173Y-136109831D01*
X90056996Y-136056200D01*
X90071182Y-135998872D01*
X90079912Y-135950348D01*
X90086313Y-135899458D01*
X90090387Y-135846202D01*
X90092133Y-135790579D01*
X90092206Y-135776304D01*
X90092206Y-135490540D01*
X90031076Y-135492464D01*
X89971792Y-135495033D01*
X89914355Y-135498246D01*
X89858763Y-135502103D01*
X89805018Y-135506604D01*
X89753119Y-135511749D01*
X89703066Y-135517538D01*
X89639200Y-135526258D01*
X89578616Y-135536123D01*
X89535332Y-135544273D01*
X89480817Y-135555779D01*
X89429621Y-135568316D01*
X89381746Y-135581883D01*
X89326570Y-135600290D01*
X89276583Y-135620308D01*
X89231783Y-135641936D01*
X89192171Y-135665173D01*
X89150454Y-135694726D01*
X89108622Y-135732134D01*
X89074152Y-135772697D01*
X89047046Y-135816417D01*
X89032192Y-135849577D01*
X89016489Y-135898822D01*
X89004643Y-135951457D01*
X88996654Y-136007482D01*
X88992876Y-136058200D01*
X88991892Y-136102368D01*
X88272704Y-136102368D01*
X88273265Y-136083792D01*
X88278932Y-136023180D01*
X88288377Y-135964495D01*
X88301601Y-135907737D01*
X88318602Y-135852906D01*
X88339382Y-135800003D01*
X88363940Y-135749027D01*
X88392276Y-135699978D01*
X88424390Y-135652856D01*
X88460282Y-135607662D01*
X88499953Y-135564394D01*
X88543401Y-135523054D01*
X88590628Y-135483642D01*
X88641633Y-135446156D01*
X88696415Y-135410598D01*
X88754976Y-135376967D01*
X88816877Y-135345258D01*
X88881677Y-135315467D01*
X88949379Y-135287594D01*
X89019980Y-135261638D01*
X89093482Y-135237600D01*
X89169884Y-135215480D01*
X89249187Y-135195278D01*
X89331390Y-135176993D01*
X89416493Y-135160626D01*
X89504497Y-135146176D01*
X89595401Y-135133645D01*
X89689205Y-135123030D01*
X89785910Y-135114334D01*
X89835350Y-135110705D01*
X89885516Y-135107555D01*
X89936406Y-135104885D01*
X89988021Y-135102694D01*
X90040362Y-135100983D01*
X90093427Y-135099751D01*
X90094038Y-135045560D01*
X90094648Y-134990452D01*
X90095183Y-134941482D01*
X90095717Y-134891811D01*
X90095870Y-134877490D01*
X90096821Y-134826909D01*
X90097539Y-134776678D01*
X90098024Y-134726798D01*
X90098274Y-134677268D01*
X90098312Y-134649123D01*
X90097282Y-134598866D01*
X90092702Y-134536498D01*
X90084459Y-134479435D01*
X90072552Y-134427677D01*
X90056982Y-134381223D01*
X90032367Y-134330615D01*
X90002027Y-134288296D01*
X89981076Y-134266883D01*
X89941243Y-134236275D01*
X89894255Y-134210855D01*
X89840111Y-134190623D01*
X89791644Y-134178172D01*
X89738598Y-134169042D01*
X89680972Y-134163231D01*
X89618766Y-134160741D01*
X89602499Y-134160637D01*
X89547002Y-134161562D01*
X89493472Y-134164334D01*
X89441911Y-134168956D01*
X89392317Y-134175425D01*
X89335401Y-134185629D01*
X89281320Y-134198495D01*
X89232333Y-134212105D01*
X89183321Y-134227657D01*
X89133186Y-134247138D01*
X89094474Y-134268104D01*
X89128726Y-134305899D01*
X89158112Y-134349023D01*
X89183131Y-134394972D01*
X89188508Y-134406101D01*
X89209760Y-134456344D01*
X89224056Y-134506780D01*
X89231398Y-134557409D01*
X89232471Y-134585620D01*
X89228779Y-134640689D01*
X89217702Y-134692323D01*
X89199241Y-134740523D01*
X89173395Y-134785288D01*
X89140165Y-134826619D01*
X89127447Y-134839632D01*
X89085945Y-134874494D01*
X89039290Y-134902143D01*
X88987484Y-134922580D01*
X88930526Y-134935803D01*
X88879125Y-134941313D01*
X88846568Y-134942214D01*
X88795641Y-134939473D01*
X88745293Y-134931247D01*
X88700022Y-134919011D01*
X88652507Y-134899885D01*
X88609032Y-134874408D01*
X88573016Y-134845739D01*
X88537832Y-134808429D01*
X88507843Y-134765348D01*
X88485088Y-134721175D01*
X88468344Y-134671706D01*
X88458577Y-134623513D01*
X88453833Y-134571843D01*
X88453337Y-134547762D01*
X88456213Y-134490947D01*
X88464843Y-134434991D01*
X88479225Y-134379893D01*
X88499361Y-134325654D01*
X88520536Y-134281111D01*
X88535158Y-134254671D01*
X88562957Y-134211237D01*
X88594454Y-134169472D01*
X88629647Y-134129377D01*
X88668537Y-134090952D01*
X88711125Y-134054196D01*
X88757409Y-134019110D01*
X88776958Y-134005543D01*
X88828419Y-133973033D01*
X88872249Y-133948571D01*
X88918445Y-133925482D01*
X88967007Y-133903767D01*
X89017936Y-133883426D01*
X89071230Y-133864459D01*
X89126891Y-133846866D01*
X89170189Y-133834573D01*
X89229991Y-133819403D01*
X89292158Y-133806256D01*
X89340336Y-133797723D01*
X89389846Y-133790328D01*
X89440686Y-133784070D01*
X89492857Y-133778951D01*
X89546359Y-133774969D01*
X89601192Y-133772124D01*
X89657356Y-133770418D01*
X89714851Y-133769849D01*
X89777171Y-133770650D01*
G37*
G36*
X92733692Y-136427211D02*
G01*
X93197754Y-136427211D01*
X93197754Y-136818000D01*
X91522248Y-136818000D01*
X91522248Y-136427211D01*
X92037600Y-136427211D01*
X92037600Y-134238795D01*
X91522248Y-134238795D01*
X91522248Y-133848006D01*
X92733692Y-133848006D01*
X92708047Y-134376792D01*
X92694614Y-134368244D01*
X92718824Y-134315801D01*
X92745203Y-134265633D01*
X92773750Y-134217741D01*
X92804466Y-134172124D01*
X92837349Y-134128783D01*
X92872400Y-134087717D01*
X92909620Y-134048927D01*
X92949008Y-134012412D01*
X92990564Y-133978173D01*
X93034288Y-133946209D01*
X93064642Y-133926164D01*
X93112326Y-133898229D01*
X93162415Y-133873041D01*
X93214908Y-133850602D01*
X93269806Y-133830909D01*
X93327107Y-133813965D01*
X93386813Y-133799769D01*
X93448923Y-133788320D01*
X93513438Y-133779618D01*
X93580356Y-133773665D01*
X93649679Y-133770459D01*
X93697230Y-133769849D01*
X93757032Y-133770812D01*
X93814925Y-133773703D01*
X93870910Y-133778521D01*
X93924987Y-133785267D01*
X93977156Y-133793939D01*
X94027416Y-133804539D01*
X94075769Y-133817066D01*
X94144720Y-133839470D01*
X94209377Y-133866210D01*
X94269741Y-133897287D01*
X94325812Y-133932700D01*
X94377590Y-133972449D01*
X94425074Y-134016534D01*
X94468287Y-134064372D01*
X94507249Y-134115839D01*
X94541960Y-134170933D01*
X94572421Y-134229655D01*
X94598632Y-134292005D01*
X94620592Y-134357983D01*
X94638302Y-134427588D01*
X94647748Y-134476008D01*
X94655304Y-134526039D01*
X94660971Y-134577683D01*
X94664749Y-134630940D01*
X94666638Y-134685808D01*
X94666875Y-134713847D01*
X94666875Y-136427211D01*
X95165130Y-136427211D01*
X95165130Y-136818000D01*
X93506721Y-136818000D01*
X93506721Y-136427211D01*
X93970782Y-136427211D01*
X93970782Y-134630805D01*
X93968970Y-134571519D01*
X93963532Y-134516392D01*
X93954468Y-134465426D01*
X93938040Y-134407567D01*
X93915947Y-134356208D01*
X93888190Y-134311349D01*
X93854767Y-134272989D01*
X93816449Y-134240622D01*
X93773242Y-134213741D01*
X93725144Y-134192346D01*
X93672157Y-134176437D01*
X93614281Y-134166014D01*
X93564459Y-134161625D01*
X93525039Y-134160637D01*
X93473704Y-134162277D01*
X93423502Y-134167197D01*
X93374433Y-134175396D01*
X93326497Y-134186874D01*
X93279693Y-134201633D01*
X93234023Y-134219671D01*
X93216072Y-134227804D01*
X93172638Y-134250612D01*
X93130873Y-134277058D01*
X93090778Y-134307141D01*
X93052353Y-134340862D01*
X93015597Y-134378220D01*
X92980511Y-134419215D01*
X92966944Y-134436632D01*
X92934786Y-134482958D01*
X92904715Y-134533399D01*
X92876731Y-134587954D01*
X92855846Y-134634560D01*
X92836297Y-134683800D01*
X92818084Y-134735673D01*
X92801206Y-134790179D01*
X92797196Y-134804217D01*
X92782312Y-134861767D01*
X92769413Y-134922064D01*
X92758498Y-134985110D01*
X92751615Y-135034197D01*
X92745847Y-135084829D01*
X92741196Y-135137008D01*
X92737661Y-135190732D01*
X92735243Y-135246001D01*
X92733941Y-135302816D01*
X92733692Y-135341551D01*
X92733692Y-136427211D01*
G37*
G36*
X97141841Y-133770954D02*
G01*
X97208312Y-133774271D01*
X97273302Y-133779799D01*
X97336811Y-133787537D01*
X97398839Y-133797487D01*
X97459386Y-133809648D01*
X97518452Y-133824020D01*
X97576036Y-133840603D01*
X97632139Y-133859397D01*
X97686761Y-133880402D01*
X97722353Y-133895634D01*
X97774441Y-133920024D01*
X97824920Y-133946023D01*
X97873789Y-133973633D01*
X97921048Y-134002853D01*
X97966697Y-134033682D01*
X98010736Y-134066122D01*
X98053165Y-134100172D01*
X98093983Y-134135831D01*
X98133192Y-134173101D01*
X98170791Y-134211981D01*
X98194963Y-134238795D01*
X98229857Y-134279936D01*
X98263098Y-134322300D01*
X98294686Y-134365888D01*
X98324621Y-134410700D01*
X98352903Y-134456735D01*
X98379533Y-134503994D01*
X98404509Y-134552477D01*
X98427833Y-134602183D01*
X98449503Y-134653112D01*
X98469521Y-134705265D01*
X98481948Y-134740714D01*
X98499407Y-134794595D01*
X98515150Y-134849078D01*
X98529175Y-134904161D01*
X98541482Y-134959846D01*
X98552072Y-135016131D01*
X98560945Y-135073018D01*
X98568101Y-135130506D01*
X98573539Y-135188594D01*
X98577260Y-135247284D01*
X98579263Y-135306575D01*
X98579645Y-135346436D01*
X98578733Y-135407971D01*
X98575996Y-135468925D01*
X98571434Y-135529300D01*
X98565048Y-135589095D01*
X98556837Y-135648311D01*
X98546801Y-135706947D01*
X98534941Y-135765004D01*
X98521256Y-135822481D01*
X98505746Y-135879378D01*
X98488412Y-135935696D01*
X98475842Y-135972919D01*
X98455520Y-136027917D01*
X98433481Y-136081626D01*
X98409724Y-136134048D01*
X98384251Y-136185182D01*
X98357060Y-136235027D01*
X98328151Y-136283585D01*
X98297525Y-136330854D01*
X98265182Y-136376836D01*
X98231122Y-136421529D01*
X98195344Y-136464935D01*
X98170538Y-136493157D01*
X98131973Y-136534015D01*
X98091841Y-136573241D01*
X98050142Y-136610837D01*
X98006876Y-136646801D01*
X97962043Y-136681133D01*
X97915643Y-136713834D01*
X97867676Y-136744903D01*
X97818142Y-136774341D01*
X97767040Y-136802148D01*
X97714372Y-136828323D01*
X97678389Y-136844866D01*
X97623205Y-136868000D01*
X97566648Y-136888859D01*
X97508716Y-136907442D01*
X97449411Y-136923749D01*
X97388732Y-136937781D01*
X97326679Y-136949538D01*
X97263252Y-136959019D01*
X97198452Y-136966224D01*
X97132277Y-136971155D01*
X97064729Y-136973809D01*
X97018933Y-136974315D01*
X96951199Y-136973209D01*
X96884924Y-136969893D01*
X96820109Y-136964365D01*
X96756754Y-136956626D01*
X96694858Y-136946677D01*
X96634422Y-136934516D01*
X96575446Y-136920144D01*
X96517930Y-136903561D01*
X96461873Y-136884767D01*
X96407277Y-136863762D01*
X96371690Y-136848530D01*
X96319590Y-136824151D01*
X96269079Y-136798183D01*
X96220157Y-136770627D01*
X96172823Y-136741483D01*
X96127077Y-136710750D01*
X96082920Y-136678428D01*
X96040352Y-136644518D01*
X95999372Y-136609019D01*
X95959981Y-136571932D01*
X95922178Y-136533256D01*
X95897859Y-136506590D01*
X95862954Y-136465231D01*
X95829680Y-136422670D01*
X95798039Y-136378906D01*
X95768028Y-136333941D01*
X95739649Y-136287773D01*
X95712902Y-136240403D01*
X95687786Y-136191831D01*
X95664301Y-136142057D01*
X95642448Y-136091081D01*
X95622227Y-136038903D01*
X95609652Y-136003450D01*
X95592411Y-135949568D01*
X95576865Y-135895086D01*
X95563016Y-135840002D01*
X95550862Y-135784318D01*
X95540404Y-135728032D01*
X95531642Y-135671146D01*
X95524576Y-135613658D01*
X95519206Y-135555569D01*
X95515531Y-135496879D01*
X95513553Y-135437589D01*
X95513176Y-135397727D01*
X95513393Y-135383073D01*
X96271550Y-135383073D01*
X96271990Y-135449068D01*
X96273310Y-135512874D01*
X96275511Y-135574491D01*
X96278591Y-135633918D01*
X96282552Y-135691155D01*
X96287392Y-135746203D01*
X96293113Y-135799061D01*
X96299714Y-135849729D01*
X96307195Y-135898208D01*
X96318539Y-135959441D01*
X96321620Y-135974140D01*
X96334824Y-136030622D01*
X96349403Y-136084050D01*
X96365355Y-136134425D01*
X96382681Y-136181747D01*
X96406270Y-136236606D01*
X96432006Y-136286695D01*
X96459889Y-136332013D01*
X96465723Y-136340505D01*
X96496271Y-136380546D01*
X96529145Y-136416711D01*
X96571663Y-136454994D01*
X96617531Y-136487694D01*
X96666746Y-136514814D01*
X96701418Y-136529793D01*
X96756844Y-136548054D01*
X96805854Y-136560385D01*
X96857428Y-136570093D01*
X96911565Y-136577177D01*
X96968267Y-136581637D01*
X97027533Y-136583474D01*
X97039694Y-136583526D01*
X97098477Y-136582155D01*
X97154994Y-136578040D01*
X97209245Y-136571183D01*
X97261230Y-136561583D01*
X97310949Y-136549239D01*
X97358402Y-136534153D01*
X97376749Y-136527351D01*
X97429943Y-136503494D01*
X97479617Y-136474056D01*
X97525771Y-136439037D01*
X97561542Y-136405590D01*
X97594869Y-136368268D01*
X97619771Y-136335620D01*
X97649168Y-136290433D01*
X97676299Y-136240356D01*
X97701165Y-136185389D01*
X97719426Y-136137895D01*
X97736237Y-136087272D01*
X97751597Y-136033520D01*
X97765508Y-135976638D01*
X97768759Y-135961928D01*
X97781066Y-135900715D01*
X97789220Y-135852200D01*
X97796451Y-135801453D01*
X97802758Y-135748473D01*
X97808143Y-135693261D01*
X97812604Y-135635816D01*
X97816143Y-135576139D01*
X97818758Y-135514229D01*
X97820450Y-135450087D01*
X97821220Y-135383712D01*
X97821271Y-135361091D01*
X97820831Y-135295106D01*
X97819511Y-135231332D01*
X97817310Y-135169769D01*
X97814230Y-135110418D01*
X97810269Y-135053277D01*
X97805429Y-134998347D01*
X97799708Y-134945629D01*
X97793107Y-134895121D01*
X97785626Y-134846825D01*
X97774282Y-134785869D01*
X97771201Y-134771244D01*
X97757997Y-134714477D01*
X97743419Y-134660801D01*
X97727466Y-134610216D01*
X97710140Y-134562722D01*
X97686551Y-134507702D01*
X97660815Y-134457512D01*
X97632932Y-134412151D01*
X97627098Y-134403659D01*
X97596490Y-134363647D01*
X97563437Y-134327572D01*
X97520547Y-134289475D01*
X97474136Y-134257046D01*
X97424205Y-134230285D01*
X97388961Y-134215592D01*
X97333248Y-134196916D01*
X97284262Y-134184304D01*
X97232951Y-134174376D01*
X97179314Y-134167131D01*
X97123352Y-134162569D01*
X97065064Y-134160691D01*
X97053127Y-134160637D01*
X96993319Y-134162009D01*
X96936015Y-134166123D01*
X96881215Y-134172981D01*
X96828920Y-134182581D01*
X96779129Y-134194924D01*
X96731843Y-134210011D01*
X96713630Y-134216813D01*
X96661637Y-134240713D01*
X96612822Y-134270279D01*
X96567184Y-134305513D01*
X96531579Y-134339204D01*
X96498181Y-134376830D01*
X96473050Y-134409765D01*
X96443623Y-134454601D01*
X96416402Y-134504385D01*
X96391388Y-134559119D01*
X96372965Y-134606470D01*
X96355953Y-134656988D01*
X96340354Y-134710674D01*
X96326167Y-134767527D01*
X96322841Y-134782235D01*
X96310820Y-134843449D01*
X96302856Y-134891963D01*
X96295793Y-134942711D01*
X96289632Y-134995690D01*
X96284373Y-135050903D01*
X96280015Y-135108347D01*
X96276559Y-135168025D01*
X96274004Y-135229934D01*
X96272352Y-135294077D01*
X96271600Y-135360452D01*
X96271550Y-135383073D01*
X95513393Y-135383073D01*
X95514088Y-135336193D01*
X95516825Y-135275239D01*
X95521387Y-135214864D01*
X95527773Y-135155068D01*
X95535984Y-135095852D01*
X95546020Y-135037216D01*
X95557880Y-134979160D01*
X95571565Y-134921683D01*
X95587075Y-134864785D01*
X95604409Y-134808468D01*
X95616979Y-134771244D01*
X95637301Y-134716258D01*
X95659340Y-134662580D01*
X95683097Y-134610212D01*
X95708570Y-134559154D01*
X95735761Y-134509405D01*
X95764670Y-134460965D01*
X95795296Y-134413835D01*
X95827639Y-134368015D01*
X95861699Y-134323504D01*
X95897477Y-134280302D01*
X95922283Y-134252228D01*
X95960848Y-134211152D01*
X96000980Y-134171728D01*
X96042679Y-134133958D01*
X96085945Y-134097840D01*
X96130778Y-134063375D01*
X96177178Y-134030564D01*
X96225145Y-133999405D01*
X96274679Y-133969899D01*
X96325781Y-133942046D01*
X96378449Y-133915846D01*
X96414432Y-133899297D01*
X96469616Y-133876164D01*
X96526173Y-133855305D01*
X96584105Y-133836722D01*
X96643410Y-133820415D01*
X96704089Y-133806383D01*
X96766142Y-133794626D01*
X96829569Y-133785145D01*
X96894369Y-133777939D01*
X96960544Y-133773009D01*
X97028092Y-133770354D01*
X97073888Y-133769849D01*
X97141841Y-133770954D01*
G37*
D11*
%TO.C,*%
D12*
X151585810Y-43698000D02*
X151585810Y-58898000D01*
X151585810Y-58898000D02*
X166785810Y-58898000D01*
X166785810Y-43698000D02*
X151585810Y-43698000D01*
X166785810Y-58898000D02*
X166785810Y-43698000D01*
X117262000Y-36730000D02*
X117262000Y-37030000D01*
X117262000Y-36730000D02*
X138262000Y-36730000D01*
X117262000Y-39130000D02*
X117262000Y-39530000D01*
X117262000Y-39397000D02*
X120269000Y-39397000D01*
X117262000Y-41730000D02*
X117262000Y-42130000D01*
X117262000Y-44230000D02*
X117262000Y-44630000D01*
X117262000Y-46830000D02*
X117262000Y-47230000D01*
X117262000Y-49330000D02*
X117262000Y-49730000D01*
X117262000Y-51830000D02*
X117262000Y-52230000D01*
X117262000Y-54430000D02*
X117262000Y-54830000D01*
X117262000Y-56930000D02*
X117262000Y-57330000D01*
X117262000Y-59530000D02*
X117262000Y-59930000D01*
X117262000Y-62030000D02*
X117262000Y-62430000D01*
X117262000Y-64530000D02*
X117262000Y-64930000D01*
X117262000Y-67130000D02*
X117262000Y-67530000D01*
X117262000Y-69630000D02*
X117262000Y-70030000D01*
X117262000Y-72230000D02*
X117262000Y-72630000D01*
X117262000Y-74730000D02*
X117262000Y-75130000D01*
X117262000Y-77330000D02*
X117262000Y-77730000D01*
X117262000Y-79830000D02*
X117262000Y-80230000D01*
X117262000Y-82330000D02*
X117262000Y-82730000D01*
X117262000Y-84930000D02*
X117262000Y-85330000D01*
X120269000Y-39397000D02*
X120269000Y-36730000D01*
X124062000Y-87730000D02*
X117262000Y-87730000D01*
X126262000Y-87730000D02*
X126662000Y-87730000D01*
X128862000Y-87730000D02*
X129262000Y-87730000D01*
X138262000Y-36730000D02*
X138262000Y-37030000D01*
X138262000Y-39130000D02*
X138262000Y-39530000D01*
X138262000Y-41730000D02*
X138262000Y-42130000D01*
X138262000Y-44230000D02*
X138262000Y-44630000D01*
X138262000Y-46830000D02*
X138262000Y-47230000D01*
X138262000Y-49330000D02*
X138262000Y-49730000D01*
X138262000Y-51830000D02*
X138262000Y-52230000D01*
X138262000Y-54430000D02*
X138262000Y-54830000D01*
X138262000Y-56930000D02*
X138262000Y-57330000D01*
X138262000Y-59530000D02*
X138262000Y-59930000D01*
X138262000Y-62030000D02*
X138262000Y-62430000D01*
X138262000Y-64530000D02*
X138262000Y-64930000D01*
X138262000Y-67130000D02*
X138262000Y-67530000D01*
X138262000Y-69630000D02*
X138262000Y-70030000D01*
X138262000Y-72230000D02*
X138262000Y-72630000D01*
X138262000Y-74730000D02*
X138262000Y-75130000D01*
X138262000Y-77330000D02*
X138262000Y-77730000D01*
X138262000Y-79830000D02*
X138262000Y-80230000D01*
X138262000Y-82330000D02*
X138262000Y-82730000D01*
X138262000Y-84930000D02*
X138262000Y-85330000D01*
X138262000Y-87730000D02*
X131462000Y-87730000D01*
X85801573Y-96677362D02*
X79984784Y-110720331D01*
X79984784Y-110720331D02*
X94027753Y-116537120D01*
X99844542Y-102494151D02*
X85801573Y-96677362D01*
X94027753Y-116537120D02*
X99844542Y-102494151D01*
X137569370Y-121284250D02*
X143386159Y-135327219D01*
X143386159Y-135327219D02*
X157429128Y-129510430D01*
X151612339Y-115467461D02*
X137569370Y-121284250D01*
X157429128Y-129510430D02*
X151612339Y-115467461D01*
X93195573Y-79056625D02*
X87378784Y-93099594D01*
X87378784Y-93099594D02*
X101421753Y-98916383D01*
X107238542Y-84873414D02*
X93195573Y-79056625D01*
X101421753Y-98916383D02*
X107238542Y-84873414D01*
X92056000Y-45740000D02*
X92056000Y-60940000D01*
X92056000Y-60940000D02*
X107256000Y-60940000D01*
X107256000Y-45740000D02*
X92056000Y-45740000D01*
X107256000Y-60940000D02*
X107256000Y-45740000D01*
X171536132Y-102276883D02*
X177352921Y-116319852D01*
X177352921Y-116319852D02*
X191395890Y-110503063D01*
X185579101Y-96460094D02*
X171536132Y-102276883D01*
X191395890Y-110503063D02*
X185579101Y-96460094D01*
X189206121Y-94946910D02*
X195022910Y-108989879D01*
X195022910Y-108989879D02*
X209065879Y-103173090D01*
X203249090Y-89130121D02*
X189206121Y-94946910D01*
X209065879Y-103173090D02*
X203249090Y-89130121D01*
G36*
X192696545Y-125705814D02*
G01*
X192696545Y-125972480D01*
X192163212Y-125972480D01*
X191629878Y-125972480D01*
X191629878Y-125705814D01*
X191629878Y-125439147D01*
X192163212Y-125439147D01*
X192696545Y-125439147D01*
X192696545Y-125705814D01*
G37*
G36*
X194296545Y-123039147D02*
G01*
X194296545Y-123839147D01*
X193496545Y-123839147D01*
X192696545Y-123839147D01*
X192696545Y-123039147D01*
X192696545Y-122239147D01*
X193496545Y-122239147D01*
X194296545Y-122239147D01*
X194296545Y-123039147D01*
G37*
G36*
X194296545Y-134772480D02*
G01*
X194296545Y-135572480D01*
X193496545Y-135572480D01*
X192696545Y-135572480D01*
X192696545Y-134772480D01*
X192696545Y-133972480D01*
X193496545Y-133972480D01*
X194296545Y-133972480D01*
X194296545Y-134772480D01*
G37*
G36*
X195896545Y-127839147D02*
G01*
X195896545Y-128105814D01*
X195363212Y-128105814D01*
X194829878Y-128105814D01*
X194829878Y-127839147D01*
X194829878Y-127572480D01*
X195363212Y-127572480D01*
X195896545Y-127572480D01*
X195896545Y-127839147D01*
G37*
G36*
X201229878Y-126772480D02*
G01*
X201229878Y-127039147D01*
X200963212Y-127039147D01*
X200696545Y-127039147D01*
X200696545Y-126772480D01*
X200696545Y-126505814D01*
X200963212Y-126505814D01*
X201229878Y-126505814D01*
X201229878Y-126772480D01*
G37*
G36*
X201229878Y-133172480D02*
G01*
X201229878Y-133439147D01*
X200963212Y-133439147D01*
X200696545Y-133439147D01*
X200696545Y-133172480D01*
X200696545Y-132905814D01*
X200963212Y-132905814D01*
X201229878Y-132905814D01*
X201229878Y-133172480D01*
G37*
G36*
X202296545Y-135305814D02*
G01*
X202296545Y-135572480D01*
X202029878Y-135572480D01*
X201763212Y-135572480D01*
X201763212Y-135305814D01*
X201763212Y-135039147D01*
X202029878Y-135039147D01*
X202296545Y-135039147D01*
X202296545Y-135305814D01*
G37*
G36*
X202829878Y-121439147D02*
G01*
X202829878Y-121705814D01*
X202296545Y-121705814D01*
X201763212Y-121705814D01*
X201763212Y-121439147D01*
X201763212Y-121172480D01*
X202296545Y-121172480D01*
X202829878Y-121172480D01*
X202829878Y-121439147D01*
G37*
G36*
X203363212Y-129439147D02*
G01*
X203363212Y-129705814D01*
X203096545Y-129705814D01*
X202829878Y-129705814D01*
X202829878Y-129439147D01*
X202829878Y-129172480D01*
X203096545Y-129172480D01*
X203363212Y-129172480D01*
X203363212Y-129439147D01*
G37*
G36*
X203896545Y-133172480D02*
G01*
X203896545Y-133439147D01*
X203629878Y-133439147D01*
X203363212Y-133439147D01*
X203363212Y-133172480D01*
X203363212Y-132905814D01*
X203629878Y-132905814D01*
X203896545Y-132905814D01*
X203896545Y-133172480D01*
G37*
G36*
X206029878Y-123039147D02*
G01*
X206029878Y-123839147D01*
X205229878Y-123839147D01*
X204429878Y-123839147D01*
X204429878Y-123039147D01*
X204429878Y-122239147D01*
X205229878Y-122239147D01*
X206029878Y-122239147D01*
X206029878Y-123039147D01*
G37*
G36*
X207096545Y-126239147D02*
G01*
X207096545Y-126505814D01*
X206829878Y-126505814D01*
X206563212Y-126505814D01*
X206563212Y-126239147D01*
X206563212Y-125972480D01*
X206829878Y-125972480D01*
X207096545Y-125972480D01*
X207096545Y-126239147D01*
G37*
G36*
X207096545Y-132639147D02*
G01*
X207096545Y-132905814D01*
X206829878Y-132905814D01*
X206563212Y-132905814D01*
X206563212Y-132639147D01*
X206563212Y-132372480D01*
X206829878Y-132372480D01*
X207096545Y-132372480D01*
X207096545Y-132639147D01*
G37*
G36*
X199096545Y-127839147D02*
G01*
X199096545Y-128105814D01*
X198829878Y-128105814D01*
X198563212Y-128105814D01*
X198563212Y-128372480D01*
X198563212Y-128639147D01*
X198296545Y-128639147D01*
X198029878Y-128639147D01*
X198029878Y-128372480D01*
X198029878Y-128105814D01*
X198296545Y-128105814D01*
X198563212Y-128105814D01*
X198563212Y-127839147D01*
X198563212Y-127572480D01*
X198829878Y-127572480D01*
X199096545Y-127572480D01*
X199096545Y-127839147D01*
G37*
G36*
X195363212Y-123039147D02*
G01*
X195363212Y-124905814D01*
X193496545Y-124905814D01*
X191629878Y-124905814D01*
X191629878Y-123039147D01*
X191629878Y-121705814D01*
X192163212Y-121705814D01*
X192163212Y-123039147D01*
X192163212Y-124372480D01*
X193496545Y-124372480D01*
X194829878Y-124372480D01*
X194829878Y-123039147D01*
X194829878Y-121705814D01*
X193496545Y-121705814D01*
X192163212Y-121705814D01*
X191629878Y-121705814D01*
X191629878Y-121172480D01*
X193496545Y-121172480D01*
X195363212Y-121172480D01*
X195363212Y-123039147D01*
G37*
G36*
X195363212Y-134772480D02*
G01*
X195363212Y-136639147D01*
X193496545Y-136639147D01*
X191629878Y-136639147D01*
X191629878Y-134772480D01*
X191629878Y-133439147D01*
X192163212Y-133439147D01*
X192163212Y-134772480D01*
X192163212Y-136105814D01*
X193496545Y-136105814D01*
X194829878Y-136105814D01*
X194829878Y-134772480D01*
X194829878Y-133439147D01*
X193496545Y-133439147D01*
X192163212Y-133439147D01*
X191629878Y-133439147D01*
X191629878Y-132905814D01*
X193496545Y-132905814D01*
X195363212Y-132905814D01*
X195363212Y-134772480D01*
G37*
G36*
X207096545Y-123039147D02*
G01*
X207096545Y-124905814D01*
X205229878Y-124905814D01*
X203363212Y-124905814D01*
X203363212Y-123039147D01*
X203363212Y-121705814D01*
X203896545Y-121705814D01*
X203896545Y-123039147D01*
X203896545Y-124372480D01*
X205229878Y-124372480D01*
X206563212Y-124372480D01*
X206563212Y-123039147D01*
X206563212Y-121705814D01*
X205229878Y-121705814D01*
X203896545Y-121705814D01*
X203363212Y-121705814D01*
X203363212Y-121172480D01*
X205229878Y-121172480D01*
X207096545Y-121172480D01*
X207096545Y-123039147D01*
G37*
G36*
X196963212Y-135305814D02*
G01*
X196963212Y-135572480D01*
X197229878Y-135572480D01*
X197496545Y-135572480D01*
X197496545Y-135305814D01*
X197496545Y-135039147D01*
X198029878Y-135039147D01*
X198563212Y-135039147D01*
X198563212Y-135305814D01*
X198563212Y-135572480D01*
X198296545Y-135572480D01*
X198029878Y-135572480D01*
X198029878Y-136105814D01*
X198029878Y-136639147D01*
X197496545Y-136639147D01*
X196963212Y-136639147D01*
X196963212Y-136105814D01*
X196963212Y-135572480D01*
X196696545Y-135572480D01*
X196429878Y-135572480D01*
X196429878Y-136105814D01*
X196429878Y-136639147D01*
X196163212Y-136639147D01*
X195896545Y-136639147D01*
X195896545Y-136105814D01*
X195896545Y-135572480D01*
X196163212Y-135572480D01*
X196429878Y-135572480D01*
X196429878Y-135305814D01*
X196429878Y-135039147D01*
X196696545Y-135039147D01*
X196963212Y-135039147D01*
X196963212Y-135305814D01*
G37*
G36*
X196963212Y-125172480D02*
G01*
X196963212Y-125439147D01*
X197229878Y-125439147D01*
X197496545Y-125439147D01*
X197496545Y-125972480D01*
X197496545Y-126505814D01*
X197229878Y-126505814D01*
X196963212Y-126505814D01*
X196963212Y-126239147D01*
X196963212Y-125972480D01*
X196696545Y-125972480D01*
X196429878Y-125972480D01*
X196429878Y-126239147D01*
X196429878Y-126505814D01*
X196696545Y-126505814D01*
X196963212Y-126505814D01*
X196963212Y-126772480D01*
X196963212Y-127039147D01*
X196696545Y-127039147D01*
X196429878Y-127039147D01*
X196429878Y-127305814D01*
X196429878Y-127572480D01*
X196163212Y-127572480D01*
X195896545Y-127572480D01*
X195896545Y-126772480D01*
X195896545Y-125972480D01*
X195363212Y-125972480D01*
X194829878Y-125972480D01*
X194829878Y-126239147D01*
X194829878Y-126505814D01*
X195096545Y-126505814D01*
X195363212Y-126505814D01*
X195363212Y-126772480D01*
X195363212Y-127039147D01*
X195096545Y-127039147D01*
X194829878Y-127039147D01*
X194829878Y-127305814D01*
X194829878Y-127572480D01*
X194296545Y-127572480D01*
X193763212Y-127572480D01*
X193763212Y-127839147D01*
X193763212Y-128105814D01*
X193229878Y-128105814D01*
X192696545Y-128105814D01*
X192696545Y-127839147D01*
X192696545Y-127572480D01*
X192429878Y-127572480D01*
X192163212Y-127572480D01*
X192163212Y-127039147D01*
X192163212Y-126505814D01*
X192696545Y-126505814D01*
X193229878Y-126505814D01*
X193229878Y-126239147D01*
X193229878Y-125972480D01*
X193763212Y-125972480D01*
X194296545Y-125972480D01*
X194296545Y-125705814D01*
X194296545Y-125439147D01*
X195096545Y-125439147D01*
X195896545Y-125439147D01*
X195896545Y-125705814D01*
X195896545Y-125972480D01*
X196163212Y-125972480D01*
X196429878Y-125972480D01*
X196429878Y-125439147D01*
X196429878Y-124905814D01*
X196696545Y-124905814D01*
X196963212Y-124905814D01*
X196963212Y-125172480D01*
G37*
G36*
X198563212Y-123572480D02*
G01*
X198563212Y-123839147D01*
X199363212Y-123839147D01*
X200163212Y-123839147D01*
X200163212Y-123572480D01*
X200163212Y-123305814D01*
X200429878Y-123305814D01*
X200696545Y-123305814D01*
X200696545Y-123572480D01*
X200696545Y-123839147D01*
X200429878Y-123839147D01*
X200163212Y-123839147D01*
X200163212Y-124105814D01*
X200163212Y-124372480D01*
X199896545Y-124372480D01*
X199629878Y-124372480D01*
X199629878Y-124639147D01*
X199629878Y-124905814D01*
X199896545Y-124905814D01*
X200163212Y-124905814D01*
X200163212Y-124639147D01*
X200163212Y-124372480D01*
X200429878Y-124372480D01*
X200696545Y-124372480D01*
X200696545Y-124105814D01*
X200696545Y-123839147D01*
X200963212Y-123839147D01*
X201229878Y-123839147D01*
X201229878Y-124105814D01*
X201229878Y-124372480D01*
X200963212Y-124372480D01*
X200696545Y-124372480D01*
X200696545Y-124639147D01*
X200696545Y-124905814D01*
X200963212Y-124905814D01*
X201229878Y-124905814D01*
X201229878Y-124639147D01*
X201229878Y-124372480D01*
X201496545Y-124372480D01*
X201763212Y-124372480D01*
X201763212Y-124905814D01*
X201763212Y-125439147D01*
X201496545Y-125439147D01*
X201229878Y-125439147D01*
X201229878Y-125705814D01*
X201229878Y-125972480D01*
X200963212Y-125972480D01*
X200696545Y-125972480D01*
X200696545Y-125439147D01*
X200696545Y-124905814D01*
X200429878Y-124905814D01*
X200163212Y-124905814D01*
X200163212Y-125705814D01*
X200163212Y-126505814D01*
X199896545Y-126505814D01*
X199629878Y-126505814D01*
X199629878Y-125705814D01*
X199629878Y-124905814D01*
X199363212Y-124905814D01*
X199096545Y-124905814D01*
X199096545Y-125439147D01*
X199096545Y-125972480D01*
X198563212Y-125972480D01*
X198029878Y-125972480D01*
X198029878Y-125172480D01*
X198029878Y-124372480D01*
X198296545Y-124372480D01*
X198563212Y-124372480D01*
X198563212Y-124639147D01*
X198563212Y-124905814D01*
X198829878Y-124905814D01*
X199096545Y-124905814D01*
X199096545Y-124639147D01*
X199096545Y-124372480D01*
X198829878Y-124372480D01*
X198563212Y-124372480D01*
X198563212Y-124105814D01*
X198563212Y-123839147D01*
X198296545Y-123839147D01*
X198029878Y-123839147D01*
X198029878Y-123572480D01*
X198029878Y-123305814D01*
X198296545Y-123305814D01*
X198563212Y-123305814D01*
X198563212Y-123572480D01*
G37*
G36*
X198029878Y-121439147D02*
G01*
X198029878Y-121705814D01*
X198296545Y-121705814D01*
X198563212Y-121705814D01*
X198563212Y-121439147D01*
X198563212Y-121172480D01*
X198829878Y-121172480D01*
X199096545Y-121172480D01*
X199096545Y-121439147D01*
X199096545Y-121705814D01*
X199363212Y-121705814D01*
X199629878Y-121705814D01*
X199629878Y-121972480D01*
X199629878Y-122239147D01*
X200163212Y-122239147D01*
X200696545Y-122239147D01*
X200696545Y-121972480D01*
X200696545Y-121705814D01*
X200163212Y-121705814D01*
X199629878Y-121705814D01*
X199629878Y-121439147D01*
X199629878Y-121172480D01*
X200429878Y-121172480D01*
X201229878Y-121172480D01*
X201229878Y-121972480D01*
X201229878Y-122772480D01*
X201496545Y-122772480D01*
X201763212Y-122772480D01*
X201763212Y-122505814D01*
X201763212Y-122239147D01*
X202296545Y-122239147D01*
X202829878Y-122239147D01*
X202829878Y-122505814D01*
X202829878Y-122772480D01*
X202296545Y-122772480D01*
X201763212Y-122772480D01*
X201763212Y-123039147D01*
X201763212Y-123305814D01*
X201496545Y-123305814D01*
X201229878Y-123305814D01*
X201229878Y-123039147D01*
X201229878Y-122772480D01*
X200429878Y-122772480D01*
X199629878Y-122772480D01*
X199629878Y-123039147D01*
X199629878Y-123305814D01*
X199096545Y-123305814D01*
X198563212Y-123305814D01*
X198563212Y-123039147D01*
X198563212Y-122772480D01*
X198829878Y-122772480D01*
X199096545Y-122772480D01*
X199096545Y-122505814D01*
X199096545Y-122239147D01*
X198563212Y-122239147D01*
X198029878Y-122239147D01*
X198029878Y-122772480D01*
X198029878Y-123305814D01*
X197763212Y-123305814D01*
X197496545Y-123305814D01*
X197496545Y-124105814D01*
X197496545Y-124905814D01*
X197229878Y-124905814D01*
X196963212Y-124905814D01*
X196963212Y-124639147D01*
X196963212Y-124372480D01*
X196696545Y-124372480D01*
X196429878Y-124372480D01*
X196429878Y-124639147D01*
X196429878Y-124905814D01*
X196163212Y-124905814D01*
X195896545Y-124905814D01*
X195896545Y-124639147D01*
X195896545Y-124372480D01*
X196163212Y-124372480D01*
X196429878Y-124372480D01*
X196429878Y-124105814D01*
X196429878Y-123839147D01*
X196163212Y-123839147D01*
X195896545Y-123839147D01*
X195896545Y-123305814D01*
X195896545Y-122772480D01*
X196163212Y-122772480D01*
X196429878Y-122772480D01*
X196429878Y-123305814D01*
X196429878Y-123839147D01*
X196696545Y-123839147D01*
X196963212Y-123839147D01*
X196963212Y-123305814D01*
X196963212Y-122772480D01*
X196696545Y-122772480D01*
X196429878Y-122772480D01*
X196429878Y-122505814D01*
X196429878Y-122239147D01*
X196963212Y-122239147D01*
X197496545Y-122239147D01*
X197496545Y-121972480D01*
X197496545Y-121705814D01*
X196963212Y-121705814D01*
X196429878Y-121705814D01*
X196429878Y-121439147D01*
X196429878Y-121172480D01*
X197229878Y-121172480D01*
X198029878Y-121172480D01*
X198029878Y-121439147D01*
G37*
G36*
X199629878Y-126772480D02*
G01*
X199629878Y-127039147D01*
X198829878Y-127039147D01*
X198029878Y-127039147D01*
X198029878Y-127305814D01*
X198029878Y-127572480D01*
X197763212Y-127572480D01*
X197496545Y-127572480D01*
X197496545Y-128372480D01*
X197496545Y-129172480D01*
X197229878Y-129172480D01*
X196963212Y-129172480D01*
X196963212Y-129705814D01*
X196963212Y-130239147D01*
X197229878Y-130239147D01*
X197496545Y-130239147D01*
X197496545Y-130505814D01*
X197496545Y-130772480D01*
X197229878Y-130772480D01*
X196963212Y-130772480D01*
X196963212Y-131039147D01*
X196963212Y-131305814D01*
X196696545Y-131305814D01*
X196429878Y-131305814D01*
X196429878Y-129972480D01*
X196429878Y-128639147D01*
X196163212Y-128639147D01*
X195896545Y-128639147D01*
X195896545Y-129172480D01*
X195896545Y-129705814D01*
X195629878Y-129705814D01*
X195363212Y-129705814D01*
X195363212Y-129972480D01*
X195363212Y-130239147D01*
X195096545Y-130239147D01*
X194829878Y-130239147D01*
X194829878Y-130505814D01*
X194829878Y-130772480D01*
X194563212Y-130772480D01*
X194296545Y-130772480D01*
X194296545Y-131039147D01*
X194296545Y-131305814D01*
X194563212Y-131305814D01*
X194829878Y-131305814D01*
X194829878Y-131572480D01*
X194829878Y-131839147D01*
X195096545Y-131839147D01*
X195363212Y-131839147D01*
X195363212Y-131572480D01*
X195363212Y-131305814D01*
X195096545Y-131305814D01*
X194829878Y-131305814D01*
X194829878Y-131039147D01*
X194829878Y-130772480D01*
X195363212Y-130772480D01*
X195896545Y-130772480D01*
X195896545Y-131305814D01*
X195896545Y-131839147D01*
X195629878Y-131839147D01*
X195363212Y-131839147D01*
X195363212Y-132105814D01*
X195363212Y-132372480D01*
X194829878Y-132372480D01*
X194296545Y-132372480D01*
X194296545Y-132105814D01*
X194296545Y-131839147D01*
X194029878Y-131839147D01*
X193763212Y-131839147D01*
X193763212Y-132105814D01*
X193763212Y-132372480D01*
X193229878Y-132372480D01*
X192696545Y-132372480D01*
X192696545Y-132105814D01*
X192696545Y-131839147D01*
X192963212Y-131839147D01*
X193229878Y-131839147D01*
X193229878Y-131305814D01*
X193229878Y-130772480D01*
X192963212Y-130772480D01*
X192696545Y-130772480D01*
X192696545Y-131039147D01*
X192696545Y-131305814D01*
X192429878Y-131305814D01*
X192163212Y-131305814D01*
X192163212Y-131839147D01*
X192163212Y-132372480D01*
X191896545Y-132372480D01*
X191629878Y-132372480D01*
X191629878Y-131039147D01*
X191629878Y-130239147D01*
X192163212Y-130239147D01*
X192696545Y-130239147D01*
X193229878Y-130239147D01*
X193229878Y-129972480D01*
X193229878Y-129705814D01*
X193763212Y-129705814D01*
X194296545Y-129705814D01*
X194296545Y-129972480D01*
X194296545Y-130239147D01*
X194029878Y-130239147D01*
X193763212Y-130239147D01*
X193763212Y-130505814D01*
X193763212Y-130772480D01*
X194029878Y-130772480D01*
X194296545Y-130772480D01*
X194296545Y-130505814D01*
X194296545Y-130239147D01*
X194563212Y-130239147D01*
X194829878Y-130239147D01*
X194829878Y-129972480D01*
X194829878Y-129705814D01*
X195096545Y-129705814D01*
X195363212Y-129705814D01*
X195363212Y-129439147D01*
X195363212Y-129172480D01*
X195096545Y-129172480D01*
X194829878Y-129172480D01*
X194829878Y-129439147D01*
X194829878Y-129705814D01*
X194563212Y-129705814D01*
X194296545Y-129705814D01*
X194296545Y-129439147D01*
X194296545Y-129172480D01*
X193496545Y-129172480D01*
X192696545Y-129172480D01*
X192696545Y-129439147D01*
X192696545Y-129705814D01*
X192429878Y-129705814D01*
X192163212Y-129705814D01*
X192163212Y-129972480D01*
X192163212Y-130239147D01*
X191629878Y-130239147D01*
X191629878Y-129705814D01*
X191896545Y-129705814D01*
X192163212Y-129705814D01*
X192163212Y-129172480D01*
X192163212Y-128639147D01*
X192963212Y-128639147D01*
X193763212Y-128639147D01*
X193763212Y-128372480D01*
X193763212Y-128105814D01*
X194029878Y-128105814D01*
X194296545Y-128105814D01*
X194296545Y-128372480D01*
X194296545Y-128639147D01*
X195096545Y-128639147D01*
X195896545Y-128639147D01*
X195896545Y-128372480D01*
X195896545Y-128105814D01*
X196163212Y-128105814D01*
X196429878Y-128105814D01*
X196429878Y-127839147D01*
X196429878Y-127572480D01*
X196696545Y-127572480D01*
X196963212Y-127572480D01*
X196963212Y-127305814D01*
X196963212Y-127039147D01*
X197229878Y-127039147D01*
X197496545Y-127039147D01*
X197496545Y-126772480D01*
X197496545Y-126505814D01*
X198563212Y-126505814D01*
X199629878Y-126505814D01*
X199629878Y-126772480D01*
G37*
G36*
X202829878Y-124639147D02*
G01*
X202829878Y-125972480D01*
X202563212Y-125972480D01*
X202296545Y-125972480D01*
X202296545Y-127039147D01*
X202296545Y-128105814D01*
X202563212Y-128105814D01*
X202829878Y-128105814D01*
X202829878Y-127839147D01*
X202829878Y-127572480D01*
X203096545Y-127572480D01*
X203363212Y-127572480D01*
X203363212Y-127305814D01*
X203363212Y-127039147D01*
X203629878Y-127039147D01*
X203896545Y-127039147D01*
X203896545Y-126772480D01*
X203896545Y-126505814D01*
X204429878Y-126505814D01*
X204429878Y-126772480D01*
X204429878Y-127039147D01*
X204696545Y-127039147D01*
X204963212Y-127039147D01*
X204963212Y-126772480D01*
X204963212Y-126505814D01*
X204696545Y-126505814D01*
X204429878Y-126505814D01*
X203896545Y-126505814D01*
X203629878Y-126505814D01*
X203363212Y-126505814D01*
X203363212Y-126239147D01*
X203363212Y-125972480D01*
X203896545Y-125972480D01*
X204429878Y-125972480D01*
X204429878Y-125705814D01*
X204429878Y-125439147D01*
X204963212Y-125439147D01*
X205496545Y-125439147D01*
X205496545Y-125705814D01*
X205496545Y-125972480D01*
X205763212Y-125972480D01*
X206029878Y-125972480D01*
X206029878Y-126505814D01*
X206029878Y-127039147D01*
X205763212Y-127039147D01*
X205496545Y-127039147D01*
X205496545Y-127305814D01*
X205496545Y-127572480D01*
X205763212Y-127572480D01*
X206029878Y-127572480D01*
X206029878Y-127305814D01*
X206029878Y-127039147D01*
X206563212Y-127039147D01*
X207096545Y-127039147D01*
X207096545Y-127572480D01*
X207096545Y-128105814D01*
X206829878Y-128105814D01*
X206563212Y-128105814D01*
X206563212Y-127839147D01*
X206563212Y-127572480D01*
X206296545Y-127572480D01*
X206029878Y-127572480D01*
X206029878Y-127839147D01*
X206029878Y-128105814D01*
X205763212Y-128105814D01*
X205496545Y-128105814D01*
X205496545Y-128372480D01*
X205496545Y-128639147D01*
X206296545Y-128639147D01*
X207096545Y-128639147D01*
X207096545Y-128905814D01*
X207096545Y-129172480D01*
X206563212Y-129172480D01*
X206029878Y-129172480D01*
X206029878Y-129439147D01*
X206029878Y-129705814D01*
X205763212Y-129705814D01*
X205496545Y-129705814D01*
X205496545Y-129439147D01*
X205496545Y-129172480D01*
X205229878Y-129172480D01*
X204963212Y-129172480D01*
X204963212Y-129439147D01*
X204963212Y-129705814D01*
X204696545Y-129705814D01*
X204429878Y-129705814D01*
X204429878Y-129972480D01*
X204429878Y-130239147D01*
X204963212Y-130239147D01*
X205496545Y-130239147D01*
X205496545Y-130505814D01*
X205496545Y-130772480D01*
X204963212Y-130772480D01*
X204429878Y-130772480D01*
X204429878Y-131039147D01*
X204429878Y-131305814D01*
X204696545Y-131305814D01*
X204963212Y-131305814D01*
X204963212Y-131572480D01*
X204963212Y-131839147D01*
X205763212Y-131839147D01*
X206563212Y-131839147D01*
X206563212Y-131305814D01*
X206563212Y-130772480D01*
X206296545Y-130772480D01*
X206029878Y-130772480D01*
X206029878Y-130505814D01*
X206029878Y-130239147D01*
X206563212Y-130239147D01*
X207096545Y-130239147D01*
X207096545Y-131039147D01*
X207096545Y-131839147D01*
X206829878Y-131839147D01*
X206563212Y-131839147D01*
X206563212Y-132105814D01*
X206563212Y-132372480D01*
X206296545Y-132372480D01*
X206029878Y-132372480D01*
X206029878Y-133172480D01*
X206029878Y-133972480D01*
X206296545Y-133972480D01*
X206563212Y-133972480D01*
X206563212Y-133705814D01*
X206563212Y-133439147D01*
X206829878Y-133439147D01*
X207096545Y-133439147D01*
X207096545Y-133705814D01*
X207096545Y-133972480D01*
X206829878Y-133972480D01*
X206563212Y-133972480D01*
X206563212Y-135039147D01*
X206563212Y-136105814D01*
X206296545Y-136105814D01*
X206029878Y-136105814D01*
X206029878Y-136372480D01*
X206029878Y-136639147D01*
X205229878Y-136639147D01*
X204429878Y-136639147D01*
X204429878Y-136372480D01*
X204429878Y-136105814D01*
X204696545Y-136105814D01*
X204963212Y-136105814D01*
X204963212Y-135839147D01*
X204963212Y-135572480D01*
X205229878Y-135572480D01*
X205496545Y-135572480D01*
X205496545Y-135839147D01*
X205496545Y-136105814D01*
X205763212Y-136105814D01*
X206029878Y-136105814D01*
X206029878Y-135839147D01*
X206029878Y-135572480D01*
X205763212Y-135572480D01*
X205496545Y-135572480D01*
X205496545Y-135305814D01*
X205496545Y-135039147D01*
X205763212Y-135039147D01*
X206029878Y-135039147D01*
X206029878Y-134505814D01*
X206029878Y-133972480D01*
X205763212Y-133972480D01*
X205496545Y-133972480D01*
X205496545Y-134239147D01*
X205496545Y-134505814D01*
X204963212Y-134505814D01*
X204429878Y-134505814D01*
X204429878Y-135039147D01*
X204429878Y-135572480D01*
X204163212Y-135572480D01*
X203896545Y-135572480D01*
X203896545Y-136105814D01*
X203896545Y-136639147D01*
X202563212Y-136639147D01*
X201229878Y-136639147D01*
X201229878Y-136372480D01*
X201229878Y-136105814D01*
X200963212Y-136105814D01*
X200696545Y-136105814D01*
X200696545Y-136372480D01*
X200696545Y-136639147D01*
X200163212Y-136639147D01*
X199629878Y-136639147D01*
X199629878Y-136105814D01*
X199629878Y-135572480D01*
X199896545Y-135572480D01*
X200163212Y-135572480D01*
X200163212Y-135839147D01*
X200163212Y-136105814D01*
X200429878Y-136105814D01*
X200696545Y-136105814D01*
X200696545Y-135572480D01*
X200696545Y-135039147D01*
X200963212Y-135039147D01*
X201229878Y-135039147D01*
X201229878Y-135305814D01*
X201229878Y-135572480D01*
X201496545Y-135572480D01*
X201763212Y-135572480D01*
X201763212Y-135839147D01*
X201763212Y-136105814D01*
X202563212Y-136105814D01*
X203363212Y-136105814D01*
X203363212Y-135839147D01*
X203363212Y-135572480D01*
X203096545Y-135572480D01*
X202829878Y-135572480D01*
X202829878Y-135305814D01*
X202829878Y-135039147D01*
X203363212Y-135039147D01*
X203896545Y-135039147D01*
X203896545Y-134772480D01*
X203896545Y-134505814D01*
X203363212Y-134505814D01*
X202829878Y-134505814D01*
X202829878Y-134772480D01*
X202829878Y-135039147D01*
X202563212Y-135039147D01*
X202296545Y-135039147D01*
X202296545Y-134772480D01*
X202296545Y-134505814D01*
X202029878Y-134505814D01*
X201763212Y-134505814D01*
X201763212Y-134239147D01*
X201763212Y-133972480D01*
X202029878Y-133972480D01*
X202296545Y-133972480D01*
X202296545Y-133705814D01*
X202296545Y-133439147D01*
X202029878Y-133439147D01*
X201763212Y-133439147D01*
X201763212Y-133172480D01*
X201763212Y-132905814D01*
X201496545Y-132905814D01*
X201229878Y-132905814D01*
X201229878Y-132639147D01*
X201229878Y-132372480D01*
X201763212Y-132372480D01*
X202296545Y-132372480D01*
X202829878Y-132372480D01*
X202829878Y-133172480D01*
X202829878Y-133972480D01*
X203629878Y-133972480D01*
X204429878Y-133972480D01*
X204429878Y-133439147D01*
X204963212Y-133439147D01*
X204963212Y-133705814D01*
X204963212Y-133972480D01*
X205229878Y-133972480D01*
X205496545Y-133972480D01*
X205496545Y-133705814D01*
X205496545Y-133439147D01*
X205229878Y-133439147D01*
X204963212Y-133439147D01*
X204429878Y-133439147D01*
X204429878Y-133172480D01*
X204429878Y-132372480D01*
X204963212Y-132372480D01*
X204963212Y-132639147D01*
X204963212Y-132905814D01*
X205229878Y-132905814D01*
X205496545Y-132905814D01*
X205496545Y-132639147D01*
X205496545Y-132372480D01*
X205229878Y-132372480D01*
X204963212Y-132372480D01*
X204429878Y-132372480D01*
X203629878Y-132372480D01*
X202829878Y-132372480D01*
X202296545Y-132372480D01*
X202296545Y-132105814D01*
X202296545Y-131839147D01*
X202029878Y-131839147D01*
X201763212Y-131839147D01*
X201763212Y-131572480D01*
X201763212Y-131305814D01*
X202029878Y-131305814D01*
X202296545Y-131305814D01*
X202296545Y-131039147D01*
X202296545Y-130772480D01*
X202029878Y-130772480D01*
X201763212Y-130772480D01*
X201763212Y-130505814D01*
X201763212Y-130239147D01*
X202029878Y-130239147D01*
X202296545Y-130239147D01*
X202296545Y-129972480D01*
X202296545Y-129705814D01*
X202563212Y-129705814D01*
X202829878Y-129705814D01*
X202829878Y-129972480D01*
X202829878Y-130239147D01*
X203096545Y-130239147D01*
X203363212Y-130239147D01*
X203363212Y-130505814D01*
X203363212Y-130772480D01*
X203096545Y-130772480D01*
X202829878Y-130772480D01*
X202829878Y-131305814D01*
X202829878Y-131839147D01*
X203096545Y-131839147D01*
X203363212Y-131839147D01*
X203363212Y-131305814D01*
X203363212Y-130772480D01*
X203629878Y-130772480D01*
X203896545Y-130772480D01*
X203896545Y-129972480D01*
X203896545Y-129172480D01*
X204429878Y-129172480D01*
X204963212Y-129172480D01*
X204963212Y-128639147D01*
X204963212Y-128105814D01*
X204696545Y-128105814D01*
X204429878Y-128105814D01*
X204429878Y-127839147D01*
X204429878Y-127572480D01*
X203896545Y-127572480D01*
X203363212Y-127572480D01*
X203363212Y-127839147D01*
X203363212Y-128105814D01*
X203096545Y-128105814D01*
X202829878Y-128105814D01*
X202829878Y-128372480D01*
X202829878Y-128639147D01*
X202563212Y-128639147D01*
X202296545Y-128639147D01*
X202296545Y-128372480D01*
X202296545Y-128105814D01*
X202029878Y-128105814D01*
X201763212Y-128105814D01*
X201763212Y-127839147D01*
X201763212Y-127572480D01*
X201496545Y-127572480D01*
X201229878Y-127572480D01*
X201229878Y-127839147D01*
X201229878Y-128105814D01*
X200696545Y-128105814D01*
X200163212Y-128105814D01*
X200163212Y-128372480D01*
X200163212Y-128639147D01*
X201229878Y-128639147D01*
X202296545Y-128639147D01*
X202296545Y-129172480D01*
X202296545Y-129705814D01*
X201496545Y-129705814D01*
X200696545Y-129705814D01*
X200696545Y-129439147D01*
X200696545Y-129172480D01*
X200429878Y-129172480D01*
X200163212Y-129172480D01*
X200163212Y-129439147D01*
X200163212Y-129705814D01*
X200429878Y-129705814D01*
X200696545Y-129705814D01*
X200696545Y-130239147D01*
X200696545Y-130772480D01*
X200963212Y-130772480D01*
X201229878Y-130772480D01*
X201229878Y-131039147D01*
X201229878Y-131305814D01*
X200963212Y-131305814D01*
X200696545Y-131305814D01*
X200696545Y-131572480D01*
X200696545Y-131839147D01*
X200429878Y-131839147D01*
X200163212Y-131839147D01*
X200163212Y-132105814D01*
X200163212Y-132372480D01*
X200429878Y-132372480D01*
X200696545Y-132372480D01*
X200696545Y-132639147D01*
X200696545Y-132905814D01*
X200429878Y-132905814D01*
X200163212Y-132905814D01*
X200163212Y-133172480D01*
X200163212Y-133439147D01*
X200429878Y-133439147D01*
X200696545Y-133439147D01*
X200696545Y-134239147D01*
X200696545Y-135039147D01*
X200163212Y-135039147D01*
X199629878Y-135039147D01*
X199629878Y-134239147D01*
X199629878Y-133439147D01*
X199363212Y-133439147D01*
X199096545Y-133439147D01*
X199096545Y-133972480D01*
X199096545Y-134505814D01*
X197763212Y-134505814D01*
X196429878Y-134505814D01*
X196429878Y-134239147D01*
X196429878Y-133972480D01*
X196163212Y-133972480D01*
X195896545Y-133972480D01*
X195896545Y-133172480D01*
X195896545Y-132372480D01*
X196163212Y-132372480D01*
X196429878Y-132372480D01*
X196429878Y-132105814D01*
X196429878Y-131839147D01*
X196696545Y-131839147D01*
X196963212Y-131839147D01*
X196963212Y-131572480D01*
X196963212Y-131305814D01*
X197496545Y-131305814D01*
X198029878Y-131305814D01*
X198029878Y-131839147D01*
X198029878Y-132372480D01*
X197763212Y-132372480D01*
X197496545Y-132372480D01*
X197496545Y-132639147D01*
X197496545Y-132905814D01*
X196963212Y-132905814D01*
X196429878Y-132905814D01*
X196429878Y-133439147D01*
X196429878Y-133972480D01*
X197229878Y-133972480D01*
X198029878Y-133972480D01*
X198029878Y-133705814D01*
X198029878Y-133439147D01*
X198296545Y-133439147D01*
X198563212Y-133439147D01*
X198563212Y-133172480D01*
X198563212Y-132905814D01*
X198296545Y-132905814D01*
X198029878Y-132905814D01*
X198029878Y-132639147D01*
X198029878Y-132372480D01*
X198829878Y-132372480D01*
X199629878Y-132372480D01*
X199629878Y-131839147D01*
X199629878Y-131305814D01*
X199896545Y-131305814D01*
X200163212Y-131305814D01*
X200163212Y-131039147D01*
X200163212Y-130772480D01*
X199896545Y-130772480D01*
X199629878Y-130772480D01*
X199629878Y-131039147D01*
X199629878Y-131305814D01*
X198829878Y-131305814D01*
X198029878Y-131305814D01*
X198029878Y-131039147D01*
X198029878Y-130772480D01*
X198563212Y-130772480D01*
X199096545Y-130772480D01*
X199096545Y-130505814D01*
X199096545Y-130239147D01*
X199363212Y-130239147D01*
X199629878Y-130239147D01*
X199629878Y-129705814D01*
X199629878Y-129172480D01*
X199363212Y-129172480D01*
X199096545Y-129172480D01*
X199096545Y-129439147D01*
X199096545Y-129705814D01*
X198829878Y-129705814D01*
X198563212Y-129705814D01*
X198563212Y-129972480D01*
X198563212Y-130239147D01*
X198296545Y-130239147D01*
X198029878Y-130239147D01*
X198029878Y-129705814D01*
X198029878Y-129172480D01*
X198296545Y-129172480D01*
X198563212Y-129172480D01*
X198563212Y-128905814D01*
X198563212Y-128639147D01*
X198829878Y-128639147D01*
X199096545Y-128639147D01*
X199096545Y-128372480D01*
X199096545Y-128105814D01*
X199363212Y-128105814D01*
X199629878Y-128105814D01*
X199629878Y-127572480D01*
X199629878Y-127039147D01*
X200163212Y-127039147D01*
X200696545Y-127039147D01*
X200696545Y-127305814D01*
X200696545Y-127572480D01*
X200963212Y-127572480D01*
X201229878Y-127572480D01*
X201229878Y-127305814D01*
X201229878Y-127039147D01*
X201496545Y-127039147D01*
X201763212Y-127039147D01*
X201763212Y-126772480D01*
X201763212Y-126505814D01*
X201496545Y-126505814D01*
X201229878Y-126505814D01*
X201229878Y-126239147D01*
X201229878Y-125972480D01*
X201763212Y-125972480D01*
X202296545Y-125972480D01*
X202296545Y-124905814D01*
X202296545Y-123839147D01*
X202029878Y-123839147D01*
X201763212Y-123839147D01*
X201763212Y-123572480D01*
X201763212Y-123305814D01*
X202296545Y-123305814D01*
X202829878Y-123305814D01*
X202829878Y-124639147D01*
G37*
X68004883Y-89305734D02*
X62188094Y-103348703D01*
X62188094Y-103348703D02*
X76231063Y-109165492D01*
X82047852Y-95122523D02*
X68004883Y-89305734D01*
X76231063Y-109165492D02*
X82047852Y-95122523D01*
X146181243Y-92086047D02*
X151998032Y-106129016D01*
X151998032Y-106129016D02*
X166041001Y-100312227D01*
X160224212Y-86269258D02*
X146181243Y-92086047D01*
X166041001Y-100312227D02*
X160224212Y-86269258D01*
X103598737Y-104047861D02*
X97781948Y-118090830D01*
X97781948Y-118090830D02*
X111824917Y-123907619D01*
X117641706Y-109864650D02*
X103598737Y-104047861D01*
X111824917Y-123907619D02*
X117641706Y-109864650D01*
X181897633Y-77302660D02*
X187714422Y-91345629D01*
X187714422Y-91345629D02*
X201757391Y-85528840D01*
X195940602Y-71485871D02*
X181897633Y-77302660D01*
X201757391Y-85528840D02*
X195940602Y-71485871D01*
X170708000Y-43708000D02*
X170708000Y-58908000D01*
X170708000Y-58908000D02*
X185908000Y-58908000D01*
X185908000Y-43708000D02*
X170708000Y-43708000D01*
X185908000Y-58908000D02*
X185908000Y-43708000D01*
X153489730Y-109730300D02*
X159306519Y-123773269D01*
X159306519Y-123773269D02*
X173349488Y-117956480D01*
X167532699Y-103913511D02*
X153489730Y-109730300D01*
X173349488Y-117956480D02*
X167532699Y-103913511D01*
X72926000Y-45750000D02*
X72926000Y-60950000D01*
X72926000Y-60950000D02*
X88126000Y-60950000D01*
X88126000Y-45750000D02*
X72926000Y-45750000D01*
X88126000Y-60950000D02*
X88126000Y-45750000D01*
G36*
X68001116Y-120376462D02*
G01*
X67902667Y-120474154D01*
X67804217Y-120376462D01*
X67902667Y-120278770D01*
X68001116Y-120376462D01*
G37*
G36*
X66207429Y-122650094D02*
G01*
X66360384Y-122793799D01*
X66317161Y-123149872D01*
X66314779Y-123160693D01*
X66199989Y-123646790D01*
X66120308Y-123942231D01*
X65913267Y-124087635D01*
X65506285Y-124170203D01*
X65058514Y-124181468D01*
X64729102Y-124112967D01*
X64653829Y-124020233D01*
X64713698Y-123735274D01*
X64858912Y-123270448D01*
X64869990Y-123238695D01*
X65081960Y-122810160D01*
X65407838Y-122644363D01*
X65759788Y-122623385D01*
X66207429Y-122650094D01*
G37*
G36*
X61994366Y-121508362D02*
G01*
X62233383Y-121724117D01*
X62319278Y-121827932D01*
X62644148Y-122504672D01*
X62612662Y-123223010D01*
X62231104Y-123872206D01*
X62201539Y-123902266D01*
X61605818Y-124305751D01*
X61027960Y-124320292D01*
X60518946Y-123991077D01*
X60196477Y-123436712D01*
X60211470Y-122916462D01*
X60715845Y-122916462D01*
X60814295Y-123014154D01*
X60912744Y-122916462D01*
X60814295Y-122818770D01*
X60715845Y-122916462D01*
X60211470Y-122916462D01*
X60214126Y-122824297D01*
X60544686Y-122236638D01*
X61160949Y-121756543D01*
X61271285Y-121701303D01*
X61727700Y-121507286D01*
X61994366Y-121508362D01*
G37*
G36*
X63619277Y-116043331D02*
G01*
X63502126Y-116316025D01*
X63419638Y-116643402D01*
X63464412Y-116945273D01*
X63591855Y-117096707D01*
X63744397Y-116994779D01*
X63763797Y-116754065D01*
X63719785Y-116712865D01*
X63713653Y-116665282D01*
X63781253Y-116676430D01*
X64094690Y-116672227D01*
X64621771Y-116605870D01*
X64810364Y-116573786D01*
X65342732Y-116503690D01*
X65614840Y-116566453D01*
X65745434Y-116788918D01*
X66001671Y-117091603D01*
X66218183Y-117152616D01*
X66700505Y-117287241D01*
X66894890Y-117665112D01*
X66785745Y-118247222D01*
X66717782Y-118402316D01*
X66431945Y-118912148D01*
X66152698Y-119279852D01*
X66112436Y-119316783D01*
X65856528Y-119636113D01*
X65950320Y-119841754D01*
X66212615Y-119888000D01*
X66562277Y-119990330D01*
X66666035Y-120114336D01*
X66900332Y-120322471D01*
X67167855Y-120405151D01*
X67632421Y-120481159D01*
X67846606Y-120520739D01*
X68037845Y-120479164D01*
X68021418Y-120195649D01*
X67905840Y-119864110D01*
X67944471Y-119584329D01*
X68280034Y-119215692D01*
X68728073Y-118869262D01*
X69501202Y-118347141D01*
X70013250Y-118080840D01*
X70291293Y-118059836D01*
X70363907Y-118233363D01*
X70527435Y-118467305D01*
X70750778Y-118520308D01*
X71178911Y-118681217D01*
X71409123Y-119071071D01*
X71375235Y-119550564D01*
X71305540Y-119688116D01*
X71003588Y-119997958D01*
X70775975Y-120083385D01*
X70594439Y-120147878D01*
X70619512Y-120206767D01*
X70646959Y-120462830D01*
X70473402Y-120793765D01*
X70205093Y-121030029D01*
X70084595Y-121060308D01*
X69825798Y-121223943D01*
X69716158Y-121451077D01*
X69673360Y-121736123D01*
X69771186Y-121800225D01*
X70041264Y-121624429D01*
X70060106Y-121607150D01*
X70577812Y-121607150D01*
X70639062Y-121589494D01*
X70781974Y-121485852D01*
X71221638Y-121339926D01*
X71471121Y-121364767D01*
X71728498Y-121437157D01*
X71650223Y-121361413D01*
X71475298Y-121249197D01*
X71137576Y-121128678D01*
X70834915Y-121318687D01*
X70786150Y-121370282D01*
X70577812Y-121607150D01*
X70060106Y-121607150D01*
X70515226Y-121189782D01*
X71059218Y-120646237D01*
X71665729Y-120063594D01*
X72337427Y-120063594D01*
X72468288Y-119987315D01*
X72554067Y-119924053D01*
X72955355Y-119776913D01*
X73174073Y-119800257D01*
X73489994Y-119813533D01*
X73579565Y-119745888D01*
X73540398Y-119609247D01*
X73267472Y-119585204D01*
X72898614Y-119656969D01*
X72571652Y-119807752D01*
X72490352Y-119878577D01*
X72337427Y-120063594D01*
X71665729Y-120063594D01*
X71871041Y-119866361D01*
X72709217Y-119140151D01*
X73507786Y-118517353D01*
X74200792Y-118047713D01*
X74722279Y-117780974D01*
X74914250Y-117738770D01*
X75227490Y-117887016D01*
X75286388Y-118129539D01*
X75369740Y-118440534D01*
X75637721Y-118473288D01*
X76117216Y-118221956D01*
X76242689Y-118129539D01*
X76763132Y-118129539D01*
X76772133Y-118309870D01*
X76838341Y-118324924D01*
X77116693Y-118182341D01*
X77156930Y-118129539D01*
X77147929Y-117949208D01*
X77081721Y-117934154D01*
X76803369Y-118076737D01*
X76763132Y-118129539D01*
X76242689Y-118129539D01*
X76643167Y-117834566D01*
X77307990Y-117361182D01*
X77744685Y-117181427D01*
X77980352Y-117291338D01*
X78042977Y-117629983D01*
X78093399Y-117954683D01*
X78323314Y-118064232D01*
X78682899Y-118052159D01*
X79457788Y-117941400D01*
X80119041Y-117768455D01*
X80549652Y-117567212D01*
X80629877Y-117488269D01*
X80856723Y-117391505D01*
X81094800Y-117553678D01*
X81193364Y-117847993D01*
X81368046Y-118069842D01*
X81736699Y-118129539D01*
X82286666Y-118285791D01*
X82530966Y-118528256D01*
X82682069Y-118970568D01*
X82475976Y-119304140D01*
X82108487Y-119498539D01*
X81861170Y-119615536D01*
X81948323Y-119665658D01*
X82286155Y-119680231D01*
X82793454Y-119761972D01*
X83122977Y-119927077D01*
X83312842Y-120300595D01*
X83346020Y-120761653D01*
X83216208Y-121113189D01*
X83162357Y-121158000D01*
X82976204Y-121443576D01*
X82972185Y-121832575D01*
X83125202Y-122148833D01*
X83315444Y-122232616D01*
X83923620Y-122406146D01*
X84370742Y-122850452D01*
X84540651Y-123438791D01*
X84582510Y-123849313D01*
X84755212Y-123964638D01*
X84927210Y-123936343D01*
X85378017Y-123970366D01*
X85638556Y-124259006D01*
X85617918Y-124680705D01*
X85562526Y-124785830D01*
X85353395Y-125185346D01*
X85387458Y-125318724D01*
X85525147Y-125261077D01*
X85707343Y-125259176D01*
X85722046Y-125316956D01*
X85573695Y-125597788D01*
X85238109Y-125912738D01*
X84879487Y-126119612D01*
X84771271Y-126140308D01*
X84566900Y-126298002D01*
X84540651Y-126433385D01*
X84382131Y-126689671D01*
X84233682Y-126726462D01*
X84023684Y-126812478D01*
X84036273Y-126902370D01*
X83949604Y-127101930D01*
X83633272Y-127517589D01*
X83136584Y-128089642D01*
X82508852Y-128758385D01*
X82472699Y-128795559D01*
X81830836Y-129460038D01*
X81302893Y-130017399D01*
X80941664Y-130411125D01*
X80799944Y-130584701D01*
X80799566Y-130586663D01*
X80955503Y-130597645D01*
X81170047Y-130543806D01*
X81524440Y-130565393D01*
X81666574Y-130826275D01*
X81535133Y-131204820D01*
X81516034Y-131230122D01*
X81262621Y-131481765D01*
X80788921Y-131895404D01*
X80185294Y-132392872D01*
X80011969Y-132531255D01*
X79320838Y-133080182D01*
X78665540Y-133602386D01*
X78171730Y-133997703D01*
X78114403Y-134043857D01*
X77687846Y-134358956D01*
X77385483Y-134531026D01*
X77339496Y-134541847D01*
X77092391Y-134661066D01*
X76775822Y-134910159D01*
X76325929Y-135227462D01*
X75858258Y-135428800D01*
X75514074Y-135459076D01*
X75454810Y-135425384D01*
X75406551Y-135190103D01*
X75391674Y-134696643D01*
X75401113Y-134339484D01*
X75412794Y-133758409D01*
X75353939Y-133474697D01*
X75186998Y-133396313D01*
X75021548Y-133409250D01*
X74684926Y-133359433D01*
X74569127Y-133076462D01*
X76467783Y-133076462D01*
X76566233Y-133174154D01*
X76664682Y-133076462D01*
X76566233Y-132978770D01*
X76467783Y-133076462D01*
X74569127Y-133076462D01*
X74547790Y-133024323D01*
X74542117Y-132978770D01*
X74450933Y-132253211D01*
X74336491Y-131875717D01*
X74128399Y-131806393D01*
X73756263Y-132005343D01*
X73339996Y-132297465D01*
X72608834Y-132764747D01*
X72095137Y-132953746D01*
X71751454Y-132875311D01*
X71601633Y-132694823D01*
X71453316Y-132573042D01*
X71186637Y-132633561D01*
X70723537Y-132902621D01*
X70459679Y-133078685D01*
X69711425Y-133539388D01*
X69203111Y-133746281D01*
X68951121Y-133697032D01*
X68971842Y-133389308D01*
X69015718Y-133284306D01*
X69129062Y-132780127D01*
X69077727Y-132453922D01*
X68894400Y-131993313D01*
X68815847Y-131630668D01*
X68813326Y-131611077D01*
X68667797Y-131427862D01*
X68309760Y-131555949D01*
X67840125Y-131904154D01*
X67290640Y-132290846D01*
X66946125Y-132367844D01*
X66820050Y-132132416D01*
X66819721Y-132111070D01*
X66720687Y-131772352D01*
X66423020Y-131768908D01*
X65925877Y-132101020D01*
X65411811Y-132580344D01*
X64896321Y-133062845D01*
X64468274Y-133396470D01*
X64213360Y-133515213D01*
X64201171Y-133512890D01*
X63979967Y-133266560D01*
X63811420Y-132787482D01*
X63736685Y-132233512D01*
X63768980Y-131855169D01*
X63740065Y-131720156D01*
X63516386Y-131836180D01*
X63074991Y-132219461D01*
X62593820Y-132685554D01*
X61785691Y-133428864D01*
X61185802Y-133845954D01*
X60788600Y-133938768D01*
X60588531Y-133709253D01*
X60561272Y-133397696D01*
X60530034Y-132916075D01*
X60446116Y-132629136D01*
X60426309Y-132330202D01*
X60529809Y-131822974D01*
X60605138Y-131582839D01*
X60765905Y-131070683D01*
X60837541Y-130740159D01*
X60831778Y-130684067D01*
X60678229Y-130778682D01*
X60359606Y-131090243D01*
X60157366Y-131311438D01*
X59714434Y-131785854D01*
X59462291Y-131971937D01*
X59353637Y-131892612D01*
X59337550Y-131708770D01*
X59260726Y-131494998D01*
X59731349Y-131494998D01*
X60486493Y-130763292D01*
X61241637Y-130031586D01*
X61203617Y-128973385D01*
X61553097Y-128973385D01*
X61568946Y-129375503D01*
X61613566Y-129479290D01*
X61638727Y-129415278D01*
X61675403Y-128946075D01*
X61642701Y-128633740D01*
X61590832Y-128525452D01*
X61558204Y-128760293D01*
X61553097Y-128973385D01*
X61203617Y-128973385D01*
X61152428Y-127548639D01*
X61119443Y-126517719D01*
X61113320Y-125803858D01*
X61142474Y-125333774D01*
X61215319Y-125034187D01*
X61340266Y-124831815D01*
X61480230Y-124693487D01*
X61897240Y-124321282D01*
X61897240Y-127160718D01*
X61902577Y-128327059D01*
X61929991Y-129163549D01*
X61996587Y-129731071D01*
X62119468Y-130090512D01*
X62315739Y-130302757D01*
X62602505Y-130428691D01*
X62832512Y-130489950D01*
X63040962Y-130523907D01*
X63172319Y-130456037D01*
X63246013Y-130216458D01*
X63281473Y-129735284D01*
X63298130Y-128942632D01*
X63299990Y-128808555D01*
X63302201Y-128613342D01*
X64285232Y-128613342D01*
X64297587Y-129287226D01*
X64324939Y-129682218D01*
X64332818Y-129723024D01*
X64492748Y-130138883D01*
X64731907Y-130211243D01*
X65032000Y-130061719D01*
X65164217Y-129908377D01*
X65222282Y-129610074D01*
X65210198Y-129087908D01*
X65131964Y-128262977D01*
X65125966Y-128208557D01*
X65058951Y-127456700D01*
X65038388Y-126879119D01*
X65066042Y-126563973D01*
X65092368Y-126531077D01*
X65238556Y-126682717D01*
X65244527Y-126740789D01*
X65377648Y-127013240D01*
X65726223Y-127465482D01*
X66214068Y-128018381D01*
X66765001Y-128592801D01*
X67302839Y-129109608D01*
X67751400Y-129489666D01*
X68034500Y-129653840D01*
X68050341Y-129655336D01*
X68343013Y-129606208D01*
X68394915Y-129550153D01*
X68286646Y-129295087D01*
X68003336Y-128819867D01*
X67607231Y-128216203D01*
X67160576Y-127575805D01*
X66725616Y-126990384D01*
X66364596Y-126551648D01*
X66345804Y-126531077D01*
X66257412Y-126433385D01*
X68001116Y-126433385D01*
X68099566Y-126531077D01*
X68198015Y-126433385D01*
X68099566Y-126335693D01*
X68001116Y-126433385D01*
X66257412Y-126433385D01*
X65769569Y-125894212D01*
X65431869Y-125477012D01*
X65297840Y-125217898D01*
X65332617Y-125055292D01*
X65454087Y-124956101D01*
X65755311Y-124848730D01*
X66156794Y-124790654D01*
X66530545Y-124785301D01*
X66748575Y-124836101D01*
X66721271Y-124922146D01*
X66478952Y-125193597D01*
X66273805Y-125509717D01*
X66120080Y-125813777D01*
X66197644Y-125838267D01*
X66381515Y-125731715D01*
X66669090Y-125471365D01*
X67085398Y-125471365D01*
X67175343Y-125478609D01*
X67415054Y-125255876D01*
X67729645Y-124870308D01*
X68001116Y-124870308D01*
X68099566Y-124968000D01*
X68198015Y-124870308D01*
X68099566Y-124772616D01*
X68001116Y-124870308D01*
X67729645Y-124870308D01*
X67754811Y-124839464D01*
X67833773Y-124731428D01*
X68055692Y-124382784D01*
X68084490Y-124243857D01*
X68039840Y-124260406D01*
X67836112Y-124297845D01*
X67836166Y-124115573D01*
X68023267Y-123851866D01*
X68171379Y-123513472D01*
X68155874Y-123377164D01*
X68009347Y-123321095D01*
X67740988Y-123618276D01*
X67706269Y-123669820D01*
X67484004Y-124079570D01*
X67513165Y-124308012D01*
X67594684Y-124374098D01*
X67731899Y-124558068D01*
X67629398Y-124661382D01*
X67367950Y-124930586D01*
X67194934Y-125197845D01*
X67085398Y-125471365D01*
X66669090Y-125471365D01*
X66740041Y-125407131D01*
X67046223Y-124967048D01*
X67227472Y-124541748D01*
X67211203Y-124261516D01*
X67204620Y-124254362D01*
X67102341Y-123979604D01*
X67015827Y-123449759D01*
X66978674Y-123014154D01*
X66918171Y-121939539D01*
X65756153Y-121985438D01*
X65122108Y-122022420D01*
X64667972Y-122071299D01*
X64513885Y-122110971D01*
X64469983Y-122337349D01*
X64426918Y-122880088D01*
X64386461Y-123664781D01*
X64350381Y-124617023D01*
X64320448Y-125662407D01*
X64298433Y-126726526D01*
X64286104Y-127734973D01*
X64285232Y-128613342D01*
X63302201Y-128613342D01*
X63312821Y-127675800D01*
X63311295Y-126754204D01*
X63289856Y-126042616D01*
X63866233Y-126042616D01*
X63964682Y-126140308D01*
X64063132Y-126042616D01*
X63964682Y-125944924D01*
X63866233Y-126042616D01*
X63289856Y-126042616D01*
X63287327Y-125958684D01*
X63232831Y-125204160D01*
X63139724Y-124405550D01*
X62999919Y-123477774D01*
X62805333Y-122335751D01*
X62682212Y-121646462D01*
X68334898Y-121646462D01*
X68463448Y-123879904D01*
X68565017Y-125319282D01*
X68700800Y-126773308D01*
X68857976Y-128125291D01*
X69023717Y-129258542D01*
X69101441Y-129684994D01*
X69205880Y-130030029D01*
X69410432Y-130101061D01*
X69784187Y-129984081D01*
X70054443Y-129839895D01*
X70805981Y-129839895D01*
X70832914Y-129852616D01*
X71012602Y-129715069D01*
X71053054Y-129657231D01*
X71103228Y-129474568D01*
X71076295Y-129461847D01*
X70896608Y-129599393D01*
X70856155Y-129657231D01*
X70805981Y-129839895D01*
X70054443Y-129839895D01*
X70188249Y-129768507D01*
X70363684Y-129547629D01*
X70363907Y-129541268D01*
X70302168Y-129229950D01*
X70146859Y-128713246D01*
X70068558Y-128484924D01*
X69859042Y-127757260D01*
X69781216Y-127169204D01*
X69840260Y-126804376D01*
X69959583Y-126726462D01*
X70155678Y-126877599D01*
X70487287Y-127272974D01*
X70865015Y-127801435D01*
X71329039Y-128476744D01*
X71631716Y-128845758D01*
X71818855Y-128934517D01*
X71936266Y-128769058D01*
X72014126Y-128454608D01*
X72045547Y-128082150D01*
X71938319Y-127728666D01*
X71642683Y-127287298D01*
X71623204Y-127263824D01*
X73186190Y-127263824D01*
X73197232Y-127743472D01*
X73204404Y-127801077D01*
X73303581Y-128411994D01*
X73411594Y-129088703D01*
X73416524Y-129119924D01*
X73532139Y-129852616D01*
X74901511Y-129852616D01*
X76270884Y-129852616D01*
X76270850Y-129754924D01*
X79815070Y-129754924D01*
X79913519Y-129852616D01*
X80011969Y-129754924D01*
X79913519Y-129657231D01*
X79815070Y-129754924D01*
X76270850Y-129754924D01*
X76270595Y-129022231D01*
X76270307Y-128191847D01*
X75452919Y-128136084D01*
X74807850Y-128068729D01*
X74463223Y-127926283D01*
X74325711Y-127629047D01*
X74301891Y-127153138D01*
X74301891Y-126430569D01*
X75212101Y-126502404D01*
X75902091Y-126492501D01*
X76292350Y-126294068D01*
X76450933Y-125858243D01*
X76464768Y-125603000D01*
X76426820Y-125341236D01*
X76242193Y-125210602D01*
X75811746Y-125166695D01*
X75483287Y-125163385D01*
X74498791Y-125163385D01*
X74498791Y-124284154D01*
X74498791Y-123404924D01*
X75483287Y-123404924D01*
X76083028Y-123380203D01*
X76381621Y-123285101D01*
X76469751Y-123088206D01*
X76470472Y-123063000D01*
X76523705Y-122593579D01*
X76588787Y-122295650D01*
X77801976Y-122295650D01*
X77933587Y-122731083D01*
X78161005Y-123332397D01*
X78404444Y-124018059D01*
X78571332Y-124682717D01*
X78681021Y-125442647D01*
X78752862Y-126414130D01*
X78782762Y-127068385D01*
X78829763Y-128083619D01*
X78882301Y-128769309D01*
X78951141Y-129186646D01*
X79047050Y-129396820D01*
X79180796Y-129461023D01*
X79203891Y-129461847D01*
X79348712Y-129420475D01*
X79437504Y-129251591D01*
X79478426Y-128888040D01*
X79479637Y-128262666D01*
X79477435Y-128191847D01*
X81390264Y-128191847D01*
X81488713Y-128289539D01*
X81587163Y-128191847D01*
X81488713Y-128094154D01*
X81390264Y-128191847D01*
X79477435Y-128191847D01*
X79453138Y-127410308D01*
X79427593Y-126465473D01*
X79439017Y-125850165D01*
X79456740Y-125736818D01*
X80454043Y-125736818D01*
X80480976Y-125749539D01*
X80660664Y-125611992D01*
X80701116Y-125554154D01*
X80751290Y-125371491D01*
X80724357Y-125358770D01*
X80544670Y-125496317D01*
X80504217Y-125554154D01*
X80454043Y-125736818D01*
X79456740Y-125736818D01*
X79493084Y-125504377D01*
X79595466Y-125368104D01*
X79647088Y-125358770D01*
X79859021Y-125214832D01*
X80230378Y-124840487D01*
X80689766Y-124321937D01*
X81165794Y-123745382D01*
X81587069Y-123197023D01*
X81882199Y-122763064D01*
X81980961Y-122540770D01*
X81803921Y-122476443D01*
X81349279Y-122454222D01*
X80952936Y-122466636D01*
X79924912Y-122525693D01*
X79640223Y-123502616D01*
X79355534Y-124479539D01*
X79071830Y-123356077D01*
X78870598Y-122721370D01*
X78660634Y-122323480D01*
X78530105Y-122232616D01*
X78121635Y-122165072D01*
X77953341Y-122111243D01*
X77811904Y-122108702D01*
X77801976Y-122295650D01*
X76588787Y-122295650D01*
X76591886Y-122281462D01*
X76632463Y-122063027D01*
X76558951Y-121932405D01*
X76297123Y-121867042D01*
X75772753Y-121844384D01*
X75145121Y-121841847D01*
X73579631Y-121841847D01*
X73343765Y-124528385D01*
X73263371Y-125564382D01*
X73209541Y-126506828D01*
X73186190Y-127263824D01*
X71623204Y-127263824D01*
X71250502Y-126814694D01*
X70806658Y-126272022D01*
X70488635Y-125831398D01*
X70363964Y-125586550D01*
X70363907Y-125584188D01*
X70468682Y-125337489D01*
X70746359Y-124864351D01*
X71141962Y-124257030D01*
X71241152Y-124111979D01*
X71675056Y-123472322D01*
X71911578Y-123064485D01*
X71978192Y-122799485D01*
X71902374Y-122588338D01*
X71766795Y-122409620D01*
X71415195Y-121978751D01*
X70755214Y-122890688D01*
X70381295Y-123355378D01*
X70088300Y-123625519D01*
X69963250Y-123652620D01*
X69838190Y-123388308D01*
X69669037Y-122885491D01*
X69579749Y-122574539D01*
X69397179Y-122008310D01*
X69200550Y-121731627D01*
X68912372Y-121648368D01*
X68831565Y-121646462D01*
X68334898Y-121646462D01*
X62682212Y-121646462D01*
X62629863Y-121353385D01*
X63078636Y-121353385D01*
X63177085Y-121451077D01*
X63275535Y-121353385D01*
X63177085Y-121255693D01*
X63078636Y-121353385D01*
X62629863Y-121353385D01*
X62547999Y-120895067D01*
X62435321Y-120458563D01*
X62233719Y-120313736D01*
X61843806Y-120357759D01*
X61234847Y-120437386D01*
X60545714Y-120473904D01*
X60494333Y-120474154D01*
X59731349Y-120474154D01*
X59731349Y-125984576D01*
X59731349Y-131494998D01*
X59260726Y-131494998D01*
X59244043Y-131448576D01*
X59164760Y-131415693D01*
X58908151Y-131549368D01*
X58746853Y-131708770D01*
X58436172Y-131972226D01*
X58216602Y-131874118D01*
X58057705Y-131415693D01*
X57864079Y-130965069D01*
X57522295Y-130829539D01*
X57031175Y-130654308D01*
X56706285Y-130167657D01*
X56587223Y-129443292D01*
X56716033Y-128835564D01*
X56919290Y-128387231D01*
X58746853Y-128387231D01*
X58845302Y-128484924D01*
X58943752Y-128387231D01*
X58845302Y-128289539D01*
X58746853Y-128387231D01*
X56919290Y-128387231D01*
X57083410Y-128025226D01*
X57647872Y-127084398D01*
X58367938Y-126085199D01*
X58872495Y-125470139D01*
X59310027Y-124904125D01*
X59512797Y-124524431D01*
X59489205Y-124367759D01*
X59247650Y-124470812D01*
X58796530Y-124870291D01*
X58746853Y-124921092D01*
X58319473Y-125392419D01*
X58033443Y-125765268D01*
X57959256Y-125920472D01*
X57803627Y-126159879D01*
X57414235Y-126498237D01*
X56907320Y-126855396D01*
X56399121Y-127151210D01*
X56005878Y-127305533D01*
X55940181Y-127312616D01*
X55734261Y-127265461D01*
X55633020Y-127064056D01*
X55611351Y-126618491D01*
X55626444Y-126189154D01*
X55701516Y-125489346D01*
X55838096Y-124894554D01*
X55945839Y-124641060D01*
X56108712Y-124339589D01*
X56016412Y-124275328D01*
X55834405Y-124314584D01*
X55571035Y-124310528D01*
X55417800Y-124064181D01*
X55336732Y-123682551D01*
X55298472Y-123306498D01*
X55356402Y-122984018D01*
X55556882Y-122622959D01*
X55946271Y-122131168D01*
X56351989Y-121664412D01*
X57193585Y-120678867D01*
X57589058Y-120181077D01*
X59337550Y-120181077D01*
X59436000Y-120278770D01*
X59534450Y-120181077D01*
X59436000Y-120083385D01*
X59337550Y-120181077D01*
X57589058Y-120181077D01*
X57770353Y-119952878D01*
X64101590Y-119952878D01*
X64102922Y-120080177D01*
X64137472Y-120083385D01*
X64301832Y-119949864D01*
X64482046Y-119741462D01*
X64652334Y-119510030D01*
X64550371Y-119558547D01*
X64407705Y-119667693D01*
X64101590Y-119952878D01*
X57770353Y-119952878D01*
X57885887Y-119807453D01*
X58395325Y-119096054D01*
X58688331Y-118590551D01*
X58746853Y-118390999D01*
X58839485Y-118227231D01*
X60912744Y-118227231D01*
X61011194Y-118324924D01*
X61109643Y-118227231D01*
X61011194Y-118129539D01*
X60912744Y-118227231D01*
X58839485Y-118227231D01*
X58902563Y-118115713D01*
X59164412Y-117921535D01*
X59435304Y-117818452D01*
X59466541Y-117885119D01*
X59550983Y-118018409D01*
X59913894Y-118086209D01*
X59935027Y-118086929D01*
X60346533Y-118046091D01*
X60518940Y-117924756D01*
X60518946Y-117923931D01*
X60580105Y-117836462D01*
X61503442Y-117836462D01*
X61601891Y-117934154D01*
X61700341Y-117836462D01*
X61601891Y-117738770D01*
X61503442Y-117836462D01*
X60580105Y-117836462D01*
X60667849Y-117710970D01*
X61039084Y-117400083D01*
X61179361Y-117301999D01*
X61760967Y-116908860D01*
X62432854Y-116449986D01*
X62660107Y-116293639D01*
X63243061Y-115939374D01*
X63565818Y-115856019D01*
X63619277Y-116043331D01*
G37*
X189838000Y-43698000D02*
X189838000Y-58898000D01*
X189838000Y-58898000D02*
X205038000Y-58898000D01*
X205038000Y-43698000D02*
X189838000Y-43698000D01*
X205038000Y-58898000D02*
X205038000Y-43698000D01*
X164227641Y-84632634D02*
X170044430Y-98675603D01*
X170044430Y-98675603D02*
X184087399Y-92858814D01*
X178270610Y-78815845D02*
X164227641Y-84632634D01*
X184087399Y-92858814D02*
X178270610Y-78815845D01*
X53401000Y-45730000D02*
X53401000Y-60930000D01*
X53401000Y-60930000D02*
X68601000Y-60930000D01*
X68601000Y-45730000D02*
X53401000Y-45730000D01*
X68601000Y-60930000D02*
X68601000Y-45730000D01*
X130260882Y-103639998D02*
X136077671Y-117682967D01*
X136077671Y-117682967D02*
X150120640Y-111866178D01*
X144303851Y-97823209D02*
X130260882Y-103639998D01*
X150120640Y-111866178D02*
X144303851Y-97823209D01*
%TD*%
M02*
