%TF.GenerationSoftware,KiCad,Pcbnew,7.0.5*%
%TF.CreationDate,2023-08-06T16:06:22-05:00*%
%TF.ProjectId,NanoSwap,4e616e6f-5377-4617-902e-6b696361645f,rev?*%
%TF.SameCoordinates,Original*%
%TF.FileFunction,Soldermask,Bot*%
%TF.FilePolarity,Negative*%
%FSLAX46Y46*%
G04 Gerber Fmt 4.6, Leading zero omitted, Abs format (unit mm)*
G04 Created by KiCad (PCBNEW 7.0.5) date 2023-08-06 16:06:22*
%MOMM*%
%LPD*%
G01*
G04 APERTURE LIST*
G04 Aperture macros list*
%AMRoundRect*
0 Rectangle with rounded corners*
0 $1 Rounding radius*
0 $2 $3 $4 $5 $6 $7 $8 $9 X,Y pos of 4 corners*
0 Add a 4 corners polygon primitive as box body*
4,1,4,$2,$3,$4,$5,$6,$7,$8,$9,$2,$3,0*
0 Add four circle primitives for the rounded corners*
1,1,$1+$1,$2,$3*
1,1,$1+$1,$4,$5*
1,1,$1+$1,$6,$7*
1,1,$1+$1,$8,$9*
0 Add four rect primitives between the rounded corners*
20,1,$1+$1,$2,$3,$4,$5,0*
20,1,$1+$1,$4,$5,$6,$7,0*
20,1,$1+$1,$6,$7,$8,$9,0*
20,1,$1+$1,$8,$9,$2,$3,0*%
G04 Aperture macros list end*
%ADD10C,1.900000*%
%ADD11C,1.600000*%
%ADD12C,3.050000*%
%ADD13C,5.050000*%
%ADD14RoundRect,0.250000X-1.025000X-1.000000X1.025000X-1.000000X1.025000X1.000000X-1.025000X1.000000X0*%
%ADD15O,1.800000X1.800000*%
%ADD16O,1.500000X1.500000*%
%ADD17O,1.700000X1.700000*%
%ADD18R,1.700000X1.700000*%
%ADD19C,3.500000*%
%ADD20RoundRect,0.250000X-1.329660X-0.531629X0.564293X-1.316130X1.329660X0.531629X-0.564293X1.316130X0*%
%ADD21RoundRect,0.250000X-0.564293X-1.316130X1.329660X-0.531629X0.564293X1.316130X-1.329660X0.531629X0*%
G04 APERTURE END LIST*
D10*
%TO.C,*%
X153685810Y-51298000D03*
D11*
X154185810Y-56448000D03*
D12*
X159185810Y-45398000D03*
D13*
X159185810Y-51298000D03*
D12*
X164185810Y-47498000D03*
D10*
X164685810Y-51298000D03*
D14*
X155685810Y-45298000D03*
X167685810Y-47498000D03*
%TD*%
D15*
%TO.C,*%
X125037000Y-38230000D03*
D16*
X125337000Y-41260000D03*
X130187000Y-41260000D03*
D15*
X130487000Y-38230000D03*
D17*
X118872000Y-38100000D03*
X118872000Y-40640000D03*
D18*
X118872000Y-43180000D03*
D17*
X118872000Y-45720000D03*
X118872000Y-48260000D03*
X118872000Y-50800000D03*
X118872000Y-53340000D03*
D18*
X118872000Y-55880000D03*
D17*
X118872000Y-58420000D03*
X118872000Y-60960000D03*
X118872000Y-63500000D03*
X118872000Y-66040000D03*
D18*
X118872000Y-68580000D03*
D17*
X118872000Y-71120000D03*
X118872000Y-73660000D03*
X118872000Y-76200000D03*
X118872000Y-78740000D03*
D18*
X118872000Y-81280000D03*
D17*
X118872000Y-83820000D03*
X118872000Y-86360000D03*
X136652000Y-86360000D03*
X136652000Y-83820000D03*
D18*
X136652000Y-81280000D03*
D17*
X136652000Y-78740000D03*
X136652000Y-76200000D03*
X136652000Y-73660000D03*
X136652000Y-71120000D03*
D18*
X136652000Y-68580000D03*
D17*
X136652000Y-66040000D03*
X136652000Y-63500000D03*
X136652000Y-60960000D03*
X136652000Y-58420000D03*
D18*
X136652000Y-55880000D03*
D17*
X136652000Y-53340000D03*
X136652000Y-50800000D03*
X136652000Y-48260000D03*
X136652000Y-45720000D03*
D18*
X136652000Y-43180000D03*
D17*
X136652000Y-40640000D03*
X136652000Y-38100000D03*
X125222000Y-86130000D03*
D18*
X127762000Y-86130000D03*
D17*
X130302000Y-86130000D03*
%TD*%
D19*
%TO.C,*%
X49276000Y-41148000D03*
%TD*%
D10*
%TO.C,*%
X84833326Y-104502482D03*
D11*
X83324446Y-109451803D03*
D12*
X92172495Y-101156352D03*
D13*
X89914663Y-106607241D03*
D12*
X95988258Y-105009916D03*
D10*
X94996000Y-108712000D03*
D20*
X88977185Y-99724572D03*
X99221836Y-106349308D03*
%TD*%
D19*
%TO.C,REF\u002A\u002A*%
X51308000Y-135636000D03*
%TD*%
D10*
%TO.C,*%
X142417912Y-127502099D03*
D11*
X144850671Y-132068737D03*
D12*
X145241417Y-119946451D03*
D13*
X147499249Y-125397340D03*
D12*
X150664450Y-119973181D03*
D10*
X152580586Y-123292581D03*
D21*
X141969570Y-121193455D03*
X153898028Y-118633789D03*
%TD*%
D10*
%TO.C,*%
X92227326Y-86881745D03*
D11*
X90718446Y-91831066D03*
D12*
X99566495Y-83535615D03*
D13*
X97308663Y-88986504D03*
D12*
X103382258Y-87389179D03*
D10*
X102390000Y-91091263D03*
D20*
X96371185Y-82103835D03*
X106615836Y-88728571D03*
%TD*%
D19*
%TO.C,REF\u002A\u002A*%
X215900000Y-136144000D03*
%TD*%
D10*
%TO.C,*%
X94156000Y-53340000D03*
D11*
X94656000Y-58490000D03*
D12*
X99656000Y-47440000D03*
D13*
X99656000Y-53340000D03*
D12*
X104656000Y-49540000D03*
D10*
X105156000Y-53340000D03*
D14*
X96156000Y-47340000D03*
X108156000Y-49540000D03*
%TD*%
D10*
%TO.C,*%
X176384674Y-108494732D03*
D11*
X178817433Y-113061370D03*
D12*
X179208179Y-100939084D03*
D13*
X181466011Y-106389973D03*
D12*
X184631212Y-100965814D03*
D10*
X186547348Y-104285214D03*
D21*
X175936332Y-102186088D03*
X187864790Y-99626422D03*
%TD*%
D10*
%TO.C,*%
X194054663Y-101164759D03*
D11*
X196487422Y-105731397D03*
D12*
X196878168Y-93609111D03*
D13*
X199136000Y-99060000D03*
D12*
X202301201Y-93635841D03*
D10*
X204217337Y-96955241D03*
D21*
X193606321Y-94856115D03*
X205534779Y-92296449D03*
%TD*%
D10*
%TO.C,*%
X67036636Y-97130854D03*
D11*
X65527756Y-102080175D03*
D12*
X74375805Y-93784724D03*
D13*
X72117973Y-99235613D03*
D12*
X78191568Y-97638288D03*
D10*
X77199310Y-101340372D03*
D20*
X71180495Y-92352944D03*
X81425146Y-98977680D03*
%TD*%
D10*
%TO.C,*%
X151029785Y-98303896D03*
D11*
X153462544Y-102870534D03*
D12*
X153853290Y-90748248D03*
D13*
X156111122Y-96199137D03*
D12*
X159276323Y-90774978D03*
D10*
X161192459Y-94094378D03*
D21*
X150581443Y-91995252D03*
X162509901Y-89435586D03*
%TD*%
D10*
%TO.C,*%
X102630490Y-111872981D03*
D11*
X101121610Y-116822302D03*
D12*
X109969659Y-108526851D03*
D13*
X107711827Y-113977740D03*
D12*
X113785422Y-112380415D03*
D10*
X112793164Y-116082499D03*
D20*
X106774349Y-107095071D03*
X117019000Y-113719807D03*
%TD*%
D19*
%TO.C,REF\u002A\u002A*%
X216916000Y-41148000D03*
%TD*%
D10*
%TO.C,*%
X186746175Y-83520509D03*
D11*
X189178934Y-88087147D03*
D12*
X189569680Y-75964861D03*
D13*
X191827512Y-81415750D03*
D12*
X194992713Y-75991591D03*
D10*
X196908849Y-79310991D03*
D21*
X186297833Y-77211865D03*
X198226291Y-74652199D03*
%TD*%
D10*
%TO.C,*%
X172808000Y-51308000D03*
D11*
X173308000Y-56458000D03*
D12*
X178308000Y-45408000D03*
D13*
X178308000Y-51308000D03*
D12*
X183308000Y-47508000D03*
D10*
X183808000Y-51308000D03*
D14*
X174808000Y-45308000D03*
X186808000Y-47508000D03*
%TD*%
D10*
%TO.C,*%
X158338272Y-115948149D03*
D11*
X160771031Y-120514787D03*
D12*
X161161777Y-108392501D03*
D13*
X163419609Y-113843390D03*
D12*
X166584810Y-108419231D03*
D10*
X168500946Y-111738631D03*
D21*
X157889930Y-109639505D03*
X169818388Y-107079839D03*
%TD*%
D10*
%TO.C,*%
X75026000Y-53350000D03*
D11*
X75526000Y-58500000D03*
D12*
X80526000Y-47450000D03*
D13*
X80526000Y-53350000D03*
D12*
X85526000Y-49550000D03*
D10*
X86026000Y-53350000D03*
D14*
X77026000Y-47350000D03*
X89026000Y-49550000D03*
%TD*%
D10*
%TO.C,*%
X191938000Y-51298000D03*
D11*
X192438000Y-56448000D03*
D12*
X197438000Y-45398000D03*
D13*
X197438000Y-51298000D03*
D12*
X202438000Y-47498000D03*
D10*
X202938000Y-51298000D03*
D14*
X193938000Y-45298000D03*
X205938000Y-47498000D03*
%TD*%
D10*
%TO.C,*%
X169076183Y-90850483D03*
D11*
X171508942Y-95417121D03*
D12*
X171899688Y-83294835D03*
D13*
X174157520Y-88745724D03*
D12*
X177322721Y-83321565D03*
D10*
X179238857Y-86640965D03*
D21*
X168627841Y-84541839D03*
X180556299Y-81982173D03*
%TD*%
D10*
%TO.C,*%
X55501000Y-53330000D03*
D11*
X56001000Y-58480000D03*
D12*
X61001000Y-47430000D03*
D13*
X61001000Y-53330000D03*
D12*
X66001000Y-49530000D03*
D10*
X66501000Y-53330000D03*
D14*
X57501000Y-47330000D03*
X69501000Y-49530000D03*
%TD*%
D10*
%TO.C,*%
X135109424Y-109857847D03*
D11*
X137542183Y-114424485D03*
D12*
X137932929Y-102302199D03*
D13*
X140190761Y-107753088D03*
D12*
X143355962Y-102328929D03*
D10*
X145272098Y-105648329D03*
D21*
X134661082Y-103549203D03*
X146589540Y-100989537D03*
%TD*%
M02*
