M48
; DRILL file {KiCad 7.0.5} date Sun Aug  6 16:06:23 2023
; FORMAT={-:-/ absolute / inch / decimal}
; #@! TF.CreationDate,2023-08-06T16:06:23-05:00
; #@! TF.GenerationSoftware,Kicad,Pcbnew,7.0.5
; #@! TF.FileFunction,Plated,1,2,PTH
FMAT,2
INCH
; #@! TA.AperFunction,Plated,PTH,ViaDrill
T1C0.0157
; #@! TA.AperFunction,Plated,PTH,ComponentDrill
T2C0.0402
%
G90
G05
T1
X2.7711Y-1.8596
X3.26Y-3.8
X3.5311Y-1.8596
X4.0Y-4.12
X4.2911Y-1.8596
X4.32Y-3.42
X4.76Y-4.48
X5.7489Y-3.835
X6.18Y-5.28
X6.3689Y-3.355
X6.6Y-2.4
X6.6889Y-4.055
X7.0889Y-3.075
X7.36Y-2.46
X7.3889Y-3.775
X7.7889Y-2.795
X8.0689Y-3.495
X8.1Y-2.52
T2
X4.68Y-1.5
X4.68Y-1.6
X4.68Y-1.7
X4.68Y-1.8
X4.68Y-1.9
X4.68Y-2.0
X4.68Y-2.1
X4.68Y-2.2
X4.68Y-2.3
X4.68Y-2.4
X4.68Y-2.5
X4.68Y-2.6
X4.68Y-2.7
X4.68Y-2.8
X4.68Y-2.9
X4.68Y-3.0
X4.68Y-3.1
X4.68Y-3.2
X4.68Y-3.3
X4.68Y-3.4
X4.93Y-3.3909
X5.03Y-3.3909
X5.13Y-3.3909
X5.38Y-1.5
X5.38Y-1.6
X5.38Y-1.7
X5.38Y-1.8
X5.38Y-1.9
X5.38Y-2.0
X5.38Y-2.1
X5.38Y-2.2
X5.38Y-2.3
X5.38Y-2.4
X5.38Y-2.5
X5.38Y-2.6
X5.38Y-2.7
X5.38Y-2.8
X5.38Y-2.9
X5.38Y-3.0
X5.38Y-3.1
X5.38Y-3.2
X5.38Y-3.3
X5.38Y-3.4
T0
M30
