%TF.GenerationSoftware,KiCad,Pcbnew,7.0.5*%
%TF.CreationDate,2023-08-06T16:06:21-05:00*%
%TF.ProjectId,NanoSwap,4e616e6f-5377-4617-902e-6b696361645f,rev?*%
%TF.SameCoordinates,Original*%
%TF.FileFunction,Copper,L2,Bot*%
%TF.FilePolarity,Positive*%
%FSLAX46Y46*%
G04 Gerber Fmt 4.6, Leading zero omitted, Abs format (unit mm)*
G04 Created by KiCad (PCBNEW 7.0.5) date 2023-08-06 16:06:21*
%MOMM*%
%LPD*%
G01*
G04 APERTURE LIST*
G04 Aperture macros list*
%AMRoundRect*
0 Rectangle with rounded corners*
0 $1 Rounding radius*
0 $2 $3 $4 $5 $6 $7 $8 $9 X,Y pos of 4 corners*
0 Add a 4 corners polygon primitive as box body*
4,1,4,$2,$3,$4,$5,$6,$7,$8,$9,$2,$3,0*
0 Add four circle primitives for the rounded corners*
1,1,$1+$1,$2,$3*
1,1,$1+$1,$4,$5*
1,1,$1+$1,$6,$7*
1,1,$1+$1,$8,$9*
0 Add four rect primitives between the rounded corners*
20,1,$1+$1,$2,$3,$4,$5,0*
20,1,$1+$1,$4,$5,$6,$7,0*
20,1,$1+$1,$6,$7,$8,$9,0*
20,1,$1+$1,$8,$9,$2,$3,0*%
G04 Aperture macros list end*
%TA.AperFunction,SMDPad,CuDef*%
%ADD10RoundRect,0.250000X-1.025000X-1.000000X1.025000X-1.000000X1.025000X1.000000X-1.025000X1.000000X0*%
%TD*%
%TA.AperFunction,ComponentPad*%
%ADD11O,1.700000X1.700000*%
%TD*%
%TA.AperFunction,ComponentPad*%
%ADD12R,1.700000X1.700000*%
%TD*%
%TA.AperFunction,SMDPad,CuDef*%
%ADD13RoundRect,0.250000X-1.329660X-0.531629X0.564293X-1.316130X1.329660X0.531629X-0.564293X1.316130X0*%
%TD*%
%TA.AperFunction,SMDPad,CuDef*%
%ADD14RoundRect,0.250000X-0.564293X-1.316130X1.329660X-0.531629X0.564293X1.316130X-1.329660X0.531629X0*%
%TD*%
%TA.AperFunction,ViaPad*%
%ADD15C,0.800000*%
%TD*%
%TA.AperFunction,Conductor*%
%ADD16C,0.140000*%
%TD*%
G04 APERTURE END LIST*
D10*
%TO.P,,1*%
%TO.N,N/C*%
X155685810Y-45298000D03*
%TO.P,,2*%
X167685810Y-47498000D03*
%TD*%
D11*
%TO.P,,1*%
%TO.N,N/C*%
X118872000Y-38100000D03*
%TO.P,,2*%
X118872000Y-40640000D03*
D12*
%TO.P,,3*%
X118872000Y-43180000D03*
D11*
%TO.P,,4*%
X118872000Y-45720000D03*
%TO.P,,5*%
X118872000Y-48260000D03*
%TO.P,,6*%
X118872000Y-50800000D03*
%TO.P,,7*%
X118872000Y-53340000D03*
D12*
%TO.P,,8*%
X118872000Y-55880000D03*
D11*
%TO.P,,9*%
X118872000Y-58420000D03*
%TO.P,,10*%
X118872000Y-60960000D03*
%TO.P,,11*%
X118872000Y-63500000D03*
%TO.P,,12*%
X118872000Y-66040000D03*
D12*
%TO.P,,13*%
X118872000Y-68580000D03*
D11*
%TO.P,,14*%
X118872000Y-71120000D03*
%TO.P,,15*%
X118872000Y-73660000D03*
%TO.P,,16*%
X118872000Y-76200000D03*
%TO.P,,17*%
X118872000Y-78740000D03*
D12*
%TO.P,,18*%
X118872000Y-81280000D03*
D11*
%TO.P,,19*%
X118872000Y-83820000D03*
%TO.P,,20*%
X118872000Y-86360000D03*
%TO.P,,21*%
X136652000Y-86360000D03*
%TO.P,,22*%
X136652000Y-83820000D03*
D12*
%TO.P,,23*%
X136652000Y-81280000D03*
D11*
%TO.P,,24*%
X136652000Y-78740000D03*
%TO.P,,25*%
X136652000Y-76200000D03*
%TO.P,,26*%
X136652000Y-73660000D03*
%TO.P,,27*%
X136652000Y-71120000D03*
D12*
%TO.P,,28*%
X136652000Y-68580000D03*
D11*
%TO.P,,29*%
X136652000Y-66040000D03*
%TO.P,,30*%
X136652000Y-63500000D03*
%TO.P,,31*%
X136652000Y-60960000D03*
%TO.P,,32*%
X136652000Y-58420000D03*
D12*
%TO.P,,33*%
X136652000Y-55880000D03*
D11*
%TO.P,,34*%
X136652000Y-53340000D03*
%TO.P,,35*%
X136652000Y-50800000D03*
%TO.P,,36*%
X136652000Y-48260000D03*
%TO.P,,37*%
X136652000Y-45720000D03*
D12*
%TO.P,,38*%
X136652000Y-43180000D03*
D11*
%TO.P,,39*%
X136652000Y-40640000D03*
%TO.P,,40*%
X136652000Y-38100000D03*
%TO.P,,41*%
X125222000Y-86130000D03*
D12*
%TO.P,,42*%
X127762000Y-86130000D03*
D11*
%TO.P,,43*%
X130302000Y-86130000D03*
%TD*%
D13*
%TO.P,,1*%
%TO.N,N/C*%
X88977185Y-99724572D03*
%TO.P,,2*%
X99221836Y-106349308D03*
%TD*%
D14*
%TO.P,,1*%
%TO.N,N/C*%
X141969570Y-121193455D03*
%TO.P,,2*%
X153898028Y-118633789D03*
%TD*%
D13*
%TO.P,,1*%
%TO.N,N/C*%
X96371185Y-82103835D03*
%TO.P,,2*%
X106615836Y-88728571D03*
%TD*%
D10*
%TO.P,,1*%
%TO.N,N/C*%
X96156000Y-47340000D03*
%TO.P,,2*%
X108156000Y-49540000D03*
%TD*%
D14*
%TO.P,,1*%
%TO.N,N/C*%
X175936332Y-102186088D03*
%TO.P,,2*%
X187864790Y-99626422D03*
%TD*%
%TO.P,,1*%
%TO.N,N/C*%
X193606321Y-94856115D03*
%TO.P,,2*%
X205534779Y-92296449D03*
%TD*%
D13*
%TO.P,,1*%
%TO.N,N/C*%
X71180495Y-92352944D03*
%TO.P,,2*%
X81425146Y-98977680D03*
%TD*%
D14*
%TO.P,,1*%
%TO.N,N/C*%
X150581443Y-91995252D03*
%TO.P,,2*%
X162509901Y-89435586D03*
%TD*%
D13*
%TO.P,,1*%
%TO.N,N/C*%
X106774349Y-107095071D03*
%TO.P,,2*%
X117019000Y-113719807D03*
%TD*%
D14*
%TO.P,,1*%
%TO.N,N/C*%
X186297833Y-77211865D03*
%TO.P,,2*%
X198226291Y-74652199D03*
%TD*%
D10*
%TO.P,,1*%
%TO.N,N/C*%
X174808000Y-45308000D03*
%TO.P,,2*%
X186808000Y-47508000D03*
%TD*%
D14*
%TO.P,,1*%
%TO.N,N/C*%
X157889930Y-109639505D03*
%TO.P,,2*%
X169818388Y-107079839D03*
%TD*%
D10*
%TO.P,,1*%
%TO.N,N/C*%
X77026000Y-47350000D03*
%TO.P,,2*%
X89026000Y-49550000D03*
%TD*%
%TO.P,,1*%
%TO.N,N/C*%
X193938000Y-45298000D03*
%TO.P,,2*%
X205938000Y-47498000D03*
%TD*%
D14*
%TO.P,,1*%
%TO.N,N/C*%
X168627841Y-84541839D03*
%TO.P,,2*%
X180556299Y-81982173D03*
%TD*%
D10*
%TO.P,,1*%
%TO.N,N/C*%
X57501000Y-47330000D03*
%TO.P,,2*%
X69501000Y-49530000D03*
%TD*%
D14*
%TO.P,,1*%
%TO.N,N/C*%
X134661082Y-103549203D03*
%TO.P,,2*%
X146589540Y-100989537D03*
%TD*%
D15*
%TO.N,*%
X169899212Y-102997814D03*
X109728000Y-86868000D03*
X186944000Y-62484000D03*
X108993190Y-47234000D03*
X120904000Y-113792000D03*
X205740000Y-64008000D03*
X70385190Y-47234000D03*
X180059212Y-78105814D03*
X204951212Y-88773814D03*
X82804000Y-96520000D03*
X146023212Y-97409814D03*
X101600000Y-104648000D03*
X187679212Y-95885814D03*
X197839212Y-70993814D03*
X156972000Y-134112000D03*
X161771212Y-85217814D03*
X167640000Y-60960000D03*
X89689190Y-47234000D03*
%TD*%
D16*
%TO.N,*%
X106774349Y-100997651D02*
X112776000Y-94996000D01*
X167640000Y-99568000D02*
X163068000Y-104140000D01*
X59436000Y-43180000D02*
X78740000Y-43180000D01*
X150368000Y-43180000D02*
X136652000Y-43180000D01*
X135128000Y-118364000D02*
X132588000Y-115824000D01*
X205534779Y-92296449D02*
X205534779Y-89357381D01*
X155685810Y-45298000D02*
X153567810Y-43180000D01*
X98044000Y-43180000D02*
X118872000Y-43180000D01*
X114808000Y-81280000D02*
X118872000Y-81280000D01*
X146023212Y-100423209D02*
X146023212Y-97409814D01*
X98552000Y-77724000D02*
X110744000Y-77724000D01*
X180556299Y-78602901D02*
X180059212Y-78105814D01*
X79248000Y-84328000D02*
X79226719Y-84306719D01*
X143764000Y-87376000D02*
X143764000Y-85344000D01*
X159004000Y-104140000D02*
X153504495Y-109639505D01*
X143764000Y-85344000D02*
X139700000Y-81280000D01*
X85809439Y-77724000D02*
X98552000Y-77724000D01*
X187864790Y-99626422D02*
X187864790Y-96071392D01*
X69501000Y-49530000D02*
X70385190Y-48645810D01*
X99898692Y-106349308D02*
X101600000Y-104648000D01*
X174808000Y-45308000D02*
X172680000Y-43180000D01*
X77026000Y-47350000D02*
X77026000Y-44894000D01*
X185928000Y-92456000D02*
X182372000Y-96012000D01*
X149860000Y-109639505D02*
X148424495Y-109639505D01*
X193938000Y-45298000D02*
X191820000Y-43180000D01*
X148424495Y-109639505D02*
X139700000Y-118364000D01*
X108476407Y-86868000D02*
X109728000Y-86868000D01*
X88977185Y-99724572D02*
X88977185Y-96089185D01*
X173318244Y-99568000D02*
X169672000Y-99568000D01*
X183896000Y-74676000D02*
X157988000Y-74676000D01*
X163068000Y-104140000D02*
X159004000Y-104140000D01*
X79226719Y-84306719D02*
X85809439Y-77724000D01*
X139700000Y-81280000D02*
X139192000Y-81280000D01*
X205534779Y-89357381D02*
X204951212Y-88773814D01*
X137957455Y-121193455D02*
X132588000Y-115824000D01*
X156972000Y-134112000D02*
X156972000Y-121707761D01*
X182372000Y-96012000D02*
X177292000Y-96012000D01*
X173736000Y-99568000D02*
X169672000Y-99568000D01*
X168627841Y-84541839D02*
X165366002Y-81280000D01*
X186944000Y-47644000D02*
X186808000Y-47508000D01*
X96371185Y-82103835D02*
X96371185Y-78380815D01*
X139192000Y-81280000D02*
X136652000Y-81280000D01*
X191206206Y-92456000D02*
X185928000Y-92456000D01*
X177292000Y-96012000D02*
X173736000Y-99568000D01*
X97028000Y-77724000D02*
X98552000Y-77724000D01*
X134661082Y-103549203D02*
X134661082Y-96478918D01*
X108156000Y-48071190D02*
X108993190Y-47234000D01*
X70385190Y-48645810D02*
X70385190Y-47234000D01*
X151384000Y-81280000D02*
X150368000Y-81280000D01*
X169899212Y-106999015D02*
X169899212Y-102997814D01*
X89026000Y-49550000D02*
X89026000Y-47897190D01*
X172680000Y-43180000D02*
X170688000Y-43180000D01*
X106615836Y-88728571D02*
X108476407Y-86868000D01*
X186297833Y-77211865D02*
X186297833Y-77077833D01*
X150368000Y-81280000D02*
X139192000Y-81280000D01*
X153567810Y-43180000D02*
X150368000Y-43180000D01*
X167640000Y-60960000D02*
X167685810Y-60914190D01*
X150415252Y-91995252D02*
X143764000Y-85344000D01*
X81425146Y-97898854D02*
X82804000Y-96520000D01*
X141969570Y-121193455D02*
X137957455Y-121193455D01*
X96156000Y-45068000D02*
X98044000Y-43180000D01*
X191820000Y-43180000D02*
X170688000Y-43180000D01*
X79248000Y-86360000D02*
X79248000Y-84328000D01*
X205740000Y-47696000D02*
X205938000Y-47498000D01*
X169672000Y-99568000D02*
X167640000Y-99568000D01*
X57501000Y-45115000D02*
X59436000Y-43180000D01*
X169818388Y-107079839D02*
X169899212Y-106999015D01*
X112776000Y-94996000D02*
X112776000Y-83312000D01*
X106774349Y-107095071D02*
X106774349Y-100997651D01*
X134661082Y-96478918D02*
X135128000Y-96012000D01*
X96371185Y-78380815D02*
X97028000Y-77724000D01*
X114300000Y-81280000D02*
X114808000Y-81280000D01*
X153504495Y-109639505D02*
X149860000Y-109639505D01*
X120831807Y-113719807D02*
X120904000Y-113792000D01*
X88977185Y-96089185D02*
X79248000Y-86360000D01*
X186297833Y-77077833D02*
X183896000Y-74676000D01*
X162509901Y-85956503D02*
X161771212Y-85217814D01*
X157988000Y-74676000D02*
X151384000Y-81280000D01*
X167685810Y-60914190D02*
X167685810Y-47498000D01*
X175936332Y-102186088D02*
X173318244Y-99568000D01*
X165366002Y-81280000D02*
X150368000Y-81280000D01*
X71180495Y-92352944D02*
X79226719Y-84306719D01*
X162509901Y-89435586D02*
X162509901Y-85956503D01*
X108156000Y-49540000D02*
X108156000Y-48071190D01*
X170688000Y-43180000D02*
X150368000Y-43180000D01*
X186944000Y-62484000D02*
X186944000Y-47644000D01*
X205740000Y-64008000D02*
X205740000Y-47696000D01*
X198226291Y-71380893D02*
X197839212Y-70993814D01*
X127000000Y-104140000D02*
X135128000Y-96012000D01*
X127000000Y-110236000D02*
X127000000Y-104140000D01*
X112776000Y-83312000D02*
X114808000Y-81280000D01*
X150581443Y-91995252D02*
X150415252Y-91995252D01*
X78740000Y-43180000D02*
X98044000Y-43180000D01*
X96156000Y-47340000D02*
X96156000Y-45068000D01*
X99221836Y-106349308D02*
X99898692Y-106349308D01*
X198226291Y-74652199D02*
X198226291Y-71380893D01*
X157889930Y-109639505D02*
X149860000Y-109639505D01*
X81425146Y-98977680D02*
X81425146Y-97898854D01*
X117019000Y-113719807D02*
X120831807Y-113719807D01*
X77026000Y-44894000D02*
X78740000Y-43180000D01*
X57501000Y-47330000D02*
X57501000Y-45115000D01*
X156972000Y-121707761D02*
X153898028Y-118633789D01*
X180556299Y-81982173D02*
X180556299Y-78602901D01*
X187864790Y-96071392D02*
X187679212Y-95885814D01*
X193606321Y-94856115D02*
X191206206Y-92456000D01*
X135128000Y-96012000D02*
X143764000Y-87376000D01*
X139700000Y-118364000D02*
X135128000Y-118364000D01*
X132588000Y-115824000D02*
X127000000Y-110236000D01*
X89026000Y-47897190D02*
X89689190Y-47234000D01*
X110744000Y-77724000D02*
X114300000Y-81280000D01*
X146589540Y-100989537D02*
X146023212Y-100423209D01*
%TD*%
M02*
