%TF.GenerationSoftware,KiCad,Pcbnew,7.0.5*%
%TF.CreationDate,2023-08-06T16:06:21-05:00*%
%TF.ProjectId,NanoSwap,4e616e6f-5377-4617-902e-6b696361645f,rev?*%
%TF.SameCoordinates,Original*%
%TF.FileFunction,Copper,L1,Top*%
%TF.FilePolarity,Positive*%
%FSLAX46Y46*%
G04 Gerber Fmt 4.6, Leading zero omitted, Abs format (unit mm)*
G04 Created by KiCad (PCBNEW 7.0.5) date 2023-08-06 16:06:21*
%MOMM*%
%LPD*%
G01*
G04 APERTURE LIST*
%TA.AperFunction,ComponentPad*%
%ADD10O,1.700000X1.700000*%
%TD*%
%TA.AperFunction,SMDPad,CuDef*%
%ADD11R,3.500000X1.700000*%
%TD*%
%TA.AperFunction,ComponentPad*%
%ADD12R,1.700000X1.700000*%
%TD*%
%TA.AperFunction,SMDPad,CuDef*%
%ADD13R,1.700000X3.500000*%
%TD*%
%TA.AperFunction,ViaPad*%
%ADD14C,0.800000*%
%TD*%
%TA.AperFunction,Conductor*%
%ADD15C,0.140000*%
%TD*%
G04 APERTURE END LIST*
D10*
%TO.P,,1*%
%TO.N,N/C*%
X118872000Y-38100000D03*
D11*
X117972000Y-38100000D03*
D10*
%TO.P,,2*%
X118872000Y-40640000D03*
D11*
X117972000Y-40640000D03*
D12*
%TO.P,,3*%
X118872000Y-43180000D03*
D11*
X117972000Y-43180000D03*
D10*
%TO.P,,4*%
X118872000Y-45720000D03*
D11*
X117972000Y-45720000D03*
D10*
%TO.P,,5*%
X118872000Y-48260000D03*
D11*
X117972000Y-48260000D03*
D10*
%TO.P,,6*%
X118872000Y-50800000D03*
D11*
X117972000Y-50800000D03*
D10*
%TO.P,,7*%
X118872000Y-53340000D03*
D11*
X117972000Y-53340000D03*
D12*
%TO.P,,8*%
X118872000Y-55880000D03*
D11*
X117972000Y-55880000D03*
D10*
%TO.P,,9*%
X118872000Y-58420000D03*
D11*
X117972000Y-58420000D03*
D10*
%TO.P,,10*%
X118872000Y-60960000D03*
D11*
X117972000Y-60960000D03*
D10*
%TO.P,,11*%
X118872000Y-63500000D03*
D11*
X117972000Y-63500000D03*
D10*
%TO.P,,12*%
X118872000Y-66040000D03*
D11*
X117972000Y-66040000D03*
D12*
%TO.P,,13*%
X118872000Y-68580000D03*
D11*
X117972000Y-68580000D03*
D10*
%TO.P,,14*%
X118872000Y-71120000D03*
D11*
X117972000Y-71120000D03*
D10*
%TO.P,,15*%
X118872000Y-73660000D03*
D11*
X117972000Y-73660000D03*
D10*
%TO.P,,16*%
X118872000Y-76200000D03*
D11*
X117972000Y-76200000D03*
D10*
%TO.P,,17*%
X118872000Y-78740000D03*
D11*
X117972000Y-78740000D03*
D12*
%TO.P,,18*%
X118872000Y-81280000D03*
D11*
X117972000Y-81280000D03*
D10*
%TO.P,,19*%
X118872000Y-83820000D03*
D11*
X117972000Y-83820000D03*
D10*
%TO.P,,20*%
X118872000Y-86360000D03*
D11*
X117972000Y-86360000D03*
D10*
%TO.P,,21*%
X136652000Y-86360000D03*
D11*
X137552000Y-86360000D03*
D10*
%TO.P,,22*%
X136652000Y-83820000D03*
D11*
X137552000Y-83820000D03*
D12*
%TO.P,,23*%
X136652000Y-81280000D03*
D11*
X137552000Y-81280000D03*
D10*
%TO.P,,24*%
X136652000Y-78740000D03*
D11*
X137552000Y-78740000D03*
D10*
%TO.P,,25*%
X136652000Y-76200000D03*
D11*
X137552000Y-76200000D03*
D10*
%TO.P,,26*%
X136652000Y-73660000D03*
D11*
X137552000Y-73660000D03*
D10*
%TO.P,,27*%
X136652000Y-71120000D03*
D11*
X137552000Y-71120000D03*
D12*
%TO.P,,28*%
X136652000Y-68580000D03*
D11*
X137552000Y-68580000D03*
D10*
%TO.P,,29*%
X136652000Y-66040000D03*
D11*
X137552000Y-66040000D03*
D10*
%TO.P,,30*%
X136652000Y-63500000D03*
D11*
X137552000Y-63500000D03*
D10*
%TO.P,,31*%
X136652000Y-60960000D03*
D11*
X137552000Y-60960000D03*
D10*
%TO.P,,32*%
X136652000Y-58420000D03*
D11*
X137552000Y-58420000D03*
D12*
%TO.P,,33*%
X136652000Y-55880000D03*
D11*
X137552000Y-55880000D03*
D10*
%TO.P,,34*%
X136652000Y-53340000D03*
D11*
X137552000Y-53340000D03*
D10*
%TO.P,,35*%
X136652000Y-50800000D03*
D11*
X137552000Y-50800000D03*
D10*
%TO.P,,36*%
X136652000Y-48260000D03*
D11*
X137552000Y-48260000D03*
D10*
%TO.P,,37*%
X136652000Y-45720000D03*
D11*
X137552000Y-45720000D03*
D12*
%TO.P,,38*%
X136652000Y-43180000D03*
D11*
X137552000Y-43180000D03*
D10*
%TO.P,,39*%
X136652000Y-40640000D03*
D11*
X137552000Y-40640000D03*
D10*
%TO.P,,40*%
X136652000Y-38100000D03*
D11*
X137552000Y-38100000D03*
D10*
%TO.P,,41*%
X125222000Y-86130000D03*
D13*
X125222000Y-87030000D03*
D12*
%TO.P,,42*%
X127762000Y-86130000D03*
D13*
X127762000Y-87030000D03*
D10*
%TO.P,,43*%
X130302000Y-86130000D03*
D13*
X130302000Y-87030000D03*
%TD*%
D14*
%TO.N,*%
X169899212Y-102997814D03*
X109728000Y-86868000D03*
X186944000Y-62484000D03*
X108993190Y-47234000D03*
X120904000Y-113792000D03*
X205740000Y-64008000D03*
X70385190Y-47234000D03*
X180059212Y-78105814D03*
X204951212Y-88773814D03*
X82804000Y-96520000D03*
X146023212Y-97409814D03*
X101600000Y-104648000D03*
X187679212Y-95885814D03*
X197839212Y-70993814D03*
X156972000Y-134112000D03*
X161771212Y-85217814D03*
X167640000Y-60960000D03*
X89689190Y-47234000D03*
%TD*%
D15*
%TO.N,*%
X143256000Y-71628000D02*
X142748000Y-71120000D01*
X166624000Y-96012000D02*
X166624000Y-87884000D01*
X133096000Y-136652000D02*
X133096000Y-126492000D01*
X205740000Y-64008000D02*
X149352000Y-64008000D01*
X93980000Y-40640000D02*
X118872000Y-40640000D01*
X141224000Y-73660000D02*
X136652000Y-73660000D01*
X156972000Y-134112000D02*
X154432000Y-136652000D01*
X94996000Y-73660000D02*
X118872000Y-73660000D01*
X109728000Y-80772000D02*
X114300000Y-76200000D01*
X141732000Y-73152000D02*
X141224000Y-73660000D01*
X146023212Y-97409814D02*
X146023212Y-95731212D01*
X178308000Y-73152000D02*
X141732000Y-73152000D01*
X187679212Y-95885814D02*
X187679212Y-92683212D01*
X125476000Y-118872000D02*
X125476000Y-97028000D01*
X111252000Y-81788000D02*
X114300000Y-78740000D01*
X184404000Y-89408000D02*
X184404000Y-79248000D01*
X101600000Y-102108000D02*
X111252000Y-92456000D01*
X109728000Y-86868000D02*
X109728000Y-80772000D01*
X101600000Y-104648000D02*
X101600000Y-102108000D01*
X178153398Y-76200000D02*
X136652000Y-76200000D01*
X82804000Y-85852000D02*
X94996000Y-73660000D01*
X146304000Y-60960000D02*
X136652000Y-60960000D01*
X166624000Y-87884000D02*
X157480000Y-78740000D01*
X160373398Y-83820000D02*
X136652000Y-83820000D01*
X150368000Y-62484000D02*
X146304000Y-58420000D01*
X82804000Y-96520000D02*
X82804000Y-85852000D01*
X114300000Y-76200000D02*
X118872000Y-76200000D01*
X111252000Y-92456000D02*
X111252000Y-81788000D01*
X187679212Y-92683212D02*
X184404000Y-89408000D01*
X186944000Y-62484000D02*
X150368000Y-62484000D01*
X118872000Y-92456000D02*
X118872000Y-86360000D01*
X149352000Y-64008000D02*
X146304000Y-60960000D01*
X133096000Y-126492000D02*
X125476000Y-118872000D01*
X204951212Y-88773814D02*
X204951212Y-70331212D01*
X204951212Y-70331212D02*
X200660000Y-66040000D01*
X89689190Y-47234000D02*
X89689190Y-44930810D01*
X89689190Y-44930810D02*
X93980000Y-40640000D01*
X114300000Y-85344000D02*
X115824000Y-83820000D01*
X157480000Y-78740000D02*
X136652000Y-78740000D01*
X169899212Y-99287212D02*
X166624000Y-96012000D01*
X169899212Y-102997814D02*
X169899212Y-99287212D01*
X142748000Y-71120000D02*
X136652000Y-71120000D01*
X167640000Y-60960000D02*
X151892000Y-60960000D01*
X115824000Y-83820000D02*
X118872000Y-83820000D01*
X184404000Y-79248000D02*
X178308000Y-73152000D01*
X151892000Y-60960000D02*
X144272000Y-53340000D01*
X110507190Y-45720000D02*
X118872000Y-45720000D01*
X161771212Y-85217814D02*
X160373398Y-83820000D01*
X125476000Y-97028000D02*
X124968000Y-96520000D01*
X200660000Y-66040000D02*
X136652000Y-66040000D01*
X146304000Y-58420000D02*
X136652000Y-58420000D01*
X108993190Y-47234000D02*
X110507190Y-45720000D01*
X197839212Y-70993814D02*
X197205026Y-71628000D01*
X70385190Y-43914810D02*
X76200000Y-38100000D01*
X197205026Y-71628000D02*
X143256000Y-71628000D01*
X146023212Y-95731212D02*
X136652000Y-86360000D01*
X70385190Y-47234000D02*
X70385190Y-43914810D01*
X122936000Y-96520000D02*
X118872000Y-92456000D01*
X144272000Y-53340000D02*
X136652000Y-53340000D01*
X120904000Y-97536000D02*
X114300000Y-90932000D01*
X114300000Y-78740000D02*
X118872000Y-78740000D01*
X180059212Y-78105814D02*
X178153398Y-76200000D01*
X120904000Y-113792000D02*
X120904000Y-97536000D01*
X76200000Y-38100000D02*
X118872000Y-38100000D01*
X114300000Y-90932000D02*
X114300000Y-85344000D01*
X124968000Y-96520000D02*
X122936000Y-96520000D01*
X154432000Y-136652000D02*
X133096000Y-136652000D01*
%TD*%
M02*
